%TF.GenerationSoftware,KiCad,Pcbnew,6.0.7-f9a2dced07~116~ubuntu20.04.1*%
%TF.CreationDate,2022-08-19T11:38:41-05:00*%
%TF.ProjectId,sma-u-fl,736d612d-752d-4666-9c2e-6b696361645f,rev?*%
%TF.SameCoordinates,Original*%
%TF.FileFunction,Legend,Top*%
%TF.FilePolarity,Positive*%
%FSLAX46Y46*%
G04 Gerber Fmt 4.6, Leading zero omitted, Abs format (unit mm)*
G04 Created by KiCad (PCBNEW 6.0.7-f9a2dced07~116~ubuntu20.04.1) date 2022-08-19 11:38:41*
%MOMM*%
%LPD*%
G01*
G04 APERTURE LIST*
%ADD10C,0.150000*%
%ADD11C,0.120000*%
G04 APERTURE END LIST*
D10*
X108542857Y-76800000D02*
X108571428Y-76714285D01*
X108571428Y-76571428D01*
X108542857Y-76514285D01*
X108514285Y-76485714D01*
X108457142Y-76457142D01*
X108400000Y-76457142D01*
X108342857Y-76485714D01*
X108314285Y-76514285D01*
X108285714Y-76571428D01*
X108257142Y-76685714D01*
X108228571Y-76742857D01*
X108200000Y-76771428D01*
X108142857Y-76800000D01*
X108085714Y-76800000D01*
X108028571Y-76771428D01*
X108000000Y-76742857D01*
X107971428Y-76685714D01*
X107971428Y-76542857D01*
X108000000Y-76457142D01*
X108571428Y-76200000D02*
X107971428Y-76200000D01*
X108400000Y-76000000D01*
X107971428Y-75800000D01*
X108571428Y-75800000D01*
X108400000Y-75542857D02*
X108400000Y-75257142D01*
X108571428Y-75600000D02*
X107971428Y-75400000D01*
X108571428Y-75200000D01*
X108342857Y-75000000D02*
X108342857Y-74542857D01*
X107971428Y-74257142D02*
X108457142Y-74257142D01*
X108514285Y-74228571D01*
X108542857Y-74200000D01*
X108571428Y-74142857D01*
X108571428Y-74028571D01*
X108542857Y-73971428D01*
X108514285Y-73942857D01*
X108457142Y-73914285D01*
X107971428Y-73914285D01*
X108514285Y-73628571D02*
X108542857Y-73600000D01*
X108571428Y-73628571D01*
X108542857Y-73657142D01*
X108514285Y-73628571D01*
X108571428Y-73628571D01*
X108257142Y-73142857D02*
X108257142Y-73342857D01*
X108571428Y-73342857D02*
X107971428Y-73342857D01*
X107971428Y-73057142D01*
X108571428Y-72542857D02*
X108571428Y-72828571D01*
X107971428Y-72828571D01*
%TO.C,J1*%
X100166666Y-75452380D02*
X100166666Y-76166666D01*
X100119047Y-76309523D01*
X100023809Y-76404761D01*
X99880952Y-76452380D01*
X99785714Y-76452380D01*
X101166666Y-76452380D02*
X100595238Y-76452380D01*
X100880952Y-76452380D02*
X100880952Y-75452380D01*
X100785714Y-75595238D01*
X100690476Y-75690476D01*
X100595238Y-75738095D01*
%TO.C,J2*%
X100166666Y-70502380D02*
X100166666Y-71216666D01*
X100119047Y-71359523D01*
X100023809Y-71454761D01*
X99880952Y-71502380D01*
X99785714Y-71502380D01*
X100595238Y-70597619D02*
X100642857Y-70550000D01*
X100738095Y-70502380D01*
X100976190Y-70502380D01*
X101071428Y-70550000D01*
X101119047Y-70597619D01*
X101166666Y-70692857D01*
X101166666Y-70788095D01*
X101119047Y-70930952D01*
X100547619Y-71502380D01*
X101166666Y-71502380D01*
D11*
%TO.C,J1*%
X100785000Y-79830000D02*
X100785000Y-82730000D01*
X102690000Y-84635000D02*
X105590000Y-84635000D01*
X102690000Y-77925000D02*
X105590000Y-77925000D01*
X107495000Y-79830000D02*
X107495000Y-82730000D01*
%TO.C,J2*%
X105640000Y-70500000D02*
X105640000Y-70700000D01*
X102640000Y-70500000D02*
X103440000Y-70500000D01*
X104840000Y-73500000D02*
X104840000Y-74000000D01*
X104840000Y-70500000D02*
X105640000Y-70500000D01*
X102640000Y-70700000D02*
X102640000Y-70500000D01*
X105640000Y-73500000D02*
X104840000Y-73500000D01*
X103440000Y-73500000D02*
X102840000Y-73500000D01*
X103440000Y-73500000D02*
X103440000Y-74000000D01*
X102840000Y-73500000D02*
X102640000Y-73300000D01*
X105640000Y-73300000D02*
X105640000Y-73500000D01*
%TD*%
M02*
