%TF.GenerationSoftware,KiCad,Pcbnew,6.0.7-f9a2dced07~116~ubuntu20.04.1*%
%TF.CreationDate,2022-08-19T11:38:40-05:00*%
%TF.ProjectId,sma-u-fl,736d612d-752d-4666-9c2e-6b696361645f,rev?*%
%TF.SameCoordinates,Original*%
%TF.FileFunction,Copper,L2,Bot*%
%TF.FilePolarity,Positive*%
%FSLAX46Y46*%
G04 Gerber Fmt 4.6, Leading zero omitted, Abs format (unit mm)*
G04 Created by KiCad (PCBNEW 6.0.7-f9a2dced07~116~ubuntu20.04.1) date 2022-08-19 11:38:40*
%MOMM*%
%LPD*%
G01*
G04 APERTURE LIST*
%TA.AperFunction,ComponentPad*%
%ADD10C,2.050000*%
%TD*%
%TA.AperFunction,ComponentPad*%
%ADD11C,2.250000*%
%TD*%
%TA.AperFunction,ViaPad*%
%ADD12C,0.800000*%
%TD*%
G04 APERTURE END LIST*
D10*
%TO.P,J1,1,In*%
%TO.N,Net-(J1-Pad1)*%
X104140000Y-81280000D03*
D11*
%TO.P,J1,2,Ext*%
%TO.N,Net-(J1-Pad2)*%
X106680000Y-83820000D03*
X101600000Y-83820000D03*
X101600000Y-78740000D03*
X106680000Y-78740000D03*
%TD*%
D12*
%TO.N,Net-(J1-Pad2)*%
X101080000Y-70000000D03*
X107200000Y-70000000D03*
X105480000Y-76600000D03*
X107200000Y-72000000D03*
X102800000Y-75000000D03*
X101080000Y-72000000D03*
X105480000Y-75000000D03*
X101080000Y-73660000D03*
X107200000Y-73660000D03*
X102800000Y-76600000D03*
%TD*%
%TA.AperFunction,Conductor*%
%TO.N,Net-(J1-Pad2)*%
G36*
X108653621Y-69108502D02*
G01*
X108700114Y-69162158D01*
X108711500Y-69214500D01*
X108711500Y-85725500D01*
X108691498Y-85793621D01*
X108637842Y-85840114D01*
X108585500Y-85851500D01*
X99694500Y-85851500D01*
X99626379Y-85831498D01*
X99579886Y-85777842D01*
X99568500Y-85725500D01*
X99568500Y-85144471D01*
X100640884Y-85144471D01*
X100644570Y-85149740D01*
X100852121Y-85276927D01*
X100860915Y-85281408D01*
X101089242Y-85375984D01*
X101098627Y-85379033D01*
X101338940Y-85436728D01*
X101348687Y-85438271D01*
X101595070Y-85457662D01*
X101604930Y-85457662D01*
X101851313Y-85438271D01*
X101861060Y-85436728D01*
X102101373Y-85379033D01*
X102110758Y-85375984D01*
X102339085Y-85281408D01*
X102347879Y-85276927D01*
X102553928Y-85150660D01*
X102557968Y-85144471D01*
X105720884Y-85144471D01*
X105724570Y-85149740D01*
X105932121Y-85276927D01*
X105940915Y-85281408D01*
X106169242Y-85375984D01*
X106178627Y-85379033D01*
X106418940Y-85436728D01*
X106428687Y-85438271D01*
X106675070Y-85457662D01*
X106684930Y-85457662D01*
X106931313Y-85438271D01*
X106941060Y-85436728D01*
X107181373Y-85379033D01*
X107190758Y-85375984D01*
X107419085Y-85281408D01*
X107427879Y-85276927D01*
X107633928Y-85150660D01*
X107639190Y-85142599D01*
X107633183Y-85132393D01*
X106692812Y-84192022D01*
X106678868Y-84184408D01*
X106677035Y-84184539D01*
X106670420Y-84188790D01*
X105728276Y-85130934D01*
X105720884Y-85144471D01*
X102557968Y-85144471D01*
X102559190Y-85142599D01*
X102553183Y-85132393D01*
X101612812Y-84192022D01*
X101598868Y-84184408D01*
X101597035Y-84184539D01*
X101590420Y-84188790D01*
X100648276Y-85130934D01*
X100640884Y-85144471D01*
X99568500Y-85144471D01*
X99568500Y-83824930D01*
X99962338Y-83824930D01*
X99981729Y-84071313D01*
X99983272Y-84081060D01*
X100040967Y-84321373D01*
X100044016Y-84330758D01*
X100138592Y-84559085D01*
X100143073Y-84567879D01*
X100269340Y-84773928D01*
X100277401Y-84779190D01*
X100287607Y-84773183D01*
X101227978Y-83832812D01*
X101234356Y-83821132D01*
X101964408Y-83821132D01*
X101964539Y-83822965D01*
X101968790Y-83829580D01*
X102910934Y-84771724D01*
X102924471Y-84779116D01*
X102929740Y-84775430D01*
X103056927Y-84567879D01*
X103061408Y-84559085D01*
X103155984Y-84330758D01*
X103159033Y-84321373D01*
X103216728Y-84081060D01*
X103218271Y-84071313D01*
X103237662Y-83824930D01*
X105042338Y-83824930D01*
X105061729Y-84071313D01*
X105063272Y-84081060D01*
X105120967Y-84321373D01*
X105124016Y-84330758D01*
X105218592Y-84559085D01*
X105223073Y-84567879D01*
X105349340Y-84773928D01*
X105357401Y-84779190D01*
X105367607Y-84773183D01*
X106307978Y-83832812D01*
X106314356Y-83821132D01*
X107044408Y-83821132D01*
X107044539Y-83822965D01*
X107048790Y-83829580D01*
X107990934Y-84771724D01*
X108004471Y-84779116D01*
X108009740Y-84775430D01*
X108136927Y-84567879D01*
X108141408Y-84559085D01*
X108235984Y-84330758D01*
X108239033Y-84321373D01*
X108296728Y-84081060D01*
X108298271Y-84071313D01*
X108317662Y-83824930D01*
X108317662Y-83815070D01*
X108298271Y-83568687D01*
X108296728Y-83558940D01*
X108239033Y-83318627D01*
X108235984Y-83309242D01*
X108141408Y-83080915D01*
X108136927Y-83072121D01*
X108010660Y-82866072D01*
X108002599Y-82860810D01*
X107992393Y-82866817D01*
X107052022Y-83807188D01*
X107044408Y-83821132D01*
X106314356Y-83821132D01*
X106315592Y-83818868D01*
X106315461Y-83817035D01*
X106311210Y-83810420D01*
X105369066Y-82868276D01*
X105355529Y-82860884D01*
X105350260Y-82864570D01*
X105223073Y-83072121D01*
X105218592Y-83080915D01*
X105124016Y-83309242D01*
X105120967Y-83318627D01*
X105063272Y-83558940D01*
X105061729Y-83568687D01*
X105042338Y-83815070D01*
X105042338Y-83824930D01*
X103237662Y-83824930D01*
X103237662Y-83815070D01*
X103218271Y-83568687D01*
X103216728Y-83558940D01*
X103159033Y-83318627D01*
X103155984Y-83309242D01*
X103061408Y-83080915D01*
X103056927Y-83072121D01*
X102930660Y-82866072D01*
X102922599Y-82860810D01*
X102912393Y-82866817D01*
X101972022Y-83807188D01*
X101964408Y-83821132D01*
X101234356Y-83821132D01*
X101235592Y-83818868D01*
X101235461Y-83817035D01*
X101231210Y-83810420D01*
X100289066Y-82868276D01*
X100275529Y-82860884D01*
X100270260Y-82864570D01*
X100143073Y-83072121D01*
X100138592Y-83080915D01*
X100044016Y-83309242D01*
X100040967Y-83318627D01*
X99983272Y-83558940D01*
X99981729Y-83568687D01*
X99962338Y-83815070D01*
X99962338Y-83824930D01*
X99568500Y-83824930D01*
X99568500Y-82497401D01*
X100640810Y-82497401D01*
X100646817Y-82507607D01*
X101587188Y-83447978D01*
X101601132Y-83455592D01*
X101602965Y-83455461D01*
X101609580Y-83451210D01*
X102551724Y-82509066D01*
X102559116Y-82495529D01*
X102555430Y-82490260D01*
X102347879Y-82363073D01*
X102339085Y-82358592D01*
X102110758Y-82264016D01*
X102101373Y-82260967D01*
X101861060Y-82203272D01*
X101851313Y-82201729D01*
X101604930Y-82182338D01*
X101595070Y-82182338D01*
X101348687Y-82201729D01*
X101338940Y-82203272D01*
X101098627Y-82260967D01*
X101089242Y-82264016D01*
X100860915Y-82358592D01*
X100852121Y-82363073D01*
X100646072Y-82489340D01*
X100640810Y-82497401D01*
X99568500Y-82497401D01*
X99568500Y-81280000D01*
X102601758Y-81280000D01*
X102620696Y-81520634D01*
X102621850Y-81525441D01*
X102621851Y-81525447D01*
X102657267Y-81672961D01*
X102677045Y-81755343D01*
X102769416Y-81978347D01*
X102895536Y-82184156D01*
X103052299Y-82367701D01*
X103235844Y-82524464D01*
X103441653Y-82650584D01*
X103446223Y-82652477D01*
X103446227Y-82652479D01*
X103660084Y-82741061D01*
X103664657Y-82742955D01*
X103747039Y-82762733D01*
X103894553Y-82798149D01*
X103894559Y-82798150D01*
X103899366Y-82799304D01*
X104140000Y-82818242D01*
X104380634Y-82799304D01*
X104385441Y-82798150D01*
X104385447Y-82798149D01*
X104532961Y-82762733D01*
X104615343Y-82742955D01*
X104619916Y-82741061D01*
X104833773Y-82652479D01*
X104833777Y-82652477D01*
X104838347Y-82650584D01*
X105044156Y-82524464D01*
X105075843Y-82497401D01*
X105720810Y-82497401D01*
X105726817Y-82507607D01*
X106667188Y-83447978D01*
X106681132Y-83455592D01*
X106682965Y-83455461D01*
X106689580Y-83451210D01*
X107631724Y-82509066D01*
X107639116Y-82495529D01*
X107635430Y-82490260D01*
X107427879Y-82363073D01*
X107419085Y-82358592D01*
X107190758Y-82264016D01*
X107181373Y-82260967D01*
X106941060Y-82203272D01*
X106931313Y-82201729D01*
X106684930Y-82182338D01*
X106675070Y-82182338D01*
X106428687Y-82201729D01*
X106418940Y-82203272D01*
X106178627Y-82260967D01*
X106169242Y-82264016D01*
X105940915Y-82358592D01*
X105932121Y-82363073D01*
X105726072Y-82489340D01*
X105720810Y-82497401D01*
X105075843Y-82497401D01*
X105227701Y-82367701D01*
X105384464Y-82184156D01*
X105510584Y-81978347D01*
X105602955Y-81755343D01*
X105622733Y-81672961D01*
X105658149Y-81525447D01*
X105658150Y-81525441D01*
X105659304Y-81520634D01*
X105678242Y-81280000D01*
X105659304Y-81039366D01*
X105658150Y-81034559D01*
X105658149Y-81034553D01*
X105604110Y-80809469D01*
X105602955Y-80804657D01*
X105510584Y-80581653D01*
X105384464Y-80375844D01*
X105227701Y-80192299D01*
X105078034Y-80064471D01*
X105720884Y-80064471D01*
X105724570Y-80069740D01*
X105932121Y-80196927D01*
X105940915Y-80201408D01*
X106169242Y-80295984D01*
X106178627Y-80299033D01*
X106418940Y-80356728D01*
X106428687Y-80358271D01*
X106675070Y-80377662D01*
X106684930Y-80377662D01*
X106931313Y-80358271D01*
X106941060Y-80356728D01*
X107181373Y-80299033D01*
X107190758Y-80295984D01*
X107419085Y-80201408D01*
X107427879Y-80196927D01*
X107633928Y-80070660D01*
X107639190Y-80062599D01*
X107633183Y-80052393D01*
X106692812Y-79112022D01*
X106678868Y-79104408D01*
X106677035Y-79104539D01*
X106670420Y-79108790D01*
X105728276Y-80050934D01*
X105720884Y-80064471D01*
X105078034Y-80064471D01*
X105044156Y-80035536D01*
X104838347Y-79909416D01*
X104833777Y-79907523D01*
X104833773Y-79907521D01*
X104619916Y-79818939D01*
X104619914Y-79818938D01*
X104615343Y-79817045D01*
X104532961Y-79797267D01*
X104385447Y-79761851D01*
X104385441Y-79761850D01*
X104380634Y-79760696D01*
X104140000Y-79741758D01*
X103899366Y-79760696D01*
X103894559Y-79761850D01*
X103894553Y-79761851D01*
X103747039Y-79797267D01*
X103664657Y-79817045D01*
X103660086Y-79818938D01*
X103660084Y-79818939D01*
X103446227Y-79907521D01*
X103446223Y-79907523D01*
X103441653Y-79909416D01*
X103235844Y-80035536D01*
X103052299Y-80192299D01*
X102895536Y-80375844D01*
X102769416Y-80581653D01*
X102677045Y-80804657D01*
X102675890Y-80809469D01*
X102621851Y-81034553D01*
X102621850Y-81034559D01*
X102620696Y-81039366D01*
X102601758Y-81280000D01*
X99568500Y-81280000D01*
X99568500Y-80064471D01*
X100640884Y-80064471D01*
X100644570Y-80069740D01*
X100852121Y-80196927D01*
X100860915Y-80201408D01*
X101089242Y-80295984D01*
X101098627Y-80299033D01*
X101338940Y-80356728D01*
X101348687Y-80358271D01*
X101595070Y-80377662D01*
X101604930Y-80377662D01*
X101851313Y-80358271D01*
X101861060Y-80356728D01*
X102101373Y-80299033D01*
X102110758Y-80295984D01*
X102339085Y-80201408D01*
X102347879Y-80196927D01*
X102553928Y-80070660D01*
X102559190Y-80062599D01*
X102553183Y-80052393D01*
X101612812Y-79112022D01*
X101598868Y-79104408D01*
X101597035Y-79104539D01*
X101590420Y-79108790D01*
X100648276Y-80050934D01*
X100640884Y-80064471D01*
X99568500Y-80064471D01*
X99568500Y-78744930D01*
X99962338Y-78744930D01*
X99981729Y-78991313D01*
X99983272Y-79001060D01*
X100040967Y-79241373D01*
X100044016Y-79250758D01*
X100138592Y-79479085D01*
X100143073Y-79487879D01*
X100269340Y-79693928D01*
X100277401Y-79699190D01*
X100287607Y-79693183D01*
X101227978Y-78752812D01*
X101234356Y-78741132D01*
X101964408Y-78741132D01*
X101964539Y-78742965D01*
X101968790Y-78749580D01*
X102910934Y-79691724D01*
X102924471Y-79699116D01*
X102929740Y-79695430D01*
X103056927Y-79487879D01*
X103061408Y-79479085D01*
X103155984Y-79250758D01*
X103159033Y-79241373D01*
X103216728Y-79001060D01*
X103218271Y-78991313D01*
X103237662Y-78744930D01*
X105042338Y-78744930D01*
X105061729Y-78991313D01*
X105063272Y-79001060D01*
X105120967Y-79241373D01*
X105124016Y-79250758D01*
X105218592Y-79479085D01*
X105223073Y-79487879D01*
X105349340Y-79693928D01*
X105357401Y-79699190D01*
X105367607Y-79693183D01*
X106307978Y-78752812D01*
X106314356Y-78741132D01*
X107044408Y-78741132D01*
X107044539Y-78742965D01*
X107048790Y-78749580D01*
X107990934Y-79691724D01*
X108004471Y-79699116D01*
X108009740Y-79695430D01*
X108136927Y-79487879D01*
X108141408Y-79479085D01*
X108235984Y-79250758D01*
X108239033Y-79241373D01*
X108296728Y-79001060D01*
X108298271Y-78991313D01*
X108317662Y-78744930D01*
X108317662Y-78735070D01*
X108298271Y-78488687D01*
X108296728Y-78478940D01*
X108239033Y-78238627D01*
X108235984Y-78229242D01*
X108141408Y-78000915D01*
X108136927Y-77992121D01*
X108010660Y-77786072D01*
X108002599Y-77780810D01*
X107992393Y-77786817D01*
X107052022Y-78727188D01*
X107044408Y-78741132D01*
X106314356Y-78741132D01*
X106315592Y-78738868D01*
X106315461Y-78737035D01*
X106311210Y-78730420D01*
X105369066Y-77788276D01*
X105355529Y-77780884D01*
X105350260Y-77784570D01*
X105223073Y-77992121D01*
X105218592Y-78000915D01*
X105124016Y-78229242D01*
X105120967Y-78238627D01*
X105063272Y-78478940D01*
X105061729Y-78488687D01*
X105042338Y-78735070D01*
X105042338Y-78744930D01*
X103237662Y-78744930D01*
X103237662Y-78735070D01*
X103218271Y-78488687D01*
X103216728Y-78478940D01*
X103159033Y-78238627D01*
X103155984Y-78229242D01*
X103061408Y-78000915D01*
X103056927Y-77992121D01*
X102930660Y-77786072D01*
X102922599Y-77780810D01*
X102912393Y-77786817D01*
X101972022Y-78727188D01*
X101964408Y-78741132D01*
X101234356Y-78741132D01*
X101235592Y-78738868D01*
X101235461Y-78737035D01*
X101231210Y-78730420D01*
X100289066Y-77788276D01*
X100275529Y-77780884D01*
X100270260Y-77784570D01*
X100143073Y-77992121D01*
X100138592Y-78000915D01*
X100044016Y-78229242D01*
X100040967Y-78238627D01*
X99983272Y-78478940D01*
X99981729Y-78488687D01*
X99962338Y-78735070D01*
X99962338Y-78744930D01*
X99568500Y-78744930D01*
X99568500Y-77417401D01*
X100640810Y-77417401D01*
X100646817Y-77427607D01*
X101587188Y-78367978D01*
X101601132Y-78375592D01*
X101602965Y-78375461D01*
X101609580Y-78371210D01*
X102551724Y-77429066D01*
X102558094Y-77417401D01*
X105720810Y-77417401D01*
X105726817Y-77427607D01*
X106667188Y-78367978D01*
X106681132Y-78375592D01*
X106682965Y-78375461D01*
X106689580Y-78371210D01*
X107631724Y-77429066D01*
X107639116Y-77415529D01*
X107635430Y-77410260D01*
X107427879Y-77283073D01*
X107419085Y-77278592D01*
X107190758Y-77184016D01*
X107181373Y-77180967D01*
X106941060Y-77123272D01*
X106931313Y-77121729D01*
X106684930Y-77102338D01*
X106675070Y-77102338D01*
X106428687Y-77121729D01*
X106418940Y-77123272D01*
X106178627Y-77180967D01*
X106169242Y-77184016D01*
X105940915Y-77278592D01*
X105932121Y-77283073D01*
X105726072Y-77409340D01*
X105720810Y-77417401D01*
X102558094Y-77417401D01*
X102559116Y-77415529D01*
X102555430Y-77410260D01*
X102347879Y-77283073D01*
X102339085Y-77278592D01*
X102110758Y-77184016D01*
X102101373Y-77180967D01*
X101861060Y-77123272D01*
X101851313Y-77121729D01*
X101604930Y-77102338D01*
X101595070Y-77102338D01*
X101348687Y-77121729D01*
X101338940Y-77123272D01*
X101098627Y-77180967D01*
X101089242Y-77184016D01*
X100860915Y-77278592D01*
X100852121Y-77283073D01*
X100646072Y-77409340D01*
X100640810Y-77417401D01*
X99568500Y-77417401D01*
X99568500Y-69214500D01*
X99588502Y-69146379D01*
X99642158Y-69099886D01*
X99694500Y-69088500D01*
X108585500Y-69088500D01*
X108653621Y-69108502D01*
G37*
%TD.AperFunction*%
%TD*%
M02*
