%TF.GenerationSoftware,KiCad,Pcbnew,6.0.7-f9a2dced07~116~ubuntu20.04.1*%
%TF.CreationDate,2022-08-19T11:38:41-05:00*%
%TF.ProjectId,sma-u-fl,736d612d-752d-4666-9c2e-6b696361645f,rev?*%
%TF.SameCoordinates,Original*%
%TF.FileFunction,Legend,Bot*%
%TF.FilePolarity,Positive*%
%FSLAX46Y46*%
G04 Gerber Fmt 4.6, Leading zero omitted, Abs format (unit mm)*
G04 Created by KiCad (PCBNEW 6.0.7-f9a2dced07~116~ubuntu20.04.1) date 2022-08-19 11:38:41*
%MOMM*%
%LPD*%
G01*
G04 APERTURE LIST*
%ADD10C,0.150000*%
G04 APERTURE END LIST*
D10*
X99757142Y-75760000D02*
X99728571Y-75674285D01*
X99728571Y-75531428D01*
X99757142Y-75474285D01*
X99785714Y-75445714D01*
X99842857Y-75417142D01*
X99900000Y-75417142D01*
X99957142Y-75445714D01*
X99985714Y-75474285D01*
X100014285Y-75531428D01*
X100042857Y-75645714D01*
X100071428Y-75702857D01*
X100100000Y-75731428D01*
X100157142Y-75760000D01*
X100214285Y-75760000D01*
X100271428Y-75731428D01*
X100300000Y-75702857D01*
X100328571Y-75645714D01*
X100328571Y-75502857D01*
X100300000Y-75417142D01*
X99728571Y-75160000D02*
X100328571Y-75160000D01*
X99900000Y-74960000D01*
X100328571Y-74760000D01*
X99728571Y-74760000D01*
X99900000Y-74502857D02*
X99900000Y-74217142D01*
X99728571Y-74560000D02*
X100328571Y-74360000D01*
X99728571Y-74160000D01*
X99957142Y-73960000D02*
X99957142Y-73502857D01*
X100328571Y-73217142D02*
X99842857Y-73217142D01*
X99785714Y-73188571D01*
X99757142Y-73160000D01*
X99728571Y-73102857D01*
X99728571Y-72988571D01*
X99757142Y-72931428D01*
X99785714Y-72902857D01*
X99842857Y-72874285D01*
X100328571Y-72874285D01*
X99785714Y-72588571D02*
X99757142Y-72560000D01*
X99728571Y-72588571D01*
X99757142Y-72617142D01*
X99785714Y-72588571D01*
X99728571Y-72588571D01*
X100042857Y-72102857D02*
X100042857Y-72302857D01*
X99728571Y-72302857D02*
X100328571Y-72302857D01*
X100328571Y-72017142D01*
X99728571Y-71502857D02*
X99728571Y-71788571D01*
X100328571Y-71788571D01*
M02*
