G04 #@! TF.GenerationSoftware,KiCad,Pcbnew,6.0.7-f9a2dced07~116~ubuntu20.04.1*
G04 #@! TF.CreationDate,2022-08-18T12:09:24-05:00*
G04 #@! TF.ProjectId,,58585858-5858-4585-9858-585858585858,rev?*
G04 #@! TF.SameCoordinates,Original*
G04 #@! TF.FileFunction,Profile,NP*
%FSLAX46Y46*%
G04 Gerber Fmt 4.6, Leading zero omitted, Abs format (unit mm)*
G04 Created by KiCad (PCBNEW 6.0.7-f9a2dced07~116~ubuntu20.04.1) date 2022-08-18 12:09:24*
%MOMM*%
%LPD*%
G01*
G04 APERTURE LIST*
G04 #@! TA.AperFunction,Profile*
%ADD10C,0.050000*%
G04 #@! TD*
G04 APERTURE END LIST*
D10*
X146360000Y-120720000D02*
X146360000Y-135720000D01*
X146360000Y-120720000D02*
X176360000Y-120720000D01*
X146360000Y-135720000D02*
X176360000Y-135720000D01*
X176360000Y-120720000D02*
X176360000Y-135720000D01*
X116360000Y-120720000D02*
X116360000Y-135720000D01*
X116360000Y-120720000D02*
X146360000Y-120720000D01*
X116360000Y-135720000D02*
X146360000Y-135720000D01*
X146360000Y-120720000D02*
X146360000Y-135720000D01*
X86360000Y-120720000D02*
X86360000Y-135720000D01*
X86360000Y-120720000D02*
X116360000Y-120720000D01*
X86360000Y-135720000D02*
X116360000Y-135720000D01*
X116360000Y-120720000D02*
X116360000Y-135720000D01*
X146360000Y-105720000D02*
X146360000Y-120720000D01*
X146360000Y-105720000D02*
X176360000Y-105720000D01*
X146360000Y-120720000D02*
X176360000Y-120720000D01*
X176360000Y-105720000D02*
X176360000Y-120720000D01*
X116360000Y-105720000D02*
X116360000Y-120720000D01*
X116360000Y-105720000D02*
X146360000Y-105720000D01*
X116360000Y-120720000D02*
X146360000Y-120720000D01*
X146360000Y-105720000D02*
X146360000Y-120720000D01*
X86360000Y-105720000D02*
X86360000Y-120720000D01*
X86360000Y-105720000D02*
X116360000Y-105720000D01*
X86360000Y-120720000D02*
X116360000Y-120720000D01*
X116360000Y-105720000D02*
X116360000Y-120720000D01*
X146360000Y-90720000D02*
X146360000Y-105720000D01*
X146360000Y-90720000D02*
X176360000Y-90720000D01*
X146360000Y-105720000D02*
X176360000Y-105720000D01*
X176360000Y-90720000D02*
X176360000Y-105720000D01*
X116360000Y-90720000D02*
X116360000Y-105720000D01*
X116360000Y-90720000D02*
X146360000Y-90720000D01*
X116360000Y-105720000D02*
X146360000Y-105720000D01*
X146360000Y-90720000D02*
X146360000Y-105720000D01*
X86360000Y-90720000D02*
X86360000Y-105720000D01*
X86360000Y-90720000D02*
X116360000Y-90720000D01*
X86360000Y-105720000D02*
X116360000Y-105720000D01*
X116360000Y-90720000D02*
X116360000Y-105720000D01*
X146360000Y-75720000D02*
X146360000Y-90720000D01*
X146360000Y-75720000D02*
X176360000Y-75720000D01*
X146360000Y-90720000D02*
X176360000Y-90720000D01*
X176360000Y-75720000D02*
X176360000Y-90720000D01*
X116360000Y-75720000D02*
X116360000Y-90720000D01*
X116360000Y-75720000D02*
X146360000Y-75720000D01*
X116360000Y-90720000D02*
X146360000Y-90720000D01*
X146360000Y-75720000D02*
X146360000Y-90720000D01*
X86360000Y-75720000D02*
X86360000Y-90720000D01*
X86360000Y-75720000D02*
X116360000Y-75720000D01*
X86360000Y-90720000D02*
X116360000Y-90720000D01*
X116360000Y-75720000D02*
X116360000Y-90720000D01*
X146360000Y-60720000D02*
X146360000Y-75720000D01*
X146360000Y-60720000D02*
X176360000Y-60720000D01*
X146360000Y-75720000D02*
X176360000Y-75720000D01*
X176360000Y-60720000D02*
X176360000Y-75720000D01*
X116360000Y-60720000D02*
X116360000Y-75720000D01*
X116360000Y-60720000D02*
X146360000Y-60720000D01*
X116360000Y-75720000D02*
X146360000Y-75720000D01*
X146360000Y-60720000D02*
X146360000Y-75720000D01*
X86360000Y-60720000D02*
X86360000Y-75720000D01*
X86360000Y-60720000D02*
X116360000Y-60720000D01*
X86360000Y-75720000D02*
X116360000Y-75720000D01*
X116360000Y-60720000D02*
X116360000Y-75720000D01*
X146360000Y-45720000D02*
X146360000Y-60720000D01*
X146360000Y-45720000D02*
X176360000Y-45720000D01*
X146360000Y-60720000D02*
X176360000Y-60720000D01*
X176360000Y-45720000D02*
X176360000Y-60720000D01*
X116360000Y-45720000D02*
X116360000Y-60720000D01*
X116360000Y-45720000D02*
X146360000Y-45720000D01*
X116360000Y-60720000D02*
X146360000Y-60720000D01*
X146360000Y-45720000D02*
X146360000Y-60720000D01*
X86360000Y-45720000D02*
X116360000Y-45720000D01*
X116360000Y-45720000D02*
X116360000Y-60720000D01*
X86360000Y-60720000D02*
X116360000Y-60720000D01*
X86360000Y-45720000D02*
X86360000Y-60720000D01*
M02*
