M48
; DRILL file {KiCad 6.0.7-f9a2dced07~116~ubuntu20.04.1} date jue 18 ago 2022 12:09:01
; FORMAT={-:-/ absolute / metric / decimal}
; #@! TF.CreationDate,2022-08-18T12:09:01-05:00
; #@! TF.GenerationSoftware,Kicad,Pcbnew,6.0.7-f9a2dced07~116~ubuntu20.04.1
; #@! TF.FileFunction,Plated,1,2,PTH
FMAT,2
METRIC
; #@! TA.AperFunction,Plated,PTH,ViaDrill
T1C0.400
; #@! TA.AperFunction,Plated,PTH,ComponentDrill
T2C1.000
%
G90
G05
T1
X105.74Y-46.345
X105.74Y-60.02
X105.74Y-61.345
X105.74Y-75.02
X105.74Y-76.345
X105.74Y-90.02
X105.74Y-91.345
X105.74Y-105.02
X105.74Y-106.345
X105.74Y-120.02
X105.74Y-121.345
X105.74Y-135.02
X108.915Y-58.75
X108.915Y-73.75
X108.915Y-88.75
X108.915Y-103.75
X108.915Y-118.75
X108.915Y-133.75
X109.55Y-46.685
X109.55Y-61.685
X109.55Y-76.685
X109.55Y-91.685
X109.55Y-106.685
X109.55Y-121.685
X111.455Y-46.685
X111.455Y-57.48
X111.455Y-61.685
X111.455Y-72.48
X111.455Y-76.685
X111.455Y-87.48
X111.455Y-91.685
X111.455Y-102.48
X111.455Y-106.685
X111.455Y-117.48
X111.455Y-121.685
X111.455Y-132.48
X113.36Y-47.955
X113.36Y-56.21
X113.36Y-62.955
X113.36Y-71.21
X113.36Y-77.955
X113.36Y-86.21
X113.36Y-92.955
X113.36Y-101.21
X113.36Y-107.955
X113.36Y-116.21
X113.36Y-122.955
X113.36Y-131.21
X135.74Y-46.345
X135.74Y-60.02
X135.74Y-61.345
X135.74Y-75.02
X135.74Y-76.345
X135.74Y-90.02
X135.74Y-91.345
X135.74Y-105.02
X135.74Y-106.345
X135.74Y-120.02
X135.74Y-121.345
X135.74Y-135.02
X138.915Y-58.75
X138.915Y-73.75
X138.915Y-88.75
X138.915Y-103.75
X138.915Y-118.75
X138.915Y-133.75
X139.55Y-46.685
X139.55Y-61.685
X139.55Y-76.685
X139.55Y-91.685
X139.55Y-106.685
X139.55Y-121.685
X141.455Y-46.685
X141.455Y-57.48
X141.455Y-61.685
X141.455Y-72.48
X141.455Y-76.685
X141.455Y-87.48
X141.455Y-91.685
X141.455Y-102.48
X141.455Y-106.685
X141.455Y-117.48
X141.455Y-121.685
X141.455Y-132.48
X143.36Y-47.955
X143.36Y-56.21
X143.36Y-62.955
X143.36Y-71.21
X143.36Y-77.955
X143.36Y-86.21
X143.36Y-92.955
X143.36Y-101.21
X143.36Y-107.955
X143.36Y-116.21
X143.36Y-122.955
X143.36Y-131.21
X165.74Y-46.345
X165.74Y-60.02
X165.74Y-61.345
X165.74Y-75.02
X165.74Y-76.345
X165.74Y-90.02
X165.74Y-91.345
X165.74Y-105.02
X165.74Y-106.345
X165.74Y-120.02
X165.74Y-121.345
X165.74Y-135.02
X168.915Y-58.75
X168.915Y-73.75
X168.915Y-88.75
X168.915Y-103.75
X168.915Y-118.75
X168.915Y-133.75
X169.55Y-46.685
X169.55Y-61.685
X169.55Y-76.685
X169.55Y-91.685
X169.55Y-106.685
X169.55Y-121.685
X171.455Y-46.685
X171.455Y-57.48
X171.455Y-61.685
X171.455Y-72.48
X171.455Y-76.685
X171.455Y-87.48
X171.455Y-91.685
X171.455Y-102.48
X171.455Y-106.685
X171.455Y-117.48
X171.455Y-121.685
X171.455Y-132.48
X173.36Y-47.955
X173.36Y-56.21
X173.36Y-62.955
X173.36Y-71.21
X173.36Y-77.955
X173.36Y-86.21
X173.36Y-92.955
X173.36Y-101.21
X173.36Y-107.955
X173.36Y-116.21
X173.36Y-122.955
X173.36Y-131.21
T2
X90.5Y-51.13
X90.5Y-53.67
X90.5Y-66.13
X90.5Y-68.67
X90.5Y-81.13
X90.5Y-83.67
X90.5Y-96.13
X90.5Y-98.67
X90.5Y-111.13
X90.5Y-113.67
X90.5Y-126.13
X90.5Y-128.67
X93.04Y-51.13
X93.04Y-53.67
X93.04Y-66.13
X93.04Y-68.67
X93.04Y-81.13
X93.04Y-83.67
X93.04Y-96.13
X93.04Y-98.67
X93.04Y-111.13
X93.04Y-113.67
X93.04Y-126.13
X93.04Y-128.67
X95.58Y-51.13
X95.58Y-53.67
X95.58Y-66.13
X95.58Y-68.67
X95.58Y-81.13
X95.58Y-83.67
X95.58Y-96.13
X95.58Y-98.67
X95.58Y-111.13
X95.58Y-113.67
X95.58Y-126.13
X95.58Y-128.67
X98.12Y-51.13
X98.12Y-53.67
X98.12Y-66.13
X98.12Y-68.67
X98.12Y-81.13
X98.12Y-83.67
X98.12Y-96.13
X98.12Y-98.67
X98.12Y-111.13
X98.12Y-113.67
X98.12Y-126.13
X98.12Y-128.67
X100.66Y-51.13
X100.66Y-53.67
X100.66Y-66.13
X100.66Y-68.67
X100.66Y-81.13
X100.66Y-83.67
X100.66Y-96.13
X100.66Y-98.67
X100.66Y-111.13
X100.66Y-113.67
X100.66Y-126.13
X100.66Y-128.67
X120.5Y-51.13
X120.5Y-53.67
X120.5Y-66.13
X120.5Y-68.67
X120.5Y-81.13
X120.5Y-83.67
X120.5Y-96.13
X120.5Y-98.67
X120.5Y-111.13
X120.5Y-113.67
X120.5Y-126.13
X120.5Y-128.67
X123.04Y-51.13
X123.04Y-53.67
X123.04Y-66.13
X123.04Y-68.67
X123.04Y-81.13
X123.04Y-83.67
X123.04Y-96.13
X123.04Y-98.67
X123.04Y-111.13
X123.04Y-113.67
X123.04Y-126.13
X123.04Y-128.67
X125.58Y-51.13
X125.58Y-53.67
X125.58Y-66.13
X125.58Y-68.67
X125.58Y-81.13
X125.58Y-83.67
X125.58Y-96.13
X125.58Y-98.67
X125.58Y-111.13
X125.58Y-113.67
X125.58Y-126.13
X125.58Y-128.67
X128.12Y-51.13
X128.12Y-53.67
X128.12Y-66.13
X128.12Y-68.67
X128.12Y-81.13
X128.12Y-83.67
X128.12Y-96.13
X128.12Y-98.67
X128.12Y-111.13
X128.12Y-113.67
X128.12Y-126.13
X128.12Y-128.67
X130.66Y-51.13
X130.66Y-53.67
X130.66Y-66.13
X130.66Y-68.67
X130.66Y-81.13
X130.66Y-83.67
X130.66Y-96.13
X130.66Y-98.67
X130.66Y-111.13
X130.66Y-113.67
X130.66Y-126.13
X130.66Y-128.67
X150.5Y-51.13
X150.5Y-53.67
X150.5Y-66.13
X150.5Y-68.67
X150.5Y-81.13
X150.5Y-83.67
X150.5Y-96.13
X150.5Y-98.67
X150.5Y-111.13
X150.5Y-113.67
X150.5Y-126.13
X150.5Y-128.67
X153.04Y-51.13
X153.04Y-53.67
X153.04Y-66.13
X153.04Y-68.67
X153.04Y-81.13
X153.04Y-83.67
X153.04Y-96.13
X153.04Y-98.67
X153.04Y-111.13
X153.04Y-113.67
X153.04Y-126.13
X153.04Y-128.67
X155.58Y-51.13
X155.58Y-53.67
X155.58Y-66.13
X155.58Y-68.67
X155.58Y-81.13
X155.58Y-83.67
X155.58Y-96.13
X155.58Y-98.67
X155.58Y-111.13
X155.58Y-113.67
X155.58Y-126.13
X155.58Y-128.67
X158.12Y-51.13
X158.12Y-53.67
X158.12Y-66.13
X158.12Y-68.67
X158.12Y-81.13
X158.12Y-83.67
X158.12Y-96.13
X158.12Y-98.67
X158.12Y-111.13
X158.12Y-113.67
X158.12Y-126.13
X158.12Y-128.67
X160.66Y-51.13
X160.66Y-53.67
X160.66Y-66.13
X160.66Y-68.67
X160.66Y-81.13
X160.66Y-83.67
X160.66Y-96.13
X160.66Y-98.67
X160.66Y-111.13
X160.66Y-113.67
X160.66Y-126.13
X160.66Y-128.67
T0
M30
