G04 #@! TF.GenerationSoftware,KiCad,Pcbnew,6.0.7-f9a2dced07~116~ubuntu20.04.1*
G04 #@! TF.CreationDate,2022-08-18T12:09:24-05:00*
G04 #@! TF.ProjectId,,58585858-5858-4585-9858-585858585858,rev?*
G04 #@! TF.SameCoordinates,Original*
G04 #@! TF.FileFunction,Soldermask,Bot*
G04 #@! TF.FilePolarity,Negative*
%FSLAX46Y46*%
G04 Gerber Fmt 4.6, Leading zero omitted, Abs format (unit mm)*
G04 Created by KiCad (PCBNEW 6.0.7-f9a2dced07~116~ubuntu20.04.1) date 2022-08-18 12:09:24*
%MOMM*%
%LPD*%
G01*
G04 APERTURE LIST*
G04 Aperture macros list*
%AMRoundRect*
0 Rectangle with rounded corners*
0 $1 Rounding radius*
0 $2 $3 $4 $5 $6 $7 $8 $9 X,Y pos of 4 corners*
0 Add a 4 corners polygon primitive as box body*
4,1,4,$2,$3,$4,$5,$6,$7,$8,$9,$2,$3,0*
0 Add four circle primitives for the rounded corners*
1,1,$1+$1,$2,$3*
1,1,$1+$1,$4,$5*
1,1,$1+$1,$6,$7*
1,1,$1+$1,$8,$9*
0 Add four rect primitives between the rounded corners*
20,1,$1+$1,$2,$3,$4,$5,0*
20,1,$1+$1,$4,$5,$6,$7,0*
20,1,$1+$1,$6,$7,$8,$9,0*
20,1,$1+$1,$8,$9,$2,$3,0*%
G04 Aperture macros list end*
%ADD10RoundRect,0.051000X0.850000X-0.850000X0.850000X0.850000X-0.850000X0.850000X-0.850000X-0.850000X0*%
%ADD11O,1.802000X1.802000*%
G04 APERTURE END LIST*
D10*
X150500000Y-128670000D03*
D11*
X150500000Y-126130000D03*
X153040000Y-128670000D03*
X153040000Y-126130000D03*
X155580000Y-128670000D03*
X155580000Y-126130000D03*
X158120000Y-128670000D03*
X158120000Y-126130000D03*
X160660000Y-128670000D03*
X160660000Y-126130000D03*
D10*
X120500000Y-128670000D03*
D11*
X120500000Y-126130000D03*
X123040000Y-128670000D03*
X123040000Y-126130000D03*
X125580000Y-128670000D03*
X125580000Y-126130000D03*
X128120000Y-128670000D03*
X128120000Y-126130000D03*
X130660000Y-128670000D03*
X130660000Y-126130000D03*
D10*
X90500000Y-128670000D03*
D11*
X90500000Y-126130000D03*
X93040000Y-128670000D03*
X93040000Y-126130000D03*
X95580000Y-128670000D03*
X95580000Y-126130000D03*
X98120000Y-128670000D03*
X98120000Y-126130000D03*
X100660000Y-128670000D03*
X100660000Y-126130000D03*
D10*
X150500000Y-113670000D03*
D11*
X150500000Y-111130000D03*
X153040000Y-113670000D03*
X153040000Y-111130000D03*
X155580000Y-113670000D03*
X155580000Y-111130000D03*
X158120000Y-113670000D03*
X158120000Y-111130000D03*
X160660000Y-113670000D03*
X160660000Y-111130000D03*
D10*
X120500000Y-113670000D03*
D11*
X120500000Y-111130000D03*
X123040000Y-113670000D03*
X123040000Y-111130000D03*
X125580000Y-113670000D03*
X125580000Y-111130000D03*
X128120000Y-113670000D03*
X128120000Y-111130000D03*
X130660000Y-113670000D03*
X130660000Y-111130000D03*
D10*
X90500000Y-113670000D03*
D11*
X90500000Y-111130000D03*
X93040000Y-113670000D03*
X93040000Y-111130000D03*
X95580000Y-113670000D03*
X95580000Y-111130000D03*
X98120000Y-113670000D03*
X98120000Y-111130000D03*
X100660000Y-113670000D03*
X100660000Y-111130000D03*
D10*
X150500000Y-98670000D03*
D11*
X150500000Y-96130000D03*
X153040000Y-98670000D03*
X153040000Y-96130000D03*
X155580000Y-98670000D03*
X155580000Y-96130000D03*
X158120000Y-98670000D03*
X158120000Y-96130000D03*
X160660000Y-98670000D03*
X160660000Y-96130000D03*
D10*
X120500000Y-98670000D03*
D11*
X120500000Y-96130000D03*
X123040000Y-98670000D03*
X123040000Y-96130000D03*
X125580000Y-98670000D03*
X125580000Y-96130000D03*
X128120000Y-98670000D03*
X128120000Y-96130000D03*
X130660000Y-98670000D03*
X130660000Y-96130000D03*
D10*
X90500000Y-98670000D03*
D11*
X90500000Y-96130000D03*
X93040000Y-98670000D03*
X93040000Y-96130000D03*
X95580000Y-98670000D03*
X95580000Y-96130000D03*
X98120000Y-98670000D03*
X98120000Y-96130000D03*
X100660000Y-98670000D03*
X100660000Y-96130000D03*
D10*
X150500000Y-83670000D03*
D11*
X150500000Y-81130000D03*
X153040000Y-83670000D03*
X153040000Y-81130000D03*
X155580000Y-83670000D03*
X155580000Y-81130000D03*
X158120000Y-83670000D03*
X158120000Y-81130000D03*
X160660000Y-83670000D03*
X160660000Y-81130000D03*
D10*
X120500000Y-83670000D03*
D11*
X120500000Y-81130000D03*
X123040000Y-83670000D03*
X123040000Y-81130000D03*
X125580000Y-83670000D03*
X125580000Y-81130000D03*
X128120000Y-83670000D03*
X128120000Y-81130000D03*
X130660000Y-83670000D03*
X130660000Y-81130000D03*
D10*
X90500000Y-83670000D03*
D11*
X90500000Y-81130000D03*
X93040000Y-83670000D03*
X93040000Y-81130000D03*
X95580000Y-83670000D03*
X95580000Y-81130000D03*
X98120000Y-83670000D03*
X98120000Y-81130000D03*
X100660000Y-83670000D03*
X100660000Y-81130000D03*
D10*
X150500000Y-68670000D03*
D11*
X150500000Y-66130000D03*
X153040000Y-68670000D03*
X153040000Y-66130000D03*
X155580000Y-68670000D03*
X155580000Y-66130000D03*
X158120000Y-68670000D03*
X158120000Y-66130000D03*
X160660000Y-68670000D03*
X160660000Y-66130000D03*
D10*
X120500000Y-68670000D03*
D11*
X120500000Y-66130000D03*
X123040000Y-68670000D03*
X123040000Y-66130000D03*
X125580000Y-68670000D03*
X125580000Y-66130000D03*
X128120000Y-68670000D03*
X128120000Y-66130000D03*
X130660000Y-68670000D03*
X130660000Y-66130000D03*
D10*
X90500000Y-68670000D03*
D11*
X90500000Y-66130000D03*
X93040000Y-68670000D03*
X93040000Y-66130000D03*
X95580000Y-68670000D03*
X95580000Y-66130000D03*
X98120000Y-68670000D03*
X98120000Y-66130000D03*
X100660000Y-68670000D03*
X100660000Y-66130000D03*
D10*
X150500000Y-53670000D03*
D11*
X150500000Y-51130000D03*
X153040000Y-53670000D03*
X153040000Y-51130000D03*
X155580000Y-53670000D03*
X155580000Y-51130000D03*
X158120000Y-53670000D03*
X158120000Y-51130000D03*
X160660000Y-53670000D03*
X160660000Y-51130000D03*
D10*
X120500000Y-53670000D03*
D11*
X120500000Y-51130000D03*
X123040000Y-53670000D03*
X123040000Y-51130000D03*
X125580000Y-53670000D03*
X125580000Y-51130000D03*
X128120000Y-53670000D03*
X128120000Y-51130000D03*
X130660000Y-53670000D03*
X130660000Y-51130000D03*
D10*
X90500000Y-53670000D03*
D11*
X90500000Y-51130000D03*
X93040000Y-53670000D03*
X93040000Y-51130000D03*
X95580000Y-53670000D03*
X95580000Y-51130000D03*
X98120000Y-53670000D03*
X98120000Y-51130000D03*
X100660000Y-53670000D03*
X100660000Y-51130000D03*
M02*
