G04 #@! TF.GenerationSoftware,KiCad,Pcbnew,6.0.7-f9a2dced07~116~ubuntu20.04.1*
G04 #@! TF.CreationDate,2022-08-18T12:09:23-05:00*
G04 #@! TF.ProjectId,,58585858-5858-4585-9858-585858585858,rev?*
G04 #@! TF.SameCoordinates,Original*
G04 #@! TF.FileFunction,Legend,Bot*
G04 #@! TF.FilePolarity,Positive*
%FSLAX46Y46*%
G04 Gerber Fmt 4.6, Leading zero omitted, Abs format (unit mm)*
G04 Created by KiCad (PCBNEW 6.0.7-f9a2dced07~116~ubuntu20.04.1) date 2022-08-18 12:09:23*
%MOMM*%
%LPD*%
G01*
G04 APERTURE LIST*
%ADD10C,0.150000*%
G04 APERTURE END LIST*
D10*
X159643095Y-134551666D02*
X159166904Y-134551666D01*
X159738333Y-134837380D02*
X159405000Y-133837380D01*
X159071666Y-134837380D01*
X158738333Y-134837380D02*
X158738333Y-133837380D01*
X158500238Y-133837380D01*
X158357380Y-133885000D01*
X158262142Y-133980238D01*
X158214523Y-134075476D01*
X158166904Y-134265952D01*
X158166904Y-134408809D01*
X158214523Y-134599285D01*
X158262142Y-134694523D01*
X158357380Y-134789761D01*
X158500238Y-134837380D01*
X158738333Y-134837380D01*
X157785952Y-134551666D02*
X157309761Y-134551666D01*
X157881190Y-134837380D02*
X157547857Y-133837380D01*
X157214523Y-134837380D01*
X156881190Y-134837380D02*
X156881190Y-133837380D01*
X156500238Y-133837380D01*
X156405000Y-133885000D01*
X156357380Y-133932619D01*
X156309761Y-134027857D01*
X156309761Y-134170714D01*
X156357380Y-134265952D01*
X156405000Y-134313571D01*
X156500238Y-134361190D01*
X156881190Y-134361190D01*
X155881190Y-134456428D02*
X155119285Y-134456428D01*
X154119285Y-134837380D02*
X154690714Y-134837380D01*
X154405000Y-134837380D02*
X154405000Y-133837380D01*
X154500238Y-133980238D01*
X154595476Y-134075476D01*
X154690714Y-134123095D01*
X153690714Y-134742142D02*
X153643095Y-134789761D01*
X153690714Y-134837380D01*
X153738333Y-134789761D01*
X153690714Y-134742142D01*
X153690714Y-134837380D01*
X153262142Y-133932619D02*
X153214523Y-133885000D01*
X153119285Y-133837380D01*
X152881190Y-133837380D01*
X152785952Y-133885000D01*
X152738333Y-133932619D01*
X152690714Y-134027857D01*
X152690714Y-134123095D01*
X152738333Y-134265952D01*
X153309761Y-134837380D01*
X152690714Y-134837380D01*
X152357380Y-133837380D02*
X151690714Y-133837380D01*
X152119285Y-134837380D01*
X151309761Y-134456428D02*
X150547857Y-134456428D01*
X150119285Y-133932619D02*
X150071666Y-133885000D01*
X149976428Y-133837380D01*
X149738333Y-133837380D01*
X149643095Y-133885000D01*
X149595476Y-133932619D01*
X149547857Y-134027857D01*
X149547857Y-134123095D01*
X149595476Y-134265952D01*
X150166904Y-134837380D01*
X149547857Y-134837380D01*
X149119285Y-134742142D02*
X149071666Y-134789761D01*
X149119285Y-134837380D01*
X149166904Y-134789761D01*
X149119285Y-134742142D01*
X149119285Y-134837380D01*
X148166904Y-133837380D02*
X148643095Y-133837380D01*
X148690714Y-134313571D01*
X148643095Y-134265952D01*
X148547857Y-134218333D01*
X148309761Y-134218333D01*
X148214523Y-134265952D01*
X148166904Y-134313571D01*
X148119285Y-134408809D01*
X148119285Y-134646904D01*
X148166904Y-134742142D01*
X148214523Y-134789761D01*
X148309761Y-134837380D01*
X148547857Y-134837380D01*
X148643095Y-134789761D01*
X148690714Y-134742142D01*
X147262142Y-134170714D02*
X147262142Y-134837380D01*
X147500238Y-133789761D02*
X147738333Y-134504047D01*
X147119285Y-134504047D01*
X129643095Y-134551666D02*
X129166904Y-134551666D01*
X129738333Y-134837380D02*
X129405000Y-133837380D01*
X129071666Y-134837380D01*
X128738333Y-134837380D02*
X128738333Y-133837380D01*
X128500238Y-133837380D01*
X128357380Y-133885000D01*
X128262142Y-133980238D01*
X128214523Y-134075476D01*
X128166904Y-134265952D01*
X128166904Y-134408809D01*
X128214523Y-134599285D01*
X128262142Y-134694523D01*
X128357380Y-134789761D01*
X128500238Y-134837380D01*
X128738333Y-134837380D01*
X127785952Y-134551666D02*
X127309761Y-134551666D01*
X127881190Y-134837380D02*
X127547857Y-133837380D01*
X127214523Y-134837380D01*
X126881190Y-134837380D02*
X126881190Y-133837380D01*
X126500238Y-133837380D01*
X126405000Y-133885000D01*
X126357380Y-133932619D01*
X126309761Y-134027857D01*
X126309761Y-134170714D01*
X126357380Y-134265952D01*
X126405000Y-134313571D01*
X126500238Y-134361190D01*
X126881190Y-134361190D01*
X125881190Y-134456428D02*
X125119285Y-134456428D01*
X124119285Y-134837380D02*
X124690714Y-134837380D01*
X124405000Y-134837380D02*
X124405000Y-133837380D01*
X124500238Y-133980238D01*
X124595476Y-134075476D01*
X124690714Y-134123095D01*
X123690714Y-134742142D02*
X123643095Y-134789761D01*
X123690714Y-134837380D01*
X123738333Y-134789761D01*
X123690714Y-134742142D01*
X123690714Y-134837380D01*
X123262142Y-133932619D02*
X123214523Y-133885000D01*
X123119285Y-133837380D01*
X122881190Y-133837380D01*
X122785952Y-133885000D01*
X122738333Y-133932619D01*
X122690714Y-134027857D01*
X122690714Y-134123095D01*
X122738333Y-134265952D01*
X123309761Y-134837380D01*
X122690714Y-134837380D01*
X122357380Y-133837380D02*
X121690714Y-133837380D01*
X122119285Y-134837380D01*
X121309761Y-134456428D02*
X120547857Y-134456428D01*
X120119285Y-133932619D02*
X120071666Y-133885000D01*
X119976428Y-133837380D01*
X119738333Y-133837380D01*
X119643095Y-133885000D01*
X119595476Y-133932619D01*
X119547857Y-134027857D01*
X119547857Y-134123095D01*
X119595476Y-134265952D01*
X120166904Y-134837380D01*
X119547857Y-134837380D01*
X119119285Y-134742142D02*
X119071666Y-134789761D01*
X119119285Y-134837380D01*
X119166904Y-134789761D01*
X119119285Y-134742142D01*
X119119285Y-134837380D01*
X118166904Y-133837380D02*
X118643095Y-133837380D01*
X118690714Y-134313571D01*
X118643095Y-134265952D01*
X118547857Y-134218333D01*
X118309761Y-134218333D01*
X118214523Y-134265952D01*
X118166904Y-134313571D01*
X118119285Y-134408809D01*
X118119285Y-134646904D01*
X118166904Y-134742142D01*
X118214523Y-134789761D01*
X118309761Y-134837380D01*
X118547857Y-134837380D01*
X118643095Y-134789761D01*
X118690714Y-134742142D01*
X117262142Y-134170714D02*
X117262142Y-134837380D01*
X117500238Y-133789761D02*
X117738333Y-134504047D01*
X117119285Y-134504047D01*
X99643095Y-134551666D02*
X99166904Y-134551666D01*
X99738333Y-134837380D02*
X99405000Y-133837380D01*
X99071666Y-134837380D01*
X98738333Y-134837380D02*
X98738333Y-133837380D01*
X98500238Y-133837380D01*
X98357380Y-133885000D01*
X98262142Y-133980238D01*
X98214523Y-134075476D01*
X98166904Y-134265952D01*
X98166904Y-134408809D01*
X98214523Y-134599285D01*
X98262142Y-134694523D01*
X98357380Y-134789761D01*
X98500238Y-134837380D01*
X98738333Y-134837380D01*
X97785952Y-134551666D02*
X97309761Y-134551666D01*
X97881190Y-134837380D02*
X97547857Y-133837380D01*
X97214523Y-134837380D01*
X96881190Y-134837380D02*
X96881190Y-133837380D01*
X96500238Y-133837380D01*
X96405000Y-133885000D01*
X96357380Y-133932619D01*
X96309761Y-134027857D01*
X96309761Y-134170714D01*
X96357380Y-134265952D01*
X96405000Y-134313571D01*
X96500238Y-134361190D01*
X96881190Y-134361190D01*
X95881190Y-134456428D02*
X95119285Y-134456428D01*
X94119285Y-134837380D02*
X94690714Y-134837380D01*
X94405000Y-134837380D02*
X94405000Y-133837380D01*
X94500238Y-133980238D01*
X94595476Y-134075476D01*
X94690714Y-134123095D01*
X93690714Y-134742142D02*
X93643095Y-134789761D01*
X93690714Y-134837380D01*
X93738333Y-134789761D01*
X93690714Y-134742142D01*
X93690714Y-134837380D01*
X93262142Y-133932619D02*
X93214523Y-133885000D01*
X93119285Y-133837380D01*
X92881190Y-133837380D01*
X92785952Y-133885000D01*
X92738333Y-133932619D01*
X92690714Y-134027857D01*
X92690714Y-134123095D01*
X92738333Y-134265952D01*
X93309761Y-134837380D01*
X92690714Y-134837380D01*
X92357380Y-133837380D02*
X91690714Y-133837380D01*
X92119285Y-134837380D01*
X91309761Y-134456428D02*
X90547857Y-134456428D01*
X90119285Y-133932619D02*
X90071666Y-133885000D01*
X89976428Y-133837380D01*
X89738333Y-133837380D01*
X89643095Y-133885000D01*
X89595476Y-133932619D01*
X89547857Y-134027857D01*
X89547857Y-134123095D01*
X89595476Y-134265952D01*
X90166904Y-134837380D01*
X89547857Y-134837380D01*
X89119285Y-134742142D02*
X89071666Y-134789761D01*
X89119285Y-134837380D01*
X89166904Y-134789761D01*
X89119285Y-134742142D01*
X89119285Y-134837380D01*
X88166904Y-133837380D02*
X88643095Y-133837380D01*
X88690714Y-134313571D01*
X88643095Y-134265952D01*
X88547857Y-134218333D01*
X88309761Y-134218333D01*
X88214523Y-134265952D01*
X88166904Y-134313571D01*
X88119285Y-134408809D01*
X88119285Y-134646904D01*
X88166904Y-134742142D01*
X88214523Y-134789761D01*
X88309761Y-134837380D01*
X88547857Y-134837380D01*
X88643095Y-134789761D01*
X88690714Y-134742142D01*
X87262142Y-134170714D02*
X87262142Y-134837380D01*
X87500238Y-133789761D02*
X87738333Y-134504047D01*
X87119285Y-134504047D01*
X159643095Y-119551666D02*
X159166904Y-119551666D01*
X159738333Y-119837380D02*
X159405000Y-118837380D01*
X159071666Y-119837380D01*
X158738333Y-119837380D02*
X158738333Y-118837380D01*
X158500238Y-118837380D01*
X158357380Y-118885000D01*
X158262142Y-118980238D01*
X158214523Y-119075476D01*
X158166904Y-119265952D01*
X158166904Y-119408809D01*
X158214523Y-119599285D01*
X158262142Y-119694523D01*
X158357380Y-119789761D01*
X158500238Y-119837380D01*
X158738333Y-119837380D01*
X157785952Y-119551666D02*
X157309761Y-119551666D01*
X157881190Y-119837380D02*
X157547857Y-118837380D01*
X157214523Y-119837380D01*
X156881190Y-119837380D02*
X156881190Y-118837380D01*
X156500238Y-118837380D01*
X156405000Y-118885000D01*
X156357380Y-118932619D01*
X156309761Y-119027857D01*
X156309761Y-119170714D01*
X156357380Y-119265952D01*
X156405000Y-119313571D01*
X156500238Y-119361190D01*
X156881190Y-119361190D01*
X155881190Y-119456428D02*
X155119285Y-119456428D01*
X154119285Y-119837380D02*
X154690714Y-119837380D01*
X154405000Y-119837380D02*
X154405000Y-118837380D01*
X154500238Y-118980238D01*
X154595476Y-119075476D01*
X154690714Y-119123095D01*
X153690714Y-119742142D02*
X153643095Y-119789761D01*
X153690714Y-119837380D01*
X153738333Y-119789761D01*
X153690714Y-119742142D01*
X153690714Y-119837380D01*
X153262142Y-118932619D02*
X153214523Y-118885000D01*
X153119285Y-118837380D01*
X152881190Y-118837380D01*
X152785952Y-118885000D01*
X152738333Y-118932619D01*
X152690714Y-119027857D01*
X152690714Y-119123095D01*
X152738333Y-119265952D01*
X153309761Y-119837380D01*
X152690714Y-119837380D01*
X152357380Y-118837380D02*
X151690714Y-118837380D01*
X152119285Y-119837380D01*
X151309761Y-119456428D02*
X150547857Y-119456428D01*
X150119285Y-118932619D02*
X150071666Y-118885000D01*
X149976428Y-118837380D01*
X149738333Y-118837380D01*
X149643095Y-118885000D01*
X149595476Y-118932619D01*
X149547857Y-119027857D01*
X149547857Y-119123095D01*
X149595476Y-119265952D01*
X150166904Y-119837380D01*
X149547857Y-119837380D01*
X149119285Y-119742142D02*
X149071666Y-119789761D01*
X149119285Y-119837380D01*
X149166904Y-119789761D01*
X149119285Y-119742142D01*
X149119285Y-119837380D01*
X148166904Y-118837380D02*
X148643095Y-118837380D01*
X148690714Y-119313571D01*
X148643095Y-119265952D01*
X148547857Y-119218333D01*
X148309761Y-119218333D01*
X148214523Y-119265952D01*
X148166904Y-119313571D01*
X148119285Y-119408809D01*
X148119285Y-119646904D01*
X148166904Y-119742142D01*
X148214523Y-119789761D01*
X148309761Y-119837380D01*
X148547857Y-119837380D01*
X148643095Y-119789761D01*
X148690714Y-119742142D01*
X147262142Y-119170714D02*
X147262142Y-119837380D01*
X147500238Y-118789761D02*
X147738333Y-119504047D01*
X147119285Y-119504047D01*
X129643095Y-119551666D02*
X129166904Y-119551666D01*
X129738333Y-119837380D02*
X129405000Y-118837380D01*
X129071666Y-119837380D01*
X128738333Y-119837380D02*
X128738333Y-118837380D01*
X128500238Y-118837380D01*
X128357380Y-118885000D01*
X128262142Y-118980238D01*
X128214523Y-119075476D01*
X128166904Y-119265952D01*
X128166904Y-119408809D01*
X128214523Y-119599285D01*
X128262142Y-119694523D01*
X128357380Y-119789761D01*
X128500238Y-119837380D01*
X128738333Y-119837380D01*
X127785952Y-119551666D02*
X127309761Y-119551666D01*
X127881190Y-119837380D02*
X127547857Y-118837380D01*
X127214523Y-119837380D01*
X126881190Y-119837380D02*
X126881190Y-118837380D01*
X126500238Y-118837380D01*
X126405000Y-118885000D01*
X126357380Y-118932619D01*
X126309761Y-119027857D01*
X126309761Y-119170714D01*
X126357380Y-119265952D01*
X126405000Y-119313571D01*
X126500238Y-119361190D01*
X126881190Y-119361190D01*
X125881190Y-119456428D02*
X125119285Y-119456428D01*
X124119285Y-119837380D02*
X124690714Y-119837380D01*
X124405000Y-119837380D02*
X124405000Y-118837380D01*
X124500238Y-118980238D01*
X124595476Y-119075476D01*
X124690714Y-119123095D01*
X123690714Y-119742142D02*
X123643095Y-119789761D01*
X123690714Y-119837380D01*
X123738333Y-119789761D01*
X123690714Y-119742142D01*
X123690714Y-119837380D01*
X123262142Y-118932619D02*
X123214523Y-118885000D01*
X123119285Y-118837380D01*
X122881190Y-118837380D01*
X122785952Y-118885000D01*
X122738333Y-118932619D01*
X122690714Y-119027857D01*
X122690714Y-119123095D01*
X122738333Y-119265952D01*
X123309761Y-119837380D01*
X122690714Y-119837380D01*
X122357380Y-118837380D02*
X121690714Y-118837380D01*
X122119285Y-119837380D01*
X121309761Y-119456428D02*
X120547857Y-119456428D01*
X120119285Y-118932619D02*
X120071666Y-118885000D01*
X119976428Y-118837380D01*
X119738333Y-118837380D01*
X119643095Y-118885000D01*
X119595476Y-118932619D01*
X119547857Y-119027857D01*
X119547857Y-119123095D01*
X119595476Y-119265952D01*
X120166904Y-119837380D01*
X119547857Y-119837380D01*
X119119285Y-119742142D02*
X119071666Y-119789761D01*
X119119285Y-119837380D01*
X119166904Y-119789761D01*
X119119285Y-119742142D01*
X119119285Y-119837380D01*
X118166904Y-118837380D02*
X118643095Y-118837380D01*
X118690714Y-119313571D01*
X118643095Y-119265952D01*
X118547857Y-119218333D01*
X118309761Y-119218333D01*
X118214523Y-119265952D01*
X118166904Y-119313571D01*
X118119285Y-119408809D01*
X118119285Y-119646904D01*
X118166904Y-119742142D01*
X118214523Y-119789761D01*
X118309761Y-119837380D01*
X118547857Y-119837380D01*
X118643095Y-119789761D01*
X118690714Y-119742142D01*
X117262142Y-119170714D02*
X117262142Y-119837380D01*
X117500238Y-118789761D02*
X117738333Y-119504047D01*
X117119285Y-119504047D01*
X99643095Y-119551666D02*
X99166904Y-119551666D01*
X99738333Y-119837380D02*
X99405000Y-118837380D01*
X99071666Y-119837380D01*
X98738333Y-119837380D02*
X98738333Y-118837380D01*
X98500238Y-118837380D01*
X98357380Y-118885000D01*
X98262142Y-118980238D01*
X98214523Y-119075476D01*
X98166904Y-119265952D01*
X98166904Y-119408809D01*
X98214523Y-119599285D01*
X98262142Y-119694523D01*
X98357380Y-119789761D01*
X98500238Y-119837380D01*
X98738333Y-119837380D01*
X97785952Y-119551666D02*
X97309761Y-119551666D01*
X97881190Y-119837380D02*
X97547857Y-118837380D01*
X97214523Y-119837380D01*
X96881190Y-119837380D02*
X96881190Y-118837380D01*
X96500238Y-118837380D01*
X96405000Y-118885000D01*
X96357380Y-118932619D01*
X96309761Y-119027857D01*
X96309761Y-119170714D01*
X96357380Y-119265952D01*
X96405000Y-119313571D01*
X96500238Y-119361190D01*
X96881190Y-119361190D01*
X95881190Y-119456428D02*
X95119285Y-119456428D01*
X94119285Y-119837380D02*
X94690714Y-119837380D01*
X94405000Y-119837380D02*
X94405000Y-118837380D01*
X94500238Y-118980238D01*
X94595476Y-119075476D01*
X94690714Y-119123095D01*
X93690714Y-119742142D02*
X93643095Y-119789761D01*
X93690714Y-119837380D01*
X93738333Y-119789761D01*
X93690714Y-119742142D01*
X93690714Y-119837380D01*
X93262142Y-118932619D02*
X93214523Y-118885000D01*
X93119285Y-118837380D01*
X92881190Y-118837380D01*
X92785952Y-118885000D01*
X92738333Y-118932619D01*
X92690714Y-119027857D01*
X92690714Y-119123095D01*
X92738333Y-119265952D01*
X93309761Y-119837380D01*
X92690714Y-119837380D01*
X92357380Y-118837380D02*
X91690714Y-118837380D01*
X92119285Y-119837380D01*
X91309761Y-119456428D02*
X90547857Y-119456428D01*
X90119285Y-118932619D02*
X90071666Y-118885000D01*
X89976428Y-118837380D01*
X89738333Y-118837380D01*
X89643095Y-118885000D01*
X89595476Y-118932619D01*
X89547857Y-119027857D01*
X89547857Y-119123095D01*
X89595476Y-119265952D01*
X90166904Y-119837380D01*
X89547857Y-119837380D01*
X89119285Y-119742142D02*
X89071666Y-119789761D01*
X89119285Y-119837380D01*
X89166904Y-119789761D01*
X89119285Y-119742142D01*
X89119285Y-119837380D01*
X88166904Y-118837380D02*
X88643095Y-118837380D01*
X88690714Y-119313571D01*
X88643095Y-119265952D01*
X88547857Y-119218333D01*
X88309761Y-119218333D01*
X88214523Y-119265952D01*
X88166904Y-119313571D01*
X88119285Y-119408809D01*
X88119285Y-119646904D01*
X88166904Y-119742142D01*
X88214523Y-119789761D01*
X88309761Y-119837380D01*
X88547857Y-119837380D01*
X88643095Y-119789761D01*
X88690714Y-119742142D01*
X87262142Y-119170714D02*
X87262142Y-119837380D01*
X87500238Y-118789761D02*
X87738333Y-119504047D01*
X87119285Y-119504047D01*
X159643095Y-104551666D02*
X159166904Y-104551666D01*
X159738333Y-104837380D02*
X159405000Y-103837380D01*
X159071666Y-104837380D01*
X158738333Y-104837380D02*
X158738333Y-103837380D01*
X158500238Y-103837380D01*
X158357380Y-103885000D01*
X158262142Y-103980238D01*
X158214523Y-104075476D01*
X158166904Y-104265952D01*
X158166904Y-104408809D01*
X158214523Y-104599285D01*
X158262142Y-104694523D01*
X158357380Y-104789761D01*
X158500238Y-104837380D01*
X158738333Y-104837380D01*
X157785952Y-104551666D02*
X157309761Y-104551666D01*
X157881190Y-104837380D02*
X157547857Y-103837380D01*
X157214523Y-104837380D01*
X156881190Y-104837380D02*
X156881190Y-103837380D01*
X156500238Y-103837380D01*
X156405000Y-103885000D01*
X156357380Y-103932619D01*
X156309761Y-104027857D01*
X156309761Y-104170714D01*
X156357380Y-104265952D01*
X156405000Y-104313571D01*
X156500238Y-104361190D01*
X156881190Y-104361190D01*
X155881190Y-104456428D02*
X155119285Y-104456428D01*
X154119285Y-104837380D02*
X154690714Y-104837380D01*
X154405000Y-104837380D02*
X154405000Y-103837380D01*
X154500238Y-103980238D01*
X154595476Y-104075476D01*
X154690714Y-104123095D01*
X153690714Y-104742142D02*
X153643095Y-104789761D01*
X153690714Y-104837380D01*
X153738333Y-104789761D01*
X153690714Y-104742142D01*
X153690714Y-104837380D01*
X153262142Y-103932619D02*
X153214523Y-103885000D01*
X153119285Y-103837380D01*
X152881190Y-103837380D01*
X152785952Y-103885000D01*
X152738333Y-103932619D01*
X152690714Y-104027857D01*
X152690714Y-104123095D01*
X152738333Y-104265952D01*
X153309761Y-104837380D01*
X152690714Y-104837380D01*
X152357380Y-103837380D02*
X151690714Y-103837380D01*
X152119285Y-104837380D01*
X151309761Y-104456428D02*
X150547857Y-104456428D01*
X150119285Y-103932619D02*
X150071666Y-103885000D01*
X149976428Y-103837380D01*
X149738333Y-103837380D01*
X149643095Y-103885000D01*
X149595476Y-103932619D01*
X149547857Y-104027857D01*
X149547857Y-104123095D01*
X149595476Y-104265952D01*
X150166904Y-104837380D01*
X149547857Y-104837380D01*
X149119285Y-104742142D02*
X149071666Y-104789761D01*
X149119285Y-104837380D01*
X149166904Y-104789761D01*
X149119285Y-104742142D01*
X149119285Y-104837380D01*
X148166904Y-103837380D02*
X148643095Y-103837380D01*
X148690714Y-104313571D01*
X148643095Y-104265952D01*
X148547857Y-104218333D01*
X148309761Y-104218333D01*
X148214523Y-104265952D01*
X148166904Y-104313571D01*
X148119285Y-104408809D01*
X148119285Y-104646904D01*
X148166904Y-104742142D01*
X148214523Y-104789761D01*
X148309761Y-104837380D01*
X148547857Y-104837380D01*
X148643095Y-104789761D01*
X148690714Y-104742142D01*
X147262142Y-104170714D02*
X147262142Y-104837380D01*
X147500238Y-103789761D02*
X147738333Y-104504047D01*
X147119285Y-104504047D01*
X129643095Y-104551666D02*
X129166904Y-104551666D01*
X129738333Y-104837380D02*
X129405000Y-103837380D01*
X129071666Y-104837380D01*
X128738333Y-104837380D02*
X128738333Y-103837380D01*
X128500238Y-103837380D01*
X128357380Y-103885000D01*
X128262142Y-103980238D01*
X128214523Y-104075476D01*
X128166904Y-104265952D01*
X128166904Y-104408809D01*
X128214523Y-104599285D01*
X128262142Y-104694523D01*
X128357380Y-104789761D01*
X128500238Y-104837380D01*
X128738333Y-104837380D01*
X127785952Y-104551666D02*
X127309761Y-104551666D01*
X127881190Y-104837380D02*
X127547857Y-103837380D01*
X127214523Y-104837380D01*
X126881190Y-104837380D02*
X126881190Y-103837380D01*
X126500238Y-103837380D01*
X126405000Y-103885000D01*
X126357380Y-103932619D01*
X126309761Y-104027857D01*
X126309761Y-104170714D01*
X126357380Y-104265952D01*
X126405000Y-104313571D01*
X126500238Y-104361190D01*
X126881190Y-104361190D01*
X125881190Y-104456428D02*
X125119285Y-104456428D01*
X124119285Y-104837380D02*
X124690714Y-104837380D01*
X124405000Y-104837380D02*
X124405000Y-103837380D01*
X124500238Y-103980238D01*
X124595476Y-104075476D01*
X124690714Y-104123095D01*
X123690714Y-104742142D02*
X123643095Y-104789761D01*
X123690714Y-104837380D01*
X123738333Y-104789761D01*
X123690714Y-104742142D01*
X123690714Y-104837380D01*
X123262142Y-103932619D02*
X123214523Y-103885000D01*
X123119285Y-103837380D01*
X122881190Y-103837380D01*
X122785952Y-103885000D01*
X122738333Y-103932619D01*
X122690714Y-104027857D01*
X122690714Y-104123095D01*
X122738333Y-104265952D01*
X123309761Y-104837380D01*
X122690714Y-104837380D01*
X122357380Y-103837380D02*
X121690714Y-103837380D01*
X122119285Y-104837380D01*
X121309761Y-104456428D02*
X120547857Y-104456428D01*
X120119285Y-103932619D02*
X120071666Y-103885000D01*
X119976428Y-103837380D01*
X119738333Y-103837380D01*
X119643095Y-103885000D01*
X119595476Y-103932619D01*
X119547857Y-104027857D01*
X119547857Y-104123095D01*
X119595476Y-104265952D01*
X120166904Y-104837380D01*
X119547857Y-104837380D01*
X119119285Y-104742142D02*
X119071666Y-104789761D01*
X119119285Y-104837380D01*
X119166904Y-104789761D01*
X119119285Y-104742142D01*
X119119285Y-104837380D01*
X118166904Y-103837380D02*
X118643095Y-103837380D01*
X118690714Y-104313571D01*
X118643095Y-104265952D01*
X118547857Y-104218333D01*
X118309761Y-104218333D01*
X118214523Y-104265952D01*
X118166904Y-104313571D01*
X118119285Y-104408809D01*
X118119285Y-104646904D01*
X118166904Y-104742142D01*
X118214523Y-104789761D01*
X118309761Y-104837380D01*
X118547857Y-104837380D01*
X118643095Y-104789761D01*
X118690714Y-104742142D01*
X117262142Y-104170714D02*
X117262142Y-104837380D01*
X117500238Y-103789761D02*
X117738333Y-104504047D01*
X117119285Y-104504047D01*
X99643095Y-104551666D02*
X99166904Y-104551666D01*
X99738333Y-104837380D02*
X99405000Y-103837380D01*
X99071666Y-104837380D01*
X98738333Y-104837380D02*
X98738333Y-103837380D01*
X98500238Y-103837380D01*
X98357380Y-103885000D01*
X98262142Y-103980238D01*
X98214523Y-104075476D01*
X98166904Y-104265952D01*
X98166904Y-104408809D01*
X98214523Y-104599285D01*
X98262142Y-104694523D01*
X98357380Y-104789761D01*
X98500238Y-104837380D01*
X98738333Y-104837380D01*
X97785952Y-104551666D02*
X97309761Y-104551666D01*
X97881190Y-104837380D02*
X97547857Y-103837380D01*
X97214523Y-104837380D01*
X96881190Y-104837380D02*
X96881190Y-103837380D01*
X96500238Y-103837380D01*
X96405000Y-103885000D01*
X96357380Y-103932619D01*
X96309761Y-104027857D01*
X96309761Y-104170714D01*
X96357380Y-104265952D01*
X96405000Y-104313571D01*
X96500238Y-104361190D01*
X96881190Y-104361190D01*
X95881190Y-104456428D02*
X95119285Y-104456428D01*
X94119285Y-104837380D02*
X94690714Y-104837380D01*
X94405000Y-104837380D02*
X94405000Y-103837380D01*
X94500238Y-103980238D01*
X94595476Y-104075476D01*
X94690714Y-104123095D01*
X93690714Y-104742142D02*
X93643095Y-104789761D01*
X93690714Y-104837380D01*
X93738333Y-104789761D01*
X93690714Y-104742142D01*
X93690714Y-104837380D01*
X93262142Y-103932619D02*
X93214523Y-103885000D01*
X93119285Y-103837380D01*
X92881190Y-103837380D01*
X92785952Y-103885000D01*
X92738333Y-103932619D01*
X92690714Y-104027857D01*
X92690714Y-104123095D01*
X92738333Y-104265952D01*
X93309761Y-104837380D01*
X92690714Y-104837380D01*
X92357380Y-103837380D02*
X91690714Y-103837380D01*
X92119285Y-104837380D01*
X91309761Y-104456428D02*
X90547857Y-104456428D01*
X90119285Y-103932619D02*
X90071666Y-103885000D01*
X89976428Y-103837380D01*
X89738333Y-103837380D01*
X89643095Y-103885000D01*
X89595476Y-103932619D01*
X89547857Y-104027857D01*
X89547857Y-104123095D01*
X89595476Y-104265952D01*
X90166904Y-104837380D01*
X89547857Y-104837380D01*
X89119285Y-104742142D02*
X89071666Y-104789761D01*
X89119285Y-104837380D01*
X89166904Y-104789761D01*
X89119285Y-104742142D01*
X89119285Y-104837380D01*
X88166904Y-103837380D02*
X88643095Y-103837380D01*
X88690714Y-104313571D01*
X88643095Y-104265952D01*
X88547857Y-104218333D01*
X88309761Y-104218333D01*
X88214523Y-104265952D01*
X88166904Y-104313571D01*
X88119285Y-104408809D01*
X88119285Y-104646904D01*
X88166904Y-104742142D01*
X88214523Y-104789761D01*
X88309761Y-104837380D01*
X88547857Y-104837380D01*
X88643095Y-104789761D01*
X88690714Y-104742142D01*
X87262142Y-104170714D02*
X87262142Y-104837380D01*
X87500238Y-103789761D02*
X87738333Y-104504047D01*
X87119285Y-104504047D01*
X159643095Y-89551666D02*
X159166904Y-89551666D01*
X159738333Y-89837380D02*
X159405000Y-88837380D01*
X159071666Y-89837380D01*
X158738333Y-89837380D02*
X158738333Y-88837380D01*
X158500238Y-88837380D01*
X158357380Y-88885000D01*
X158262142Y-88980238D01*
X158214523Y-89075476D01*
X158166904Y-89265952D01*
X158166904Y-89408809D01*
X158214523Y-89599285D01*
X158262142Y-89694523D01*
X158357380Y-89789761D01*
X158500238Y-89837380D01*
X158738333Y-89837380D01*
X157785952Y-89551666D02*
X157309761Y-89551666D01*
X157881190Y-89837380D02*
X157547857Y-88837380D01*
X157214523Y-89837380D01*
X156881190Y-89837380D02*
X156881190Y-88837380D01*
X156500238Y-88837380D01*
X156405000Y-88885000D01*
X156357380Y-88932619D01*
X156309761Y-89027857D01*
X156309761Y-89170714D01*
X156357380Y-89265952D01*
X156405000Y-89313571D01*
X156500238Y-89361190D01*
X156881190Y-89361190D01*
X155881190Y-89456428D02*
X155119285Y-89456428D01*
X154119285Y-89837380D02*
X154690714Y-89837380D01*
X154405000Y-89837380D02*
X154405000Y-88837380D01*
X154500238Y-88980238D01*
X154595476Y-89075476D01*
X154690714Y-89123095D01*
X153690714Y-89742142D02*
X153643095Y-89789761D01*
X153690714Y-89837380D01*
X153738333Y-89789761D01*
X153690714Y-89742142D01*
X153690714Y-89837380D01*
X153262142Y-88932619D02*
X153214523Y-88885000D01*
X153119285Y-88837380D01*
X152881190Y-88837380D01*
X152785952Y-88885000D01*
X152738333Y-88932619D01*
X152690714Y-89027857D01*
X152690714Y-89123095D01*
X152738333Y-89265952D01*
X153309761Y-89837380D01*
X152690714Y-89837380D01*
X152357380Y-88837380D02*
X151690714Y-88837380D01*
X152119285Y-89837380D01*
X151309761Y-89456428D02*
X150547857Y-89456428D01*
X150119285Y-88932619D02*
X150071666Y-88885000D01*
X149976428Y-88837380D01*
X149738333Y-88837380D01*
X149643095Y-88885000D01*
X149595476Y-88932619D01*
X149547857Y-89027857D01*
X149547857Y-89123095D01*
X149595476Y-89265952D01*
X150166904Y-89837380D01*
X149547857Y-89837380D01*
X149119285Y-89742142D02*
X149071666Y-89789761D01*
X149119285Y-89837380D01*
X149166904Y-89789761D01*
X149119285Y-89742142D01*
X149119285Y-89837380D01*
X148166904Y-88837380D02*
X148643095Y-88837380D01*
X148690714Y-89313571D01*
X148643095Y-89265952D01*
X148547857Y-89218333D01*
X148309761Y-89218333D01*
X148214523Y-89265952D01*
X148166904Y-89313571D01*
X148119285Y-89408809D01*
X148119285Y-89646904D01*
X148166904Y-89742142D01*
X148214523Y-89789761D01*
X148309761Y-89837380D01*
X148547857Y-89837380D01*
X148643095Y-89789761D01*
X148690714Y-89742142D01*
X147262142Y-89170714D02*
X147262142Y-89837380D01*
X147500238Y-88789761D02*
X147738333Y-89504047D01*
X147119285Y-89504047D01*
X129643095Y-89551666D02*
X129166904Y-89551666D01*
X129738333Y-89837380D02*
X129405000Y-88837380D01*
X129071666Y-89837380D01*
X128738333Y-89837380D02*
X128738333Y-88837380D01*
X128500238Y-88837380D01*
X128357380Y-88885000D01*
X128262142Y-88980238D01*
X128214523Y-89075476D01*
X128166904Y-89265952D01*
X128166904Y-89408809D01*
X128214523Y-89599285D01*
X128262142Y-89694523D01*
X128357380Y-89789761D01*
X128500238Y-89837380D01*
X128738333Y-89837380D01*
X127785952Y-89551666D02*
X127309761Y-89551666D01*
X127881190Y-89837380D02*
X127547857Y-88837380D01*
X127214523Y-89837380D01*
X126881190Y-89837380D02*
X126881190Y-88837380D01*
X126500238Y-88837380D01*
X126405000Y-88885000D01*
X126357380Y-88932619D01*
X126309761Y-89027857D01*
X126309761Y-89170714D01*
X126357380Y-89265952D01*
X126405000Y-89313571D01*
X126500238Y-89361190D01*
X126881190Y-89361190D01*
X125881190Y-89456428D02*
X125119285Y-89456428D01*
X124119285Y-89837380D02*
X124690714Y-89837380D01*
X124405000Y-89837380D02*
X124405000Y-88837380D01*
X124500238Y-88980238D01*
X124595476Y-89075476D01*
X124690714Y-89123095D01*
X123690714Y-89742142D02*
X123643095Y-89789761D01*
X123690714Y-89837380D01*
X123738333Y-89789761D01*
X123690714Y-89742142D01*
X123690714Y-89837380D01*
X123262142Y-88932619D02*
X123214523Y-88885000D01*
X123119285Y-88837380D01*
X122881190Y-88837380D01*
X122785952Y-88885000D01*
X122738333Y-88932619D01*
X122690714Y-89027857D01*
X122690714Y-89123095D01*
X122738333Y-89265952D01*
X123309761Y-89837380D01*
X122690714Y-89837380D01*
X122357380Y-88837380D02*
X121690714Y-88837380D01*
X122119285Y-89837380D01*
X121309761Y-89456428D02*
X120547857Y-89456428D01*
X120119285Y-88932619D02*
X120071666Y-88885000D01*
X119976428Y-88837380D01*
X119738333Y-88837380D01*
X119643095Y-88885000D01*
X119595476Y-88932619D01*
X119547857Y-89027857D01*
X119547857Y-89123095D01*
X119595476Y-89265952D01*
X120166904Y-89837380D01*
X119547857Y-89837380D01*
X119119285Y-89742142D02*
X119071666Y-89789761D01*
X119119285Y-89837380D01*
X119166904Y-89789761D01*
X119119285Y-89742142D01*
X119119285Y-89837380D01*
X118166904Y-88837380D02*
X118643095Y-88837380D01*
X118690714Y-89313571D01*
X118643095Y-89265952D01*
X118547857Y-89218333D01*
X118309761Y-89218333D01*
X118214523Y-89265952D01*
X118166904Y-89313571D01*
X118119285Y-89408809D01*
X118119285Y-89646904D01*
X118166904Y-89742142D01*
X118214523Y-89789761D01*
X118309761Y-89837380D01*
X118547857Y-89837380D01*
X118643095Y-89789761D01*
X118690714Y-89742142D01*
X117262142Y-89170714D02*
X117262142Y-89837380D01*
X117500238Y-88789761D02*
X117738333Y-89504047D01*
X117119285Y-89504047D01*
X99643095Y-89551666D02*
X99166904Y-89551666D01*
X99738333Y-89837380D02*
X99405000Y-88837380D01*
X99071666Y-89837380D01*
X98738333Y-89837380D02*
X98738333Y-88837380D01*
X98500238Y-88837380D01*
X98357380Y-88885000D01*
X98262142Y-88980238D01*
X98214523Y-89075476D01*
X98166904Y-89265952D01*
X98166904Y-89408809D01*
X98214523Y-89599285D01*
X98262142Y-89694523D01*
X98357380Y-89789761D01*
X98500238Y-89837380D01*
X98738333Y-89837380D01*
X97785952Y-89551666D02*
X97309761Y-89551666D01*
X97881190Y-89837380D02*
X97547857Y-88837380D01*
X97214523Y-89837380D01*
X96881190Y-89837380D02*
X96881190Y-88837380D01*
X96500238Y-88837380D01*
X96405000Y-88885000D01*
X96357380Y-88932619D01*
X96309761Y-89027857D01*
X96309761Y-89170714D01*
X96357380Y-89265952D01*
X96405000Y-89313571D01*
X96500238Y-89361190D01*
X96881190Y-89361190D01*
X95881190Y-89456428D02*
X95119285Y-89456428D01*
X94119285Y-89837380D02*
X94690714Y-89837380D01*
X94405000Y-89837380D02*
X94405000Y-88837380D01*
X94500238Y-88980238D01*
X94595476Y-89075476D01*
X94690714Y-89123095D01*
X93690714Y-89742142D02*
X93643095Y-89789761D01*
X93690714Y-89837380D01*
X93738333Y-89789761D01*
X93690714Y-89742142D01*
X93690714Y-89837380D01*
X93262142Y-88932619D02*
X93214523Y-88885000D01*
X93119285Y-88837380D01*
X92881190Y-88837380D01*
X92785952Y-88885000D01*
X92738333Y-88932619D01*
X92690714Y-89027857D01*
X92690714Y-89123095D01*
X92738333Y-89265952D01*
X93309761Y-89837380D01*
X92690714Y-89837380D01*
X92357380Y-88837380D02*
X91690714Y-88837380D01*
X92119285Y-89837380D01*
X91309761Y-89456428D02*
X90547857Y-89456428D01*
X90119285Y-88932619D02*
X90071666Y-88885000D01*
X89976428Y-88837380D01*
X89738333Y-88837380D01*
X89643095Y-88885000D01*
X89595476Y-88932619D01*
X89547857Y-89027857D01*
X89547857Y-89123095D01*
X89595476Y-89265952D01*
X90166904Y-89837380D01*
X89547857Y-89837380D01*
X89119285Y-89742142D02*
X89071666Y-89789761D01*
X89119285Y-89837380D01*
X89166904Y-89789761D01*
X89119285Y-89742142D01*
X89119285Y-89837380D01*
X88166904Y-88837380D02*
X88643095Y-88837380D01*
X88690714Y-89313571D01*
X88643095Y-89265952D01*
X88547857Y-89218333D01*
X88309761Y-89218333D01*
X88214523Y-89265952D01*
X88166904Y-89313571D01*
X88119285Y-89408809D01*
X88119285Y-89646904D01*
X88166904Y-89742142D01*
X88214523Y-89789761D01*
X88309761Y-89837380D01*
X88547857Y-89837380D01*
X88643095Y-89789761D01*
X88690714Y-89742142D01*
X87262142Y-89170714D02*
X87262142Y-89837380D01*
X87500238Y-88789761D02*
X87738333Y-89504047D01*
X87119285Y-89504047D01*
X159643095Y-74551666D02*
X159166904Y-74551666D01*
X159738333Y-74837380D02*
X159405000Y-73837380D01*
X159071666Y-74837380D01*
X158738333Y-74837380D02*
X158738333Y-73837380D01*
X158500238Y-73837380D01*
X158357380Y-73885000D01*
X158262142Y-73980238D01*
X158214523Y-74075476D01*
X158166904Y-74265952D01*
X158166904Y-74408809D01*
X158214523Y-74599285D01*
X158262142Y-74694523D01*
X158357380Y-74789761D01*
X158500238Y-74837380D01*
X158738333Y-74837380D01*
X157785952Y-74551666D02*
X157309761Y-74551666D01*
X157881190Y-74837380D02*
X157547857Y-73837380D01*
X157214523Y-74837380D01*
X156881190Y-74837380D02*
X156881190Y-73837380D01*
X156500238Y-73837380D01*
X156405000Y-73885000D01*
X156357380Y-73932619D01*
X156309761Y-74027857D01*
X156309761Y-74170714D01*
X156357380Y-74265952D01*
X156405000Y-74313571D01*
X156500238Y-74361190D01*
X156881190Y-74361190D01*
X155881190Y-74456428D02*
X155119285Y-74456428D01*
X154119285Y-74837380D02*
X154690714Y-74837380D01*
X154405000Y-74837380D02*
X154405000Y-73837380D01*
X154500238Y-73980238D01*
X154595476Y-74075476D01*
X154690714Y-74123095D01*
X153690714Y-74742142D02*
X153643095Y-74789761D01*
X153690714Y-74837380D01*
X153738333Y-74789761D01*
X153690714Y-74742142D01*
X153690714Y-74837380D01*
X153262142Y-73932619D02*
X153214523Y-73885000D01*
X153119285Y-73837380D01*
X152881190Y-73837380D01*
X152785952Y-73885000D01*
X152738333Y-73932619D01*
X152690714Y-74027857D01*
X152690714Y-74123095D01*
X152738333Y-74265952D01*
X153309761Y-74837380D01*
X152690714Y-74837380D01*
X152357380Y-73837380D02*
X151690714Y-73837380D01*
X152119285Y-74837380D01*
X151309761Y-74456428D02*
X150547857Y-74456428D01*
X150119285Y-73932619D02*
X150071666Y-73885000D01*
X149976428Y-73837380D01*
X149738333Y-73837380D01*
X149643095Y-73885000D01*
X149595476Y-73932619D01*
X149547857Y-74027857D01*
X149547857Y-74123095D01*
X149595476Y-74265952D01*
X150166904Y-74837380D01*
X149547857Y-74837380D01*
X149119285Y-74742142D02*
X149071666Y-74789761D01*
X149119285Y-74837380D01*
X149166904Y-74789761D01*
X149119285Y-74742142D01*
X149119285Y-74837380D01*
X148166904Y-73837380D02*
X148643095Y-73837380D01*
X148690714Y-74313571D01*
X148643095Y-74265952D01*
X148547857Y-74218333D01*
X148309761Y-74218333D01*
X148214523Y-74265952D01*
X148166904Y-74313571D01*
X148119285Y-74408809D01*
X148119285Y-74646904D01*
X148166904Y-74742142D01*
X148214523Y-74789761D01*
X148309761Y-74837380D01*
X148547857Y-74837380D01*
X148643095Y-74789761D01*
X148690714Y-74742142D01*
X147262142Y-74170714D02*
X147262142Y-74837380D01*
X147500238Y-73789761D02*
X147738333Y-74504047D01*
X147119285Y-74504047D01*
X129643095Y-74551666D02*
X129166904Y-74551666D01*
X129738333Y-74837380D02*
X129405000Y-73837380D01*
X129071666Y-74837380D01*
X128738333Y-74837380D02*
X128738333Y-73837380D01*
X128500238Y-73837380D01*
X128357380Y-73885000D01*
X128262142Y-73980238D01*
X128214523Y-74075476D01*
X128166904Y-74265952D01*
X128166904Y-74408809D01*
X128214523Y-74599285D01*
X128262142Y-74694523D01*
X128357380Y-74789761D01*
X128500238Y-74837380D01*
X128738333Y-74837380D01*
X127785952Y-74551666D02*
X127309761Y-74551666D01*
X127881190Y-74837380D02*
X127547857Y-73837380D01*
X127214523Y-74837380D01*
X126881190Y-74837380D02*
X126881190Y-73837380D01*
X126500238Y-73837380D01*
X126405000Y-73885000D01*
X126357380Y-73932619D01*
X126309761Y-74027857D01*
X126309761Y-74170714D01*
X126357380Y-74265952D01*
X126405000Y-74313571D01*
X126500238Y-74361190D01*
X126881190Y-74361190D01*
X125881190Y-74456428D02*
X125119285Y-74456428D01*
X124119285Y-74837380D02*
X124690714Y-74837380D01*
X124405000Y-74837380D02*
X124405000Y-73837380D01*
X124500238Y-73980238D01*
X124595476Y-74075476D01*
X124690714Y-74123095D01*
X123690714Y-74742142D02*
X123643095Y-74789761D01*
X123690714Y-74837380D01*
X123738333Y-74789761D01*
X123690714Y-74742142D01*
X123690714Y-74837380D01*
X123262142Y-73932619D02*
X123214523Y-73885000D01*
X123119285Y-73837380D01*
X122881190Y-73837380D01*
X122785952Y-73885000D01*
X122738333Y-73932619D01*
X122690714Y-74027857D01*
X122690714Y-74123095D01*
X122738333Y-74265952D01*
X123309761Y-74837380D01*
X122690714Y-74837380D01*
X122357380Y-73837380D02*
X121690714Y-73837380D01*
X122119285Y-74837380D01*
X121309761Y-74456428D02*
X120547857Y-74456428D01*
X120119285Y-73932619D02*
X120071666Y-73885000D01*
X119976428Y-73837380D01*
X119738333Y-73837380D01*
X119643095Y-73885000D01*
X119595476Y-73932619D01*
X119547857Y-74027857D01*
X119547857Y-74123095D01*
X119595476Y-74265952D01*
X120166904Y-74837380D01*
X119547857Y-74837380D01*
X119119285Y-74742142D02*
X119071666Y-74789761D01*
X119119285Y-74837380D01*
X119166904Y-74789761D01*
X119119285Y-74742142D01*
X119119285Y-74837380D01*
X118166904Y-73837380D02*
X118643095Y-73837380D01*
X118690714Y-74313571D01*
X118643095Y-74265952D01*
X118547857Y-74218333D01*
X118309761Y-74218333D01*
X118214523Y-74265952D01*
X118166904Y-74313571D01*
X118119285Y-74408809D01*
X118119285Y-74646904D01*
X118166904Y-74742142D01*
X118214523Y-74789761D01*
X118309761Y-74837380D01*
X118547857Y-74837380D01*
X118643095Y-74789761D01*
X118690714Y-74742142D01*
X117262142Y-74170714D02*
X117262142Y-74837380D01*
X117500238Y-73789761D02*
X117738333Y-74504047D01*
X117119285Y-74504047D01*
X99643095Y-74551666D02*
X99166904Y-74551666D01*
X99738333Y-74837380D02*
X99405000Y-73837380D01*
X99071666Y-74837380D01*
X98738333Y-74837380D02*
X98738333Y-73837380D01*
X98500238Y-73837380D01*
X98357380Y-73885000D01*
X98262142Y-73980238D01*
X98214523Y-74075476D01*
X98166904Y-74265952D01*
X98166904Y-74408809D01*
X98214523Y-74599285D01*
X98262142Y-74694523D01*
X98357380Y-74789761D01*
X98500238Y-74837380D01*
X98738333Y-74837380D01*
X97785952Y-74551666D02*
X97309761Y-74551666D01*
X97881190Y-74837380D02*
X97547857Y-73837380D01*
X97214523Y-74837380D01*
X96881190Y-74837380D02*
X96881190Y-73837380D01*
X96500238Y-73837380D01*
X96405000Y-73885000D01*
X96357380Y-73932619D01*
X96309761Y-74027857D01*
X96309761Y-74170714D01*
X96357380Y-74265952D01*
X96405000Y-74313571D01*
X96500238Y-74361190D01*
X96881190Y-74361190D01*
X95881190Y-74456428D02*
X95119285Y-74456428D01*
X94119285Y-74837380D02*
X94690714Y-74837380D01*
X94405000Y-74837380D02*
X94405000Y-73837380D01*
X94500238Y-73980238D01*
X94595476Y-74075476D01*
X94690714Y-74123095D01*
X93690714Y-74742142D02*
X93643095Y-74789761D01*
X93690714Y-74837380D01*
X93738333Y-74789761D01*
X93690714Y-74742142D01*
X93690714Y-74837380D01*
X93262142Y-73932619D02*
X93214523Y-73885000D01*
X93119285Y-73837380D01*
X92881190Y-73837380D01*
X92785952Y-73885000D01*
X92738333Y-73932619D01*
X92690714Y-74027857D01*
X92690714Y-74123095D01*
X92738333Y-74265952D01*
X93309761Y-74837380D01*
X92690714Y-74837380D01*
X92357380Y-73837380D02*
X91690714Y-73837380D01*
X92119285Y-74837380D01*
X91309761Y-74456428D02*
X90547857Y-74456428D01*
X90119285Y-73932619D02*
X90071666Y-73885000D01*
X89976428Y-73837380D01*
X89738333Y-73837380D01*
X89643095Y-73885000D01*
X89595476Y-73932619D01*
X89547857Y-74027857D01*
X89547857Y-74123095D01*
X89595476Y-74265952D01*
X90166904Y-74837380D01*
X89547857Y-74837380D01*
X89119285Y-74742142D02*
X89071666Y-74789761D01*
X89119285Y-74837380D01*
X89166904Y-74789761D01*
X89119285Y-74742142D01*
X89119285Y-74837380D01*
X88166904Y-73837380D02*
X88643095Y-73837380D01*
X88690714Y-74313571D01*
X88643095Y-74265952D01*
X88547857Y-74218333D01*
X88309761Y-74218333D01*
X88214523Y-74265952D01*
X88166904Y-74313571D01*
X88119285Y-74408809D01*
X88119285Y-74646904D01*
X88166904Y-74742142D01*
X88214523Y-74789761D01*
X88309761Y-74837380D01*
X88547857Y-74837380D01*
X88643095Y-74789761D01*
X88690714Y-74742142D01*
X87262142Y-74170714D02*
X87262142Y-74837380D01*
X87500238Y-73789761D02*
X87738333Y-74504047D01*
X87119285Y-74504047D01*
X159643095Y-59551666D02*
X159166904Y-59551666D01*
X159738333Y-59837380D02*
X159405000Y-58837380D01*
X159071666Y-59837380D01*
X158738333Y-59837380D02*
X158738333Y-58837380D01*
X158500238Y-58837380D01*
X158357380Y-58885000D01*
X158262142Y-58980238D01*
X158214523Y-59075476D01*
X158166904Y-59265952D01*
X158166904Y-59408809D01*
X158214523Y-59599285D01*
X158262142Y-59694523D01*
X158357380Y-59789761D01*
X158500238Y-59837380D01*
X158738333Y-59837380D01*
X157785952Y-59551666D02*
X157309761Y-59551666D01*
X157881190Y-59837380D02*
X157547857Y-58837380D01*
X157214523Y-59837380D01*
X156881190Y-59837380D02*
X156881190Y-58837380D01*
X156500238Y-58837380D01*
X156405000Y-58885000D01*
X156357380Y-58932619D01*
X156309761Y-59027857D01*
X156309761Y-59170714D01*
X156357380Y-59265952D01*
X156405000Y-59313571D01*
X156500238Y-59361190D01*
X156881190Y-59361190D01*
X155881190Y-59456428D02*
X155119285Y-59456428D01*
X154119285Y-59837380D02*
X154690714Y-59837380D01*
X154405000Y-59837380D02*
X154405000Y-58837380D01*
X154500238Y-58980238D01*
X154595476Y-59075476D01*
X154690714Y-59123095D01*
X153690714Y-59742142D02*
X153643095Y-59789761D01*
X153690714Y-59837380D01*
X153738333Y-59789761D01*
X153690714Y-59742142D01*
X153690714Y-59837380D01*
X153262142Y-58932619D02*
X153214523Y-58885000D01*
X153119285Y-58837380D01*
X152881190Y-58837380D01*
X152785952Y-58885000D01*
X152738333Y-58932619D01*
X152690714Y-59027857D01*
X152690714Y-59123095D01*
X152738333Y-59265952D01*
X153309761Y-59837380D01*
X152690714Y-59837380D01*
X152357380Y-58837380D02*
X151690714Y-58837380D01*
X152119285Y-59837380D01*
X151309761Y-59456428D02*
X150547857Y-59456428D01*
X150119285Y-58932619D02*
X150071666Y-58885000D01*
X149976428Y-58837380D01*
X149738333Y-58837380D01*
X149643095Y-58885000D01*
X149595476Y-58932619D01*
X149547857Y-59027857D01*
X149547857Y-59123095D01*
X149595476Y-59265952D01*
X150166904Y-59837380D01*
X149547857Y-59837380D01*
X149119285Y-59742142D02*
X149071666Y-59789761D01*
X149119285Y-59837380D01*
X149166904Y-59789761D01*
X149119285Y-59742142D01*
X149119285Y-59837380D01*
X148166904Y-58837380D02*
X148643095Y-58837380D01*
X148690714Y-59313571D01*
X148643095Y-59265952D01*
X148547857Y-59218333D01*
X148309761Y-59218333D01*
X148214523Y-59265952D01*
X148166904Y-59313571D01*
X148119285Y-59408809D01*
X148119285Y-59646904D01*
X148166904Y-59742142D01*
X148214523Y-59789761D01*
X148309761Y-59837380D01*
X148547857Y-59837380D01*
X148643095Y-59789761D01*
X148690714Y-59742142D01*
X147262142Y-59170714D02*
X147262142Y-59837380D01*
X147500238Y-58789761D02*
X147738333Y-59504047D01*
X147119285Y-59504047D01*
X129643095Y-59551666D02*
X129166904Y-59551666D01*
X129738333Y-59837380D02*
X129405000Y-58837380D01*
X129071666Y-59837380D01*
X128738333Y-59837380D02*
X128738333Y-58837380D01*
X128500238Y-58837380D01*
X128357380Y-58885000D01*
X128262142Y-58980238D01*
X128214523Y-59075476D01*
X128166904Y-59265952D01*
X128166904Y-59408809D01*
X128214523Y-59599285D01*
X128262142Y-59694523D01*
X128357380Y-59789761D01*
X128500238Y-59837380D01*
X128738333Y-59837380D01*
X127785952Y-59551666D02*
X127309761Y-59551666D01*
X127881190Y-59837380D02*
X127547857Y-58837380D01*
X127214523Y-59837380D01*
X126881190Y-59837380D02*
X126881190Y-58837380D01*
X126500238Y-58837380D01*
X126405000Y-58885000D01*
X126357380Y-58932619D01*
X126309761Y-59027857D01*
X126309761Y-59170714D01*
X126357380Y-59265952D01*
X126405000Y-59313571D01*
X126500238Y-59361190D01*
X126881190Y-59361190D01*
X125881190Y-59456428D02*
X125119285Y-59456428D01*
X124119285Y-59837380D02*
X124690714Y-59837380D01*
X124405000Y-59837380D02*
X124405000Y-58837380D01*
X124500238Y-58980238D01*
X124595476Y-59075476D01*
X124690714Y-59123095D01*
X123690714Y-59742142D02*
X123643095Y-59789761D01*
X123690714Y-59837380D01*
X123738333Y-59789761D01*
X123690714Y-59742142D01*
X123690714Y-59837380D01*
X123262142Y-58932619D02*
X123214523Y-58885000D01*
X123119285Y-58837380D01*
X122881190Y-58837380D01*
X122785952Y-58885000D01*
X122738333Y-58932619D01*
X122690714Y-59027857D01*
X122690714Y-59123095D01*
X122738333Y-59265952D01*
X123309761Y-59837380D01*
X122690714Y-59837380D01*
X122357380Y-58837380D02*
X121690714Y-58837380D01*
X122119285Y-59837380D01*
X121309761Y-59456428D02*
X120547857Y-59456428D01*
X120119285Y-58932619D02*
X120071666Y-58885000D01*
X119976428Y-58837380D01*
X119738333Y-58837380D01*
X119643095Y-58885000D01*
X119595476Y-58932619D01*
X119547857Y-59027857D01*
X119547857Y-59123095D01*
X119595476Y-59265952D01*
X120166904Y-59837380D01*
X119547857Y-59837380D01*
X119119285Y-59742142D02*
X119071666Y-59789761D01*
X119119285Y-59837380D01*
X119166904Y-59789761D01*
X119119285Y-59742142D01*
X119119285Y-59837380D01*
X118166904Y-58837380D02*
X118643095Y-58837380D01*
X118690714Y-59313571D01*
X118643095Y-59265952D01*
X118547857Y-59218333D01*
X118309761Y-59218333D01*
X118214523Y-59265952D01*
X118166904Y-59313571D01*
X118119285Y-59408809D01*
X118119285Y-59646904D01*
X118166904Y-59742142D01*
X118214523Y-59789761D01*
X118309761Y-59837380D01*
X118547857Y-59837380D01*
X118643095Y-59789761D01*
X118690714Y-59742142D01*
X117262142Y-59170714D02*
X117262142Y-59837380D01*
X117500238Y-58789761D02*
X117738333Y-59504047D01*
X117119285Y-59504047D01*
X99643095Y-59551666D02*
X99166904Y-59551666D01*
X99738333Y-59837380D02*
X99405000Y-58837380D01*
X99071666Y-59837380D01*
X98738333Y-59837380D02*
X98738333Y-58837380D01*
X98500238Y-58837380D01*
X98357380Y-58885000D01*
X98262142Y-58980238D01*
X98214523Y-59075476D01*
X98166904Y-59265952D01*
X98166904Y-59408809D01*
X98214523Y-59599285D01*
X98262142Y-59694523D01*
X98357380Y-59789761D01*
X98500238Y-59837380D01*
X98738333Y-59837380D01*
X97785952Y-59551666D02*
X97309761Y-59551666D01*
X97881190Y-59837380D02*
X97547857Y-58837380D01*
X97214523Y-59837380D01*
X96881190Y-59837380D02*
X96881190Y-58837380D01*
X96500238Y-58837380D01*
X96405000Y-58885000D01*
X96357380Y-58932619D01*
X96309761Y-59027857D01*
X96309761Y-59170714D01*
X96357380Y-59265952D01*
X96405000Y-59313571D01*
X96500238Y-59361190D01*
X96881190Y-59361190D01*
X95881190Y-59456428D02*
X95119285Y-59456428D01*
X94119285Y-59837380D02*
X94690714Y-59837380D01*
X94405000Y-59837380D02*
X94405000Y-58837380D01*
X94500238Y-58980238D01*
X94595476Y-59075476D01*
X94690714Y-59123095D01*
X93690714Y-59742142D02*
X93643095Y-59789761D01*
X93690714Y-59837380D01*
X93738333Y-59789761D01*
X93690714Y-59742142D01*
X93690714Y-59837380D01*
X93262142Y-58932619D02*
X93214523Y-58885000D01*
X93119285Y-58837380D01*
X92881190Y-58837380D01*
X92785952Y-58885000D01*
X92738333Y-58932619D01*
X92690714Y-59027857D01*
X92690714Y-59123095D01*
X92738333Y-59265952D01*
X93309761Y-59837380D01*
X92690714Y-59837380D01*
X92357380Y-58837380D02*
X91690714Y-58837380D01*
X92119285Y-59837380D01*
X91309761Y-59456428D02*
X90547857Y-59456428D01*
X90119285Y-58932619D02*
X90071666Y-58885000D01*
X89976428Y-58837380D01*
X89738333Y-58837380D01*
X89643095Y-58885000D01*
X89595476Y-58932619D01*
X89547857Y-59027857D01*
X89547857Y-59123095D01*
X89595476Y-59265952D01*
X90166904Y-59837380D01*
X89547857Y-59837380D01*
X89119285Y-59742142D02*
X89071666Y-59789761D01*
X89119285Y-59837380D01*
X89166904Y-59789761D01*
X89119285Y-59742142D01*
X89119285Y-59837380D01*
X88166904Y-58837380D02*
X88643095Y-58837380D01*
X88690714Y-59313571D01*
X88643095Y-59265952D01*
X88547857Y-59218333D01*
X88309761Y-59218333D01*
X88214523Y-59265952D01*
X88166904Y-59313571D01*
X88119285Y-59408809D01*
X88119285Y-59646904D01*
X88166904Y-59742142D01*
X88214523Y-59789761D01*
X88309761Y-59837380D01*
X88547857Y-59837380D01*
X88643095Y-59789761D01*
X88690714Y-59742142D01*
X87262142Y-59170714D02*
X87262142Y-59837380D01*
X87500238Y-58789761D02*
X87738333Y-59504047D01*
X87119285Y-59504047D01*
M02*
