G04 #@! TF.GenerationSoftware,KiCad,Pcbnew,6.0.7-f9a2dced07~116~ubuntu20.04.1*
G04 #@! TF.CreationDate,2022-08-18T11:56:10-05:00*
G04 #@! TF.ProjectId,2x5-1-27-to-2x5-2-54,3278352d-312d-4323-972d-746f2d327835,rev?*
G04 #@! TF.SameCoordinates,Original*
G04 #@! TF.FileFunction,Legend,Top*
G04 #@! TF.FilePolarity,Positive*
%FSLAX46Y46*%
G04 Gerber Fmt 4.6, Leading zero omitted, Abs format (unit mm)*
G04 Created by KiCad (PCBNEW 6.0.7-f9a2dced07~116~ubuntu20.04.1) date 2022-08-18 11:56:10*
%MOMM*%
%LPD*%
G01*
G04 APERTURE LIST*
%ADD10C,0.150000*%
%ADD11C,0.120000*%
%ADD12C,0.010000*%
G04 APERTURE END LIST*
D10*
X120467380Y-110839285D02*
X120467380Y-111410714D01*
X120467380Y-111125000D02*
X119467380Y-111125000D01*
X119610238Y-111220238D01*
X119705476Y-111315476D01*
X119753095Y-111410714D01*
X102052380Y-110204285D02*
X102052380Y-110775714D01*
X102052380Y-110490000D02*
X101052380Y-110490000D01*
X101195238Y-110585238D01*
X101290476Y-110680476D01*
X101338095Y-110775714D01*
X101981904Y-113831666D02*
X102458095Y-113831666D01*
X101886666Y-114117380D02*
X102220000Y-113117380D01*
X102553333Y-114117380D01*
X102886666Y-114117380D02*
X102886666Y-113117380D01*
X103124761Y-113117380D01*
X103267619Y-113165000D01*
X103362857Y-113260238D01*
X103410476Y-113355476D01*
X103458095Y-113545952D01*
X103458095Y-113688809D01*
X103410476Y-113879285D01*
X103362857Y-113974523D01*
X103267619Y-114069761D01*
X103124761Y-114117380D01*
X102886666Y-114117380D01*
X103839047Y-113831666D02*
X104315238Y-113831666D01*
X103743809Y-114117380D02*
X104077142Y-113117380D01*
X104410476Y-114117380D01*
X104743809Y-114117380D02*
X104743809Y-113117380D01*
X105124761Y-113117380D01*
X105220000Y-113165000D01*
X105267619Y-113212619D01*
X105315238Y-113307857D01*
X105315238Y-113450714D01*
X105267619Y-113545952D01*
X105220000Y-113593571D01*
X105124761Y-113641190D01*
X104743809Y-113641190D01*
X105743809Y-113736428D02*
X106505714Y-113736428D01*
X107505714Y-114117380D02*
X106934285Y-114117380D01*
X107220000Y-114117380D02*
X107220000Y-113117380D01*
X107124761Y-113260238D01*
X107029523Y-113355476D01*
X106934285Y-113403095D01*
X107934285Y-114022142D02*
X107981904Y-114069761D01*
X107934285Y-114117380D01*
X107886666Y-114069761D01*
X107934285Y-114022142D01*
X107934285Y-114117380D01*
X108362857Y-113212619D02*
X108410476Y-113165000D01*
X108505714Y-113117380D01*
X108743809Y-113117380D01*
X108839047Y-113165000D01*
X108886666Y-113212619D01*
X108934285Y-113307857D01*
X108934285Y-113403095D01*
X108886666Y-113545952D01*
X108315238Y-114117380D01*
X108934285Y-114117380D01*
X109267619Y-113117380D02*
X109934285Y-113117380D01*
X109505714Y-114117380D01*
X110315238Y-113736428D02*
X111077142Y-113736428D01*
X111505714Y-113212619D02*
X111553333Y-113165000D01*
X111648571Y-113117380D01*
X111886666Y-113117380D01*
X111981904Y-113165000D01*
X112029523Y-113212619D01*
X112077142Y-113307857D01*
X112077142Y-113403095D01*
X112029523Y-113545952D01*
X111458095Y-114117380D01*
X112077142Y-114117380D01*
X112505714Y-114022142D02*
X112553333Y-114069761D01*
X112505714Y-114117380D01*
X112458095Y-114069761D01*
X112505714Y-114022142D01*
X112505714Y-114117380D01*
X113458095Y-113117380D02*
X112981904Y-113117380D01*
X112934285Y-113593571D01*
X112981904Y-113545952D01*
X113077142Y-113498333D01*
X113315238Y-113498333D01*
X113410476Y-113545952D01*
X113458095Y-113593571D01*
X113505714Y-113688809D01*
X113505714Y-113926904D01*
X113458095Y-114022142D01*
X113410476Y-114069761D01*
X113315238Y-114117380D01*
X113077142Y-114117380D01*
X112981904Y-114069761D01*
X112934285Y-114022142D01*
X114362857Y-113450714D02*
X114362857Y-114117380D01*
X114124761Y-113069761D02*
X113886666Y-113784047D01*
X114505714Y-113784047D01*
X101262380Y-107013333D02*
X101976666Y-107013333D01*
X102119523Y-107060952D01*
X102214761Y-107156190D01*
X102262380Y-107299047D01*
X102262380Y-107394285D01*
X102262380Y-106013333D02*
X102262380Y-106584761D01*
X102262380Y-106299047D02*
X101262380Y-106299047D01*
X101405238Y-106394285D01*
X101500476Y-106489523D01*
X101548095Y-106584761D01*
X119677380Y-107013333D02*
X120391666Y-107013333D01*
X120534523Y-107060952D01*
X120629761Y-107156190D01*
X120677380Y-107299047D01*
X120677380Y-107394285D01*
X119772619Y-106584761D02*
X119725000Y-106537142D01*
X119677380Y-106441904D01*
X119677380Y-106203809D01*
X119725000Y-106108571D01*
X119772619Y-106060952D01*
X119867857Y-106013333D01*
X119963095Y-106013333D01*
X120105952Y-106060952D01*
X120677380Y-106632380D01*
X120677380Y-106013333D01*
D11*
X105410000Y-106680000D02*
X102810000Y-106680000D01*
X104140000Y-109280000D02*
X102810000Y-109280000D01*
X115630000Y-109280000D02*
X115630000Y-104080000D01*
X102810000Y-106680000D02*
X102810000Y-104080000D01*
X102810000Y-109280000D02*
X102810000Y-107950000D01*
X105410000Y-109280000D02*
X115630000Y-109280000D01*
X105410000Y-109280000D02*
X105410000Y-106680000D01*
X102810000Y-104080000D02*
X115630000Y-104080000D01*
X121225000Y-108445000D02*
X121290000Y-108445000D01*
X127630000Y-108445000D02*
X127695000Y-108445000D01*
X127695000Y-108445000D02*
X127695000Y-104915000D01*
X121225000Y-108445000D02*
X121225000Y-104915000D01*
X127630000Y-104915000D02*
X127695000Y-104915000D01*
X121290000Y-109770000D02*
X121290000Y-108445000D01*
X121225000Y-104915000D02*
X121290000Y-104915000D01*
G36*
X127660852Y-111530473D02*
G01*
X127695681Y-111530616D01*
X127729199Y-111530883D01*
X127760630Y-111531273D01*
X127789193Y-111531790D01*
X127814110Y-111532431D01*
X127834602Y-111533198D01*
X127849890Y-111534089D01*
X127859196Y-111535106D01*
X127861648Y-111535819D01*
X127863282Y-111538038D01*
X127865212Y-111542790D01*
X127867539Y-111550558D01*
X127870366Y-111561821D01*
X127873796Y-111577061D01*
X127877930Y-111596757D01*
X127882870Y-111621392D01*
X127888718Y-111651444D01*
X127895576Y-111687396D01*
X127903547Y-111729727D01*
X127908859Y-111758133D01*
X127916171Y-111797079D01*
X127923195Y-111834040D01*
X127929805Y-111868375D01*
X127935873Y-111899442D01*
X127941271Y-111926598D01*
X127945871Y-111949203D01*
X127949546Y-111966614D01*
X127952168Y-111978189D01*
X127953611Y-111983288D01*
X127953636Y-111983338D01*
X127958740Y-111990180D01*
X127962471Y-111992988D01*
X128022317Y-112017601D01*
X128075529Y-112039403D01*
X128122158Y-112058413D01*
X128162253Y-112074653D01*
X128195864Y-112088141D01*
X128223043Y-112098899D01*
X128243839Y-112106947D01*
X128258302Y-112112304D01*
X128266483Y-112114990D01*
X128268259Y-112115338D01*
X128269915Y-112115353D01*
X128271575Y-112115201D01*
X128273680Y-112114594D01*
X128276672Y-112113241D01*
X128280992Y-112110852D01*
X128287081Y-112107137D01*
X128295380Y-112101804D01*
X128306332Y-112094565D01*
X128320376Y-112085128D01*
X128337954Y-112073204D01*
X128359508Y-112058502D01*
X128385479Y-112040731D01*
X128416308Y-112019602D01*
X128452437Y-111994825D01*
X128475254Y-111979174D01*
X128505851Y-111958212D01*
X128534826Y-111938407D01*
X128561593Y-111920155D01*
X128585567Y-111903855D01*
X128606161Y-111889903D01*
X128622790Y-111878697D01*
X128634869Y-111870634D01*
X128641811Y-111866110D01*
X128643091Y-111865342D01*
X128650869Y-111862964D01*
X128659185Y-111865305D01*
X128661239Y-111866347D01*
X128665583Y-111869837D01*
X128674549Y-111878011D01*
X128687649Y-111890394D01*
X128704396Y-111906511D01*
X128724301Y-111925890D01*
X128746878Y-111948055D01*
X128771640Y-111972533D01*
X128798099Y-111998850D01*
X128820974Y-112021725D01*
X128852861Y-112053723D01*
X128879963Y-112081018D01*
X128902657Y-112104012D01*
X128921318Y-112123109D01*
X128936320Y-112138713D01*
X128948040Y-112151227D01*
X128956851Y-112161054D01*
X128963130Y-112168598D01*
X128967252Y-112174262D01*
X128969591Y-112178449D01*
X128970524Y-112181563D01*
X128970587Y-112182588D01*
X128969507Y-112186540D01*
X128966167Y-112193435D01*
X128960335Y-112203628D01*
X128951782Y-112217476D01*
X128940277Y-112235333D01*
X128925589Y-112257555D01*
X128907488Y-112284499D01*
X128885744Y-112316520D01*
X128860125Y-112353973D01*
X128849156Y-112369950D01*
X128827108Y-112402139D01*
X128806272Y-112432748D01*
X128787019Y-112461221D01*
X128769718Y-112487001D01*
X128754740Y-112509533D01*
X128742456Y-112528258D01*
X128733236Y-112542621D01*
X128727449Y-112552064D01*
X128725490Y-112555871D01*
X128725554Y-112559698D01*
X128727137Y-112566463D01*
X128730430Y-112576654D01*
X128735621Y-112590756D01*
X128742900Y-112609258D01*
X128752456Y-112632646D01*
X128764479Y-112661406D01*
X128779158Y-112696026D01*
X128789012Y-112719094D01*
X128803241Y-112752095D01*
X128816651Y-112782731D01*
X128828946Y-112810354D01*
X128839828Y-112834316D01*
X128849001Y-112853969D01*
X128856168Y-112868665D01*
X128861032Y-112877756D01*
X128862881Y-112880413D01*
X128868172Y-112883795D01*
X128877190Y-112887168D01*
X128890843Y-112890778D01*
X128910037Y-112894871D01*
X128930770Y-112898799D01*
X128990637Y-112909774D01*
X129045940Y-112919976D01*
X129096408Y-112929354D01*
X129141772Y-112937858D01*
X129181762Y-112945434D01*
X129216107Y-112952031D01*
X129244539Y-112957598D01*
X129266787Y-112962084D01*
X129282582Y-112965435D01*
X129291653Y-112967601D01*
X129293716Y-112968289D01*
X129300262Y-112974015D01*
X129302378Y-112977566D01*
X129302781Y-112982163D01*
X129303161Y-112993368D01*
X129303511Y-113010531D01*
X129303825Y-113033000D01*
X129304096Y-113060125D01*
X129304317Y-113091255D01*
X129304483Y-113125739D01*
X129304586Y-113162926D01*
X129304620Y-113200629D01*
X129304622Y-113246578D01*
X129304600Y-113285812D01*
X129304514Y-113318874D01*
X129304323Y-113346306D01*
X129303986Y-113368653D01*
X129303462Y-113386458D01*
X129302711Y-113400265D01*
X129301692Y-113410616D01*
X129300364Y-113418056D01*
X129298686Y-113423128D01*
X129296618Y-113426375D01*
X129294118Y-113428340D01*
X129291147Y-113429568D01*
X129287662Y-113430601D01*
X129287358Y-113430692D01*
X129282692Y-113431691D01*
X129271554Y-113433877D01*
X129254608Y-113437123D01*
X129232522Y-113441304D01*
X129205962Y-113446296D01*
X129175595Y-113451972D01*
X129142086Y-113458207D01*
X129106102Y-113464876D01*
X129081399Y-113469441D01*
X129037024Y-113477664D01*
X128999282Y-113484741D01*
X128967655Y-113490784D01*
X128941629Y-113495901D01*
X128920684Y-113500203D01*
X128904304Y-113503799D01*
X128891973Y-113506800D01*
X128883174Y-113509315D01*
X128877389Y-113511454D01*
X128874102Y-113513328D01*
X128873787Y-113513598D01*
X128870707Y-113518544D01*
X128865373Y-113529456D01*
X128858114Y-113545517D01*
X128849256Y-113565908D01*
X128839130Y-113589813D01*
X128828063Y-113616414D01*
X128816384Y-113644892D01*
X128804421Y-113674430D01*
X128792503Y-113704210D01*
X128780957Y-113733415D01*
X128770114Y-113761226D01*
X128760300Y-113786827D01*
X128751844Y-113809398D01*
X128745075Y-113828123D01*
X128740321Y-113842184D01*
X128737910Y-113850762D01*
X128737676Y-113852511D01*
X128738501Y-113856238D01*
X128741155Y-113862251D01*
X128745905Y-113870966D01*
X128753018Y-113882799D01*
X128762763Y-113898165D01*
X128775405Y-113917479D01*
X128791213Y-113941157D01*
X128810453Y-113969615D01*
X128833393Y-114003268D01*
X128854185Y-114033622D01*
X128882786Y-114075457D01*
X128907219Y-114111520D01*
X128927562Y-114141931D01*
X128943892Y-114166806D01*
X128956285Y-114186264D01*
X128964818Y-114200424D01*
X128969568Y-114209403D01*
X128970696Y-114212898D01*
X128969819Y-114215801D01*
X128966965Y-114220387D01*
X128961794Y-114227013D01*
X128953970Y-114236038D01*
X128943154Y-114247820D01*
X128929009Y-114262718D01*
X128911197Y-114281090D01*
X128889380Y-114303295D01*
X128863220Y-114329690D01*
X128832380Y-114360633D01*
X128815514Y-114377508D01*
X128779517Y-114413400D01*
X128748381Y-114444228D01*
X128721933Y-114470160D01*
X128699997Y-114491361D01*
X128682401Y-114507996D01*
X128668970Y-114520231D01*
X128659529Y-114528232D01*
X128653905Y-114532165D01*
X128652457Y-114532658D01*
X128650637Y-114532543D01*
X128648435Y-114532011D01*
X128645423Y-114530778D01*
X128641170Y-114528561D01*
X128635249Y-114525077D01*
X128627229Y-114520044D01*
X128616681Y-114513178D01*
X128603177Y-114504197D01*
X128586286Y-114492816D01*
X128565580Y-114478755D01*
X128540629Y-114461728D01*
X128511004Y-114441455D01*
X128476276Y-114417650D01*
X128436016Y-114390033D01*
X128433844Y-114388542D01*
X128406484Y-114369883D01*
X128380780Y-114352568D01*
X128357388Y-114337024D01*
X128336960Y-114323676D01*
X128320151Y-114312947D01*
X128307616Y-114305263D01*
X128300007Y-114301049D01*
X128298107Y-114300363D01*
X128292945Y-114302015D01*
X128282402Y-114306647D01*
X128267479Y-114313776D01*
X128249174Y-114322917D01*
X128228485Y-114333586D01*
X128216111Y-114340111D01*
X128194585Y-114351515D01*
X128174985Y-114361828D01*
X128158292Y-114370538D01*
X128145485Y-114377137D01*
X128137545Y-114381114D01*
X128135577Y-114382011D01*
X128128787Y-114381439D01*
X128122302Y-114377651D01*
X128119931Y-114373479D01*
X128115045Y-114363121D01*
X128107866Y-114347111D01*
X128098616Y-114325986D01*
X128087518Y-114300282D01*
X128074795Y-114270535D01*
X128060669Y-114237280D01*
X128045363Y-114201054D01*
X128029098Y-114162392D01*
X128012099Y-114121831D01*
X127994586Y-114079906D01*
X127976783Y-114037153D01*
X127958912Y-113994109D01*
X127941196Y-113951309D01*
X127923857Y-113909289D01*
X127907118Y-113868585D01*
X127891201Y-113829734D01*
X127876328Y-113793270D01*
X127862723Y-113759731D01*
X127850608Y-113729651D01*
X127840205Y-113703567D01*
X127831737Y-113682015D01*
X127825426Y-113665531D01*
X127821495Y-113654651D01*
X127820165Y-113649929D01*
X127820791Y-113643195D01*
X127823378Y-113637681D01*
X127829148Y-113632031D01*
X127839322Y-113624892D01*
X127847332Y-113619779D01*
X127898966Y-113584544D01*
X127943893Y-113547898D01*
X127982607Y-113509326D01*
X128015603Y-113468315D01*
X128043378Y-113424354D01*
X128052309Y-113407479D01*
X128074229Y-113356154D01*
X128089771Y-113302371D01*
X128098874Y-113247045D01*
X128101482Y-113191092D01*
X128097535Y-113135426D01*
X128086976Y-113080962D01*
X128075485Y-113043670D01*
X128052906Y-112991195D01*
X128024288Y-112942096D01*
X127990150Y-112896949D01*
X127951010Y-112856326D01*
X127907388Y-112820802D01*
X127859801Y-112790951D01*
X127836518Y-112779187D01*
X127783277Y-112758047D01*
X127729043Y-112743751D01*
X127674365Y-112736113D01*
X127619791Y-112734949D01*
X127565872Y-112740074D01*
X127513154Y-112751304D01*
X127462189Y-112768453D01*
X127413523Y-112791339D01*
X127367707Y-112819774D01*
X127325289Y-112853576D01*
X127286819Y-112892560D01*
X127252845Y-112936540D01*
X127223982Y-112985202D01*
X127203470Y-113029711D01*
X127188585Y-113073039D01*
X127178861Y-113117152D01*
X127173832Y-113164012D01*
X127172856Y-113200591D01*
X127174891Y-113249623D01*
X127181136Y-113294464D01*
X127192060Y-113337147D01*
X127208132Y-113379702D01*
X127220187Y-113405508D01*
X127244745Y-113448998D01*
X127273852Y-113489431D01*
X127308095Y-113527415D01*
X127348060Y-113563558D01*
X127394331Y-113598470D01*
X127426297Y-113619671D01*
X127439441Y-113628285D01*
X127447509Y-113634626D01*
X127451719Y-113640041D01*
X127453287Y-113645878D01*
X127453464Y-113649759D01*
X127452107Y-113654196D01*
X127448167Y-113664793D01*
X127441865Y-113681016D01*
X127433422Y-113702328D01*
X127423060Y-113728195D01*
X127410998Y-113758081D01*
X127397459Y-113791450D01*
X127382664Y-113827768D01*
X127366832Y-113866498D01*
X127350186Y-113907106D01*
X127332946Y-113949055D01*
X127315334Y-113991812D01*
X127297570Y-114034840D01*
X127279876Y-114077603D01*
X127262473Y-114119568D01*
X127245580Y-114160197D01*
X127229421Y-114198957D01*
X127214215Y-114235311D01*
X127200184Y-114268723D01*
X127187548Y-114298660D01*
X127176529Y-114324585D01*
X127167348Y-114345963D01*
X127160226Y-114362258D01*
X127155383Y-114372936D01*
X127153041Y-114377460D01*
X127153015Y-114377492D01*
X127147209Y-114382518D01*
X127143798Y-114383844D01*
X127139684Y-114382207D01*
X127130090Y-114377607D01*
X127115935Y-114370508D01*
X127098137Y-114361376D01*
X127077615Y-114350676D01*
X127061368Y-114342103D01*
X127039209Y-114330506D01*
X127018867Y-114320147D01*
X127001313Y-114311497D01*
X126987514Y-114305027D01*
X126978441Y-114301207D01*
X126975399Y-114300363D01*
X126971136Y-114302369D01*
X126961468Y-114308142D01*
X126946956Y-114317311D01*
X126928162Y-114329509D01*
X126905646Y-114344364D01*
X126879969Y-114361508D01*
X126851693Y-114380571D01*
X126821379Y-114401185D01*
X126798996Y-114416510D01*
X126763460Y-114440810D01*
X126730948Y-114462842D01*
X126701865Y-114482340D01*
X126676614Y-114499041D01*
X126655600Y-114512679D01*
X126639229Y-114522990D01*
X126627903Y-114529709D01*
X126622029Y-114532571D01*
X126621537Y-114532658D01*
X126618166Y-114531147D01*
X126611876Y-114526451D01*
X126602404Y-114518320D01*
X126589489Y-114506508D01*
X126572871Y-114490764D01*
X126552288Y-114470843D01*
X126527478Y-114446494D01*
X126498180Y-114417471D01*
X126464133Y-114383525D01*
X126458083Y-114377476D01*
X126425015Y-114344351D01*
X126396778Y-114315946D01*
X126373028Y-114291892D01*
X126353418Y-114271822D01*
X126337602Y-114255368D01*
X126325234Y-114242162D01*
X126315967Y-114231837D01*
X126309456Y-114224025D01*
X126305355Y-114218357D01*
X126303317Y-114214467D01*
X126302933Y-114212598D01*
X126304548Y-114207914D01*
X126309479Y-114198741D01*
X126317853Y-114184881D01*
X126329801Y-114166137D01*
X126345449Y-114142310D01*
X126364928Y-114113202D01*
X126388365Y-114078615D01*
X126415889Y-114038351D01*
X126419444Y-114033171D01*
X126445611Y-113994967D01*
X126467856Y-113962292D01*
X126486438Y-113934743D01*
X126501619Y-113911915D01*
X126513659Y-113893405D01*
X126522817Y-113878808D01*
X126529355Y-113867720D01*
X126533531Y-113859738D01*
X126535607Y-113854458D01*
X126535954Y-113852329D01*
X126534604Y-113846284D01*
X126530775Y-113834414D01*
X126524794Y-113817538D01*
X126516992Y-113796474D01*
X126507695Y-113772040D01*
X126497233Y-113745053D01*
X126485934Y-113716332D01*
X126474127Y-113686694D01*
X126462141Y-113656959D01*
X126450304Y-113627943D01*
X126438945Y-113600465D01*
X126428392Y-113575342D01*
X126418973Y-113553393D01*
X126411019Y-113535436D01*
X126404857Y-113522289D01*
X126400815Y-113514770D01*
X126399843Y-113513499D01*
X126396989Y-113511670D01*
X126391856Y-113509613D01*
X126383926Y-113507217D01*
X126372680Y-113504372D01*
X126357602Y-113500968D01*
X126338174Y-113496894D01*
X126313878Y-113492039D01*
X126284198Y-113486293D01*
X126248615Y-113479545D01*
X126206612Y-113471685D01*
X126187603Y-113468150D01*
X126140849Y-113459418D01*
X126100848Y-113451835D01*
X126067201Y-113445318D01*
X126039507Y-113439781D01*
X126017368Y-113435142D01*
X126000382Y-113431316D01*
X125988151Y-113428219D01*
X125980273Y-113425766D01*
X125976350Y-113423875D01*
X125976179Y-113423731D01*
X125974688Y-113422194D01*
X125973420Y-113420122D01*
X125972356Y-113416956D01*
X125971479Y-113412136D01*
X125970770Y-113405106D01*
X125970211Y-113395306D01*
X125969785Y-113382178D01*
X125969474Y-113365164D01*
X125969259Y-113343704D01*
X125969123Y-113317242D01*
X125969048Y-113285217D01*
X125969016Y-113247073D01*
X125969010Y-113202250D01*
X125969010Y-113200326D01*
X125969046Y-113161181D01*
X125969152Y-113124113D01*
X125969320Y-113089775D01*
X125969543Y-113058817D01*
X125969816Y-113031890D01*
X125970132Y-113009646D01*
X125970484Y-112992737D01*
X125970865Y-112981813D01*
X125971251Y-112977566D01*
X125976256Y-112970896D01*
X125979755Y-112968373D01*
X125984390Y-112967112D01*
X125995510Y-112964669D01*
X126012462Y-112961174D01*
X126034593Y-112956753D01*
X126061247Y-112951536D01*
X126091771Y-112945650D01*
X126125512Y-112939225D01*
X126161814Y-112932387D01*
X126192568Y-112926649D01*
X126240989Y-112917595D01*
X126282570Y-112909690D01*
X126317629Y-112902868D01*
X126346482Y-112897062D01*
X126369447Y-112892207D01*
X126386841Y-112888235D01*
X126398982Y-112885081D01*
X126406185Y-112882679D01*
X126408192Y-112881629D01*
X126411861Y-112876667D01*
X126417864Y-112865822D01*
X126425846Y-112849917D01*
X126435452Y-112829777D01*
X126446327Y-112806226D01*
X126458116Y-112780088D01*
X126470462Y-112752186D01*
X126483012Y-112723345D01*
X126495409Y-112694388D01*
X126507299Y-112666141D01*
X126518326Y-112639425D01*
X126528135Y-112615067D01*
X126536370Y-112593888D01*
X126542677Y-112576715D01*
X126546700Y-112564370D01*
X126548085Y-112557677D01*
X126548048Y-112557243D01*
X126545717Y-112552501D01*
X126539616Y-112542353D01*
X126530114Y-112527356D01*
X126517580Y-112508068D01*
X126502382Y-112485048D01*
X126484888Y-112458854D01*
X126465465Y-112430043D01*
X126444484Y-112399174D01*
X126424725Y-112370318D01*
X126397522Y-112330634D01*
X126374283Y-112296520D01*
X126354775Y-112267621D01*
X126338771Y-112243580D01*
X126326037Y-112224044D01*
X126316346Y-112208656D01*
X126309465Y-112197061D01*
X126305165Y-112188903D01*
X126303216Y-112183828D01*
X126303042Y-112182587D01*
X126303521Y-112179800D01*
X126305253Y-112176099D01*
X126308613Y-112171084D01*
X126313973Y-112164354D01*
X126321706Y-112155508D01*
X126332184Y-112144146D01*
X126345782Y-112129867D01*
X126362871Y-112112270D01*
X126383825Y-112090954D01*
X126409016Y-112065520D01*
X126438817Y-112035565D01*
X126454470Y-112019864D01*
X126482059Y-111992284D01*
X126508301Y-111966207D01*
X126532720Y-111942098D01*
X126554838Y-111920419D01*
X126574181Y-111901632D01*
X126590272Y-111886201D01*
X126602634Y-111874587D01*
X126610792Y-111867254D01*
X126614141Y-111864699D01*
X126622758Y-111862969D01*
X126627789Y-111863585D01*
X126631697Y-111865969D01*
X126641052Y-111872106D01*
X126655318Y-111881634D01*
X126673962Y-111894193D01*
X126696450Y-111909419D01*
X126722247Y-111926952D01*
X126750820Y-111946430D01*
X126781634Y-111967491D01*
X126814155Y-111989773D01*
X126815243Y-111990520D01*
X126850734Y-112014777D01*
X126883671Y-112037110D01*
X126913610Y-112057227D01*
X126940110Y-112074837D01*
X126962727Y-112089650D01*
X126981020Y-112101376D01*
X126994545Y-112109723D01*
X127002861Y-112114401D01*
X127005310Y-112115338D01*
X127009920Y-112114011D01*
X127020398Y-112110256D01*
X127035899Y-112104412D01*
X127055580Y-112096817D01*
X127078595Y-112087810D01*
X127104103Y-112077730D01*
X127131257Y-112066916D01*
X127159215Y-112055707D01*
X127187133Y-112044441D01*
X127214166Y-112033457D01*
X127239471Y-112023094D01*
X127262203Y-112013691D01*
X127281519Y-112005586D01*
X127296575Y-111999119D01*
X127306526Y-111994628D01*
X127308758Y-111993528D01*
X127316707Y-111987771D01*
X127321089Y-111982085D01*
X127322232Y-111977438D01*
X127324575Y-111966291D01*
X127327996Y-111949279D01*
X127332370Y-111927041D01*
X127337575Y-111900212D01*
X127343486Y-111869429D01*
X127349980Y-111835329D01*
X127356935Y-111798549D01*
X127364225Y-111759725D01*
X127364512Y-111758192D01*
X127373194Y-111711955D01*
X127380698Y-111672377D01*
X127387129Y-111638972D01*
X127392590Y-111611254D01*
X127397185Y-111588737D01*
X127401017Y-111570934D01*
X127404190Y-111557359D01*
X127406809Y-111547527D01*
X127408975Y-111540951D01*
X127410793Y-111537144D01*
X127411900Y-111535878D01*
X127416985Y-111534780D01*
X127428550Y-111533806D01*
X127445815Y-111532955D01*
X127468001Y-111532228D01*
X127494330Y-111531625D01*
X127524022Y-111531146D01*
X127556300Y-111530792D01*
X127590383Y-111530562D01*
X127625494Y-111530455D01*
X127660852Y-111530473D01*
G37*
D12*
X127660852Y-111530473D02*
X127695681Y-111530616D01*
X127729199Y-111530883D01*
X127760630Y-111531273D01*
X127789193Y-111531790D01*
X127814110Y-111532431D01*
X127834602Y-111533198D01*
X127849890Y-111534089D01*
X127859196Y-111535106D01*
X127861648Y-111535819D01*
X127863282Y-111538038D01*
X127865212Y-111542790D01*
X127867539Y-111550558D01*
X127870366Y-111561821D01*
X127873796Y-111577061D01*
X127877930Y-111596757D01*
X127882870Y-111621392D01*
X127888718Y-111651444D01*
X127895576Y-111687396D01*
X127903547Y-111729727D01*
X127908859Y-111758133D01*
X127916171Y-111797079D01*
X127923195Y-111834040D01*
X127929805Y-111868375D01*
X127935873Y-111899442D01*
X127941271Y-111926598D01*
X127945871Y-111949203D01*
X127949546Y-111966614D01*
X127952168Y-111978189D01*
X127953611Y-111983288D01*
X127953636Y-111983338D01*
X127958740Y-111990180D01*
X127962471Y-111992988D01*
X128022317Y-112017601D01*
X128075529Y-112039403D01*
X128122158Y-112058413D01*
X128162253Y-112074653D01*
X128195864Y-112088141D01*
X128223043Y-112098899D01*
X128243839Y-112106947D01*
X128258302Y-112112304D01*
X128266483Y-112114990D01*
X128268259Y-112115338D01*
X128269915Y-112115353D01*
X128271575Y-112115201D01*
X128273680Y-112114594D01*
X128276672Y-112113241D01*
X128280992Y-112110852D01*
X128287081Y-112107137D01*
X128295380Y-112101804D01*
X128306332Y-112094565D01*
X128320376Y-112085128D01*
X128337954Y-112073204D01*
X128359508Y-112058502D01*
X128385479Y-112040731D01*
X128416308Y-112019602D01*
X128452437Y-111994825D01*
X128475254Y-111979174D01*
X128505851Y-111958212D01*
X128534826Y-111938407D01*
X128561593Y-111920155D01*
X128585567Y-111903855D01*
X128606161Y-111889903D01*
X128622790Y-111878697D01*
X128634869Y-111870634D01*
X128641811Y-111866110D01*
X128643091Y-111865342D01*
X128650869Y-111862964D01*
X128659185Y-111865305D01*
X128661239Y-111866347D01*
X128665583Y-111869837D01*
X128674549Y-111878011D01*
X128687649Y-111890394D01*
X128704396Y-111906511D01*
X128724301Y-111925890D01*
X128746878Y-111948055D01*
X128771640Y-111972533D01*
X128798099Y-111998850D01*
X128820974Y-112021725D01*
X128852861Y-112053723D01*
X128879963Y-112081018D01*
X128902657Y-112104012D01*
X128921318Y-112123109D01*
X128936320Y-112138713D01*
X128948040Y-112151227D01*
X128956851Y-112161054D01*
X128963130Y-112168598D01*
X128967252Y-112174262D01*
X128969591Y-112178449D01*
X128970524Y-112181563D01*
X128970587Y-112182588D01*
X128969507Y-112186540D01*
X128966167Y-112193435D01*
X128960335Y-112203628D01*
X128951782Y-112217476D01*
X128940277Y-112235333D01*
X128925589Y-112257555D01*
X128907488Y-112284499D01*
X128885744Y-112316520D01*
X128860125Y-112353973D01*
X128849156Y-112369950D01*
X128827108Y-112402139D01*
X128806272Y-112432748D01*
X128787019Y-112461221D01*
X128769718Y-112487001D01*
X128754740Y-112509533D01*
X128742456Y-112528258D01*
X128733236Y-112542621D01*
X128727449Y-112552064D01*
X128725490Y-112555871D01*
X128725554Y-112559698D01*
X128727137Y-112566463D01*
X128730430Y-112576654D01*
X128735621Y-112590756D01*
X128742900Y-112609258D01*
X128752456Y-112632646D01*
X128764479Y-112661406D01*
X128779158Y-112696026D01*
X128789012Y-112719094D01*
X128803241Y-112752095D01*
X128816651Y-112782731D01*
X128828946Y-112810354D01*
X128839828Y-112834316D01*
X128849001Y-112853969D01*
X128856168Y-112868665D01*
X128861032Y-112877756D01*
X128862881Y-112880413D01*
X128868172Y-112883795D01*
X128877190Y-112887168D01*
X128890843Y-112890778D01*
X128910037Y-112894871D01*
X128930770Y-112898799D01*
X128990637Y-112909774D01*
X129045940Y-112919976D01*
X129096408Y-112929354D01*
X129141772Y-112937858D01*
X129181762Y-112945434D01*
X129216107Y-112952031D01*
X129244539Y-112957598D01*
X129266787Y-112962084D01*
X129282582Y-112965435D01*
X129291653Y-112967601D01*
X129293716Y-112968289D01*
X129300262Y-112974015D01*
X129302378Y-112977566D01*
X129302781Y-112982163D01*
X129303161Y-112993368D01*
X129303511Y-113010531D01*
X129303825Y-113033000D01*
X129304096Y-113060125D01*
X129304317Y-113091255D01*
X129304483Y-113125739D01*
X129304586Y-113162926D01*
X129304620Y-113200629D01*
X129304622Y-113246578D01*
X129304600Y-113285812D01*
X129304514Y-113318874D01*
X129304323Y-113346306D01*
X129303986Y-113368653D01*
X129303462Y-113386458D01*
X129302711Y-113400265D01*
X129301692Y-113410616D01*
X129300364Y-113418056D01*
X129298686Y-113423128D01*
X129296618Y-113426375D01*
X129294118Y-113428340D01*
X129291147Y-113429568D01*
X129287662Y-113430601D01*
X129287358Y-113430692D01*
X129282692Y-113431691D01*
X129271554Y-113433877D01*
X129254608Y-113437123D01*
X129232522Y-113441304D01*
X129205962Y-113446296D01*
X129175595Y-113451972D01*
X129142086Y-113458207D01*
X129106102Y-113464876D01*
X129081399Y-113469441D01*
X129037024Y-113477664D01*
X128999282Y-113484741D01*
X128967655Y-113490784D01*
X128941629Y-113495901D01*
X128920684Y-113500203D01*
X128904304Y-113503799D01*
X128891973Y-113506800D01*
X128883174Y-113509315D01*
X128877389Y-113511454D01*
X128874102Y-113513328D01*
X128873787Y-113513598D01*
X128870707Y-113518544D01*
X128865373Y-113529456D01*
X128858114Y-113545517D01*
X128849256Y-113565908D01*
X128839130Y-113589813D01*
X128828063Y-113616414D01*
X128816384Y-113644892D01*
X128804421Y-113674430D01*
X128792503Y-113704210D01*
X128780957Y-113733415D01*
X128770114Y-113761226D01*
X128760300Y-113786827D01*
X128751844Y-113809398D01*
X128745075Y-113828123D01*
X128740321Y-113842184D01*
X128737910Y-113850762D01*
X128737676Y-113852511D01*
X128738501Y-113856238D01*
X128741155Y-113862251D01*
X128745905Y-113870966D01*
X128753018Y-113882799D01*
X128762763Y-113898165D01*
X128775405Y-113917479D01*
X128791213Y-113941157D01*
X128810453Y-113969615D01*
X128833393Y-114003268D01*
X128854185Y-114033622D01*
X128882786Y-114075457D01*
X128907219Y-114111520D01*
X128927562Y-114141931D01*
X128943892Y-114166806D01*
X128956285Y-114186264D01*
X128964818Y-114200424D01*
X128969568Y-114209403D01*
X128970696Y-114212898D01*
X128969819Y-114215801D01*
X128966965Y-114220387D01*
X128961794Y-114227013D01*
X128953970Y-114236038D01*
X128943154Y-114247820D01*
X128929009Y-114262718D01*
X128911197Y-114281090D01*
X128889380Y-114303295D01*
X128863220Y-114329690D01*
X128832380Y-114360633D01*
X128815514Y-114377508D01*
X128779517Y-114413400D01*
X128748381Y-114444228D01*
X128721933Y-114470160D01*
X128699997Y-114491361D01*
X128682401Y-114507996D01*
X128668970Y-114520231D01*
X128659529Y-114528232D01*
X128653905Y-114532165D01*
X128652457Y-114532658D01*
X128650637Y-114532543D01*
X128648435Y-114532011D01*
X128645423Y-114530778D01*
X128641170Y-114528561D01*
X128635249Y-114525077D01*
X128627229Y-114520044D01*
X128616681Y-114513178D01*
X128603177Y-114504197D01*
X128586286Y-114492816D01*
X128565580Y-114478755D01*
X128540629Y-114461728D01*
X128511004Y-114441455D01*
X128476276Y-114417650D01*
X128436016Y-114390033D01*
X128433844Y-114388542D01*
X128406484Y-114369883D01*
X128380780Y-114352568D01*
X128357388Y-114337024D01*
X128336960Y-114323676D01*
X128320151Y-114312947D01*
X128307616Y-114305263D01*
X128300007Y-114301049D01*
X128298107Y-114300363D01*
X128292945Y-114302015D01*
X128282402Y-114306647D01*
X128267479Y-114313776D01*
X128249174Y-114322917D01*
X128228485Y-114333586D01*
X128216111Y-114340111D01*
X128194585Y-114351515D01*
X128174985Y-114361828D01*
X128158292Y-114370538D01*
X128145485Y-114377137D01*
X128137545Y-114381114D01*
X128135577Y-114382011D01*
X128128787Y-114381439D01*
X128122302Y-114377651D01*
X128119931Y-114373479D01*
X128115045Y-114363121D01*
X128107866Y-114347111D01*
X128098616Y-114325986D01*
X128087518Y-114300282D01*
X128074795Y-114270535D01*
X128060669Y-114237280D01*
X128045363Y-114201054D01*
X128029098Y-114162392D01*
X128012099Y-114121831D01*
X127994586Y-114079906D01*
X127976783Y-114037153D01*
X127958912Y-113994109D01*
X127941196Y-113951309D01*
X127923857Y-113909289D01*
X127907118Y-113868585D01*
X127891201Y-113829734D01*
X127876328Y-113793270D01*
X127862723Y-113759731D01*
X127850608Y-113729651D01*
X127840205Y-113703567D01*
X127831737Y-113682015D01*
X127825426Y-113665531D01*
X127821495Y-113654651D01*
X127820165Y-113649929D01*
X127820791Y-113643195D01*
X127823378Y-113637681D01*
X127829148Y-113632031D01*
X127839322Y-113624892D01*
X127847332Y-113619779D01*
X127898966Y-113584544D01*
X127943893Y-113547898D01*
X127982607Y-113509326D01*
X128015603Y-113468315D01*
X128043378Y-113424354D01*
X128052309Y-113407479D01*
X128074229Y-113356154D01*
X128089771Y-113302371D01*
X128098874Y-113247045D01*
X128101482Y-113191092D01*
X128097535Y-113135426D01*
X128086976Y-113080962D01*
X128075485Y-113043670D01*
X128052906Y-112991195D01*
X128024288Y-112942096D01*
X127990150Y-112896949D01*
X127951010Y-112856326D01*
X127907388Y-112820802D01*
X127859801Y-112790951D01*
X127836518Y-112779187D01*
X127783277Y-112758047D01*
X127729043Y-112743751D01*
X127674365Y-112736113D01*
X127619791Y-112734949D01*
X127565872Y-112740074D01*
X127513154Y-112751304D01*
X127462189Y-112768453D01*
X127413523Y-112791339D01*
X127367707Y-112819774D01*
X127325289Y-112853576D01*
X127286819Y-112892560D01*
X127252845Y-112936540D01*
X127223982Y-112985202D01*
X127203470Y-113029711D01*
X127188585Y-113073039D01*
X127178861Y-113117152D01*
X127173832Y-113164012D01*
X127172856Y-113200591D01*
X127174891Y-113249623D01*
X127181136Y-113294464D01*
X127192060Y-113337147D01*
X127208132Y-113379702D01*
X127220187Y-113405508D01*
X127244745Y-113448998D01*
X127273852Y-113489431D01*
X127308095Y-113527415D01*
X127348060Y-113563558D01*
X127394331Y-113598470D01*
X127426297Y-113619671D01*
X127439441Y-113628285D01*
X127447509Y-113634626D01*
X127451719Y-113640041D01*
X127453287Y-113645878D01*
X127453464Y-113649759D01*
X127452107Y-113654196D01*
X127448167Y-113664793D01*
X127441865Y-113681016D01*
X127433422Y-113702328D01*
X127423060Y-113728195D01*
X127410998Y-113758081D01*
X127397459Y-113791450D01*
X127382664Y-113827768D01*
X127366832Y-113866498D01*
X127350186Y-113907106D01*
X127332946Y-113949055D01*
X127315334Y-113991812D01*
X127297570Y-114034840D01*
X127279876Y-114077603D01*
X127262473Y-114119568D01*
X127245580Y-114160197D01*
X127229421Y-114198957D01*
X127214215Y-114235311D01*
X127200184Y-114268723D01*
X127187548Y-114298660D01*
X127176529Y-114324585D01*
X127167348Y-114345963D01*
X127160226Y-114362258D01*
X127155383Y-114372936D01*
X127153041Y-114377460D01*
X127153015Y-114377492D01*
X127147209Y-114382518D01*
X127143798Y-114383844D01*
X127139684Y-114382207D01*
X127130090Y-114377607D01*
X127115935Y-114370508D01*
X127098137Y-114361376D01*
X127077615Y-114350676D01*
X127061368Y-114342103D01*
X127039209Y-114330506D01*
X127018867Y-114320147D01*
X127001313Y-114311497D01*
X126987514Y-114305027D01*
X126978441Y-114301207D01*
X126975399Y-114300363D01*
X126971136Y-114302369D01*
X126961468Y-114308142D01*
X126946956Y-114317311D01*
X126928162Y-114329509D01*
X126905646Y-114344364D01*
X126879969Y-114361508D01*
X126851693Y-114380571D01*
X126821379Y-114401185D01*
X126798996Y-114416510D01*
X126763460Y-114440810D01*
X126730948Y-114462842D01*
X126701865Y-114482340D01*
X126676614Y-114499041D01*
X126655600Y-114512679D01*
X126639229Y-114522990D01*
X126627903Y-114529709D01*
X126622029Y-114532571D01*
X126621537Y-114532658D01*
X126618166Y-114531147D01*
X126611876Y-114526451D01*
X126602404Y-114518320D01*
X126589489Y-114506508D01*
X126572871Y-114490764D01*
X126552288Y-114470843D01*
X126527478Y-114446494D01*
X126498180Y-114417471D01*
X126464133Y-114383525D01*
X126458083Y-114377476D01*
X126425015Y-114344351D01*
X126396778Y-114315946D01*
X126373028Y-114291892D01*
X126353418Y-114271822D01*
X126337602Y-114255368D01*
X126325234Y-114242162D01*
X126315967Y-114231837D01*
X126309456Y-114224025D01*
X126305355Y-114218357D01*
X126303317Y-114214467D01*
X126302933Y-114212598D01*
X126304548Y-114207914D01*
X126309479Y-114198741D01*
X126317853Y-114184881D01*
X126329801Y-114166137D01*
X126345449Y-114142310D01*
X126364928Y-114113202D01*
X126388365Y-114078615D01*
X126415889Y-114038351D01*
X126419444Y-114033171D01*
X126445611Y-113994967D01*
X126467856Y-113962292D01*
X126486438Y-113934743D01*
X126501619Y-113911915D01*
X126513659Y-113893405D01*
X126522817Y-113878808D01*
X126529355Y-113867720D01*
X126533531Y-113859738D01*
X126535607Y-113854458D01*
X126535954Y-113852329D01*
X126534604Y-113846284D01*
X126530775Y-113834414D01*
X126524794Y-113817538D01*
X126516992Y-113796474D01*
X126507695Y-113772040D01*
X126497233Y-113745053D01*
X126485934Y-113716332D01*
X126474127Y-113686694D01*
X126462141Y-113656959D01*
X126450304Y-113627943D01*
X126438945Y-113600465D01*
X126428392Y-113575342D01*
X126418973Y-113553393D01*
X126411019Y-113535436D01*
X126404857Y-113522289D01*
X126400815Y-113514770D01*
X126399843Y-113513499D01*
X126396989Y-113511670D01*
X126391856Y-113509613D01*
X126383926Y-113507217D01*
X126372680Y-113504372D01*
X126357602Y-113500968D01*
X126338174Y-113496894D01*
X126313878Y-113492039D01*
X126284198Y-113486293D01*
X126248615Y-113479545D01*
X126206612Y-113471685D01*
X126187603Y-113468150D01*
X126140849Y-113459418D01*
X126100848Y-113451835D01*
X126067201Y-113445318D01*
X126039507Y-113439781D01*
X126017368Y-113435142D01*
X126000382Y-113431316D01*
X125988151Y-113428219D01*
X125980273Y-113425766D01*
X125976350Y-113423875D01*
X125976179Y-113423731D01*
X125974688Y-113422194D01*
X125973420Y-113420122D01*
X125972356Y-113416956D01*
X125971479Y-113412136D01*
X125970770Y-113405106D01*
X125970211Y-113395306D01*
X125969785Y-113382178D01*
X125969474Y-113365164D01*
X125969259Y-113343704D01*
X125969123Y-113317242D01*
X125969048Y-113285217D01*
X125969016Y-113247073D01*
X125969010Y-113202250D01*
X125969010Y-113200326D01*
X125969046Y-113161181D01*
X125969152Y-113124113D01*
X125969320Y-113089775D01*
X125969543Y-113058817D01*
X125969816Y-113031890D01*
X125970132Y-113009646D01*
X125970484Y-112992737D01*
X125970865Y-112981813D01*
X125971251Y-112977566D01*
X125976256Y-112970896D01*
X125979755Y-112968373D01*
X125984390Y-112967112D01*
X125995510Y-112964669D01*
X126012462Y-112961174D01*
X126034593Y-112956753D01*
X126061247Y-112951536D01*
X126091771Y-112945650D01*
X126125512Y-112939225D01*
X126161814Y-112932387D01*
X126192568Y-112926649D01*
X126240989Y-112917595D01*
X126282570Y-112909690D01*
X126317629Y-112902868D01*
X126346482Y-112897062D01*
X126369447Y-112892207D01*
X126386841Y-112888235D01*
X126398982Y-112885081D01*
X126406185Y-112882679D01*
X126408192Y-112881629D01*
X126411861Y-112876667D01*
X126417864Y-112865822D01*
X126425846Y-112849917D01*
X126435452Y-112829777D01*
X126446327Y-112806226D01*
X126458116Y-112780088D01*
X126470462Y-112752186D01*
X126483012Y-112723345D01*
X126495409Y-112694388D01*
X126507299Y-112666141D01*
X126518326Y-112639425D01*
X126528135Y-112615067D01*
X126536370Y-112593888D01*
X126542677Y-112576715D01*
X126546700Y-112564370D01*
X126548085Y-112557677D01*
X126548048Y-112557243D01*
X126545717Y-112552501D01*
X126539616Y-112542353D01*
X126530114Y-112527356D01*
X126517580Y-112508068D01*
X126502382Y-112485048D01*
X126484888Y-112458854D01*
X126465465Y-112430043D01*
X126444484Y-112399174D01*
X126424725Y-112370318D01*
X126397522Y-112330634D01*
X126374283Y-112296520D01*
X126354775Y-112267621D01*
X126338771Y-112243580D01*
X126326037Y-112224044D01*
X126316346Y-112208656D01*
X126309465Y-112197061D01*
X126305165Y-112188903D01*
X126303216Y-112183828D01*
X126303042Y-112182587D01*
X126303521Y-112179800D01*
X126305253Y-112176099D01*
X126308613Y-112171084D01*
X126313973Y-112164354D01*
X126321706Y-112155508D01*
X126332184Y-112144146D01*
X126345782Y-112129867D01*
X126362871Y-112112270D01*
X126383825Y-112090954D01*
X126409016Y-112065520D01*
X126438817Y-112035565D01*
X126454470Y-112019864D01*
X126482059Y-111992284D01*
X126508301Y-111966207D01*
X126532720Y-111942098D01*
X126554838Y-111920419D01*
X126574181Y-111901632D01*
X126590272Y-111886201D01*
X126602634Y-111874587D01*
X126610792Y-111867254D01*
X126614141Y-111864699D01*
X126622758Y-111862969D01*
X126627789Y-111863585D01*
X126631697Y-111865969D01*
X126641052Y-111872106D01*
X126655318Y-111881634D01*
X126673962Y-111894193D01*
X126696450Y-111909419D01*
X126722247Y-111926952D01*
X126750820Y-111946430D01*
X126781634Y-111967491D01*
X126814155Y-111989773D01*
X126815243Y-111990520D01*
X126850734Y-112014777D01*
X126883671Y-112037110D01*
X126913610Y-112057227D01*
X126940110Y-112074837D01*
X126962727Y-112089650D01*
X126981020Y-112101376D01*
X126994545Y-112109723D01*
X127002861Y-112114401D01*
X127005310Y-112115338D01*
X127009920Y-112114011D01*
X127020398Y-112110256D01*
X127035899Y-112104412D01*
X127055580Y-112096817D01*
X127078595Y-112087810D01*
X127104103Y-112077730D01*
X127131257Y-112066916D01*
X127159215Y-112055707D01*
X127187133Y-112044441D01*
X127214166Y-112033457D01*
X127239471Y-112023094D01*
X127262203Y-112013691D01*
X127281519Y-112005586D01*
X127296575Y-111999119D01*
X127306526Y-111994628D01*
X127308758Y-111993528D01*
X127316707Y-111987771D01*
X127321089Y-111982085D01*
X127322232Y-111977438D01*
X127324575Y-111966291D01*
X127327996Y-111949279D01*
X127332370Y-111927041D01*
X127337575Y-111900212D01*
X127343486Y-111869429D01*
X127349980Y-111835329D01*
X127356935Y-111798549D01*
X127364225Y-111759725D01*
X127364512Y-111758192D01*
X127373194Y-111711955D01*
X127380698Y-111672377D01*
X127387129Y-111638972D01*
X127392590Y-111611254D01*
X127397185Y-111588737D01*
X127401017Y-111570934D01*
X127404190Y-111557359D01*
X127406809Y-111547527D01*
X127408975Y-111540951D01*
X127410793Y-111537144D01*
X127411900Y-111535878D01*
X127416985Y-111534780D01*
X127428550Y-111533806D01*
X127445815Y-111532955D01*
X127468001Y-111532228D01*
X127494330Y-111531625D01*
X127524022Y-111531146D01*
X127556300Y-111530792D01*
X127590383Y-111530562D01*
X127625494Y-111530455D01*
X127660852Y-111530473D01*
M02*
