G04 #@! TF.GenerationSoftware,KiCad,Pcbnew,6.0.7-f9a2dced07~116~ubuntu20.04.1*
G04 #@! TF.CreationDate,2022-08-18T11:56:10-05:00*
G04 #@! TF.ProjectId,2x5-1-27-to-2x5-2-54,3278352d-312d-4323-972d-746f2d327835,rev?*
G04 #@! TF.SameCoordinates,Original*
G04 #@! TF.FileFunction,Legend,Bot*
G04 #@! TF.FilePolarity,Positive*
%FSLAX46Y46*%
G04 Gerber Fmt 4.6, Leading zero omitted, Abs format (unit mm)*
G04 Created by KiCad (PCBNEW 6.0.7-f9a2dced07~116~ubuntu20.04.1) date 2022-08-18 11:56:10*
%MOMM*%
%LPD*%
G01*
G04 APERTURE LIST*
%ADD10C,0.150000*%
G04 APERTURE END LIST*
D10*
X113283095Y-113831666D02*
X112806904Y-113831666D01*
X113378333Y-114117380D02*
X113045000Y-113117380D01*
X112711666Y-114117380D01*
X112378333Y-114117380D02*
X112378333Y-113117380D01*
X112140238Y-113117380D01*
X111997380Y-113165000D01*
X111902142Y-113260238D01*
X111854523Y-113355476D01*
X111806904Y-113545952D01*
X111806904Y-113688809D01*
X111854523Y-113879285D01*
X111902142Y-113974523D01*
X111997380Y-114069761D01*
X112140238Y-114117380D01*
X112378333Y-114117380D01*
X111425952Y-113831666D02*
X110949761Y-113831666D01*
X111521190Y-114117380D02*
X111187857Y-113117380D01*
X110854523Y-114117380D01*
X110521190Y-114117380D02*
X110521190Y-113117380D01*
X110140238Y-113117380D01*
X110045000Y-113165000D01*
X109997380Y-113212619D01*
X109949761Y-113307857D01*
X109949761Y-113450714D01*
X109997380Y-113545952D01*
X110045000Y-113593571D01*
X110140238Y-113641190D01*
X110521190Y-113641190D01*
X109521190Y-113736428D02*
X108759285Y-113736428D01*
X107759285Y-114117380D02*
X108330714Y-114117380D01*
X108045000Y-114117380D02*
X108045000Y-113117380D01*
X108140238Y-113260238D01*
X108235476Y-113355476D01*
X108330714Y-113403095D01*
X107330714Y-114022142D02*
X107283095Y-114069761D01*
X107330714Y-114117380D01*
X107378333Y-114069761D01*
X107330714Y-114022142D01*
X107330714Y-114117380D01*
X106902142Y-113212619D02*
X106854523Y-113165000D01*
X106759285Y-113117380D01*
X106521190Y-113117380D01*
X106425952Y-113165000D01*
X106378333Y-113212619D01*
X106330714Y-113307857D01*
X106330714Y-113403095D01*
X106378333Y-113545952D01*
X106949761Y-114117380D01*
X106330714Y-114117380D01*
X105997380Y-113117380D02*
X105330714Y-113117380D01*
X105759285Y-114117380D01*
X104949761Y-113736428D02*
X104187857Y-113736428D01*
X103759285Y-113212619D02*
X103711666Y-113165000D01*
X103616428Y-113117380D01*
X103378333Y-113117380D01*
X103283095Y-113165000D01*
X103235476Y-113212619D01*
X103187857Y-113307857D01*
X103187857Y-113403095D01*
X103235476Y-113545952D01*
X103806904Y-114117380D01*
X103187857Y-114117380D01*
X102759285Y-114022142D02*
X102711666Y-114069761D01*
X102759285Y-114117380D01*
X102806904Y-114069761D01*
X102759285Y-114022142D01*
X102759285Y-114117380D01*
X101806904Y-113117380D02*
X102283095Y-113117380D01*
X102330714Y-113593571D01*
X102283095Y-113545952D01*
X102187857Y-113498333D01*
X101949761Y-113498333D01*
X101854523Y-113545952D01*
X101806904Y-113593571D01*
X101759285Y-113688809D01*
X101759285Y-113926904D01*
X101806904Y-114022142D01*
X101854523Y-114069761D01*
X101949761Y-114117380D01*
X102187857Y-114117380D01*
X102283095Y-114069761D01*
X102330714Y-114022142D01*
X100902142Y-113450714D02*
X100902142Y-114117380D01*
X101140238Y-113069761D02*
X101378333Y-113784047D01*
X100759285Y-113784047D01*
M02*
