G04 #@! TF.GenerationSoftware,KiCad,Pcbnew,6.0.7-f9a2dced07~116~ubuntu20.04.1*
G04 #@! TF.CreationDate,2022-08-18T11:56:10-05:00*
G04 #@! TF.ProjectId,2x5-1-27-to-2x5-2-54,3278352d-312d-4323-972d-746f2d327835,rev?*
G04 #@! TF.SameCoordinates,Original*
G04 #@! TF.FileFunction,Copper,L1,Top*
G04 #@! TF.FilePolarity,Positive*
%FSLAX46Y46*%
G04 Gerber Fmt 4.6, Leading zero omitted, Abs format (unit mm)*
G04 Created by KiCad (PCBNEW 6.0.7-f9a2dced07~116~ubuntu20.04.1) date 2022-08-18 11:56:10*
%MOMM*%
%LPD*%
G01*
G04 APERTURE LIST*
G04 #@! TA.AperFunction,ComponentPad*
%ADD10R,1.700000X1.700000*%
G04 #@! TD*
G04 #@! TA.AperFunction,ComponentPad*
%ADD11O,1.700000X1.700000*%
G04 #@! TD*
G04 #@! TA.AperFunction,SMDPad,CuDef*
%ADD12R,0.740000X2.400000*%
G04 #@! TD*
G04 #@! TA.AperFunction,ViaPad*
%ADD13C,0.800000*%
G04 #@! TD*
G04 #@! TA.AperFunction,Conductor*
%ADD14C,0.500000*%
G04 #@! TD*
G04 APERTURE END LIST*
D10*
X104140000Y-107950000D03*
D11*
X104140000Y-105410000D03*
X106680000Y-107950000D03*
X106680000Y-105410000D03*
X109220000Y-107950000D03*
X109220000Y-105410000D03*
X111760000Y-107950000D03*
X111760000Y-105410000D03*
X114300000Y-107950000D03*
X114300000Y-105410000D03*
D12*
X121920000Y-108630000D03*
X121920000Y-104730000D03*
X123190000Y-108630000D03*
X123190000Y-104730000D03*
X124460000Y-108630000D03*
X124460000Y-104730000D03*
X125730000Y-108630000D03*
X125730000Y-104730000D03*
X127000000Y-108630000D03*
X127000000Y-104730000D03*
D13*
X127000000Y-102235000D03*
X127000000Y-110490000D03*
X125095000Y-100965000D03*
X125095000Y-111760000D03*
X123190000Y-100965000D03*
X122555000Y-113030000D03*
X119380000Y-100625000D03*
X119380000Y-114300000D03*
D14*
X127000000Y-104730000D02*
X127000000Y-102235000D01*
X127000000Y-108630000D02*
X127000000Y-110490000D01*
X125730000Y-104730000D02*
X125730000Y-101600000D01*
X125730000Y-101600000D02*
X125095000Y-100965000D01*
X125730000Y-111125000D02*
X125730000Y-108630000D01*
X125095000Y-111760000D02*
X125730000Y-111125000D01*
X124460000Y-102235000D02*
X123190000Y-100965000D01*
X124460000Y-104730000D02*
X124460000Y-102235000D01*
X122555000Y-113030000D02*
X124460000Y-111125000D01*
X124460000Y-111125000D02*
X124460000Y-108630000D01*
X119540000Y-100490000D02*
X119525010Y-100475010D01*
X123190000Y-104730000D02*
X123190000Y-103030000D01*
X119525010Y-100475010D02*
X119525010Y-100479990D01*
X120650000Y-100490000D02*
X119540000Y-100490000D01*
X123190000Y-103030000D02*
X120650000Y-100490000D01*
X119525010Y-100479990D02*
X119380000Y-100625000D01*
X123190000Y-110490000D02*
X123190000Y-108630000D01*
X119380000Y-114300000D02*
X123190000Y-110490000D01*
X116795010Y-100475010D02*
X105264990Y-100475010D01*
X104140000Y-101600000D02*
X104140000Y-105410000D01*
X121050000Y-104730000D02*
X116795010Y-100475010D01*
X105264990Y-100475010D02*
X104140000Y-101600000D01*
X121920000Y-104730000D02*
X121050000Y-104730000D01*
X121050000Y-108630000D02*
X115570000Y-114110000D01*
X115570000Y-114110000D02*
X105220000Y-114110000D01*
X104140000Y-113030000D02*
X104140000Y-107950000D01*
X105220000Y-114110000D02*
X104140000Y-113030000D01*
X121920000Y-108630000D02*
X121050000Y-108630000D01*
M02*
