%TF.GenerationSoftware,KiCad,Pcbnew,6.0.7-f9a2dced07~116~ubuntu20.04.1*%
%TF.CreationDate,2022-08-19T12:04:29-05:00*%
%TF.ProjectId,,58585858-5858-4585-9858-585858585858,rev?*%
%TF.SameCoordinates,Original*%
%TF.FileFunction,Profile,NP*%
%FSLAX46Y46*%
G04 Gerber Fmt 4.6, Leading zero omitted, Abs format (unit mm)*
G04 Created by KiCad (PCBNEW 6.0.7-f9a2dced07~116~ubuntu20.04.1) date 2022-08-19 12:04:29*
%MOMM*%
%LPD*%
G01*
G04 APERTURE LIST*
%TA.AperFunction,Profile*%
%ADD10C,0.100000*%
%TD*%
G04 APERTURE END LIST*
D10*
X152400000Y-147320000D02*
X162560000Y-147320000D01*
X162560000Y-147320000D02*
X162560000Y-129540000D01*
X162560000Y-129540000D02*
X152400000Y-129540000D01*
X152400000Y-129540000D02*
X152400000Y-147320000D01*
X142240000Y-147320000D02*
X152400000Y-147320000D01*
X152400000Y-147320000D02*
X152400000Y-129540000D01*
X152400000Y-129540000D02*
X142240000Y-129540000D01*
X142240000Y-129540000D02*
X142240000Y-147320000D01*
X132080000Y-147320000D02*
X142240000Y-147320000D01*
X142240000Y-147320000D02*
X142240000Y-129540000D01*
X142240000Y-129540000D02*
X132080000Y-129540000D01*
X132080000Y-129540000D02*
X132080000Y-147320000D01*
X121920000Y-147320000D02*
X132080000Y-147320000D01*
X132080000Y-147320000D02*
X132080000Y-129540000D01*
X132080000Y-129540000D02*
X121920000Y-129540000D01*
X121920000Y-129540000D02*
X121920000Y-147320000D01*
X111760000Y-147320000D02*
X121920000Y-147320000D01*
X121920000Y-147320000D02*
X121920000Y-129540000D01*
X121920000Y-129540000D02*
X111760000Y-129540000D01*
X111760000Y-129540000D02*
X111760000Y-147320000D01*
X101600000Y-147320000D02*
X111760000Y-147320000D01*
X111760000Y-147320000D02*
X111760000Y-129540000D01*
X111760000Y-129540000D02*
X101600000Y-129540000D01*
X101600000Y-129540000D02*
X101600000Y-147320000D01*
X91440000Y-147320000D02*
X101600000Y-147320000D01*
X101600000Y-147320000D02*
X101600000Y-129540000D01*
X101600000Y-129540000D02*
X91440000Y-129540000D01*
X91440000Y-129540000D02*
X91440000Y-147320000D01*
X81280000Y-147320000D02*
X91440000Y-147320000D01*
X91440000Y-147320000D02*
X91440000Y-129540000D01*
X91440000Y-129540000D02*
X81280000Y-129540000D01*
X81280000Y-129540000D02*
X81280000Y-147320000D01*
X71120000Y-147320000D02*
X81280000Y-147320000D01*
X81280000Y-147320000D02*
X81280000Y-129540000D01*
X81280000Y-129540000D02*
X71120000Y-129540000D01*
X71120000Y-129540000D02*
X71120000Y-147320000D01*
X152400000Y-129540000D02*
X162560000Y-129540000D01*
X162560000Y-129540000D02*
X162560000Y-111760000D01*
X162560000Y-111760000D02*
X152400000Y-111760000D01*
X152400000Y-111760000D02*
X152400000Y-129540000D01*
X142240000Y-129540000D02*
X152400000Y-129540000D01*
X152400000Y-129540000D02*
X152400000Y-111760000D01*
X152400000Y-111760000D02*
X142240000Y-111760000D01*
X142240000Y-111760000D02*
X142240000Y-129540000D01*
X132080000Y-129540000D02*
X142240000Y-129540000D01*
X142240000Y-129540000D02*
X142240000Y-111760000D01*
X142240000Y-111760000D02*
X132080000Y-111760000D01*
X132080000Y-111760000D02*
X132080000Y-129540000D01*
X121920000Y-129540000D02*
X132080000Y-129540000D01*
X132080000Y-129540000D02*
X132080000Y-111760000D01*
X132080000Y-111760000D02*
X121920000Y-111760000D01*
X121920000Y-111760000D02*
X121920000Y-129540000D01*
X111760000Y-129540000D02*
X121920000Y-129540000D01*
X121920000Y-129540000D02*
X121920000Y-111760000D01*
X121920000Y-111760000D02*
X111760000Y-111760000D01*
X111760000Y-111760000D02*
X111760000Y-129540000D01*
X101600000Y-129540000D02*
X111760000Y-129540000D01*
X111760000Y-129540000D02*
X111760000Y-111760000D01*
X111760000Y-111760000D02*
X101600000Y-111760000D01*
X101600000Y-111760000D02*
X101600000Y-129540000D01*
X91440000Y-129540000D02*
X101600000Y-129540000D01*
X101600000Y-129540000D02*
X101600000Y-111760000D01*
X101600000Y-111760000D02*
X91440000Y-111760000D01*
X91440000Y-111760000D02*
X91440000Y-129540000D01*
X81280000Y-129540000D02*
X91440000Y-129540000D01*
X91440000Y-129540000D02*
X91440000Y-111760000D01*
X91440000Y-111760000D02*
X81280000Y-111760000D01*
X81280000Y-111760000D02*
X81280000Y-129540000D01*
X71120000Y-129540000D02*
X81280000Y-129540000D01*
X81280000Y-129540000D02*
X81280000Y-111760000D01*
X81280000Y-111760000D02*
X71120000Y-111760000D01*
X71120000Y-111760000D02*
X71120000Y-129540000D01*
X152400000Y-111760000D02*
X162560000Y-111760000D01*
X162560000Y-111760000D02*
X162560000Y-93980000D01*
X162560000Y-93980000D02*
X152400000Y-93980000D01*
X152400000Y-93980000D02*
X152400000Y-111760000D01*
X142240000Y-111760000D02*
X152400000Y-111760000D01*
X152400000Y-111760000D02*
X152400000Y-93980000D01*
X152400000Y-93980000D02*
X142240000Y-93980000D01*
X142240000Y-93980000D02*
X142240000Y-111760000D01*
X132080000Y-111760000D02*
X142240000Y-111760000D01*
X142240000Y-111760000D02*
X142240000Y-93980000D01*
X142240000Y-93980000D02*
X132080000Y-93980000D01*
X132080000Y-93980000D02*
X132080000Y-111760000D01*
X121920000Y-111760000D02*
X132080000Y-111760000D01*
X132080000Y-111760000D02*
X132080000Y-93980000D01*
X132080000Y-93980000D02*
X121920000Y-93980000D01*
X121920000Y-93980000D02*
X121920000Y-111760000D01*
X111760000Y-111760000D02*
X121920000Y-111760000D01*
X121920000Y-111760000D02*
X121920000Y-93980000D01*
X121920000Y-93980000D02*
X111760000Y-93980000D01*
X111760000Y-93980000D02*
X111760000Y-111760000D01*
X101600000Y-111760000D02*
X111760000Y-111760000D01*
X111760000Y-111760000D02*
X111760000Y-93980000D01*
X111760000Y-93980000D02*
X101600000Y-93980000D01*
X101600000Y-93980000D02*
X101600000Y-111760000D01*
X91440000Y-111760000D02*
X101600000Y-111760000D01*
X101600000Y-111760000D02*
X101600000Y-93980000D01*
X101600000Y-93980000D02*
X91440000Y-93980000D01*
X91440000Y-93980000D02*
X91440000Y-111760000D01*
X81280000Y-111760000D02*
X91440000Y-111760000D01*
X91440000Y-111760000D02*
X91440000Y-93980000D01*
X91440000Y-93980000D02*
X81280000Y-93980000D01*
X81280000Y-93980000D02*
X81280000Y-111760000D01*
X71120000Y-111760000D02*
X81280000Y-111760000D01*
X81280000Y-111760000D02*
X81280000Y-93980000D01*
X81280000Y-93980000D02*
X71120000Y-93980000D01*
X71120000Y-93980000D02*
X71120000Y-111760000D01*
X152400000Y-93980000D02*
X162560000Y-93980000D01*
X162560000Y-93980000D02*
X162560000Y-76200000D01*
X162560000Y-76200000D02*
X152400000Y-76200000D01*
X152400000Y-76200000D02*
X152400000Y-93980000D01*
X142240000Y-93980000D02*
X152400000Y-93980000D01*
X152400000Y-93980000D02*
X152400000Y-76200000D01*
X152400000Y-76200000D02*
X142240000Y-76200000D01*
X142240000Y-76200000D02*
X142240000Y-93980000D01*
X132080000Y-93980000D02*
X142240000Y-93980000D01*
X142240000Y-93980000D02*
X142240000Y-76200000D01*
X142240000Y-76200000D02*
X132080000Y-76200000D01*
X132080000Y-76200000D02*
X132080000Y-93980000D01*
X121920000Y-93980000D02*
X132080000Y-93980000D01*
X132080000Y-93980000D02*
X132080000Y-76200000D01*
X132080000Y-76200000D02*
X121920000Y-76200000D01*
X121920000Y-76200000D02*
X121920000Y-93980000D01*
X111760000Y-93980000D02*
X121920000Y-93980000D01*
X121920000Y-93980000D02*
X121920000Y-76200000D01*
X121920000Y-76200000D02*
X111760000Y-76200000D01*
X111760000Y-76200000D02*
X111760000Y-93980000D01*
X101600000Y-93980000D02*
X111760000Y-93980000D01*
X111760000Y-93980000D02*
X111760000Y-76200000D01*
X111760000Y-76200000D02*
X101600000Y-76200000D01*
X101600000Y-76200000D02*
X101600000Y-93980000D01*
X91440000Y-93980000D02*
X101600000Y-93980000D01*
X101600000Y-93980000D02*
X101600000Y-76200000D01*
X101600000Y-76200000D02*
X91440000Y-76200000D01*
X91440000Y-76200000D02*
X91440000Y-93980000D01*
X81280000Y-93980000D02*
X91440000Y-93980000D01*
X91440000Y-93980000D02*
X91440000Y-76200000D01*
X91440000Y-76200000D02*
X81280000Y-76200000D01*
X81280000Y-76200000D02*
X81280000Y-93980000D01*
X71120000Y-93980000D02*
X81280000Y-93980000D01*
X81280000Y-93980000D02*
X81280000Y-76200000D01*
X81280000Y-76200000D02*
X71120000Y-76200000D01*
X71120000Y-76200000D02*
X71120000Y-93980000D01*
X152400000Y-76200000D02*
X162560000Y-76200000D01*
X162560000Y-76200000D02*
X162560000Y-58420000D01*
X162560000Y-58420000D02*
X152400000Y-58420000D01*
X152400000Y-58420000D02*
X152400000Y-76200000D01*
X142240000Y-76200000D02*
X152400000Y-76200000D01*
X152400000Y-76200000D02*
X152400000Y-58420000D01*
X152400000Y-58420000D02*
X142240000Y-58420000D01*
X142240000Y-58420000D02*
X142240000Y-76200000D01*
X132080000Y-76200000D02*
X142240000Y-76200000D01*
X142240000Y-76200000D02*
X142240000Y-58420000D01*
X142240000Y-58420000D02*
X132080000Y-58420000D01*
X132080000Y-58420000D02*
X132080000Y-76200000D01*
X121920000Y-76200000D02*
X132080000Y-76200000D01*
X132080000Y-76200000D02*
X132080000Y-58420000D01*
X132080000Y-58420000D02*
X121920000Y-58420000D01*
X121920000Y-58420000D02*
X121920000Y-76200000D01*
X111760000Y-76200000D02*
X121920000Y-76200000D01*
X121920000Y-76200000D02*
X121920000Y-58420000D01*
X121920000Y-58420000D02*
X111760000Y-58420000D01*
X111760000Y-58420000D02*
X111760000Y-76200000D01*
X101600000Y-76200000D02*
X111760000Y-76200000D01*
X111760000Y-76200000D02*
X111760000Y-58420000D01*
X111760000Y-58420000D02*
X101600000Y-58420000D01*
X101600000Y-58420000D02*
X101600000Y-76200000D01*
X91440000Y-76200000D02*
X101600000Y-76200000D01*
X101600000Y-76200000D02*
X101600000Y-58420000D01*
X101600000Y-58420000D02*
X91440000Y-58420000D01*
X91440000Y-58420000D02*
X91440000Y-76200000D01*
X81280000Y-76200000D02*
X91440000Y-76200000D01*
X91440000Y-76200000D02*
X91440000Y-58420000D01*
X91440000Y-58420000D02*
X81280000Y-58420000D01*
X81280000Y-58420000D02*
X81280000Y-76200000D01*
X71120000Y-76200000D02*
X81280000Y-76200000D01*
X81280000Y-76200000D02*
X81280000Y-58420000D01*
X81280000Y-58420000D02*
X71120000Y-58420000D01*
X71120000Y-58420000D02*
X71120000Y-76200000D01*
M02*
