%TF.GenerationSoftware,KiCad,Pcbnew,6.0.7-f9a2dced07~116~ubuntu20.04.1*%
%TF.CreationDate,2022-08-19T12:04:29-05:00*%
%TF.ProjectId,,58585858-5858-4585-9858-585858585858,rev?*%
%TF.SameCoordinates,Original*%
%TF.FileFunction,Soldermask,Top*%
%TF.FilePolarity,Negative*%
%FSLAX46Y46*%
G04 Gerber Fmt 4.6, Leading zero omitted, Abs format (unit mm)*
G04 Created by KiCad (PCBNEW 6.0.7-f9a2dced07~116~ubuntu20.04.1) date 2022-08-19 12:04:29*
%MOMM*%
%LPD*%
G01*
G04 APERTURE LIST*
%ADD10R,1.000000X1.000000*%
%ADD11R,1.050000X2.200000*%
%ADD12C,2.050000*%
%ADD13C,2.250000*%
G04 APERTURE END LIST*
D10*
%TO.C,J90*%
X157480000Y-134460000D03*
X157480000Y-131460000D03*
D11*
X156005000Y-132960000D03*
X158955000Y-132960000D03*
%TD*%
D12*
%TO.C,J89*%
X157480000Y-142240000D03*
D13*
X160020000Y-144780000D03*
X154940000Y-144780000D03*
X154940000Y-139700000D03*
X160020000Y-139700000D03*
%TD*%
D10*
%TO.C,J88*%
X147320000Y-134460000D03*
X147320000Y-131460000D03*
D11*
X145845000Y-132960000D03*
X148795000Y-132960000D03*
%TD*%
D12*
%TO.C,J87*%
X147320000Y-142240000D03*
D13*
X149860000Y-144780000D03*
X144780000Y-144780000D03*
X144780000Y-139700000D03*
X149860000Y-139700000D03*
%TD*%
D10*
%TO.C,J86*%
X137160000Y-134460000D03*
X137160000Y-131460000D03*
D11*
X135685000Y-132960000D03*
X138635000Y-132960000D03*
%TD*%
D12*
%TO.C,J85*%
X137160000Y-142240000D03*
D13*
X139700000Y-144780000D03*
X134620000Y-144780000D03*
X134620000Y-139700000D03*
X139700000Y-139700000D03*
%TD*%
D10*
%TO.C,J84*%
X127000000Y-134460000D03*
X127000000Y-131460000D03*
D11*
X125525000Y-132960000D03*
X128475000Y-132960000D03*
%TD*%
D12*
%TO.C,J83*%
X127000000Y-142240000D03*
D13*
X129540000Y-144780000D03*
X124460000Y-144780000D03*
X124460000Y-139700000D03*
X129540000Y-139700000D03*
%TD*%
D10*
%TO.C,J82*%
X116840000Y-134460000D03*
X116840000Y-131460000D03*
D11*
X115365000Y-132960000D03*
X118315000Y-132960000D03*
%TD*%
D12*
%TO.C,J81*%
X116840000Y-142240000D03*
D13*
X119380000Y-144780000D03*
X114300000Y-144780000D03*
X114300000Y-139700000D03*
X119380000Y-139700000D03*
%TD*%
D10*
%TO.C,J80*%
X106680000Y-134460000D03*
X106680000Y-131460000D03*
D11*
X105205000Y-132960000D03*
X108155000Y-132960000D03*
%TD*%
D12*
%TO.C,J79*%
X106680000Y-142240000D03*
D13*
X109220000Y-144780000D03*
X104140000Y-144780000D03*
X104140000Y-139700000D03*
X109220000Y-139700000D03*
%TD*%
D10*
%TO.C,J78*%
X96520000Y-134460000D03*
X96520000Y-131460000D03*
D11*
X95045000Y-132960000D03*
X97995000Y-132960000D03*
%TD*%
D12*
%TO.C,J77*%
X96520000Y-142240000D03*
D13*
X99060000Y-144780000D03*
X93980000Y-144780000D03*
X93980000Y-139700000D03*
X99060000Y-139700000D03*
%TD*%
D10*
%TO.C,J76*%
X86360000Y-134460000D03*
X86360000Y-131460000D03*
D11*
X84885000Y-132960000D03*
X87835000Y-132960000D03*
%TD*%
D12*
%TO.C,J75*%
X86360000Y-142240000D03*
D13*
X88900000Y-144780000D03*
X83820000Y-144780000D03*
X83820000Y-139700000D03*
X88900000Y-139700000D03*
%TD*%
D10*
%TO.C,J74*%
X76200000Y-134460000D03*
X76200000Y-131460000D03*
D11*
X74725000Y-132960000D03*
X77675000Y-132960000D03*
%TD*%
D12*
%TO.C,J73*%
X76200000Y-142240000D03*
D13*
X78740000Y-144780000D03*
X73660000Y-144780000D03*
X73660000Y-139700000D03*
X78740000Y-139700000D03*
%TD*%
D10*
%TO.C,J72*%
X157480000Y-116680000D03*
X157480000Y-113680000D03*
D11*
X156005000Y-115180000D03*
X158955000Y-115180000D03*
%TD*%
D12*
%TO.C,J71*%
X157480000Y-124460000D03*
D13*
X160020000Y-127000000D03*
X154940000Y-127000000D03*
X154940000Y-121920000D03*
X160020000Y-121920000D03*
%TD*%
D10*
%TO.C,J70*%
X147320000Y-116680000D03*
X147320000Y-113680000D03*
D11*
X145845000Y-115180000D03*
X148795000Y-115180000D03*
%TD*%
D12*
%TO.C,J69*%
X147320000Y-124460000D03*
D13*
X149860000Y-127000000D03*
X144780000Y-127000000D03*
X144780000Y-121920000D03*
X149860000Y-121920000D03*
%TD*%
D10*
%TO.C,J68*%
X137160000Y-116680000D03*
X137160000Y-113680000D03*
D11*
X135685000Y-115180000D03*
X138635000Y-115180000D03*
%TD*%
D12*
%TO.C,J67*%
X137160000Y-124460000D03*
D13*
X139700000Y-127000000D03*
X134620000Y-127000000D03*
X134620000Y-121920000D03*
X139700000Y-121920000D03*
%TD*%
D10*
%TO.C,J66*%
X127000000Y-116680000D03*
X127000000Y-113680000D03*
D11*
X125525000Y-115180000D03*
X128475000Y-115180000D03*
%TD*%
D12*
%TO.C,J65*%
X127000000Y-124460000D03*
D13*
X129540000Y-127000000D03*
X124460000Y-127000000D03*
X124460000Y-121920000D03*
X129540000Y-121920000D03*
%TD*%
D10*
%TO.C,J64*%
X116840000Y-116680000D03*
X116840000Y-113680000D03*
D11*
X115365000Y-115180000D03*
X118315000Y-115180000D03*
%TD*%
D12*
%TO.C,J63*%
X116840000Y-124460000D03*
D13*
X119380000Y-127000000D03*
X114300000Y-127000000D03*
X114300000Y-121920000D03*
X119380000Y-121920000D03*
%TD*%
D10*
%TO.C,J62*%
X106680000Y-116680000D03*
X106680000Y-113680000D03*
D11*
X105205000Y-115180000D03*
X108155000Y-115180000D03*
%TD*%
D12*
%TO.C,J61*%
X106680000Y-124460000D03*
D13*
X109220000Y-127000000D03*
X104140000Y-127000000D03*
X104140000Y-121920000D03*
X109220000Y-121920000D03*
%TD*%
D10*
%TO.C,J60*%
X96520000Y-116680000D03*
X96520000Y-113680000D03*
D11*
X95045000Y-115180000D03*
X97995000Y-115180000D03*
%TD*%
D12*
%TO.C,J59*%
X96520000Y-124460000D03*
D13*
X99060000Y-127000000D03*
X93980000Y-127000000D03*
X93980000Y-121920000D03*
X99060000Y-121920000D03*
%TD*%
D10*
%TO.C,J58*%
X86360000Y-116680000D03*
X86360000Y-113680000D03*
D11*
X84885000Y-115180000D03*
X87835000Y-115180000D03*
%TD*%
D12*
%TO.C,J57*%
X86360000Y-124460000D03*
D13*
X88900000Y-127000000D03*
X83820000Y-127000000D03*
X83820000Y-121920000D03*
X88900000Y-121920000D03*
%TD*%
D10*
%TO.C,J56*%
X76200000Y-116680000D03*
X76200000Y-113680000D03*
D11*
X74725000Y-115180000D03*
X77675000Y-115180000D03*
%TD*%
D12*
%TO.C,J55*%
X76200000Y-124460000D03*
D13*
X78740000Y-127000000D03*
X73660000Y-127000000D03*
X73660000Y-121920000D03*
X78740000Y-121920000D03*
%TD*%
D10*
%TO.C,J54*%
X157480000Y-98900000D03*
X157480000Y-95900000D03*
D11*
X156005000Y-97400000D03*
X158955000Y-97400000D03*
%TD*%
D12*
%TO.C,J53*%
X157480000Y-106680000D03*
D13*
X160020000Y-109220000D03*
X154940000Y-109220000D03*
X154940000Y-104140000D03*
X160020000Y-104140000D03*
%TD*%
D10*
%TO.C,J52*%
X147320000Y-98900000D03*
X147320000Y-95900000D03*
D11*
X145845000Y-97400000D03*
X148795000Y-97400000D03*
%TD*%
D12*
%TO.C,J51*%
X147320000Y-106680000D03*
D13*
X149860000Y-109220000D03*
X144780000Y-109220000D03*
X144780000Y-104140000D03*
X149860000Y-104140000D03*
%TD*%
D10*
%TO.C,J50*%
X137160000Y-98900000D03*
X137160000Y-95900000D03*
D11*
X135685000Y-97400000D03*
X138635000Y-97400000D03*
%TD*%
D12*
%TO.C,J49*%
X137160000Y-106680000D03*
D13*
X139700000Y-109220000D03*
X134620000Y-109220000D03*
X134620000Y-104140000D03*
X139700000Y-104140000D03*
%TD*%
D10*
%TO.C,J48*%
X127000000Y-98900000D03*
X127000000Y-95900000D03*
D11*
X125525000Y-97400000D03*
X128475000Y-97400000D03*
%TD*%
D12*
%TO.C,J47*%
X127000000Y-106680000D03*
D13*
X129540000Y-109220000D03*
X124460000Y-109220000D03*
X124460000Y-104140000D03*
X129540000Y-104140000D03*
%TD*%
D10*
%TO.C,J46*%
X116840000Y-98900000D03*
X116840000Y-95900000D03*
D11*
X115365000Y-97400000D03*
X118315000Y-97400000D03*
%TD*%
D12*
%TO.C,J45*%
X116840000Y-106680000D03*
D13*
X119380000Y-109220000D03*
X114300000Y-109220000D03*
X114300000Y-104140000D03*
X119380000Y-104140000D03*
%TD*%
D10*
%TO.C,J44*%
X106680000Y-98900000D03*
X106680000Y-95900000D03*
D11*
X105205000Y-97400000D03*
X108155000Y-97400000D03*
%TD*%
D12*
%TO.C,J43*%
X106680000Y-106680000D03*
D13*
X109220000Y-109220000D03*
X104140000Y-109220000D03*
X104140000Y-104140000D03*
X109220000Y-104140000D03*
%TD*%
D10*
%TO.C,J42*%
X96520000Y-98900000D03*
X96520000Y-95900000D03*
D11*
X95045000Y-97400000D03*
X97995000Y-97400000D03*
%TD*%
D12*
%TO.C,J41*%
X96520000Y-106680000D03*
D13*
X99060000Y-109220000D03*
X93980000Y-109220000D03*
X93980000Y-104140000D03*
X99060000Y-104140000D03*
%TD*%
D10*
%TO.C,J40*%
X86360000Y-98900000D03*
X86360000Y-95900000D03*
D11*
X84885000Y-97400000D03*
X87835000Y-97400000D03*
%TD*%
D12*
%TO.C,J39*%
X86360000Y-106680000D03*
D13*
X88900000Y-109220000D03*
X83820000Y-109220000D03*
X83820000Y-104140000D03*
X88900000Y-104140000D03*
%TD*%
D10*
%TO.C,J38*%
X76200000Y-98900000D03*
X76200000Y-95900000D03*
D11*
X74725000Y-97400000D03*
X77675000Y-97400000D03*
%TD*%
D12*
%TO.C,J37*%
X76200000Y-106680000D03*
D13*
X78740000Y-109220000D03*
X73660000Y-109220000D03*
X73660000Y-104140000D03*
X78740000Y-104140000D03*
%TD*%
D10*
%TO.C,J36*%
X157480000Y-81120000D03*
X157480000Y-78120000D03*
D11*
X156005000Y-79620000D03*
X158955000Y-79620000D03*
%TD*%
D12*
%TO.C,J35*%
X157480000Y-88900000D03*
D13*
X160020000Y-91440000D03*
X154940000Y-91440000D03*
X154940000Y-86360000D03*
X160020000Y-86360000D03*
%TD*%
D10*
%TO.C,J34*%
X147320000Y-81120000D03*
X147320000Y-78120000D03*
D11*
X145845000Y-79620000D03*
X148795000Y-79620000D03*
%TD*%
D12*
%TO.C,J33*%
X147320000Y-88900000D03*
D13*
X149860000Y-91440000D03*
X144780000Y-91440000D03*
X144780000Y-86360000D03*
X149860000Y-86360000D03*
%TD*%
D10*
%TO.C,J32*%
X137160000Y-81120000D03*
X137160000Y-78120000D03*
D11*
X135685000Y-79620000D03*
X138635000Y-79620000D03*
%TD*%
D12*
%TO.C,J31*%
X137160000Y-88900000D03*
D13*
X139700000Y-91440000D03*
X134620000Y-91440000D03*
X134620000Y-86360000D03*
X139700000Y-86360000D03*
%TD*%
D10*
%TO.C,J30*%
X127000000Y-81120000D03*
X127000000Y-78120000D03*
D11*
X125525000Y-79620000D03*
X128475000Y-79620000D03*
%TD*%
D12*
%TO.C,J29*%
X127000000Y-88900000D03*
D13*
X129540000Y-91440000D03*
X124460000Y-91440000D03*
X124460000Y-86360000D03*
X129540000Y-86360000D03*
%TD*%
D10*
%TO.C,J28*%
X116840000Y-81120000D03*
X116840000Y-78120000D03*
D11*
X115365000Y-79620000D03*
X118315000Y-79620000D03*
%TD*%
D12*
%TO.C,J27*%
X116840000Y-88900000D03*
D13*
X119380000Y-91440000D03*
X114300000Y-91440000D03*
X114300000Y-86360000D03*
X119380000Y-86360000D03*
%TD*%
D10*
%TO.C,J26*%
X106680000Y-81120000D03*
X106680000Y-78120000D03*
D11*
X105205000Y-79620000D03*
X108155000Y-79620000D03*
%TD*%
D12*
%TO.C,J25*%
X106680000Y-88900000D03*
D13*
X109220000Y-91440000D03*
X104140000Y-91440000D03*
X104140000Y-86360000D03*
X109220000Y-86360000D03*
%TD*%
D10*
%TO.C,J24*%
X96520000Y-81120000D03*
X96520000Y-78120000D03*
D11*
X95045000Y-79620000D03*
X97995000Y-79620000D03*
%TD*%
D12*
%TO.C,J23*%
X96520000Y-88900000D03*
D13*
X99060000Y-91440000D03*
X93980000Y-91440000D03*
X93980000Y-86360000D03*
X99060000Y-86360000D03*
%TD*%
D10*
%TO.C,J22*%
X86360000Y-81120000D03*
X86360000Y-78120000D03*
D11*
X84885000Y-79620000D03*
X87835000Y-79620000D03*
%TD*%
D12*
%TO.C,J21*%
X86360000Y-88900000D03*
D13*
X88900000Y-91440000D03*
X83820000Y-91440000D03*
X83820000Y-86360000D03*
X88900000Y-86360000D03*
%TD*%
D10*
%TO.C,J20*%
X76200000Y-81120000D03*
X76200000Y-78120000D03*
D11*
X74725000Y-79620000D03*
X77675000Y-79620000D03*
%TD*%
D12*
%TO.C,J19*%
X76200000Y-88900000D03*
D13*
X78740000Y-91440000D03*
X73660000Y-91440000D03*
X73660000Y-86360000D03*
X78740000Y-86360000D03*
%TD*%
D10*
%TO.C,J18*%
X157480000Y-63340000D03*
X157480000Y-60340000D03*
D11*
X156005000Y-61840000D03*
X158955000Y-61840000D03*
%TD*%
D12*
%TO.C,J17*%
X157480000Y-71120000D03*
D13*
X160020000Y-73660000D03*
X154940000Y-73660000D03*
X154940000Y-68580000D03*
X160020000Y-68580000D03*
%TD*%
D10*
%TO.C,J16*%
X147320000Y-63340000D03*
X147320000Y-60340000D03*
D11*
X145845000Y-61840000D03*
X148795000Y-61840000D03*
%TD*%
D12*
%TO.C,J15*%
X147320000Y-71120000D03*
D13*
X149860000Y-73660000D03*
X144780000Y-73660000D03*
X144780000Y-68580000D03*
X149860000Y-68580000D03*
%TD*%
D10*
%TO.C,J14*%
X137160000Y-63340000D03*
X137160000Y-60340000D03*
D11*
X135685000Y-61840000D03*
X138635000Y-61840000D03*
%TD*%
D12*
%TO.C,J13*%
X137160000Y-71120000D03*
D13*
X139700000Y-73660000D03*
X134620000Y-73660000D03*
X134620000Y-68580000D03*
X139700000Y-68580000D03*
%TD*%
D10*
%TO.C,J12*%
X127000000Y-63340000D03*
X127000000Y-60340000D03*
D11*
X125525000Y-61840000D03*
X128475000Y-61840000D03*
%TD*%
D12*
%TO.C,J11*%
X127000000Y-71120000D03*
D13*
X129540000Y-73660000D03*
X124460000Y-73660000D03*
X124460000Y-68580000D03*
X129540000Y-68580000D03*
%TD*%
D10*
%TO.C,J10*%
X116840000Y-63340000D03*
X116840000Y-60340000D03*
D11*
X115365000Y-61840000D03*
X118315000Y-61840000D03*
%TD*%
D12*
%TO.C,J9*%
X116840000Y-71120000D03*
D13*
X119380000Y-73660000D03*
X114300000Y-73660000D03*
X114300000Y-68580000D03*
X119380000Y-68580000D03*
%TD*%
D10*
%TO.C,J8*%
X106680000Y-63340000D03*
X106680000Y-60340000D03*
D11*
X105205000Y-61840000D03*
X108155000Y-61840000D03*
%TD*%
D12*
%TO.C,J7*%
X106680000Y-71120000D03*
D13*
X109220000Y-73660000D03*
X104140000Y-73660000D03*
X104140000Y-68580000D03*
X109220000Y-68580000D03*
%TD*%
D10*
%TO.C,J6*%
X96520000Y-63340000D03*
X96520000Y-60340000D03*
D11*
X95045000Y-61840000D03*
X97995000Y-61840000D03*
%TD*%
D12*
%TO.C,J5*%
X96520000Y-71120000D03*
D13*
X99060000Y-73660000D03*
X93980000Y-73660000D03*
X93980000Y-68580000D03*
X99060000Y-68580000D03*
%TD*%
D10*
%TO.C,J4*%
X86360000Y-63340000D03*
X86360000Y-60340000D03*
D11*
X84885000Y-61840000D03*
X87835000Y-61840000D03*
%TD*%
D12*
%TO.C,J3*%
X86360000Y-71120000D03*
D13*
X88900000Y-73660000D03*
X83820000Y-73660000D03*
X83820000Y-68580000D03*
X88900000Y-68580000D03*
%TD*%
D12*
%TO.C,J1*%
X76200000Y-71120000D03*
D13*
X78740000Y-73660000D03*
X73660000Y-73660000D03*
X73660000Y-68580000D03*
X78740000Y-68580000D03*
%TD*%
D10*
%TO.C,J2*%
X76200000Y-63340000D03*
X76200000Y-60340000D03*
D11*
X74725000Y-61840000D03*
X77675000Y-61840000D03*
%TD*%
M02*
