M48
; DRILL file {KiCad 6.0.7-f9a2dced07~116~ubuntu20.04.1} date vie 19 ago 2022 12:04:21
; FORMAT={-:-/ absolute / metric / decimal}
; #@! TF.CreationDate,2022-08-19T12:04:21-05:00
; #@! TF.GenerationSoftware,Kicad,Pcbnew,6.0.7-f9a2dced07~116~ubuntu20.04.1
; #@! TF.FileFunction,Plated,1,2,PTH
FMAT,2
METRIC
; #@! TA.AperFunction,Plated,PTH,ViaDrill
T1C0.400
; #@! TA.AperFunction,Plated,PTH,ComponentDrill
T2C1.500
; #@! TA.AperFunction,Plated,PTH,ComponentDrill
T3C1.700
%
G90
G05
T1
X73.14Y-59.84
X73.14Y-61.84
X73.14Y-63.5
X73.14Y-77.62
X73.14Y-79.62
X73.14Y-81.28
X73.14Y-95.4
X73.14Y-97.4
X73.14Y-99.06
X73.14Y-113.18
X73.14Y-115.18
X73.14Y-116.84
X73.14Y-130.96
X73.14Y-132.96
X73.14Y-134.62
X74.86Y-64.84
X74.86Y-66.44
X74.86Y-82.62
X74.86Y-84.22
X74.86Y-100.4
X74.86Y-102.0
X74.86Y-118.18
X74.86Y-119.78
X74.86Y-135.96
X74.86Y-137.56
X77.54Y-64.84
X77.54Y-66.44
X77.54Y-82.62
X77.54Y-84.22
X77.54Y-100.4
X77.54Y-102.0
X77.54Y-118.18
X77.54Y-119.78
X77.54Y-135.96
X77.54Y-137.56
X79.26Y-59.84
X79.26Y-61.84
X79.26Y-63.5
X79.26Y-77.62
X79.26Y-79.62
X79.26Y-81.28
X79.26Y-95.4
X79.26Y-97.4
X79.26Y-99.06
X79.26Y-113.18
X79.26Y-115.18
X79.26Y-116.84
X79.26Y-130.96
X79.26Y-132.96
X79.26Y-134.62
X83.3Y-59.84
X83.3Y-61.84
X83.3Y-63.5
X83.3Y-77.62
X83.3Y-79.62
X83.3Y-81.28
X83.3Y-95.4
X83.3Y-97.4
X83.3Y-99.06
X83.3Y-113.18
X83.3Y-115.18
X83.3Y-116.84
X83.3Y-130.96
X83.3Y-132.96
X83.3Y-134.62
X85.02Y-64.84
X85.02Y-66.44
X85.02Y-82.62
X85.02Y-84.22
X85.02Y-100.4
X85.02Y-102.0
X85.02Y-118.18
X85.02Y-119.78
X85.02Y-135.96
X85.02Y-137.56
X87.7Y-64.84
X87.7Y-66.44
X87.7Y-82.62
X87.7Y-84.22
X87.7Y-100.4
X87.7Y-102.0
X87.7Y-118.18
X87.7Y-119.78
X87.7Y-135.96
X87.7Y-137.56
X89.42Y-59.84
X89.42Y-61.84
X89.42Y-63.5
X89.42Y-77.62
X89.42Y-79.62
X89.42Y-81.28
X89.42Y-95.4
X89.42Y-97.4
X89.42Y-99.06
X89.42Y-113.18
X89.42Y-115.18
X89.42Y-116.84
X89.42Y-130.96
X89.42Y-132.96
X89.42Y-134.62
X93.46Y-59.84
X93.46Y-61.84
X93.46Y-63.5
X93.46Y-77.62
X93.46Y-79.62
X93.46Y-81.28
X93.46Y-95.4
X93.46Y-97.4
X93.46Y-99.06
X93.46Y-113.18
X93.46Y-115.18
X93.46Y-116.84
X93.46Y-130.96
X93.46Y-132.96
X93.46Y-134.62
X95.18Y-64.84
X95.18Y-66.44
X95.18Y-82.62
X95.18Y-84.22
X95.18Y-100.4
X95.18Y-102.0
X95.18Y-118.18
X95.18Y-119.78
X95.18Y-135.96
X95.18Y-137.56
X97.86Y-64.84
X97.86Y-66.44
X97.86Y-82.62
X97.86Y-84.22
X97.86Y-100.4
X97.86Y-102.0
X97.86Y-118.18
X97.86Y-119.78
X97.86Y-135.96
X97.86Y-137.56
X99.58Y-59.84
X99.58Y-61.84
X99.58Y-63.5
X99.58Y-77.62
X99.58Y-79.62
X99.58Y-81.28
X99.58Y-95.4
X99.58Y-97.4
X99.58Y-99.06
X99.58Y-113.18
X99.58Y-115.18
X99.58Y-116.84
X99.58Y-130.96
X99.58Y-132.96
X99.58Y-134.62
X103.62Y-59.84
X103.62Y-61.84
X103.62Y-63.5
X103.62Y-77.62
X103.62Y-79.62
X103.62Y-81.28
X103.62Y-95.4
X103.62Y-97.4
X103.62Y-99.06
X103.62Y-113.18
X103.62Y-115.18
X103.62Y-116.84
X103.62Y-130.96
X103.62Y-132.96
X103.62Y-134.62
X105.34Y-64.84
X105.34Y-66.44
X105.34Y-82.62
X105.34Y-84.22
X105.34Y-100.4
X105.34Y-102.0
X105.34Y-118.18
X105.34Y-119.78
X105.34Y-135.96
X105.34Y-137.56
X108.02Y-64.84
X108.02Y-66.44
X108.02Y-82.62
X108.02Y-84.22
X108.02Y-100.4
X108.02Y-102.0
X108.02Y-118.18
X108.02Y-119.78
X108.02Y-135.96
X108.02Y-137.56
X109.74Y-59.84
X109.74Y-61.84
X109.74Y-63.5
X109.74Y-77.62
X109.74Y-79.62
X109.74Y-81.28
X109.74Y-95.4
X109.74Y-97.4
X109.74Y-99.06
X109.74Y-113.18
X109.74Y-115.18
X109.74Y-116.84
X109.74Y-130.96
X109.74Y-132.96
X109.74Y-134.62
X113.78Y-59.84
X113.78Y-61.84
X113.78Y-63.5
X113.78Y-77.62
X113.78Y-79.62
X113.78Y-81.28
X113.78Y-95.4
X113.78Y-97.4
X113.78Y-99.06
X113.78Y-113.18
X113.78Y-115.18
X113.78Y-116.84
X113.78Y-130.96
X113.78Y-132.96
X113.78Y-134.62
X115.5Y-64.84
X115.5Y-66.44
X115.5Y-82.62
X115.5Y-84.22
X115.5Y-100.4
X115.5Y-102.0
X115.5Y-118.18
X115.5Y-119.78
X115.5Y-135.96
X115.5Y-137.56
X118.18Y-64.84
X118.18Y-66.44
X118.18Y-82.62
X118.18Y-84.22
X118.18Y-100.4
X118.18Y-102.0
X118.18Y-118.18
X118.18Y-119.78
X118.18Y-135.96
X118.18Y-137.56
X119.9Y-59.84
X119.9Y-61.84
X119.9Y-63.5
X119.9Y-77.62
X119.9Y-79.62
X119.9Y-81.28
X119.9Y-95.4
X119.9Y-97.4
X119.9Y-99.06
X119.9Y-113.18
X119.9Y-115.18
X119.9Y-116.84
X119.9Y-130.96
X119.9Y-132.96
X119.9Y-134.62
X123.94Y-59.84
X123.94Y-61.84
X123.94Y-63.5
X123.94Y-77.62
X123.94Y-79.62
X123.94Y-81.28
X123.94Y-95.4
X123.94Y-97.4
X123.94Y-99.06
X123.94Y-113.18
X123.94Y-115.18
X123.94Y-116.84
X123.94Y-130.96
X123.94Y-132.96
X123.94Y-134.62
X125.66Y-64.84
X125.66Y-66.44
X125.66Y-82.62
X125.66Y-84.22
X125.66Y-100.4
X125.66Y-102.0
X125.66Y-118.18
X125.66Y-119.78
X125.66Y-135.96
X125.66Y-137.56
X128.34Y-64.84
X128.34Y-66.44
X128.34Y-82.62
X128.34Y-84.22
X128.34Y-100.4
X128.34Y-102.0
X128.34Y-118.18
X128.34Y-119.78
X128.34Y-135.96
X128.34Y-137.56
X130.06Y-59.84
X130.06Y-61.84
X130.06Y-63.5
X130.06Y-77.62
X130.06Y-79.62
X130.06Y-81.28
X130.06Y-95.4
X130.06Y-97.4
X130.06Y-99.06
X130.06Y-113.18
X130.06Y-115.18
X130.06Y-116.84
X130.06Y-130.96
X130.06Y-132.96
X130.06Y-134.62
X134.1Y-59.84
X134.1Y-61.84
X134.1Y-63.5
X134.1Y-77.62
X134.1Y-79.62
X134.1Y-81.28
X134.1Y-95.4
X134.1Y-97.4
X134.1Y-99.06
X134.1Y-113.18
X134.1Y-115.18
X134.1Y-116.84
X134.1Y-130.96
X134.1Y-132.96
X134.1Y-134.62
X135.82Y-64.84
X135.82Y-66.44
X135.82Y-82.62
X135.82Y-84.22
X135.82Y-100.4
X135.82Y-102.0
X135.82Y-118.18
X135.82Y-119.78
X135.82Y-135.96
X135.82Y-137.56
X138.5Y-64.84
X138.5Y-66.44
X138.5Y-82.62
X138.5Y-84.22
X138.5Y-100.4
X138.5Y-102.0
X138.5Y-118.18
X138.5Y-119.78
X138.5Y-135.96
X138.5Y-137.56
X140.22Y-59.84
X140.22Y-61.84
X140.22Y-63.5
X140.22Y-77.62
X140.22Y-79.62
X140.22Y-81.28
X140.22Y-95.4
X140.22Y-97.4
X140.22Y-99.06
X140.22Y-113.18
X140.22Y-115.18
X140.22Y-116.84
X140.22Y-130.96
X140.22Y-132.96
X140.22Y-134.62
X144.26Y-59.84
X144.26Y-61.84
X144.26Y-63.5
X144.26Y-77.62
X144.26Y-79.62
X144.26Y-81.28
X144.26Y-95.4
X144.26Y-97.4
X144.26Y-99.06
X144.26Y-113.18
X144.26Y-115.18
X144.26Y-116.84
X144.26Y-130.96
X144.26Y-132.96
X144.26Y-134.62
X145.98Y-64.84
X145.98Y-66.44
X145.98Y-82.62
X145.98Y-84.22
X145.98Y-100.4
X145.98Y-102.0
X145.98Y-118.18
X145.98Y-119.78
X145.98Y-135.96
X145.98Y-137.56
X148.66Y-64.84
X148.66Y-66.44
X148.66Y-82.62
X148.66Y-84.22
X148.66Y-100.4
X148.66Y-102.0
X148.66Y-118.18
X148.66Y-119.78
X148.66Y-135.96
X148.66Y-137.56
X150.38Y-59.84
X150.38Y-61.84
X150.38Y-63.5
X150.38Y-77.62
X150.38Y-79.62
X150.38Y-81.28
X150.38Y-95.4
X150.38Y-97.4
X150.38Y-99.06
X150.38Y-113.18
X150.38Y-115.18
X150.38Y-116.84
X150.38Y-130.96
X150.38Y-132.96
X150.38Y-134.62
X154.42Y-59.84
X154.42Y-61.84
X154.42Y-63.5
X154.42Y-77.62
X154.42Y-79.62
X154.42Y-81.28
X154.42Y-95.4
X154.42Y-97.4
X154.42Y-99.06
X154.42Y-113.18
X154.42Y-115.18
X154.42Y-116.84
X154.42Y-130.96
X154.42Y-132.96
X154.42Y-134.62
X156.14Y-64.84
X156.14Y-66.44
X156.14Y-82.62
X156.14Y-84.22
X156.14Y-100.4
X156.14Y-102.0
X156.14Y-118.18
X156.14Y-119.78
X156.14Y-135.96
X156.14Y-137.56
X158.82Y-64.84
X158.82Y-66.44
X158.82Y-82.62
X158.82Y-84.22
X158.82Y-100.4
X158.82Y-102.0
X158.82Y-118.18
X158.82Y-119.78
X158.82Y-135.96
X158.82Y-137.56
X160.54Y-59.84
X160.54Y-61.84
X160.54Y-63.5
X160.54Y-77.62
X160.54Y-79.62
X160.54Y-81.28
X160.54Y-95.4
X160.54Y-97.4
X160.54Y-99.06
X160.54Y-113.18
X160.54Y-115.18
X160.54Y-116.84
X160.54Y-130.96
X160.54Y-132.96
X160.54Y-134.62
T2
X76.2Y-71.12
X76.2Y-88.9
X76.2Y-106.68
X76.2Y-124.46
X76.2Y-142.24
X86.36Y-71.12
X86.36Y-88.9
X86.36Y-106.68
X86.36Y-124.46
X86.36Y-142.24
X96.52Y-71.12
X96.52Y-88.9
X96.52Y-106.68
X96.52Y-124.46
X96.52Y-142.24
X106.68Y-71.12
X106.68Y-88.9
X106.68Y-106.68
X106.68Y-124.46
X106.68Y-142.24
X116.84Y-71.12
X116.84Y-88.9
X116.84Y-106.68
X116.84Y-124.46
X116.84Y-142.24
X127.0Y-71.12
X127.0Y-88.9
X127.0Y-106.68
X127.0Y-124.46
X127.0Y-142.24
X137.16Y-71.12
X137.16Y-88.9
X137.16Y-106.68
X137.16Y-124.46
X137.16Y-142.24
X147.32Y-71.12
X147.32Y-88.9
X147.32Y-106.68
X147.32Y-124.46
X147.32Y-142.24
X157.48Y-71.12
X157.48Y-88.9
X157.48Y-106.68
X157.48Y-124.46
X157.48Y-142.24
T3
X73.66Y-68.58
X73.66Y-73.66
X73.66Y-86.36
X73.66Y-91.44
X73.66Y-104.14
X73.66Y-109.22
X73.66Y-121.92
X73.66Y-127.0
X73.66Y-139.7
X73.66Y-144.78
X78.74Y-68.58
X78.74Y-73.66
X78.74Y-86.36
X78.74Y-91.44
X78.74Y-104.14
X78.74Y-109.22
X78.74Y-121.92
X78.74Y-127.0
X78.74Y-139.7
X78.74Y-144.78
X83.82Y-68.58
X83.82Y-73.66
X83.82Y-86.36
X83.82Y-91.44
X83.82Y-104.14
X83.82Y-109.22
X83.82Y-121.92
X83.82Y-127.0
X83.82Y-139.7
X83.82Y-144.78
X88.9Y-68.58
X88.9Y-73.66
X88.9Y-86.36
X88.9Y-91.44
X88.9Y-104.14
X88.9Y-109.22
X88.9Y-121.92
X88.9Y-127.0
X88.9Y-139.7
X88.9Y-144.78
X93.98Y-68.58
X93.98Y-73.66
X93.98Y-86.36
X93.98Y-91.44
X93.98Y-104.14
X93.98Y-109.22
X93.98Y-121.92
X93.98Y-127.0
X93.98Y-139.7
X93.98Y-144.78
X99.06Y-68.58
X99.06Y-73.66
X99.06Y-86.36
X99.06Y-91.44
X99.06Y-104.14
X99.06Y-109.22
X99.06Y-121.92
X99.06Y-127.0
X99.06Y-139.7
X99.06Y-144.78
X104.14Y-68.58
X104.14Y-73.66
X104.14Y-86.36
X104.14Y-91.44
X104.14Y-104.14
X104.14Y-109.22
X104.14Y-121.92
X104.14Y-127.0
X104.14Y-139.7
X104.14Y-144.78
X109.22Y-68.58
X109.22Y-73.66
X109.22Y-86.36
X109.22Y-91.44
X109.22Y-104.14
X109.22Y-109.22
X109.22Y-121.92
X109.22Y-127.0
X109.22Y-139.7
X109.22Y-144.78
X114.3Y-68.58
X114.3Y-73.66
X114.3Y-86.36
X114.3Y-91.44
X114.3Y-104.14
X114.3Y-109.22
X114.3Y-121.92
X114.3Y-127.0
X114.3Y-139.7
X114.3Y-144.78
X119.38Y-68.58
X119.38Y-73.66
X119.38Y-86.36
X119.38Y-91.44
X119.38Y-104.14
X119.38Y-109.22
X119.38Y-121.92
X119.38Y-127.0
X119.38Y-139.7
X119.38Y-144.78
X124.46Y-68.58
X124.46Y-73.66
X124.46Y-86.36
X124.46Y-91.44
X124.46Y-104.14
X124.46Y-109.22
X124.46Y-121.92
X124.46Y-127.0
X124.46Y-139.7
X124.46Y-144.78
X129.54Y-68.58
X129.54Y-73.66
X129.54Y-86.36
X129.54Y-91.44
X129.54Y-104.14
X129.54Y-109.22
X129.54Y-121.92
X129.54Y-127.0
X129.54Y-139.7
X129.54Y-144.78
X134.62Y-68.58
X134.62Y-73.66
X134.62Y-86.36
X134.62Y-91.44
X134.62Y-104.14
X134.62Y-109.22
X134.62Y-121.92
X134.62Y-127.0
X134.62Y-139.7
X134.62Y-144.78
X139.7Y-68.58
X139.7Y-73.66
X139.7Y-86.36
X139.7Y-91.44
X139.7Y-104.14
X139.7Y-109.22
X139.7Y-121.92
X139.7Y-127.0
X139.7Y-139.7
X139.7Y-144.78
X144.78Y-68.58
X144.78Y-73.66
X144.78Y-86.36
X144.78Y-91.44
X144.78Y-104.14
X144.78Y-109.22
X144.78Y-121.92
X144.78Y-127.0
X144.78Y-139.7
X144.78Y-144.78
X149.86Y-68.58
X149.86Y-73.66
X149.86Y-86.36
X149.86Y-91.44
X149.86Y-104.14
X149.86Y-109.22
X149.86Y-121.92
X149.86Y-127.0
X149.86Y-139.7
X149.86Y-144.78
X154.94Y-68.58
X154.94Y-73.66
X154.94Y-86.36
X154.94Y-91.44
X154.94Y-104.14
X154.94Y-109.22
X154.94Y-121.92
X154.94Y-127.0
X154.94Y-139.7
X154.94Y-144.78
X160.02Y-68.58
X160.02Y-73.66
X160.02Y-86.36
X160.02Y-91.44
X160.02Y-104.14
X160.02Y-109.22
X160.02Y-121.92
X160.02Y-127.0
X160.02Y-139.7
X160.02Y-144.78
T0
M30
