%TF.GenerationSoftware,KiCad,Pcbnew,6.0.7-f9a2dced07~116~ubuntu20.04.1*%
%TF.CreationDate,2022-08-19T12:04:29-05:00*%
%TF.ProjectId,,58585858-5858-4585-9858-585858585858,rev?*%
%TF.SameCoordinates,Original*%
%TF.FileFunction,Legend,Bot*%
%TF.FilePolarity,Positive*%
%FSLAX46Y46*%
G04 Gerber Fmt 4.6, Leading zero omitted, Abs format (unit mm)*
G04 Created by KiCad (PCBNEW 6.0.7-f9a2dced07~116~ubuntu20.04.1) date 2022-08-19 12:04:29*
%MOMM*%
%LPD*%
G01*
G04 APERTURE LIST*
%ADD10C,0.150000*%
G04 APERTURE END LIST*
D10*
X153097142Y-136720000D02*
X153068571Y-136634285D01*
X153068571Y-136491428D01*
X153097142Y-136434285D01*
X153125714Y-136405714D01*
X153182857Y-136377142D01*
X153240000Y-136377142D01*
X153297142Y-136405714D01*
X153325714Y-136434285D01*
X153354285Y-136491428D01*
X153382857Y-136605714D01*
X153411428Y-136662857D01*
X153440000Y-136691428D01*
X153497142Y-136720000D01*
X153554285Y-136720000D01*
X153611428Y-136691428D01*
X153640000Y-136662857D01*
X153668571Y-136605714D01*
X153668571Y-136462857D01*
X153640000Y-136377142D01*
X153068571Y-136120000D02*
X153668571Y-136120000D01*
X153240000Y-135920000D01*
X153668571Y-135720000D01*
X153068571Y-135720000D01*
X153240000Y-135462857D02*
X153240000Y-135177142D01*
X153068571Y-135520000D02*
X153668571Y-135320000D01*
X153068571Y-135120000D01*
X153297142Y-134920000D02*
X153297142Y-134462857D01*
X153668571Y-134177142D02*
X153182857Y-134177142D01*
X153125714Y-134148571D01*
X153097142Y-134120000D01*
X153068571Y-134062857D01*
X153068571Y-133948571D01*
X153097142Y-133891428D01*
X153125714Y-133862857D01*
X153182857Y-133834285D01*
X153668571Y-133834285D01*
X153125714Y-133548571D02*
X153097142Y-133520000D01*
X153068571Y-133548571D01*
X153097142Y-133577142D01*
X153125714Y-133548571D01*
X153068571Y-133548571D01*
X153382857Y-133062857D02*
X153382857Y-133262857D01*
X153068571Y-133262857D02*
X153668571Y-133262857D01*
X153668571Y-132977142D01*
X153068571Y-132462857D02*
X153068571Y-132748571D01*
X153668571Y-132748571D01*
X142937142Y-136720000D02*
X142908571Y-136634285D01*
X142908571Y-136491428D01*
X142937142Y-136434285D01*
X142965714Y-136405714D01*
X143022857Y-136377142D01*
X143080000Y-136377142D01*
X143137142Y-136405714D01*
X143165714Y-136434285D01*
X143194285Y-136491428D01*
X143222857Y-136605714D01*
X143251428Y-136662857D01*
X143280000Y-136691428D01*
X143337142Y-136720000D01*
X143394285Y-136720000D01*
X143451428Y-136691428D01*
X143480000Y-136662857D01*
X143508571Y-136605714D01*
X143508571Y-136462857D01*
X143480000Y-136377142D01*
X142908571Y-136120000D02*
X143508571Y-136120000D01*
X143080000Y-135920000D01*
X143508571Y-135720000D01*
X142908571Y-135720000D01*
X143080000Y-135462857D02*
X143080000Y-135177142D01*
X142908571Y-135520000D02*
X143508571Y-135320000D01*
X142908571Y-135120000D01*
X143137142Y-134920000D02*
X143137142Y-134462857D01*
X143508571Y-134177142D02*
X143022857Y-134177142D01*
X142965714Y-134148571D01*
X142937142Y-134120000D01*
X142908571Y-134062857D01*
X142908571Y-133948571D01*
X142937142Y-133891428D01*
X142965714Y-133862857D01*
X143022857Y-133834285D01*
X143508571Y-133834285D01*
X142965714Y-133548571D02*
X142937142Y-133520000D01*
X142908571Y-133548571D01*
X142937142Y-133577142D01*
X142965714Y-133548571D01*
X142908571Y-133548571D01*
X143222857Y-133062857D02*
X143222857Y-133262857D01*
X142908571Y-133262857D02*
X143508571Y-133262857D01*
X143508571Y-132977142D01*
X142908571Y-132462857D02*
X142908571Y-132748571D01*
X143508571Y-132748571D01*
X132777142Y-136720000D02*
X132748571Y-136634285D01*
X132748571Y-136491428D01*
X132777142Y-136434285D01*
X132805714Y-136405714D01*
X132862857Y-136377142D01*
X132920000Y-136377142D01*
X132977142Y-136405714D01*
X133005714Y-136434285D01*
X133034285Y-136491428D01*
X133062857Y-136605714D01*
X133091428Y-136662857D01*
X133120000Y-136691428D01*
X133177142Y-136720000D01*
X133234285Y-136720000D01*
X133291428Y-136691428D01*
X133320000Y-136662857D01*
X133348571Y-136605714D01*
X133348571Y-136462857D01*
X133320000Y-136377142D01*
X132748571Y-136120000D02*
X133348571Y-136120000D01*
X132920000Y-135920000D01*
X133348571Y-135720000D01*
X132748571Y-135720000D01*
X132920000Y-135462857D02*
X132920000Y-135177142D01*
X132748571Y-135520000D02*
X133348571Y-135320000D01*
X132748571Y-135120000D01*
X132977142Y-134920000D02*
X132977142Y-134462857D01*
X133348571Y-134177142D02*
X132862857Y-134177142D01*
X132805714Y-134148571D01*
X132777142Y-134120000D01*
X132748571Y-134062857D01*
X132748571Y-133948571D01*
X132777142Y-133891428D01*
X132805714Y-133862857D01*
X132862857Y-133834285D01*
X133348571Y-133834285D01*
X132805714Y-133548571D02*
X132777142Y-133520000D01*
X132748571Y-133548571D01*
X132777142Y-133577142D01*
X132805714Y-133548571D01*
X132748571Y-133548571D01*
X133062857Y-133062857D02*
X133062857Y-133262857D01*
X132748571Y-133262857D02*
X133348571Y-133262857D01*
X133348571Y-132977142D01*
X132748571Y-132462857D02*
X132748571Y-132748571D01*
X133348571Y-132748571D01*
X122617142Y-136720000D02*
X122588571Y-136634285D01*
X122588571Y-136491428D01*
X122617142Y-136434285D01*
X122645714Y-136405714D01*
X122702857Y-136377142D01*
X122760000Y-136377142D01*
X122817142Y-136405714D01*
X122845714Y-136434285D01*
X122874285Y-136491428D01*
X122902857Y-136605714D01*
X122931428Y-136662857D01*
X122960000Y-136691428D01*
X123017142Y-136720000D01*
X123074285Y-136720000D01*
X123131428Y-136691428D01*
X123160000Y-136662857D01*
X123188571Y-136605714D01*
X123188571Y-136462857D01*
X123160000Y-136377142D01*
X122588571Y-136120000D02*
X123188571Y-136120000D01*
X122760000Y-135920000D01*
X123188571Y-135720000D01*
X122588571Y-135720000D01*
X122760000Y-135462857D02*
X122760000Y-135177142D01*
X122588571Y-135520000D02*
X123188571Y-135320000D01*
X122588571Y-135120000D01*
X122817142Y-134920000D02*
X122817142Y-134462857D01*
X123188571Y-134177142D02*
X122702857Y-134177142D01*
X122645714Y-134148571D01*
X122617142Y-134120000D01*
X122588571Y-134062857D01*
X122588571Y-133948571D01*
X122617142Y-133891428D01*
X122645714Y-133862857D01*
X122702857Y-133834285D01*
X123188571Y-133834285D01*
X122645714Y-133548571D02*
X122617142Y-133520000D01*
X122588571Y-133548571D01*
X122617142Y-133577142D01*
X122645714Y-133548571D01*
X122588571Y-133548571D01*
X122902857Y-133062857D02*
X122902857Y-133262857D01*
X122588571Y-133262857D02*
X123188571Y-133262857D01*
X123188571Y-132977142D01*
X122588571Y-132462857D02*
X122588571Y-132748571D01*
X123188571Y-132748571D01*
X112457142Y-136720000D02*
X112428571Y-136634285D01*
X112428571Y-136491428D01*
X112457142Y-136434285D01*
X112485714Y-136405714D01*
X112542857Y-136377142D01*
X112600000Y-136377142D01*
X112657142Y-136405714D01*
X112685714Y-136434285D01*
X112714285Y-136491428D01*
X112742857Y-136605714D01*
X112771428Y-136662857D01*
X112800000Y-136691428D01*
X112857142Y-136720000D01*
X112914285Y-136720000D01*
X112971428Y-136691428D01*
X113000000Y-136662857D01*
X113028571Y-136605714D01*
X113028571Y-136462857D01*
X113000000Y-136377142D01*
X112428571Y-136120000D02*
X113028571Y-136120000D01*
X112600000Y-135920000D01*
X113028571Y-135720000D01*
X112428571Y-135720000D01*
X112600000Y-135462857D02*
X112600000Y-135177142D01*
X112428571Y-135520000D02*
X113028571Y-135320000D01*
X112428571Y-135120000D01*
X112657142Y-134920000D02*
X112657142Y-134462857D01*
X113028571Y-134177142D02*
X112542857Y-134177142D01*
X112485714Y-134148571D01*
X112457142Y-134120000D01*
X112428571Y-134062857D01*
X112428571Y-133948571D01*
X112457142Y-133891428D01*
X112485714Y-133862857D01*
X112542857Y-133834285D01*
X113028571Y-133834285D01*
X112485714Y-133548571D02*
X112457142Y-133520000D01*
X112428571Y-133548571D01*
X112457142Y-133577142D01*
X112485714Y-133548571D01*
X112428571Y-133548571D01*
X112742857Y-133062857D02*
X112742857Y-133262857D01*
X112428571Y-133262857D02*
X113028571Y-133262857D01*
X113028571Y-132977142D01*
X112428571Y-132462857D02*
X112428571Y-132748571D01*
X113028571Y-132748571D01*
X102297142Y-136720000D02*
X102268571Y-136634285D01*
X102268571Y-136491428D01*
X102297142Y-136434285D01*
X102325714Y-136405714D01*
X102382857Y-136377142D01*
X102440000Y-136377142D01*
X102497142Y-136405714D01*
X102525714Y-136434285D01*
X102554285Y-136491428D01*
X102582857Y-136605714D01*
X102611428Y-136662857D01*
X102640000Y-136691428D01*
X102697142Y-136720000D01*
X102754285Y-136720000D01*
X102811428Y-136691428D01*
X102840000Y-136662857D01*
X102868571Y-136605714D01*
X102868571Y-136462857D01*
X102840000Y-136377142D01*
X102268571Y-136120000D02*
X102868571Y-136120000D01*
X102440000Y-135920000D01*
X102868571Y-135720000D01*
X102268571Y-135720000D01*
X102440000Y-135462857D02*
X102440000Y-135177142D01*
X102268571Y-135520000D02*
X102868571Y-135320000D01*
X102268571Y-135120000D01*
X102497142Y-134920000D02*
X102497142Y-134462857D01*
X102868571Y-134177142D02*
X102382857Y-134177142D01*
X102325714Y-134148571D01*
X102297142Y-134120000D01*
X102268571Y-134062857D01*
X102268571Y-133948571D01*
X102297142Y-133891428D01*
X102325714Y-133862857D01*
X102382857Y-133834285D01*
X102868571Y-133834285D01*
X102325714Y-133548571D02*
X102297142Y-133520000D01*
X102268571Y-133548571D01*
X102297142Y-133577142D01*
X102325714Y-133548571D01*
X102268571Y-133548571D01*
X102582857Y-133062857D02*
X102582857Y-133262857D01*
X102268571Y-133262857D02*
X102868571Y-133262857D01*
X102868571Y-132977142D01*
X102268571Y-132462857D02*
X102268571Y-132748571D01*
X102868571Y-132748571D01*
X92137142Y-136720000D02*
X92108571Y-136634285D01*
X92108571Y-136491428D01*
X92137142Y-136434285D01*
X92165714Y-136405714D01*
X92222857Y-136377142D01*
X92280000Y-136377142D01*
X92337142Y-136405714D01*
X92365714Y-136434285D01*
X92394285Y-136491428D01*
X92422857Y-136605714D01*
X92451428Y-136662857D01*
X92480000Y-136691428D01*
X92537142Y-136720000D01*
X92594285Y-136720000D01*
X92651428Y-136691428D01*
X92680000Y-136662857D01*
X92708571Y-136605714D01*
X92708571Y-136462857D01*
X92680000Y-136377142D01*
X92108571Y-136120000D02*
X92708571Y-136120000D01*
X92280000Y-135920000D01*
X92708571Y-135720000D01*
X92108571Y-135720000D01*
X92280000Y-135462857D02*
X92280000Y-135177142D01*
X92108571Y-135520000D02*
X92708571Y-135320000D01*
X92108571Y-135120000D01*
X92337142Y-134920000D02*
X92337142Y-134462857D01*
X92708571Y-134177142D02*
X92222857Y-134177142D01*
X92165714Y-134148571D01*
X92137142Y-134120000D01*
X92108571Y-134062857D01*
X92108571Y-133948571D01*
X92137142Y-133891428D01*
X92165714Y-133862857D01*
X92222857Y-133834285D01*
X92708571Y-133834285D01*
X92165714Y-133548571D02*
X92137142Y-133520000D01*
X92108571Y-133548571D01*
X92137142Y-133577142D01*
X92165714Y-133548571D01*
X92108571Y-133548571D01*
X92422857Y-133062857D02*
X92422857Y-133262857D01*
X92108571Y-133262857D02*
X92708571Y-133262857D01*
X92708571Y-132977142D01*
X92108571Y-132462857D02*
X92108571Y-132748571D01*
X92708571Y-132748571D01*
X81977142Y-136720000D02*
X81948571Y-136634285D01*
X81948571Y-136491428D01*
X81977142Y-136434285D01*
X82005714Y-136405714D01*
X82062857Y-136377142D01*
X82120000Y-136377142D01*
X82177142Y-136405714D01*
X82205714Y-136434285D01*
X82234285Y-136491428D01*
X82262857Y-136605714D01*
X82291428Y-136662857D01*
X82320000Y-136691428D01*
X82377142Y-136720000D01*
X82434285Y-136720000D01*
X82491428Y-136691428D01*
X82520000Y-136662857D01*
X82548571Y-136605714D01*
X82548571Y-136462857D01*
X82520000Y-136377142D01*
X81948571Y-136120000D02*
X82548571Y-136120000D01*
X82120000Y-135920000D01*
X82548571Y-135720000D01*
X81948571Y-135720000D01*
X82120000Y-135462857D02*
X82120000Y-135177142D01*
X81948571Y-135520000D02*
X82548571Y-135320000D01*
X81948571Y-135120000D01*
X82177142Y-134920000D02*
X82177142Y-134462857D01*
X82548571Y-134177142D02*
X82062857Y-134177142D01*
X82005714Y-134148571D01*
X81977142Y-134120000D01*
X81948571Y-134062857D01*
X81948571Y-133948571D01*
X81977142Y-133891428D01*
X82005714Y-133862857D01*
X82062857Y-133834285D01*
X82548571Y-133834285D01*
X82005714Y-133548571D02*
X81977142Y-133520000D01*
X81948571Y-133548571D01*
X81977142Y-133577142D01*
X82005714Y-133548571D01*
X81948571Y-133548571D01*
X82262857Y-133062857D02*
X82262857Y-133262857D01*
X81948571Y-133262857D02*
X82548571Y-133262857D01*
X82548571Y-132977142D01*
X81948571Y-132462857D02*
X81948571Y-132748571D01*
X82548571Y-132748571D01*
X71817142Y-136720000D02*
X71788571Y-136634285D01*
X71788571Y-136491428D01*
X71817142Y-136434285D01*
X71845714Y-136405714D01*
X71902857Y-136377142D01*
X71960000Y-136377142D01*
X72017142Y-136405714D01*
X72045714Y-136434285D01*
X72074285Y-136491428D01*
X72102857Y-136605714D01*
X72131428Y-136662857D01*
X72160000Y-136691428D01*
X72217142Y-136720000D01*
X72274285Y-136720000D01*
X72331428Y-136691428D01*
X72360000Y-136662857D01*
X72388571Y-136605714D01*
X72388571Y-136462857D01*
X72360000Y-136377142D01*
X71788571Y-136120000D02*
X72388571Y-136120000D01*
X71960000Y-135920000D01*
X72388571Y-135720000D01*
X71788571Y-135720000D01*
X71960000Y-135462857D02*
X71960000Y-135177142D01*
X71788571Y-135520000D02*
X72388571Y-135320000D01*
X71788571Y-135120000D01*
X72017142Y-134920000D02*
X72017142Y-134462857D01*
X72388571Y-134177142D02*
X71902857Y-134177142D01*
X71845714Y-134148571D01*
X71817142Y-134120000D01*
X71788571Y-134062857D01*
X71788571Y-133948571D01*
X71817142Y-133891428D01*
X71845714Y-133862857D01*
X71902857Y-133834285D01*
X72388571Y-133834285D01*
X71845714Y-133548571D02*
X71817142Y-133520000D01*
X71788571Y-133548571D01*
X71817142Y-133577142D01*
X71845714Y-133548571D01*
X71788571Y-133548571D01*
X72102857Y-133062857D02*
X72102857Y-133262857D01*
X71788571Y-133262857D02*
X72388571Y-133262857D01*
X72388571Y-132977142D01*
X71788571Y-132462857D02*
X71788571Y-132748571D01*
X72388571Y-132748571D01*
X153097142Y-118940000D02*
X153068571Y-118854285D01*
X153068571Y-118711428D01*
X153097142Y-118654285D01*
X153125714Y-118625714D01*
X153182857Y-118597142D01*
X153240000Y-118597142D01*
X153297142Y-118625714D01*
X153325714Y-118654285D01*
X153354285Y-118711428D01*
X153382857Y-118825714D01*
X153411428Y-118882857D01*
X153440000Y-118911428D01*
X153497142Y-118940000D01*
X153554285Y-118940000D01*
X153611428Y-118911428D01*
X153640000Y-118882857D01*
X153668571Y-118825714D01*
X153668571Y-118682857D01*
X153640000Y-118597142D01*
X153068571Y-118340000D02*
X153668571Y-118340000D01*
X153240000Y-118140000D01*
X153668571Y-117940000D01*
X153068571Y-117940000D01*
X153240000Y-117682857D02*
X153240000Y-117397142D01*
X153068571Y-117740000D02*
X153668571Y-117540000D01*
X153068571Y-117340000D01*
X153297142Y-117140000D02*
X153297142Y-116682857D01*
X153668571Y-116397142D02*
X153182857Y-116397142D01*
X153125714Y-116368571D01*
X153097142Y-116340000D01*
X153068571Y-116282857D01*
X153068571Y-116168571D01*
X153097142Y-116111428D01*
X153125714Y-116082857D01*
X153182857Y-116054285D01*
X153668571Y-116054285D01*
X153125714Y-115768571D02*
X153097142Y-115740000D01*
X153068571Y-115768571D01*
X153097142Y-115797142D01*
X153125714Y-115768571D01*
X153068571Y-115768571D01*
X153382857Y-115282857D02*
X153382857Y-115482857D01*
X153068571Y-115482857D02*
X153668571Y-115482857D01*
X153668571Y-115197142D01*
X153068571Y-114682857D02*
X153068571Y-114968571D01*
X153668571Y-114968571D01*
X142937142Y-118940000D02*
X142908571Y-118854285D01*
X142908571Y-118711428D01*
X142937142Y-118654285D01*
X142965714Y-118625714D01*
X143022857Y-118597142D01*
X143080000Y-118597142D01*
X143137142Y-118625714D01*
X143165714Y-118654285D01*
X143194285Y-118711428D01*
X143222857Y-118825714D01*
X143251428Y-118882857D01*
X143280000Y-118911428D01*
X143337142Y-118940000D01*
X143394285Y-118940000D01*
X143451428Y-118911428D01*
X143480000Y-118882857D01*
X143508571Y-118825714D01*
X143508571Y-118682857D01*
X143480000Y-118597142D01*
X142908571Y-118340000D02*
X143508571Y-118340000D01*
X143080000Y-118140000D01*
X143508571Y-117940000D01*
X142908571Y-117940000D01*
X143080000Y-117682857D02*
X143080000Y-117397142D01*
X142908571Y-117740000D02*
X143508571Y-117540000D01*
X142908571Y-117340000D01*
X143137142Y-117140000D02*
X143137142Y-116682857D01*
X143508571Y-116397142D02*
X143022857Y-116397142D01*
X142965714Y-116368571D01*
X142937142Y-116340000D01*
X142908571Y-116282857D01*
X142908571Y-116168571D01*
X142937142Y-116111428D01*
X142965714Y-116082857D01*
X143022857Y-116054285D01*
X143508571Y-116054285D01*
X142965714Y-115768571D02*
X142937142Y-115740000D01*
X142908571Y-115768571D01*
X142937142Y-115797142D01*
X142965714Y-115768571D01*
X142908571Y-115768571D01*
X143222857Y-115282857D02*
X143222857Y-115482857D01*
X142908571Y-115482857D02*
X143508571Y-115482857D01*
X143508571Y-115197142D01*
X142908571Y-114682857D02*
X142908571Y-114968571D01*
X143508571Y-114968571D01*
X132777142Y-118940000D02*
X132748571Y-118854285D01*
X132748571Y-118711428D01*
X132777142Y-118654285D01*
X132805714Y-118625714D01*
X132862857Y-118597142D01*
X132920000Y-118597142D01*
X132977142Y-118625714D01*
X133005714Y-118654285D01*
X133034285Y-118711428D01*
X133062857Y-118825714D01*
X133091428Y-118882857D01*
X133120000Y-118911428D01*
X133177142Y-118940000D01*
X133234285Y-118940000D01*
X133291428Y-118911428D01*
X133320000Y-118882857D01*
X133348571Y-118825714D01*
X133348571Y-118682857D01*
X133320000Y-118597142D01*
X132748571Y-118340000D02*
X133348571Y-118340000D01*
X132920000Y-118140000D01*
X133348571Y-117940000D01*
X132748571Y-117940000D01*
X132920000Y-117682857D02*
X132920000Y-117397142D01*
X132748571Y-117740000D02*
X133348571Y-117540000D01*
X132748571Y-117340000D01*
X132977142Y-117140000D02*
X132977142Y-116682857D01*
X133348571Y-116397142D02*
X132862857Y-116397142D01*
X132805714Y-116368571D01*
X132777142Y-116340000D01*
X132748571Y-116282857D01*
X132748571Y-116168571D01*
X132777142Y-116111428D01*
X132805714Y-116082857D01*
X132862857Y-116054285D01*
X133348571Y-116054285D01*
X132805714Y-115768571D02*
X132777142Y-115740000D01*
X132748571Y-115768571D01*
X132777142Y-115797142D01*
X132805714Y-115768571D01*
X132748571Y-115768571D01*
X133062857Y-115282857D02*
X133062857Y-115482857D01*
X132748571Y-115482857D02*
X133348571Y-115482857D01*
X133348571Y-115197142D01*
X132748571Y-114682857D02*
X132748571Y-114968571D01*
X133348571Y-114968571D01*
X122617142Y-118940000D02*
X122588571Y-118854285D01*
X122588571Y-118711428D01*
X122617142Y-118654285D01*
X122645714Y-118625714D01*
X122702857Y-118597142D01*
X122760000Y-118597142D01*
X122817142Y-118625714D01*
X122845714Y-118654285D01*
X122874285Y-118711428D01*
X122902857Y-118825714D01*
X122931428Y-118882857D01*
X122960000Y-118911428D01*
X123017142Y-118940000D01*
X123074285Y-118940000D01*
X123131428Y-118911428D01*
X123160000Y-118882857D01*
X123188571Y-118825714D01*
X123188571Y-118682857D01*
X123160000Y-118597142D01*
X122588571Y-118340000D02*
X123188571Y-118340000D01*
X122760000Y-118140000D01*
X123188571Y-117940000D01*
X122588571Y-117940000D01*
X122760000Y-117682857D02*
X122760000Y-117397142D01*
X122588571Y-117740000D02*
X123188571Y-117540000D01*
X122588571Y-117340000D01*
X122817142Y-117140000D02*
X122817142Y-116682857D01*
X123188571Y-116397142D02*
X122702857Y-116397142D01*
X122645714Y-116368571D01*
X122617142Y-116340000D01*
X122588571Y-116282857D01*
X122588571Y-116168571D01*
X122617142Y-116111428D01*
X122645714Y-116082857D01*
X122702857Y-116054285D01*
X123188571Y-116054285D01*
X122645714Y-115768571D02*
X122617142Y-115740000D01*
X122588571Y-115768571D01*
X122617142Y-115797142D01*
X122645714Y-115768571D01*
X122588571Y-115768571D01*
X122902857Y-115282857D02*
X122902857Y-115482857D01*
X122588571Y-115482857D02*
X123188571Y-115482857D01*
X123188571Y-115197142D01*
X122588571Y-114682857D02*
X122588571Y-114968571D01*
X123188571Y-114968571D01*
X112457142Y-118940000D02*
X112428571Y-118854285D01*
X112428571Y-118711428D01*
X112457142Y-118654285D01*
X112485714Y-118625714D01*
X112542857Y-118597142D01*
X112600000Y-118597142D01*
X112657142Y-118625714D01*
X112685714Y-118654285D01*
X112714285Y-118711428D01*
X112742857Y-118825714D01*
X112771428Y-118882857D01*
X112800000Y-118911428D01*
X112857142Y-118940000D01*
X112914285Y-118940000D01*
X112971428Y-118911428D01*
X113000000Y-118882857D01*
X113028571Y-118825714D01*
X113028571Y-118682857D01*
X113000000Y-118597142D01*
X112428571Y-118340000D02*
X113028571Y-118340000D01*
X112600000Y-118140000D01*
X113028571Y-117940000D01*
X112428571Y-117940000D01*
X112600000Y-117682857D02*
X112600000Y-117397142D01*
X112428571Y-117740000D02*
X113028571Y-117540000D01*
X112428571Y-117340000D01*
X112657142Y-117140000D02*
X112657142Y-116682857D01*
X113028571Y-116397142D02*
X112542857Y-116397142D01*
X112485714Y-116368571D01*
X112457142Y-116340000D01*
X112428571Y-116282857D01*
X112428571Y-116168571D01*
X112457142Y-116111428D01*
X112485714Y-116082857D01*
X112542857Y-116054285D01*
X113028571Y-116054285D01*
X112485714Y-115768571D02*
X112457142Y-115740000D01*
X112428571Y-115768571D01*
X112457142Y-115797142D01*
X112485714Y-115768571D01*
X112428571Y-115768571D01*
X112742857Y-115282857D02*
X112742857Y-115482857D01*
X112428571Y-115482857D02*
X113028571Y-115482857D01*
X113028571Y-115197142D01*
X112428571Y-114682857D02*
X112428571Y-114968571D01*
X113028571Y-114968571D01*
X102297142Y-118940000D02*
X102268571Y-118854285D01*
X102268571Y-118711428D01*
X102297142Y-118654285D01*
X102325714Y-118625714D01*
X102382857Y-118597142D01*
X102440000Y-118597142D01*
X102497142Y-118625714D01*
X102525714Y-118654285D01*
X102554285Y-118711428D01*
X102582857Y-118825714D01*
X102611428Y-118882857D01*
X102640000Y-118911428D01*
X102697142Y-118940000D01*
X102754285Y-118940000D01*
X102811428Y-118911428D01*
X102840000Y-118882857D01*
X102868571Y-118825714D01*
X102868571Y-118682857D01*
X102840000Y-118597142D01*
X102268571Y-118340000D02*
X102868571Y-118340000D01*
X102440000Y-118140000D01*
X102868571Y-117940000D01*
X102268571Y-117940000D01*
X102440000Y-117682857D02*
X102440000Y-117397142D01*
X102268571Y-117740000D02*
X102868571Y-117540000D01*
X102268571Y-117340000D01*
X102497142Y-117140000D02*
X102497142Y-116682857D01*
X102868571Y-116397142D02*
X102382857Y-116397142D01*
X102325714Y-116368571D01*
X102297142Y-116340000D01*
X102268571Y-116282857D01*
X102268571Y-116168571D01*
X102297142Y-116111428D01*
X102325714Y-116082857D01*
X102382857Y-116054285D01*
X102868571Y-116054285D01*
X102325714Y-115768571D02*
X102297142Y-115740000D01*
X102268571Y-115768571D01*
X102297142Y-115797142D01*
X102325714Y-115768571D01*
X102268571Y-115768571D01*
X102582857Y-115282857D02*
X102582857Y-115482857D01*
X102268571Y-115482857D02*
X102868571Y-115482857D01*
X102868571Y-115197142D01*
X102268571Y-114682857D02*
X102268571Y-114968571D01*
X102868571Y-114968571D01*
X92137142Y-118940000D02*
X92108571Y-118854285D01*
X92108571Y-118711428D01*
X92137142Y-118654285D01*
X92165714Y-118625714D01*
X92222857Y-118597142D01*
X92280000Y-118597142D01*
X92337142Y-118625714D01*
X92365714Y-118654285D01*
X92394285Y-118711428D01*
X92422857Y-118825714D01*
X92451428Y-118882857D01*
X92480000Y-118911428D01*
X92537142Y-118940000D01*
X92594285Y-118940000D01*
X92651428Y-118911428D01*
X92680000Y-118882857D01*
X92708571Y-118825714D01*
X92708571Y-118682857D01*
X92680000Y-118597142D01*
X92108571Y-118340000D02*
X92708571Y-118340000D01*
X92280000Y-118140000D01*
X92708571Y-117940000D01*
X92108571Y-117940000D01*
X92280000Y-117682857D02*
X92280000Y-117397142D01*
X92108571Y-117740000D02*
X92708571Y-117540000D01*
X92108571Y-117340000D01*
X92337142Y-117140000D02*
X92337142Y-116682857D01*
X92708571Y-116397142D02*
X92222857Y-116397142D01*
X92165714Y-116368571D01*
X92137142Y-116340000D01*
X92108571Y-116282857D01*
X92108571Y-116168571D01*
X92137142Y-116111428D01*
X92165714Y-116082857D01*
X92222857Y-116054285D01*
X92708571Y-116054285D01*
X92165714Y-115768571D02*
X92137142Y-115740000D01*
X92108571Y-115768571D01*
X92137142Y-115797142D01*
X92165714Y-115768571D01*
X92108571Y-115768571D01*
X92422857Y-115282857D02*
X92422857Y-115482857D01*
X92108571Y-115482857D02*
X92708571Y-115482857D01*
X92708571Y-115197142D01*
X92108571Y-114682857D02*
X92108571Y-114968571D01*
X92708571Y-114968571D01*
X81977142Y-118940000D02*
X81948571Y-118854285D01*
X81948571Y-118711428D01*
X81977142Y-118654285D01*
X82005714Y-118625714D01*
X82062857Y-118597142D01*
X82120000Y-118597142D01*
X82177142Y-118625714D01*
X82205714Y-118654285D01*
X82234285Y-118711428D01*
X82262857Y-118825714D01*
X82291428Y-118882857D01*
X82320000Y-118911428D01*
X82377142Y-118940000D01*
X82434285Y-118940000D01*
X82491428Y-118911428D01*
X82520000Y-118882857D01*
X82548571Y-118825714D01*
X82548571Y-118682857D01*
X82520000Y-118597142D01*
X81948571Y-118340000D02*
X82548571Y-118340000D01*
X82120000Y-118140000D01*
X82548571Y-117940000D01*
X81948571Y-117940000D01*
X82120000Y-117682857D02*
X82120000Y-117397142D01*
X81948571Y-117740000D02*
X82548571Y-117540000D01*
X81948571Y-117340000D01*
X82177142Y-117140000D02*
X82177142Y-116682857D01*
X82548571Y-116397142D02*
X82062857Y-116397142D01*
X82005714Y-116368571D01*
X81977142Y-116340000D01*
X81948571Y-116282857D01*
X81948571Y-116168571D01*
X81977142Y-116111428D01*
X82005714Y-116082857D01*
X82062857Y-116054285D01*
X82548571Y-116054285D01*
X82005714Y-115768571D02*
X81977142Y-115740000D01*
X81948571Y-115768571D01*
X81977142Y-115797142D01*
X82005714Y-115768571D01*
X81948571Y-115768571D01*
X82262857Y-115282857D02*
X82262857Y-115482857D01*
X81948571Y-115482857D02*
X82548571Y-115482857D01*
X82548571Y-115197142D01*
X81948571Y-114682857D02*
X81948571Y-114968571D01*
X82548571Y-114968571D01*
X71817142Y-118940000D02*
X71788571Y-118854285D01*
X71788571Y-118711428D01*
X71817142Y-118654285D01*
X71845714Y-118625714D01*
X71902857Y-118597142D01*
X71960000Y-118597142D01*
X72017142Y-118625714D01*
X72045714Y-118654285D01*
X72074285Y-118711428D01*
X72102857Y-118825714D01*
X72131428Y-118882857D01*
X72160000Y-118911428D01*
X72217142Y-118940000D01*
X72274285Y-118940000D01*
X72331428Y-118911428D01*
X72360000Y-118882857D01*
X72388571Y-118825714D01*
X72388571Y-118682857D01*
X72360000Y-118597142D01*
X71788571Y-118340000D02*
X72388571Y-118340000D01*
X71960000Y-118140000D01*
X72388571Y-117940000D01*
X71788571Y-117940000D01*
X71960000Y-117682857D02*
X71960000Y-117397142D01*
X71788571Y-117740000D02*
X72388571Y-117540000D01*
X71788571Y-117340000D01*
X72017142Y-117140000D02*
X72017142Y-116682857D01*
X72388571Y-116397142D02*
X71902857Y-116397142D01*
X71845714Y-116368571D01*
X71817142Y-116340000D01*
X71788571Y-116282857D01*
X71788571Y-116168571D01*
X71817142Y-116111428D01*
X71845714Y-116082857D01*
X71902857Y-116054285D01*
X72388571Y-116054285D01*
X71845714Y-115768571D02*
X71817142Y-115740000D01*
X71788571Y-115768571D01*
X71817142Y-115797142D01*
X71845714Y-115768571D01*
X71788571Y-115768571D01*
X72102857Y-115282857D02*
X72102857Y-115482857D01*
X71788571Y-115482857D02*
X72388571Y-115482857D01*
X72388571Y-115197142D01*
X71788571Y-114682857D02*
X71788571Y-114968571D01*
X72388571Y-114968571D01*
X153097142Y-101160000D02*
X153068571Y-101074285D01*
X153068571Y-100931428D01*
X153097142Y-100874285D01*
X153125714Y-100845714D01*
X153182857Y-100817142D01*
X153240000Y-100817142D01*
X153297142Y-100845714D01*
X153325714Y-100874285D01*
X153354285Y-100931428D01*
X153382857Y-101045714D01*
X153411428Y-101102857D01*
X153440000Y-101131428D01*
X153497142Y-101160000D01*
X153554285Y-101160000D01*
X153611428Y-101131428D01*
X153640000Y-101102857D01*
X153668571Y-101045714D01*
X153668571Y-100902857D01*
X153640000Y-100817142D01*
X153068571Y-100560000D02*
X153668571Y-100560000D01*
X153240000Y-100360000D01*
X153668571Y-100160000D01*
X153068571Y-100160000D01*
X153240000Y-99902857D02*
X153240000Y-99617142D01*
X153068571Y-99960000D02*
X153668571Y-99760000D01*
X153068571Y-99560000D01*
X153297142Y-99360000D02*
X153297142Y-98902857D01*
X153668571Y-98617142D02*
X153182857Y-98617142D01*
X153125714Y-98588571D01*
X153097142Y-98560000D01*
X153068571Y-98502857D01*
X153068571Y-98388571D01*
X153097142Y-98331428D01*
X153125714Y-98302857D01*
X153182857Y-98274285D01*
X153668571Y-98274285D01*
X153125714Y-97988571D02*
X153097142Y-97960000D01*
X153068571Y-97988571D01*
X153097142Y-98017142D01*
X153125714Y-97988571D01*
X153068571Y-97988571D01*
X153382857Y-97502857D02*
X153382857Y-97702857D01*
X153068571Y-97702857D02*
X153668571Y-97702857D01*
X153668571Y-97417142D01*
X153068571Y-96902857D02*
X153068571Y-97188571D01*
X153668571Y-97188571D01*
X142937142Y-101160000D02*
X142908571Y-101074285D01*
X142908571Y-100931428D01*
X142937142Y-100874285D01*
X142965714Y-100845714D01*
X143022857Y-100817142D01*
X143080000Y-100817142D01*
X143137142Y-100845714D01*
X143165714Y-100874285D01*
X143194285Y-100931428D01*
X143222857Y-101045714D01*
X143251428Y-101102857D01*
X143280000Y-101131428D01*
X143337142Y-101160000D01*
X143394285Y-101160000D01*
X143451428Y-101131428D01*
X143480000Y-101102857D01*
X143508571Y-101045714D01*
X143508571Y-100902857D01*
X143480000Y-100817142D01*
X142908571Y-100560000D02*
X143508571Y-100560000D01*
X143080000Y-100360000D01*
X143508571Y-100160000D01*
X142908571Y-100160000D01*
X143080000Y-99902857D02*
X143080000Y-99617142D01*
X142908571Y-99960000D02*
X143508571Y-99760000D01*
X142908571Y-99560000D01*
X143137142Y-99360000D02*
X143137142Y-98902857D01*
X143508571Y-98617142D02*
X143022857Y-98617142D01*
X142965714Y-98588571D01*
X142937142Y-98560000D01*
X142908571Y-98502857D01*
X142908571Y-98388571D01*
X142937142Y-98331428D01*
X142965714Y-98302857D01*
X143022857Y-98274285D01*
X143508571Y-98274285D01*
X142965714Y-97988571D02*
X142937142Y-97960000D01*
X142908571Y-97988571D01*
X142937142Y-98017142D01*
X142965714Y-97988571D01*
X142908571Y-97988571D01*
X143222857Y-97502857D02*
X143222857Y-97702857D01*
X142908571Y-97702857D02*
X143508571Y-97702857D01*
X143508571Y-97417142D01*
X142908571Y-96902857D02*
X142908571Y-97188571D01*
X143508571Y-97188571D01*
X132777142Y-101160000D02*
X132748571Y-101074285D01*
X132748571Y-100931428D01*
X132777142Y-100874285D01*
X132805714Y-100845714D01*
X132862857Y-100817142D01*
X132920000Y-100817142D01*
X132977142Y-100845714D01*
X133005714Y-100874285D01*
X133034285Y-100931428D01*
X133062857Y-101045714D01*
X133091428Y-101102857D01*
X133120000Y-101131428D01*
X133177142Y-101160000D01*
X133234285Y-101160000D01*
X133291428Y-101131428D01*
X133320000Y-101102857D01*
X133348571Y-101045714D01*
X133348571Y-100902857D01*
X133320000Y-100817142D01*
X132748571Y-100560000D02*
X133348571Y-100560000D01*
X132920000Y-100360000D01*
X133348571Y-100160000D01*
X132748571Y-100160000D01*
X132920000Y-99902857D02*
X132920000Y-99617142D01*
X132748571Y-99960000D02*
X133348571Y-99760000D01*
X132748571Y-99560000D01*
X132977142Y-99360000D02*
X132977142Y-98902857D01*
X133348571Y-98617142D02*
X132862857Y-98617142D01*
X132805714Y-98588571D01*
X132777142Y-98560000D01*
X132748571Y-98502857D01*
X132748571Y-98388571D01*
X132777142Y-98331428D01*
X132805714Y-98302857D01*
X132862857Y-98274285D01*
X133348571Y-98274285D01*
X132805714Y-97988571D02*
X132777142Y-97960000D01*
X132748571Y-97988571D01*
X132777142Y-98017142D01*
X132805714Y-97988571D01*
X132748571Y-97988571D01*
X133062857Y-97502857D02*
X133062857Y-97702857D01*
X132748571Y-97702857D02*
X133348571Y-97702857D01*
X133348571Y-97417142D01*
X132748571Y-96902857D02*
X132748571Y-97188571D01*
X133348571Y-97188571D01*
X122617142Y-101160000D02*
X122588571Y-101074285D01*
X122588571Y-100931428D01*
X122617142Y-100874285D01*
X122645714Y-100845714D01*
X122702857Y-100817142D01*
X122760000Y-100817142D01*
X122817142Y-100845714D01*
X122845714Y-100874285D01*
X122874285Y-100931428D01*
X122902857Y-101045714D01*
X122931428Y-101102857D01*
X122960000Y-101131428D01*
X123017142Y-101160000D01*
X123074285Y-101160000D01*
X123131428Y-101131428D01*
X123160000Y-101102857D01*
X123188571Y-101045714D01*
X123188571Y-100902857D01*
X123160000Y-100817142D01*
X122588571Y-100560000D02*
X123188571Y-100560000D01*
X122760000Y-100360000D01*
X123188571Y-100160000D01*
X122588571Y-100160000D01*
X122760000Y-99902857D02*
X122760000Y-99617142D01*
X122588571Y-99960000D02*
X123188571Y-99760000D01*
X122588571Y-99560000D01*
X122817142Y-99360000D02*
X122817142Y-98902857D01*
X123188571Y-98617142D02*
X122702857Y-98617142D01*
X122645714Y-98588571D01*
X122617142Y-98560000D01*
X122588571Y-98502857D01*
X122588571Y-98388571D01*
X122617142Y-98331428D01*
X122645714Y-98302857D01*
X122702857Y-98274285D01*
X123188571Y-98274285D01*
X122645714Y-97988571D02*
X122617142Y-97960000D01*
X122588571Y-97988571D01*
X122617142Y-98017142D01*
X122645714Y-97988571D01*
X122588571Y-97988571D01*
X122902857Y-97502857D02*
X122902857Y-97702857D01*
X122588571Y-97702857D02*
X123188571Y-97702857D01*
X123188571Y-97417142D01*
X122588571Y-96902857D02*
X122588571Y-97188571D01*
X123188571Y-97188571D01*
X112457142Y-101160000D02*
X112428571Y-101074285D01*
X112428571Y-100931428D01*
X112457142Y-100874285D01*
X112485714Y-100845714D01*
X112542857Y-100817142D01*
X112600000Y-100817142D01*
X112657142Y-100845714D01*
X112685714Y-100874285D01*
X112714285Y-100931428D01*
X112742857Y-101045714D01*
X112771428Y-101102857D01*
X112800000Y-101131428D01*
X112857142Y-101160000D01*
X112914285Y-101160000D01*
X112971428Y-101131428D01*
X113000000Y-101102857D01*
X113028571Y-101045714D01*
X113028571Y-100902857D01*
X113000000Y-100817142D01*
X112428571Y-100560000D02*
X113028571Y-100560000D01*
X112600000Y-100360000D01*
X113028571Y-100160000D01*
X112428571Y-100160000D01*
X112600000Y-99902857D02*
X112600000Y-99617142D01*
X112428571Y-99960000D02*
X113028571Y-99760000D01*
X112428571Y-99560000D01*
X112657142Y-99360000D02*
X112657142Y-98902857D01*
X113028571Y-98617142D02*
X112542857Y-98617142D01*
X112485714Y-98588571D01*
X112457142Y-98560000D01*
X112428571Y-98502857D01*
X112428571Y-98388571D01*
X112457142Y-98331428D01*
X112485714Y-98302857D01*
X112542857Y-98274285D01*
X113028571Y-98274285D01*
X112485714Y-97988571D02*
X112457142Y-97960000D01*
X112428571Y-97988571D01*
X112457142Y-98017142D01*
X112485714Y-97988571D01*
X112428571Y-97988571D01*
X112742857Y-97502857D02*
X112742857Y-97702857D01*
X112428571Y-97702857D02*
X113028571Y-97702857D01*
X113028571Y-97417142D01*
X112428571Y-96902857D02*
X112428571Y-97188571D01*
X113028571Y-97188571D01*
X102297142Y-101160000D02*
X102268571Y-101074285D01*
X102268571Y-100931428D01*
X102297142Y-100874285D01*
X102325714Y-100845714D01*
X102382857Y-100817142D01*
X102440000Y-100817142D01*
X102497142Y-100845714D01*
X102525714Y-100874285D01*
X102554285Y-100931428D01*
X102582857Y-101045714D01*
X102611428Y-101102857D01*
X102640000Y-101131428D01*
X102697142Y-101160000D01*
X102754285Y-101160000D01*
X102811428Y-101131428D01*
X102840000Y-101102857D01*
X102868571Y-101045714D01*
X102868571Y-100902857D01*
X102840000Y-100817142D01*
X102268571Y-100560000D02*
X102868571Y-100560000D01*
X102440000Y-100360000D01*
X102868571Y-100160000D01*
X102268571Y-100160000D01*
X102440000Y-99902857D02*
X102440000Y-99617142D01*
X102268571Y-99960000D02*
X102868571Y-99760000D01*
X102268571Y-99560000D01*
X102497142Y-99360000D02*
X102497142Y-98902857D01*
X102868571Y-98617142D02*
X102382857Y-98617142D01*
X102325714Y-98588571D01*
X102297142Y-98560000D01*
X102268571Y-98502857D01*
X102268571Y-98388571D01*
X102297142Y-98331428D01*
X102325714Y-98302857D01*
X102382857Y-98274285D01*
X102868571Y-98274285D01*
X102325714Y-97988571D02*
X102297142Y-97960000D01*
X102268571Y-97988571D01*
X102297142Y-98017142D01*
X102325714Y-97988571D01*
X102268571Y-97988571D01*
X102582857Y-97502857D02*
X102582857Y-97702857D01*
X102268571Y-97702857D02*
X102868571Y-97702857D01*
X102868571Y-97417142D01*
X102268571Y-96902857D02*
X102268571Y-97188571D01*
X102868571Y-97188571D01*
X92137142Y-101160000D02*
X92108571Y-101074285D01*
X92108571Y-100931428D01*
X92137142Y-100874285D01*
X92165714Y-100845714D01*
X92222857Y-100817142D01*
X92280000Y-100817142D01*
X92337142Y-100845714D01*
X92365714Y-100874285D01*
X92394285Y-100931428D01*
X92422857Y-101045714D01*
X92451428Y-101102857D01*
X92480000Y-101131428D01*
X92537142Y-101160000D01*
X92594285Y-101160000D01*
X92651428Y-101131428D01*
X92680000Y-101102857D01*
X92708571Y-101045714D01*
X92708571Y-100902857D01*
X92680000Y-100817142D01*
X92108571Y-100560000D02*
X92708571Y-100560000D01*
X92280000Y-100360000D01*
X92708571Y-100160000D01*
X92108571Y-100160000D01*
X92280000Y-99902857D02*
X92280000Y-99617142D01*
X92108571Y-99960000D02*
X92708571Y-99760000D01*
X92108571Y-99560000D01*
X92337142Y-99360000D02*
X92337142Y-98902857D01*
X92708571Y-98617142D02*
X92222857Y-98617142D01*
X92165714Y-98588571D01*
X92137142Y-98560000D01*
X92108571Y-98502857D01*
X92108571Y-98388571D01*
X92137142Y-98331428D01*
X92165714Y-98302857D01*
X92222857Y-98274285D01*
X92708571Y-98274285D01*
X92165714Y-97988571D02*
X92137142Y-97960000D01*
X92108571Y-97988571D01*
X92137142Y-98017142D01*
X92165714Y-97988571D01*
X92108571Y-97988571D01*
X92422857Y-97502857D02*
X92422857Y-97702857D01*
X92108571Y-97702857D02*
X92708571Y-97702857D01*
X92708571Y-97417142D01*
X92108571Y-96902857D02*
X92108571Y-97188571D01*
X92708571Y-97188571D01*
X81977142Y-101160000D02*
X81948571Y-101074285D01*
X81948571Y-100931428D01*
X81977142Y-100874285D01*
X82005714Y-100845714D01*
X82062857Y-100817142D01*
X82120000Y-100817142D01*
X82177142Y-100845714D01*
X82205714Y-100874285D01*
X82234285Y-100931428D01*
X82262857Y-101045714D01*
X82291428Y-101102857D01*
X82320000Y-101131428D01*
X82377142Y-101160000D01*
X82434285Y-101160000D01*
X82491428Y-101131428D01*
X82520000Y-101102857D01*
X82548571Y-101045714D01*
X82548571Y-100902857D01*
X82520000Y-100817142D01*
X81948571Y-100560000D02*
X82548571Y-100560000D01*
X82120000Y-100360000D01*
X82548571Y-100160000D01*
X81948571Y-100160000D01*
X82120000Y-99902857D02*
X82120000Y-99617142D01*
X81948571Y-99960000D02*
X82548571Y-99760000D01*
X81948571Y-99560000D01*
X82177142Y-99360000D02*
X82177142Y-98902857D01*
X82548571Y-98617142D02*
X82062857Y-98617142D01*
X82005714Y-98588571D01*
X81977142Y-98560000D01*
X81948571Y-98502857D01*
X81948571Y-98388571D01*
X81977142Y-98331428D01*
X82005714Y-98302857D01*
X82062857Y-98274285D01*
X82548571Y-98274285D01*
X82005714Y-97988571D02*
X81977142Y-97960000D01*
X81948571Y-97988571D01*
X81977142Y-98017142D01*
X82005714Y-97988571D01*
X81948571Y-97988571D01*
X82262857Y-97502857D02*
X82262857Y-97702857D01*
X81948571Y-97702857D02*
X82548571Y-97702857D01*
X82548571Y-97417142D01*
X81948571Y-96902857D02*
X81948571Y-97188571D01*
X82548571Y-97188571D01*
X71817142Y-101160000D02*
X71788571Y-101074285D01*
X71788571Y-100931428D01*
X71817142Y-100874285D01*
X71845714Y-100845714D01*
X71902857Y-100817142D01*
X71960000Y-100817142D01*
X72017142Y-100845714D01*
X72045714Y-100874285D01*
X72074285Y-100931428D01*
X72102857Y-101045714D01*
X72131428Y-101102857D01*
X72160000Y-101131428D01*
X72217142Y-101160000D01*
X72274285Y-101160000D01*
X72331428Y-101131428D01*
X72360000Y-101102857D01*
X72388571Y-101045714D01*
X72388571Y-100902857D01*
X72360000Y-100817142D01*
X71788571Y-100560000D02*
X72388571Y-100560000D01*
X71960000Y-100360000D01*
X72388571Y-100160000D01*
X71788571Y-100160000D01*
X71960000Y-99902857D02*
X71960000Y-99617142D01*
X71788571Y-99960000D02*
X72388571Y-99760000D01*
X71788571Y-99560000D01*
X72017142Y-99360000D02*
X72017142Y-98902857D01*
X72388571Y-98617142D02*
X71902857Y-98617142D01*
X71845714Y-98588571D01*
X71817142Y-98560000D01*
X71788571Y-98502857D01*
X71788571Y-98388571D01*
X71817142Y-98331428D01*
X71845714Y-98302857D01*
X71902857Y-98274285D01*
X72388571Y-98274285D01*
X71845714Y-97988571D02*
X71817142Y-97960000D01*
X71788571Y-97988571D01*
X71817142Y-98017142D01*
X71845714Y-97988571D01*
X71788571Y-97988571D01*
X72102857Y-97502857D02*
X72102857Y-97702857D01*
X71788571Y-97702857D02*
X72388571Y-97702857D01*
X72388571Y-97417142D01*
X71788571Y-96902857D02*
X71788571Y-97188571D01*
X72388571Y-97188571D01*
X153097142Y-83380000D02*
X153068571Y-83294285D01*
X153068571Y-83151428D01*
X153097142Y-83094285D01*
X153125714Y-83065714D01*
X153182857Y-83037142D01*
X153240000Y-83037142D01*
X153297142Y-83065714D01*
X153325714Y-83094285D01*
X153354285Y-83151428D01*
X153382857Y-83265714D01*
X153411428Y-83322857D01*
X153440000Y-83351428D01*
X153497142Y-83380000D01*
X153554285Y-83380000D01*
X153611428Y-83351428D01*
X153640000Y-83322857D01*
X153668571Y-83265714D01*
X153668571Y-83122857D01*
X153640000Y-83037142D01*
X153068571Y-82780000D02*
X153668571Y-82780000D01*
X153240000Y-82580000D01*
X153668571Y-82380000D01*
X153068571Y-82380000D01*
X153240000Y-82122857D02*
X153240000Y-81837142D01*
X153068571Y-82180000D02*
X153668571Y-81980000D01*
X153068571Y-81780000D01*
X153297142Y-81580000D02*
X153297142Y-81122857D01*
X153668571Y-80837142D02*
X153182857Y-80837142D01*
X153125714Y-80808571D01*
X153097142Y-80780000D01*
X153068571Y-80722857D01*
X153068571Y-80608571D01*
X153097142Y-80551428D01*
X153125714Y-80522857D01*
X153182857Y-80494285D01*
X153668571Y-80494285D01*
X153125714Y-80208571D02*
X153097142Y-80180000D01*
X153068571Y-80208571D01*
X153097142Y-80237142D01*
X153125714Y-80208571D01*
X153068571Y-80208571D01*
X153382857Y-79722857D02*
X153382857Y-79922857D01*
X153068571Y-79922857D02*
X153668571Y-79922857D01*
X153668571Y-79637142D01*
X153068571Y-79122857D02*
X153068571Y-79408571D01*
X153668571Y-79408571D01*
X142937142Y-83380000D02*
X142908571Y-83294285D01*
X142908571Y-83151428D01*
X142937142Y-83094285D01*
X142965714Y-83065714D01*
X143022857Y-83037142D01*
X143080000Y-83037142D01*
X143137142Y-83065714D01*
X143165714Y-83094285D01*
X143194285Y-83151428D01*
X143222857Y-83265714D01*
X143251428Y-83322857D01*
X143280000Y-83351428D01*
X143337142Y-83380000D01*
X143394285Y-83380000D01*
X143451428Y-83351428D01*
X143480000Y-83322857D01*
X143508571Y-83265714D01*
X143508571Y-83122857D01*
X143480000Y-83037142D01*
X142908571Y-82780000D02*
X143508571Y-82780000D01*
X143080000Y-82580000D01*
X143508571Y-82380000D01*
X142908571Y-82380000D01*
X143080000Y-82122857D02*
X143080000Y-81837142D01*
X142908571Y-82180000D02*
X143508571Y-81980000D01*
X142908571Y-81780000D01*
X143137142Y-81580000D02*
X143137142Y-81122857D01*
X143508571Y-80837142D02*
X143022857Y-80837142D01*
X142965714Y-80808571D01*
X142937142Y-80780000D01*
X142908571Y-80722857D01*
X142908571Y-80608571D01*
X142937142Y-80551428D01*
X142965714Y-80522857D01*
X143022857Y-80494285D01*
X143508571Y-80494285D01*
X142965714Y-80208571D02*
X142937142Y-80180000D01*
X142908571Y-80208571D01*
X142937142Y-80237142D01*
X142965714Y-80208571D01*
X142908571Y-80208571D01*
X143222857Y-79722857D02*
X143222857Y-79922857D01*
X142908571Y-79922857D02*
X143508571Y-79922857D01*
X143508571Y-79637142D01*
X142908571Y-79122857D02*
X142908571Y-79408571D01*
X143508571Y-79408571D01*
X132777142Y-83380000D02*
X132748571Y-83294285D01*
X132748571Y-83151428D01*
X132777142Y-83094285D01*
X132805714Y-83065714D01*
X132862857Y-83037142D01*
X132920000Y-83037142D01*
X132977142Y-83065714D01*
X133005714Y-83094285D01*
X133034285Y-83151428D01*
X133062857Y-83265714D01*
X133091428Y-83322857D01*
X133120000Y-83351428D01*
X133177142Y-83380000D01*
X133234285Y-83380000D01*
X133291428Y-83351428D01*
X133320000Y-83322857D01*
X133348571Y-83265714D01*
X133348571Y-83122857D01*
X133320000Y-83037142D01*
X132748571Y-82780000D02*
X133348571Y-82780000D01*
X132920000Y-82580000D01*
X133348571Y-82380000D01*
X132748571Y-82380000D01*
X132920000Y-82122857D02*
X132920000Y-81837142D01*
X132748571Y-82180000D02*
X133348571Y-81980000D01*
X132748571Y-81780000D01*
X132977142Y-81580000D02*
X132977142Y-81122857D01*
X133348571Y-80837142D02*
X132862857Y-80837142D01*
X132805714Y-80808571D01*
X132777142Y-80780000D01*
X132748571Y-80722857D01*
X132748571Y-80608571D01*
X132777142Y-80551428D01*
X132805714Y-80522857D01*
X132862857Y-80494285D01*
X133348571Y-80494285D01*
X132805714Y-80208571D02*
X132777142Y-80180000D01*
X132748571Y-80208571D01*
X132777142Y-80237142D01*
X132805714Y-80208571D01*
X132748571Y-80208571D01*
X133062857Y-79722857D02*
X133062857Y-79922857D01*
X132748571Y-79922857D02*
X133348571Y-79922857D01*
X133348571Y-79637142D01*
X132748571Y-79122857D02*
X132748571Y-79408571D01*
X133348571Y-79408571D01*
X122617142Y-83380000D02*
X122588571Y-83294285D01*
X122588571Y-83151428D01*
X122617142Y-83094285D01*
X122645714Y-83065714D01*
X122702857Y-83037142D01*
X122760000Y-83037142D01*
X122817142Y-83065714D01*
X122845714Y-83094285D01*
X122874285Y-83151428D01*
X122902857Y-83265714D01*
X122931428Y-83322857D01*
X122960000Y-83351428D01*
X123017142Y-83380000D01*
X123074285Y-83380000D01*
X123131428Y-83351428D01*
X123160000Y-83322857D01*
X123188571Y-83265714D01*
X123188571Y-83122857D01*
X123160000Y-83037142D01*
X122588571Y-82780000D02*
X123188571Y-82780000D01*
X122760000Y-82580000D01*
X123188571Y-82380000D01*
X122588571Y-82380000D01*
X122760000Y-82122857D02*
X122760000Y-81837142D01*
X122588571Y-82180000D02*
X123188571Y-81980000D01*
X122588571Y-81780000D01*
X122817142Y-81580000D02*
X122817142Y-81122857D01*
X123188571Y-80837142D02*
X122702857Y-80837142D01*
X122645714Y-80808571D01*
X122617142Y-80780000D01*
X122588571Y-80722857D01*
X122588571Y-80608571D01*
X122617142Y-80551428D01*
X122645714Y-80522857D01*
X122702857Y-80494285D01*
X123188571Y-80494285D01*
X122645714Y-80208571D02*
X122617142Y-80180000D01*
X122588571Y-80208571D01*
X122617142Y-80237142D01*
X122645714Y-80208571D01*
X122588571Y-80208571D01*
X122902857Y-79722857D02*
X122902857Y-79922857D01*
X122588571Y-79922857D02*
X123188571Y-79922857D01*
X123188571Y-79637142D01*
X122588571Y-79122857D02*
X122588571Y-79408571D01*
X123188571Y-79408571D01*
X112457142Y-83380000D02*
X112428571Y-83294285D01*
X112428571Y-83151428D01*
X112457142Y-83094285D01*
X112485714Y-83065714D01*
X112542857Y-83037142D01*
X112600000Y-83037142D01*
X112657142Y-83065714D01*
X112685714Y-83094285D01*
X112714285Y-83151428D01*
X112742857Y-83265714D01*
X112771428Y-83322857D01*
X112800000Y-83351428D01*
X112857142Y-83380000D01*
X112914285Y-83380000D01*
X112971428Y-83351428D01*
X113000000Y-83322857D01*
X113028571Y-83265714D01*
X113028571Y-83122857D01*
X113000000Y-83037142D01*
X112428571Y-82780000D02*
X113028571Y-82780000D01*
X112600000Y-82580000D01*
X113028571Y-82380000D01*
X112428571Y-82380000D01*
X112600000Y-82122857D02*
X112600000Y-81837142D01*
X112428571Y-82180000D02*
X113028571Y-81980000D01*
X112428571Y-81780000D01*
X112657142Y-81580000D02*
X112657142Y-81122857D01*
X113028571Y-80837142D02*
X112542857Y-80837142D01*
X112485714Y-80808571D01*
X112457142Y-80780000D01*
X112428571Y-80722857D01*
X112428571Y-80608571D01*
X112457142Y-80551428D01*
X112485714Y-80522857D01*
X112542857Y-80494285D01*
X113028571Y-80494285D01*
X112485714Y-80208571D02*
X112457142Y-80180000D01*
X112428571Y-80208571D01*
X112457142Y-80237142D01*
X112485714Y-80208571D01*
X112428571Y-80208571D01*
X112742857Y-79722857D02*
X112742857Y-79922857D01*
X112428571Y-79922857D02*
X113028571Y-79922857D01*
X113028571Y-79637142D01*
X112428571Y-79122857D02*
X112428571Y-79408571D01*
X113028571Y-79408571D01*
X102297142Y-83380000D02*
X102268571Y-83294285D01*
X102268571Y-83151428D01*
X102297142Y-83094285D01*
X102325714Y-83065714D01*
X102382857Y-83037142D01*
X102440000Y-83037142D01*
X102497142Y-83065714D01*
X102525714Y-83094285D01*
X102554285Y-83151428D01*
X102582857Y-83265714D01*
X102611428Y-83322857D01*
X102640000Y-83351428D01*
X102697142Y-83380000D01*
X102754285Y-83380000D01*
X102811428Y-83351428D01*
X102840000Y-83322857D01*
X102868571Y-83265714D01*
X102868571Y-83122857D01*
X102840000Y-83037142D01*
X102268571Y-82780000D02*
X102868571Y-82780000D01*
X102440000Y-82580000D01*
X102868571Y-82380000D01*
X102268571Y-82380000D01*
X102440000Y-82122857D02*
X102440000Y-81837142D01*
X102268571Y-82180000D02*
X102868571Y-81980000D01*
X102268571Y-81780000D01*
X102497142Y-81580000D02*
X102497142Y-81122857D01*
X102868571Y-80837142D02*
X102382857Y-80837142D01*
X102325714Y-80808571D01*
X102297142Y-80780000D01*
X102268571Y-80722857D01*
X102268571Y-80608571D01*
X102297142Y-80551428D01*
X102325714Y-80522857D01*
X102382857Y-80494285D01*
X102868571Y-80494285D01*
X102325714Y-80208571D02*
X102297142Y-80180000D01*
X102268571Y-80208571D01*
X102297142Y-80237142D01*
X102325714Y-80208571D01*
X102268571Y-80208571D01*
X102582857Y-79722857D02*
X102582857Y-79922857D01*
X102268571Y-79922857D02*
X102868571Y-79922857D01*
X102868571Y-79637142D01*
X102268571Y-79122857D02*
X102268571Y-79408571D01*
X102868571Y-79408571D01*
X92137142Y-83380000D02*
X92108571Y-83294285D01*
X92108571Y-83151428D01*
X92137142Y-83094285D01*
X92165714Y-83065714D01*
X92222857Y-83037142D01*
X92280000Y-83037142D01*
X92337142Y-83065714D01*
X92365714Y-83094285D01*
X92394285Y-83151428D01*
X92422857Y-83265714D01*
X92451428Y-83322857D01*
X92480000Y-83351428D01*
X92537142Y-83380000D01*
X92594285Y-83380000D01*
X92651428Y-83351428D01*
X92680000Y-83322857D01*
X92708571Y-83265714D01*
X92708571Y-83122857D01*
X92680000Y-83037142D01*
X92108571Y-82780000D02*
X92708571Y-82780000D01*
X92280000Y-82580000D01*
X92708571Y-82380000D01*
X92108571Y-82380000D01*
X92280000Y-82122857D02*
X92280000Y-81837142D01*
X92108571Y-82180000D02*
X92708571Y-81980000D01*
X92108571Y-81780000D01*
X92337142Y-81580000D02*
X92337142Y-81122857D01*
X92708571Y-80837142D02*
X92222857Y-80837142D01*
X92165714Y-80808571D01*
X92137142Y-80780000D01*
X92108571Y-80722857D01*
X92108571Y-80608571D01*
X92137142Y-80551428D01*
X92165714Y-80522857D01*
X92222857Y-80494285D01*
X92708571Y-80494285D01*
X92165714Y-80208571D02*
X92137142Y-80180000D01*
X92108571Y-80208571D01*
X92137142Y-80237142D01*
X92165714Y-80208571D01*
X92108571Y-80208571D01*
X92422857Y-79722857D02*
X92422857Y-79922857D01*
X92108571Y-79922857D02*
X92708571Y-79922857D01*
X92708571Y-79637142D01*
X92108571Y-79122857D02*
X92108571Y-79408571D01*
X92708571Y-79408571D01*
X81977142Y-83380000D02*
X81948571Y-83294285D01*
X81948571Y-83151428D01*
X81977142Y-83094285D01*
X82005714Y-83065714D01*
X82062857Y-83037142D01*
X82120000Y-83037142D01*
X82177142Y-83065714D01*
X82205714Y-83094285D01*
X82234285Y-83151428D01*
X82262857Y-83265714D01*
X82291428Y-83322857D01*
X82320000Y-83351428D01*
X82377142Y-83380000D01*
X82434285Y-83380000D01*
X82491428Y-83351428D01*
X82520000Y-83322857D01*
X82548571Y-83265714D01*
X82548571Y-83122857D01*
X82520000Y-83037142D01*
X81948571Y-82780000D02*
X82548571Y-82780000D01*
X82120000Y-82580000D01*
X82548571Y-82380000D01*
X81948571Y-82380000D01*
X82120000Y-82122857D02*
X82120000Y-81837142D01*
X81948571Y-82180000D02*
X82548571Y-81980000D01*
X81948571Y-81780000D01*
X82177142Y-81580000D02*
X82177142Y-81122857D01*
X82548571Y-80837142D02*
X82062857Y-80837142D01*
X82005714Y-80808571D01*
X81977142Y-80780000D01*
X81948571Y-80722857D01*
X81948571Y-80608571D01*
X81977142Y-80551428D01*
X82005714Y-80522857D01*
X82062857Y-80494285D01*
X82548571Y-80494285D01*
X82005714Y-80208571D02*
X81977142Y-80180000D01*
X81948571Y-80208571D01*
X81977142Y-80237142D01*
X82005714Y-80208571D01*
X81948571Y-80208571D01*
X82262857Y-79722857D02*
X82262857Y-79922857D01*
X81948571Y-79922857D02*
X82548571Y-79922857D01*
X82548571Y-79637142D01*
X81948571Y-79122857D02*
X81948571Y-79408571D01*
X82548571Y-79408571D01*
X71817142Y-83380000D02*
X71788571Y-83294285D01*
X71788571Y-83151428D01*
X71817142Y-83094285D01*
X71845714Y-83065714D01*
X71902857Y-83037142D01*
X71960000Y-83037142D01*
X72017142Y-83065714D01*
X72045714Y-83094285D01*
X72074285Y-83151428D01*
X72102857Y-83265714D01*
X72131428Y-83322857D01*
X72160000Y-83351428D01*
X72217142Y-83380000D01*
X72274285Y-83380000D01*
X72331428Y-83351428D01*
X72360000Y-83322857D01*
X72388571Y-83265714D01*
X72388571Y-83122857D01*
X72360000Y-83037142D01*
X71788571Y-82780000D02*
X72388571Y-82780000D01*
X71960000Y-82580000D01*
X72388571Y-82380000D01*
X71788571Y-82380000D01*
X71960000Y-82122857D02*
X71960000Y-81837142D01*
X71788571Y-82180000D02*
X72388571Y-81980000D01*
X71788571Y-81780000D01*
X72017142Y-81580000D02*
X72017142Y-81122857D01*
X72388571Y-80837142D02*
X71902857Y-80837142D01*
X71845714Y-80808571D01*
X71817142Y-80780000D01*
X71788571Y-80722857D01*
X71788571Y-80608571D01*
X71817142Y-80551428D01*
X71845714Y-80522857D01*
X71902857Y-80494285D01*
X72388571Y-80494285D01*
X71845714Y-80208571D02*
X71817142Y-80180000D01*
X71788571Y-80208571D01*
X71817142Y-80237142D01*
X71845714Y-80208571D01*
X71788571Y-80208571D01*
X72102857Y-79722857D02*
X72102857Y-79922857D01*
X71788571Y-79922857D02*
X72388571Y-79922857D01*
X72388571Y-79637142D01*
X71788571Y-79122857D02*
X71788571Y-79408571D01*
X72388571Y-79408571D01*
X153097142Y-65600000D02*
X153068571Y-65514285D01*
X153068571Y-65371428D01*
X153097142Y-65314285D01*
X153125714Y-65285714D01*
X153182857Y-65257142D01*
X153240000Y-65257142D01*
X153297142Y-65285714D01*
X153325714Y-65314285D01*
X153354285Y-65371428D01*
X153382857Y-65485714D01*
X153411428Y-65542857D01*
X153440000Y-65571428D01*
X153497142Y-65600000D01*
X153554285Y-65600000D01*
X153611428Y-65571428D01*
X153640000Y-65542857D01*
X153668571Y-65485714D01*
X153668571Y-65342857D01*
X153640000Y-65257142D01*
X153068571Y-65000000D02*
X153668571Y-65000000D01*
X153240000Y-64800000D01*
X153668571Y-64600000D01*
X153068571Y-64600000D01*
X153240000Y-64342857D02*
X153240000Y-64057142D01*
X153068571Y-64400000D02*
X153668571Y-64200000D01*
X153068571Y-64000000D01*
X153297142Y-63800000D02*
X153297142Y-63342857D01*
X153668571Y-63057142D02*
X153182857Y-63057142D01*
X153125714Y-63028571D01*
X153097142Y-63000000D01*
X153068571Y-62942857D01*
X153068571Y-62828571D01*
X153097142Y-62771428D01*
X153125714Y-62742857D01*
X153182857Y-62714285D01*
X153668571Y-62714285D01*
X153125714Y-62428571D02*
X153097142Y-62400000D01*
X153068571Y-62428571D01*
X153097142Y-62457142D01*
X153125714Y-62428571D01*
X153068571Y-62428571D01*
X153382857Y-61942857D02*
X153382857Y-62142857D01*
X153068571Y-62142857D02*
X153668571Y-62142857D01*
X153668571Y-61857142D01*
X153068571Y-61342857D02*
X153068571Y-61628571D01*
X153668571Y-61628571D01*
X142937142Y-65600000D02*
X142908571Y-65514285D01*
X142908571Y-65371428D01*
X142937142Y-65314285D01*
X142965714Y-65285714D01*
X143022857Y-65257142D01*
X143080000Y-65257142D01*
X143137142Y-65285714D01*
X143165714Y-65314285D01*
X143194285Y-65371428D01*
X143222857Y-65485714D01*
X143251428Y-65542857D01*
X143280000Y-65571428D01*
X143337142Y-65600000D01*
X143394285Y-65600000D01*
X143451428Y-65571428D01*
X143480000Y-65542857D01*
X143508571Y-65485714D01*
X143508571Y-65342857D01*
X143480000Y-65257142D01*
X142908571Y-65000000D02*
X143508571Y-65000000D01*
X143080000Y-64800000D01*
X143508571Y-64600000D01*
X142908571Y-64600000D01*
X143080000Y-64342857D02*
X143080000Y-64057142D01*
X142908571Y-64400000D02*
X143508571Y-64200000D01*
X142908571Y-64000000D01*
X143137142Y-63800000D02*
X143137142Y-63342857D01*
X143508571Y-63057142D02*
X143022857Y-63057142D01*
X142965714Y-63028571D01*
X142937142Y-63000000D01*
X142908571Y-62942857D01*
X142908571Y-62828571D01*
X142937142Y-62771428D01*
X142965714Y-62742857D01*
X143022857Y-62714285D01*
X143508571Y-62714285D01*
X142965714Y-62428571D02*
X142937142Y-62400000D01*
X142908571Y-62428571D01*
X142937142Y-62457142D01*
X142965714Y-62428571D01*
X142908571Y-62428571D01*
X143222857Y-61942857D02*
X143222857Y-62142857D01*
X142908571Y-62142857D02*
X143508571Y-62142857D01*
X143508571Y-61857142D01*
X142908571Y-61342857D02*
X142908571Y-61628571D01*
X143508571Y-61628571D01*
X132777142Y-65600000D02*
X132748571Y-65514285D01*
X132748571Y-65371428D01*
X132777142Y-65314285D01*
X132805714Y-65285714D01*
X132862857Y-65257142D01*
X132920000Y-65257142D01*
X132977142Y-65285714D01*
X133005714Y-65314285D01*
X133034285Y-65371428D01*
X133062857Y-65485714D01*
X133091428Y-65542857D01*
X133120000Y-65571428D01*
X133177142Y-65600000D01*
X133234285Y-65600000D01*
X133291428Y-65571428D01*
X133320000Y-65542857D01*
X133348571Y-65485714D01*
X133348571Y-65342857D01*
X133320000Y-65257142D01*
X132748571Y-65000000D02*
X133348571Y-65000000D01*
X132920000Y-64800000D01*
X133348571Y-64600000D01*
X132748571Y-64600000D01*
X132920000Y-64342857D02*
X132920000Y-64057142D01*
X132748571Y-64400000D02*
X133348571Y-64200000D01*
X132748571Y-64000000D01*
X132977142Y-63800000D02*
X132977142Y-63342857D01*
X133348571Y-63057142D02*
X132862857Y-63057142D01*
X132805714Y-63028571D01*
X132777142Y-63000000D01*
X132748571Y-62942857D01*
X132748571Y-62828571D01*
X132777142Y-62771428D01*
X132805714Y-62742857D01*
X132862857Y-62714285D01*
X133348571Y-62714285D01*
X132805714Y-62428571D02*
X132777142Y-62400000D01*
X132748571Y-62428571D01*
X132777142Y-62457142D01*
X132805714Y-62428571D01*
X132748571Y-62428571D01*
X133062857Y-61942857D02*
X133062857Y-62142857D01*
X132748571Y-62142857D02*
X133348571Y-62142857D01*
X133348571Y-61857142D01*
X132748571Y-61342857D02*
X132748571Y-61628571D01*
X133348571Y-61628571D01*
X122617142Y-65600000D02*
X122588571Y-65514285D01*
X122588571Y-65371428D01*
X122617142Y-65314285D01*
X122645714Y-65285714D01*
X122702857Y-65257142D01*
X122760000Y-65257142D01*
X122817142Y-65285714D01*
X122845714Y-65314285D01*
X122874285Y-65371428D01*
X122902857Y-65485714D01*
X122931428Y-65542857D01*
X122960000Y-65571428D01*
X123017142Y-65600000D01*
X123074285Y-65600000D01*
X123131428Y-65571428D01*
X123160000Y-65542857D01*
X123188571Y-65485714D01*
X123188571Y-65342857D01*
X123160000Y-65257142D01*
X122588571Y-65000000D02*
X123188571Y-65000000D01*
X122760000Y-64800000D01*
X123188571Y-64600000D01*
X122588571Y-64600000D01*
X122760000Y-64342857D02*
X122760000Y-64057142D01*
X122588571Y-64400000D02*
X123188571Y-64200000D01*
X122588571Y-64000000D01*
X122817142Y-63800000D02*
X122817142Y-63342857D01*
X123188571Y-63057142D02*
X122702857Y-63057142D01*
X122645714Y-63028571D01*
X122617142Y-63000000D01*
X122588571Y-62942857D01*
X122588571Y-62828571D01*
X122617142Y-62771428D01*
X122645714Y-62742857D01*
X122702857Y-62714285D01*
X123188571Y-62714285D01*
X122645714Y-62428571D02*
X122617142Y-62400000D01*
X122588571Y-62428571D01*
X122617142Y-62457142D01*
X122645714Y-62428571D01*
X122588571Y-62428571D01*
X122902857Y-61942857D02*
X122902857Y-62142857D01*
X122588571Y-62142857D02*
X123188571Y-62142857D01*
X123188571Y-61857142D01*
X122588571Y-61342857D02*
X122588571Y-61628571D01*
X123188571Y-61628571D01*
X112457142Y-65600000D02*
X112428571Y-65514285D01*
X112428571Y-65371428D01*
X112457142Y-65314285D01*
X112485714Y-65285714D01*
X112542857Y-65257142D01*
X112600000Y-65257142D01*
X112657142Y-65285714D01*
X112685714Y-65314285D01*
X112714285Y-65371428D01*
X112742857Y-65485714D01*
X112771428Y-65542857D01*
X112800000Y-65571428D01*
X112857142Y-65600000D01*
X112914285Y-65600000D01*
X112971428Y-65571428D01*
X113000000Y-65542857D01*
X113028571Y-65485714D01*
X113028571Y-65342857D01*
X113000000Y-65257142D01*
X112428571Y-65000000D02*
X113028571Y-65000000D01*
X112600000Y-64800000D01*
X113028571Y-64600000D01*
X112428571Y-64600000D01*
X112600000Y-64342857D02*
X112600000Y-64057142D01*
X112428571Y-64400000D02*
X113028571Y-64200000D01*
X112428571Y-64000000D01*
X112657142Y-63800000D02*
X112657142Y-63342857D01*
X113028571Y-63057142D02*
X112542857Y-63057142D01*
X112485714Y-63028571D01*
X112457142Y-63000000D01*
X112428571Y-62942857D01*
X112428571Y-62828571D01*
X112457142Y-62771428D01*
X112485714Y-62742857D01*
X112542857Y-62714285D01*
X113028571Y-62714285D01*
X112485714Y-62428571D02*
X112457142Y-62400000D01*
X112428571Y-62428571D01*
X112457142Y-62457142D01*
X112485714Y-62428571D01*
X112428571Y-62428571D01*
X112742857Y-61942857D02*
X112742857Y-62142857D01*
X112428571Y-62142857D02*
X113028571Y-62142857D01*
X113028571Y-61857142D01*
X112428571Y-61342857D02*
X112428571Y-61628571D01*
X113028571Y-61628571D01*
X102297142Y-65600000D02*
X102268571Y-65514285D01*
X102268571Y-65371428D01*
X102297142Y-65314285D01*
X102325714Y-65285714D01*
X102382857Y-65257142D01*
X102440000Y-65257142D01*
X102497142Y-65285714D01*
X102525714Y-65314285D01*
X102554285Y-65371428D01*
X102582857Y-65485714D01*
X102611428Y-65542857D01*
X102640000Y-65571428D01*
X102697142Y-65600000D01*
X102754285Y-65600000D01*
X102811428Y-65571428D01*
X102840000Y-65542857D01*
X102868571Y-65485714D01*
X102868571Y-65342857D01*
X102840000Y-65257142D01*
X102268571Y-65000000D02*
X102868571Y-65000000D01*
X102440000Y-64800000D01*
X102868571Y-64600000D01*
X102268571Y-64600000D01*
X102440000Y-64342857D02*
X102440000Y-64057142D01*
X102268571Y-64400000D02*
X102868571Y-64200000D01*
X102268571Y-64000000D01*
X102497142Y-63800000D02*
X102497142Y-63342857D01*
X102868571Y-63057142D02*
X102382857Y-63057142D01*
X102325714Y-63028571D01*
X102297142Y-63000000D01*
X102268571Y-62942857D01*
X102268571Y-62828571D01*
X102297142Y-62771428D01*
X102325714Y-62742857D01*
X102382857Y-62714285D01*
X102868571Y-62714285D01*
X102325714Y-62428571D02*
X102297142Y-62400000D01*
X102268571Y-62428571D01*
X102297142Y-62457142D01*
X102325714Y-62428571D01*
X102268571Y-62428571D01*
X102582857Y-61942857D02*
X102582857Y-62142857D01*
X102268571Y-62142857D02*
X102868571Y-62142857D01*
X102868571Y-61857142D01*
X102268571Y-61342857D02*
X102268571Y-61628571D01*
X102868571Y-61628571D01*
X92137142Y-65600000D02*
X92108571Y-65514285D01*
X92108571Y-65371428D01*
X92137142Y-65314285D01*
X92165714Y-65285714D01*
X92222857Y-65257142D01*
X92280000Y-65257142D01*
X92337142Y-65285714D01*
X92365714Y-65314285D01*
X92394285Y-65371428D01*
X92422857Y-65485714D01*
X92451428Y-65542857D01*
X92480000Y-65571428D01*
X92537142Y-65600000D01*
X92594285Y-65600000D01*
X92651428Y-65571428D01*
X92680000Y-65542857D01*
X92708571Y-65485714D01*
X92708571Y-65342857D01*
X92680000Y-65257142D01*
X92108571Y-65000000D02*
X92708571Y-65000000D01*
X92280000Y-64800000D01*
X92708571Y-64600000D01*
X92108571Y-64600000D01*
X92280000Y-64342857D02*
X92280000Y-64057142D01*
X92108571Y-64400000D02*
X92708571Y-64200000D01*
X92108571Y-64000000D01*
X92337142Y-63800000D02*
X92337142Y-63342857D01*
X92708571Y-63057142D02*
X92222857Y-63057142D01*
X92165714Y-63028571D01*
X92137142Y-63000000D01*
X92108571Y-62942857D01*
X92108571Y-62828571D01*
X92137142Y-62771428D01*
X92165714Y-62742857D01*
X92222857Y-62714285D01*
X92708571Y-62714285D01*
X92165714Y-62428571D02*
X92137142Y-62400000D01*
X92108571Y-62428571D01*
X92137142Y-62457142D01*
X92165714Y-62428571D01*
X92108571Y-62428571D01*
X92422857Y-61942857D02*
X92422857Y-62142857D01*
X92108571Y-62142857D02*
X92708571Y-62142857D01*
X92708571Y-61857142D01*
X92108571Y-61342857D02*
X92108571Y-61628571D01*
X92708571Y-61628571D01*
X81977142Y-65600000D02*
X81948571Y-65514285D01*
X81948571Y-65371428D01*
X81977142Y-65314285D01*
X82005714Y-65285714D01*
X82062857Y-65257142D01*
X82120000Y-65257142D01*
X82177142Y-65285714D01*
X82205714Y-65314285D01*
X82234285Y-65371428D01*
X82262857Y-65485714D01*
X82291428Y-65542857D01*
X82320000Y-65571428D01*
X82377142Y-65600000D01*
X82434285Y-65600000D01*
X82491428Y-65571428D01*
X82520000Y-65542857D01*
X82548571Y-65485714D01*
X82548571Y-65342857D01*
X82520000Y-65257142D01*
X81948571Y-65000000D02*
X82548571Y-65000000D01*
X82120000Y-64800000D01*
X82548571Y-64600000D01*
X81948571Y-64600000D01*
X82120000Y-64342857D02*
X82120000Y-64057142D01*
X81948571Y-64400000D02*
X82548571Y-64200000D01*
X81948571Y-64000000D01*
X82177142Y-63800000D02*
X82177142Y-63342857D01*
X82548571Y-63057142D02*
X82062857Y-63057142D01*
X82005714Y-63028571D01*
X81977142Y-63000000D01*
X81948571Y-62942857D01*
X81948571Y-62828571D01*
X81977142Y-62771428D01*
X82005714Y-62742857D01*
X82062857Y-62714285D01*
X82548571Y-62714285D01*
X82005714Y-62428571D02*
X81977142Y-62400000D01*
X81948571Y-62428571D01*
X81977142Y-62457142D01*
X82005714Y-62428571D01*
X81948571Y-62428571D01*
X82262857Y-61942857D02*
X82262857Y-62142857D01*
X81948571Y-62142857D02*
X82548571Y-62142857D01*
X82548571Y-61857142D01*
X81948571Y-61342857D02*
X81948571Y-61628571D01*
X82548571Y-61628571D01*
X71817142Y-65600000D02*
X71788571Y-65514285D01*
X71788571Y-65371428D01*
X71817142Y-65314285D01*
X71845714Y-65285714D01*
X71902857Y-65257142D01*
X71960000Y-65257142D01*
X72017142Y-65285714D01*
X72045714Y-65314285D01*
X72074285Y-65371428D01*
X72102857Y-65485714D01*
X72131428Y-65542857D01*
X72160000Y-65571428D01*
X72217142Y-65600000D01*
X72274285Y-65600000D01*
X72331428Y-65571428D01*
X72360000Y-65542857D01*
X72388571Y-65485714D01*
X72388571Y-65342857D01*
X72360000Y-65257142D01*
X71788571Y-65000000D02*
X72388571Y-65000000D01*
X71960000Y-64800000D01*
X72388571Y-64600000D01*
X71788571Y-64600000D01*
X71960000Y-64342857D02*
X71960000Y-64057142D01*
X71788571Y-64400000D02*
X72388571Y-64200000D01*
X71788571Y-64000000D01*
X72017142Y-63800000D02*
X72017142Y-63342857D01*
X72388571Y-63057142D02*
X71902857Y-63057142D01*
X71845714Y-63028571D01*
X71817142Y-63000000D01*
X71788571Y-62942857D01*
X71788571Y-62828571D01*
X71817142Y-62771428D01*
X71845714Y-62742857D01*
X71902857Y-62714285D01*
X72388571Y-62714285D01*
X71845714Y-62428571D02*
X71817142Y-62400000D01*
X71788571Y-62428571D01*
X71817142Y-62457142D01*
X71845714Y-62428571D01*
X71788571Y-62428571D01*
X72102857Y-61942857D02*
X72102857Y-62142857D01*
X71788571Y-62142857D02*
X72388571Y-62142857D01*
X72388571Y-61857142D01*
X71788571Y-61342857D02*
X71788571Y-61628571D01*
X72388571Y-61628571D01*
M02*
