%TF.GenerationSoftware,KiCad,Pcbnew,6.0.7-f9a2dced07~116~ubuntu20.04.1*%
%TF.CreationDate,2022-08-19T12:04:29-05:00*%
%TF.ProjectId,,58585858-5858-4585-9858-585858585858,rev?*%
%TF.SameCoordinates,Original*%
%TF.FileFunction,Legend,Top*%
%TF.FilePolarity,Positive*%
%FSLAX46Y46*%
G04 Gerber Fmt 4.6, Leading zero omitted, Abs format (unit mm)*
G04 Created by KiCad (PCBNEW 6.0.7-f9a2dced07~116~ubuntu20.04.1) date 2022-08-19 12:04:29*
%MOMM*%
%LPD*%
G01*
G04 APERTURE LIST*
%ADD10C,0.150000*%
%ADD11C,0.120000*%
G04 APERTURE END LIST*
D10*
X161882857Y-137760000D02*
X161911428Y-137674285D01*
X161911428Y-137531428D01*
X161882857Y-137474285D01*
X161854285Y-137445714D01*
X161797142Y-137417142D01*
X161740000Y-137417142D01*
X161682857Y-137445714D01*
X161654285Y-137474285D01*
X161625714Y-137531428D01*
X161597142Y-137645714D01*
X161568571Y-137702857D01*
X161540000Y-137731428D01*
X161482857Y-137760000D01*
X161425714Y-137760000D01*
X161368571Y-137731428D01*
X161340000Y-137702857D01*
X161311428Y-137645714D01*
X161311428Y-137502857D01*
X161340000Y-137417142D01*
X161911428Y-137160000D02*
X161311428Y-137160000D01*
X161740000Y-136960000D01*
X161311428Y-136760000D01*
X161911428Y-136760000D01*
X161740000Y-136502857D02*
X161740000Y-136217142D01*
X161911428Y-136560000D02*
X161311428Y-136360000D01*
X161911428Y-136160000D01*
X161682857Y-135960000D02*
X161682857Y-135502857D01*
X161311428Y-135217142D02*
X161797142Y-135217142D01*
X161854285Y-135188571D01*
X161882857Y-135160000D01*
X161911428Y-135102857D01*
X161911428Y-134988571D01*
X161882857Y-134931428D01*
X161854285Y-134902857D01*
X161797142Y-134874285D01*
X161311428Y-134874285D01*
X161854285Y-134588571D02*
X161882857Y-134560000D01*
X161911428Y-134588571D01*
X161882857Y-134617142D01*
X161854285Y-134588571D01*
X161911428Y-134588571D01*
X161597142Y-134102857D02*
X161597142Y-134302857D01*
X161911428Y-134302857D02*
X161311428Y-134302857D01*
X161311428Y-134017142D01*
X161911428Y-133502857D02*
X161911428Y-133788571D01*
X161311428Y-133788571D01*
X151722857Y-137760000D02*
X151751428Y-137674285D01*
X151751428Y-137531428D01*
X151722857Y-137474285D01*
X151694285Y-137445714D01*
X151637142Y-137417142D01*
X151580000Y-137417142D01*
X151522857Y-137445714D01*
X151494285Y-137474285D01*
X151465714Y-137531428D01*
X151437142Y-137645714D01*
X151408571Y-137702857D01*
X151380000Y-137731428D01*
X151322857Y-137760000D01*
X151265714Y-137760000D01*
X151208571Y-137731428D01*
X151180000Y-137702857D01*
X151151428Y-137645714D01*
X151151428Y-137502857D01*
X151180000Y-137417142D01*
X151751428Y-137160000D02*
X151151428Y-137160000D01*
X151580000Y-136960000D01*
X151151428Y-136760000D01*
X151751428Y-136760000D01*
X151580000Y-136502857D02*
X151580000Y-136217142D01*
X151751428Y-136560000D02*
X151151428Y-136360000D01*
X151751428Y-136160000D01*
X151522857Y-135960000D02*
X151522857Y-135502857D01*
X151151428Y-135217142D02*
X151637142Y-135217142D01*
X151694285Y-135188571D01*
X151722857Y-135160000D01*
X151751428Y-135102857D01*
X151751428Y-134988571D01*
X151722857Y-134931428D01*
X151694285Y-134902857D01*
X151637142Y-134874285D01*
X151151428Y-134874285D01*
X151694285Y-134588571D02*
X151722857Y-134560000D01*
X151751428Y-134588571D01*
X151722857Y-134617142D01*
X151694285Y-134588571D01*
X151751428Y-134588571D01*
X151437142Y-134102857D02*
X151437142Y-134302857D01*
X151751428Y-134302857D02*
X151151428Y-134302857D01*
X151151428Y-134017142D01*
X151751428Y-133502857D02*
X151751428Y-133788571D01*
X151151428Y-133788571D01*
X141562857Y-137760000D02*
X141591428Y-137674285D01*
X141591428Y-137531428D01*
X141562857Y-137474285D01*
X141534285Y-137445714D01*
X141477142Y-137417142D01*
X141420000Y-137417142D01*
X141362857Y-137445714D01*
X141334285Y-137474285D01*
X141305714Y-137531428D01*
X141277142Y-137645714D01*
X141248571Y-137702857D01*
X141220000Y-137731428D01*
X141162857Y-137760000D01*
X141105714Y-137760000D01*
X141048571Y-137731428D01*
X141020000Y-137702857D01*
X140991428Y-137645714D01*
X140991428Y-137502857D01*
X141020000Y-137417142D01*
X141591428Y-137160000D02*
X140991428Y-137160000D01*
X141420000Y-136960000D01*
X140991428Y-136760000D01*
X141591428Y-136760000D01*
X141420000Y-136502857D02*
X141420000Y-136217142D01*
X141591428Y-136560000D02*
X140991428Y-136360000D01*
X141591428Y-136160000D01*
X141362857Y-135960000D02*
X141362857Y-135502857D01*
X140991428Y-135217142D02*
X141477142Y-135217142D01*
X141534285Y-135188571D01*
X141562857Y-135160000D01*
X141591428Y-135102857D01*
X141591428Y-134988571D01*
X141562857Y-134931428D01*
X141534285Y-134902857D01*
X141477142Y-134874285D01*
X140991428Y-134874285D01*
X141534285Y-134588571D02*
X141562857Y-134560000D01*
X141591428Y-134588571D01*
X141562857Y-134617142D01*
X141534285Y-134588571D01*
X141591428Y-134588571D01*
X141277142Y-134102857D02*
X141277142Y-134302857D01*
X141591428Y-134302857D02*
X140991428Y-134302857D01*
X140991428Y-134017142D01*
X141591428Y-133502857D02*
X141591428Y-133788571D01*
X140991428Y-133788571D01*
X131402857Y-137760000D02*
X131431428Y-137674285D01*
X131431428Y-137531428D01*
X131402857Y-137474285D01*
X131374285Y-137445714D01*
X131317142Y-137417142D01*
X131260000Y-137417142D01*
X131202857Y-137445714D01*
X131174285Y-137474285D01*
X131145714Y-137531428D01*
X131117142Y-137645714D01*
X131088571Y-137702857D01*
X131060000Y-137731428D01*
X131002857Y-137760000D01*
X130945714Y-137760000D01*
X130888571Y-137731428D01*
X130860000Y-137702857D01*
X130831428Y-137645714D01*
X130831428Y-137502857D01*
X130860000Y-137417142D01*
X131431428Y-137160000D02*
X130831428Y-137160000D01*
X131260000Y-136960000D01*
X130831428Y-136760000D01*
X131431428Y-136760000D01*
X131260000Y-136502857D02*
X131260000Y-136217142D01*
X131431428Y-136560000D02*
X130831428Y-136360000D01*
X131431428Y-136160000D01*
X131202857Y-135960000D02*
X131202857Y-135502857D01*
X130831428Y-135217142D02*
X131317142Y-135217142D01*
X131374285Y-135188571D01*
X131402857Y-135160000D01*
X131431428Y-135102857D01*
X131431428Y-134988571D01*
X131402857Y-134931428D01*
X131374285Y-134902857D01*
X131317142Y-134874285D01*
X130831428Y-134874285D01*
X131374285Y-134588571D02*
X131402857Y-134560000D01*
X131431428Y-134588571D01*
X131402857Y-134617142D01*
X131374285Y-134588571D01*
X131431428Y-134588571D01*
X131117142Y-134102857D02*
X131117142Y-134302857D01*
X131431428Y-134302857D02*
X130831428Y-134302857D01*
X130831428Y-134017142D01*
X131431428Y-133502857D02*
X131431428Y-133788571D01*
X130831428Y-133788571D01*
X121242857Y-137760000D02*
X121271428Y-137674285D01*
X121271428Y-137531428D01*
X121242857Y-137474285D01*
X121214285Y-137445714D01*
X121157142Y-137417142D01*
X121100000Y-137417142D01*
X121042857Y-137445714D01*
X121014285Y-137474285D01*
X120985714Y-137531428D01*
X120957142Y-137645714D01*
X120928571Y-137702857D01*
X120900000Y-137731428D01*
X120842857Y-137760000D01*
X120785714Y-137760000D01*
X120728571Y-137731428D01*
X120700000Y-137702857D01*
X120671428Y-137645714D01*
X120671428Y-137502857D01*
X120700000Y-137417142D01*
X121271428Y-137160000D02*
X120671428Y-137160000D01*
X121100000Y-136960000D01*
X120671428Y-136760000D01*
X121271428Y-136760000D01*
X121100000Y-136502857D02*
X121100000Y-136217142D01*
X121271428Y-136560000D02*
X120671428Y-136360000D01*
X121271428Y-136160000D01*
X121042857Y-135960000D02*
X121042857Y-135502857D01*
X120671428Y-135217142D02*
X121157142Y-135217142D01*
X121214285Y-135188571D01*
X121242857Y-135160000D01*
X121271428Y-135102857D01*
X121271428Y-134988571D01*
X121242857Y-134931428D01*
X121214285Y-134902857D01*
X121157142Y-134874285D01*
X120671428Y-134874285D01*
X121214285Y-134588571D02*
X121242857Y-134560000D01*
X121271428Y-134588571D01*
X121242857Y-134617142D01*
X121214285Y-134588571D01*
X121271428Y-134588571D01*
X120957142Y-134102857D02*
X120957142Y-134302857D01*
X121271428Y-134302857D02*
X120671428Y-134302857D01*
X120671428Y-134017142D01*
X121271428Y-133502857D02*
X121271428Y-133788571D01*
X120671428Y-133788571D01*
X111082857Y-137760000D02*
X111111428Y-137674285D01*
X111111428Y-137531428D01*
X111082857Y-137474285D01*
X111054285Y-137445714D01*
X110997142Y-137417142D01*
X110940000Y-137417142D01*
X110882857Y-137445714D01*
X110854285Y-137474285D01*
X110825714Y-137531428D01*
X110797142Y-137645714D01*
X110768571Y-137702857D01*
X110740000Y-137731428D01*
X110682857Y-137760000D01*
X110625714Y-137760000D01*
X110568571Y-137731428D01*
X110540000Y-137702857D01*
X110511428Y-137645714D01*
X110511428Y-137502857D01*
X110540000Y-137417142D01*
X111111428Y-137160000D02*
X110511428Y-137160000D01*
X110940000Y-136960000D01*
X110511428Y-136760000D01*
X111111428Y-136760000D01*
X110940000Y-136502857D02*
X110940000Y-136217142D01*
X111111428Y-136560000D02*
X110511428Y-136360000D01*
X111111428Y-136160000D01*
X110882857Y-135960000D02*
X110882857Y-135502857D01*
X110511428Y-135217142D02*
X110997142Y-135217142D01*
X111054285Y-135188571D01*
X111082857Y-135160000D01*
X111111428Y-135102857D01*
X111111428Y-134988571D01*
X111082857Y-134931428D01*
X111054285Y-134902857D01*
X110997142Y-134874285D01*
X110511428Y-134874285D01*
X111054285Y-134588571D02*
X111082857Y-134560000D01*
X111111428Y-134588571D01*
X111082857Y-134617142D01*
X111054285Y-134588571D01*
X111111428Y-134588571D01*
X110797142Y-134102857D02*
X110797142Y-134302857D01*
X111111428Y-134302857D02*
X110511428Y-134302857D01*
X110511428Y-134017142D01*
X111111428Y-133502857D02*
X111111428Y-133788571D01*
X110511428Y-133788571D01*
X100922857Y-137760000D02*
X100951428Y-137674285D01*
X100951428Y-137531428D01*
X100922857Y-137474285D01*
X100894285Y-137445714D01*
X100837142Y-137417142D01*
X100780000Y-137417142D01*
X100722857Y-137445714D01*
X100694285Y-137474285D01*
X100665714Y-137531428D01*
X100637142Y-137645714D01*
X100608571Y-137702857D01*
X100580000Y-137731428D01*
X100522857Y-137760000D01*
X100465714Y-137760000D01*
X100408571Y-137731428D01*
X100380000Y-137702857D01*
X100351428Y-137645714D01*
X100351428Y-137502857D01*
X100380000Y-137417142D01*
X100951428Y-137160000D02*
X100351428Y-137160000D01*
X100780000Y-136960000D01*
X100351428Y-136760000D01*
X100951428Y-136760000D01*
X100780000Y-136502857D02*
X100780000Y-136217142D01*
X100951428Y-136560000D02*
X100351428Y-136360000D01*
X100951428Y-136160000D01*
X100722857Y-135960000D02*
X100722857Y-135502857D01*
X100351428Y-135217142D02*
X100837142Y-135217142D01*
X100894285Y-135188571D01*
X100922857Y-135160000D01*
X100951428Y-135102857D01*
X100951428Y-134988571D01*
X100922857Y-134931428D01*
X100894285Y-134902857D01*
X100837142Y-134874285D01*
X100351428Y-134874285D01*
X100894285Y-134588571D02*
X100922857Y-134560000D01*
X100951428Y-134588571D01*
X100922857Y-134617142D01*
X100894285Y-134588571D01*
X100951428Y-134588571D01*
X100637142Y-134102857D02*
X100637142Y-134302857D01*
X100951428Y-134302857D02*
X100351428Y-134302857D01*
X100351428Y-134017142D01*
X100951428Y-133502857D02*
X100951428Y-133788571D01*
X100351428Y-133788571D01*
X90762857Y-137760000D02*
X90791428Y-137674285D01*
X90791428Y-137531428D01*
X90762857Y-137474285D01*
X90734285Y-137445714D01*
X90677142Y-137417142D01*
X90620000Y-137417142D01*
X90562857Y-137445714D01*
X90534285Y-137474285D01*
X90505714Y-137531428D01*
X90477142Y-137645714D01*
X90448571Y-137702857D01*
X90420000Y-137731428D01*
X90362857Y-137760000D01*
X90305714Y-137760000D01*
X90248571Y-137731428D01*
X90220000Y-137702857D01*
X90191428Y-137645714D01*
X90191428Y-137502857D01*
X90220000Y-137417142D01*
X90791428Y-137160000D02*
X90191428Y-137160000D01*
X90620000Y-136960000D01*
X90191428Y-136760000D01*
X90791428Y-136760000D01*
X90620000Y-136502857D02*
X90620000Y-136217142D01*
X90791428Y-136560000D02*
X90191428Y-136360000D01*
X90791428Y-136160000D01*
X90562857Y-135960000D02*
X90562857Y-135502857D01*
X90191428Y-135217142D02*
X90677142Y-135217142D01*
X90734285Y-135188571D01*
X90762857Y-135160000D01*
X90791428Y-135102857D01*
X90791428Y-134988571D01*
X90762857Y-134931428D01*
X90734285Y-134902857D01*
X90677142Y-134874285D01*
X90191428Y-134874285D01*
X90734285Y-134588571D02*
X90762857Y-134560000D01*
X90791428Y-134588571D01*
X90762857Y-134617142D01*
X90734285Y-134588571D01*
X90791428Y-134588571D01*
X90477142Y-134102857D02*
X90477142Y-134302857D01*
X90791428Y-134302857D02*
X90191428Y-134302857D01*
X90191428Y-134017142D01*
X90791428Y-133502857D02*
X90791428Y-133788571D01*
X90191428Y-133788571D01*
X80602857Y-137760000D02*
X80631428Y-137674285D01*
X80631428Y-137531428D01*
X80602857Y-137474285D01*
X80574285Y-137445714D01*
X80517142Y-137417142D01*
X80460000Y-137417142D01*
X80402857Y-137445714D01*
X80374285Y-137474285D01*
X80345714Y-137531428D01*
X80317142Y-137645714D01*
X80288571Y-137702857D01*
X80260000Y-137731428D01*
X80202857Y-137760000D01*
X80145714Y-137760000D01*
X80088571Y-137731428D01*
X80060000Y-137702857D01*
X80031428Y-137645714D01*
X80031428Y-137502857D01*
X80060000Y-137417142D01*
X80631428Y-137160000D02*
X80031428Y-137160000D01*
X80460000Y-136960000D01*
X80031428Y-136760000D01*
X80631428Y-136760000D01*
X80460000Y-136502857D02*
X80460000Y-136217142D01*
X80631428Y-136560000D02*
X80031428Y-136360000D01*
X80631428Y-136160000D01*
X80402857Y-135960000D02*
X80402857Y-135502857D01*
X80031428Y-135217142D02*
X80517142Y-135217142D01*
X80574285Y-135188571D01*
X80602857Y-135160000D01*
X80631428Y-135102857D01*
X80631428Y-134988571D01*
X80602857Y-134931428D01*
X80574285Y-134902857D01*
X80517142Y-134874285D01*
X80031428Y-134874285D01*
X80574285Y-134588571D02*
X80602857Y-134560000D01*
X80631428Y-134588571D01*
X80602857Y-134617142D01*
X80574285Y-134588571D01*
X80631428Y-134588571D01*
X80317142Y-134102857D02*
X80317142Y-134302857D01*
X80631428Y-134302857D02*
X80031428Y-134302857D01*
X80031428Y-134017142D01*
X80631428Y-133502857D02*
X80631428Y-133788571D01*
X80031428Y-133788571D01*
X161882857Y-119980000D02*
X161911428Y-119894285D01*
X161911428Y-119751428D01*
X161882857Y-119694285D01*
X161854285Y-119665714D01*
X161797142Y-119637142D01*
X161740000Y-119637142D01*
X161682857Y-119665714D01*
X161654285Y-119694285D01*
X161625714Y-119751428D01*
X161597142Y-119865714D01*
X161568571Y-119922857D01*
X161540000Y-119951428D01*
X161482857Y-119980000D01*
X161425714Y-119980000D01*
X161368571Y-119951428D01*
X161340000Y-119922857D01*
X161311428Y-119865714D01*
X161311428Y-119722857D01*
X161340000Y-119637142D01*
X161911428Y-119380000D02*
X161311428Y-119380000D01*
X161740000Y-119180000D01*
X161311428Y-118980000D01*
X161911428Y-118980000D01*
X161740000Y-118722857D02*
X161740000Y-118437142D01*
X161911428Y-118780000D02*
X161311428Y-118580000D01*
X161911428Y-118380000D01*
X161682857Y-118180000D02*
X161682857Y-117722857D01*
X161311428Y-117437142D02*
X161797142Y-117437142D01*
X161854285Y-117408571D01*
X161882857Y-117380000D01*
X161911428Y-117322857D01*
X161911428Y-117208571D01*
X161882857Y-117151428D01*
X161854285Y-117122857D01*
X161797142Y-117094285D01*
X161311428Y-117094285D01*
X161854285Y-116808571D02*
X161882857Y-116780000D01*
X161911428Y-116808571D01*
X161882857Y-116837142D01*
X161854285Y-116808571D01*
X161911428Y-116808571D01*
X161597142Y-116322857D02*
X161597142Y-116522857D01*
X161911428Y-116522857D02*
X161311428Y-116522857D01*
X161311428Y-116237142D01*
X161911428Y-115722857D02*
X161911428Y-116008571D01*
X161311428Y-116008571D01*
X151722857Y-119980000D02*
X151751428Y-119894285D01*
X151751428Y-119751428D01*
X151722857Y-119694285D01*
X151694285Y-119665714D01*
X151637142Y-119637142D01*
X151580000Y-119637142D01*
X151522857Y-119665714D01*
X151494285Y-119694285D01*
X151465714Y-119751428D01*
X151437142Y-119865714D01*
X151408571Y-119922857D01*
X151380000Y-119951428D01*
X151322857Y-119980000D01*
X151265714Y-119980000D01*
X151208571Y-119951428D01*
X151180000Y-119922857D01*
X151151428Y-119865714D01*
X151151428Y-119722857D01*
X151180000Y-119637142D01*
X151751428Y-119380000D02*
X151151428Y-119380000D01*
X151580000Y-119180000D01*
X151151428Y-118980000D01*
X151751428Y-118980000D01*
X151580000Y-118722857D02*
X151580000Y-118437142D01*
X151751428Y-118780000D02*
X151151428Y-118580000D01*
X151751428Y-118380000D01*
X151522857Y-118180000D02*
X151522857Y-117722857D01*
X151151428Y-117437142D02*
X151637142Y-117437142D01*
X151694285Y-117408571D01*
X151722857Y-117380000D01*
X151751428Y-117322857D01*
X151751428Y-117208571D01*
X151722857Y-117151428D01*
X151694285Y-117122857D01*
X151637142Y-117094285D01*
X151151428Y-117094285D01*
X151694285Y-116808571D02*
X151722857Y-116780000D01*
X151751428Y-116808571D01*
X151722857Y-116837142D01*
X151694285Y-116808571D01*
X151751428Y-116808571D01*
X151437142Y-116322857D02*
X151437142Y-116522857D01*
X151751428Y-116522857D02*
X151151428Y-116522857D01*
X151151428Y-116237142D01*
X151751428Y-115722857D02*
X151751428Y-116008571D01*
X151151428Y-116008571D01*
X141562857Y-119980000D02*
X141591428Y-119894285D01*
X141591428Y-119751428D01*
X141562857Y-119694285D01*
X141534285Y-119665714D01*
X141477142Y-119637142D01*
X141420000Y-119637142D01*
X141362857Y-119665714D01*
X141334285Y-119694285D01*
X141305714Y-119751428D01*
X141277142Y-119865714D01*
X141248571Y-119922857D01*
X141220000Y-119951428D01*
X141162857Y-119980000D01*
X141105714Y-119980000D01*
X141048571Y-119951428D01*
X141020000Y-119922857D01*
X140991428Y-119865714D01*
X140991428Y-119722857D01*
X141020000Y-119637142D01*
X141591428Y-119380000D02*
X140991428Y-119380000D01*
X141420000Y-119180000D01*
X140991428Y-118980000D01*
X141591428Y-118980000D01*
X141420000Y-118722857D02*
X141420000Y-118437142D01*
X141591428Y-118780000D02*
X140991428Y-118580000D01*
X141591428Y-118380000D01*
X141362857Y-118180000D02*
X141362857Y-117722857D01*
X140991428Y-117437142D02*
X141477142Y-117437142D01*
X141534285Y-117408571D01*
X141562857Y-117380000D01*
X141591428Y-117322857D01*
X141591428Y-117208571D01*
X141562857Y-117151428D01*
X141534285Y-117122857D01*
X141477142Y-117094285D01*
X140991428Y-117094285D01*
X141534285Y-116808571D02*
X141562857Y-116780000D01*
X141591428Y-116808571D01*
X141562857Y-116837142D01*
X141534285Y-116808571D01*
X141591428Y-116808571D01*
X141277142Y-116322857D02*
X141277142Y-116522857D01*
X141591428Y-116522857D02*
X140991428Y-116522857D01*
X140991428Y-116237142D01*
X141591428Y-115722857D02*
X141591428Y-116008571D01*
X140991428Y-116008571D01*
X131402857Y-119980000D02*
X131431428Y-119894285D01*
X131431428Y-119751428D01*
X131402857Y-119694285D01*
X131374285Y-119665714D01*
X131317142Y-119637142D01*
X131260000Y-119637142D01*
X131202857Y-119665714D01*
X131174285Y-119694285D01*
X131145714Y-119751428D01*
X131117142Y-119865714D01*
X131088571Y-119922857D01*
X131060000Y-119951428D01*
X131002857Y-119980000D01*
X130945714Y-119980000D01*
X130888571Y-119951428D01*
X130860000Y-119922857D01*
X130831428Y-119865714D01*
X130831428Y-119722857D01*
X130860000Y-119637142D01*
X131431428Y-119380000D02*
X130831428Y-119380000D01*
X131260000Y-119180000D01*
X130831428Y-118980000D01*
X131431428Y-118980000D01*
X131260000Y-118722857D02*
X131260000Y-118437142D01*
X131431428Y-118780000D02*
X130831428Y-118580000D01*
X131431428Y-118380000D01*
X131202857Y-118180000D02*
X131202857Y-117722857D01*
X130831428Y-117437142D02*
X131317142Y-117437142D01*
X131374285Y-117408571D01*
X131402857Y-117380000D01*
X131431428Y-117322857D01*
X131431428Y-117208571D01*
X131402857Y-117151428D01*
X131374285Y-117122857D01*
X131317142Y-117094285D01*
X130831428Y-117094285D01*
X131374285Y-116808571D02*
X131402857Y-116780000D01*
X131431428Y-116808571D01*
X131402857Y-116837142D01*
X131374285Y-116808571D01*
X131431428Y-116808571D01*
X131117142Y-116322857D02*
X131117142Y-116522857D01*
X131431428Y-116522857D02*
X130831428Y-116522857D01*
X130831428Y-116237142D01*
X131431428Y-115722857D02*
X131431428Y-116008571D01*
X130831428Y-116008571D01*
X121242857Y-119980000D02*
X121271428Y-119894285D01*
X121271428Y-119751428D01*
X121242857Y-119694285D01*
X121214285Y-119665714D01*
X121157142Y-119637142D01*
X121100000Y-119637142D01*
X121042857Y-119665714D01*
X121014285Y-119694285D01*
X120985714Y-119751428D01*
X120957142Y-119865714D01*
X120928571Y-119922857D01*
X120900000Y-119951428D01*
X120842857Y-119980000D01*
X120785714Y-119980000D01*
X120728571Y-119951428D01*
X120700000Y-119922857D01*
X120671428Y-119865714D01*
X120671428Y-119722857D01*
X120700000Y-119637142D01*
X121271428Y-119380000D02*
X120671428Y-119380000D01*
X121100000Y-119180000D01*
X120671428Y-118980000D01*
X121271428Y-118980000D01*
X121100000Y-118722857D02*
X121100000Y-118437142D01*
X121271428Y-118780000D02*
X120671428Y-118580000D01*
X121271428Y-118380000D01*
X121042857Y-118180000D02*
X121042857Y-117722857D01*
X120671428Y-117437142D02*
X121157142Y-117437142D01*
X121214285Y-117408571D01*
X121242857Y-117380000D01*
X121271428Y-117322857D01*
X121271428Y-117208571D01*
X121242857Y-117151428D01*
X121214285Y-117122857D01*
X121157142Y-117094285D01*
X120671428Y-117094285D01*
X121214285Y-116808571D02*
X121242857Y-116780000D01*
X121271428Y-116808571D01*
X121242857Y-116837142D01*
X121214285Y-116808571D01*
X121271428Y-116808571D01*
X120957142Y-116322857D02*
X120957142Y-116522857D01*
X121271428Y-116522857D02*
X120671428Y-116522857D01*
X120671428Y-116237142D01*
X121271428Y-115722857D02*
X121271428Y-116008571D01*
X120671428Y-116008571D01*
X111082857Y-119980000D02*
X111111428Y-119894285D01*
X111111428Y-119751428D01*
X111082857Y-119694285D01*
X111054285Y-119665714D01*
X110997142Y-119637142D01*
X110940000Y-119637142D01*
X110882857Y-119665714D01*
X110854285Y-119694285D01*
X110825714Y-119751428D01*
X110797142Y-119865714D01*
X110768571Y-119922857D01*
X110740000Y-119951428D01*
X110682857Y-119980000D01*
X110625714Y-119980000D01*
X110568571Y-119951428D01*
X110540000Y-119922857D01*
X110511428Y-119865714D01*
X110511428Y-119722857D01*
X110540000Y-119637142D01*
X111111428Y-119380000D02*
X110511428Y-119380000D01*
X110940000Y-119180000D01*
X110511428Y-118980000D01*
X111111428Y-118980000D01*
X110940000Y-118722857D02*
X110940000Y-118437142D01*
X111111428Y-118780000D02*
X110511428Y-118580000D01*
X111111428Y-118380000D01*
X110882857Y-118180000D02*
X110882857Y-117722857D01*
X110511428Y-117437142D02*
X110997142Y-117437142D01*
X111054285Y-117408571D01*
X111082857Y-117380000D01*
X111111428Y-117322857D01*
X111111428Y-117208571D01*
X111082857Y-117151428D01*
X111054285Y-117122857D01*
X110997142Y-117094285D01*
X110511428Y-117094285D01*
X111054285Y-116808571D02*
X111082857Y-116780000D01*
X111111428Y-116808571D01*
X111082857Y-116837142D01*
X111054285Y-116808571D01*
X111111428Y-116808571D01*
X110797142Y-116322857D02*
X110797142Y-116522857D01*
X111111428Y-116522857D02*
X110511428Y-116522857D01*
X110511428Y-116237142D01*
X111111428Y-115722857D02*
X111111428Y-116008571D01*
X110511428Y-116008571D01*
X100922857Y-119980000D02*
X100951428Y-119894285D01*
X100951428Y-119751428D01*
X100922857Y-119694285D01*
X100894285Y-119665714D01*
X100837142Y-119637142D01*
X100780000Y-119637142D01*
X100722857Y-119665714D01*
X100694285Y-119694285D01*
X100665714Y-119751428D01*
X100637142Y-119865714D01*
X100608571Y-119922857D01*
X100580000Y-119951428D01*
X100522857Y-119980000D01*
X100465714Y-119980000D01*
X100408571Y-119951428D01*
X100380000Y-119922857D01*
X100351428Y-119865714D01*
X100351428Y-119722857D01*
X100380000Y-119637142D01*
X100951428Y-119380000D02*
X100351428Y-119380000D01*
X100780000Y-119180000D01*
X100351428Y-118980000D01*
X100951428Y-118980000D01*
X100780000Y-118722857D02*
X100780000Y-118437142D01*
X100951428Y-118780000D02*
X100351428Y-118580000D01*
X100951428Y-118380000D01*
X100722857Y-118180000D02*
X100722857Y-117722857D01*
X100351428Y-117437142D02*
X100837142Y-117437142D01*
X100894285Y-117408571D01*
X100922857Y-117380000D01*
X100951428Y-117322857D01*
X100951428Y-117208571D01*
X100922857Y-117151428D01*
X100894285Y-117122857D01*
X100837142Y-117094285D01*
X100351428Y-117094285D01*
X100894285Y-116808571D02*
X100922857Y-116780000D01*
X100951428Y-116808571D01*
X100922857Y-116837142D01*
X100894285Y-116808571D01*
X100951428Y-116808571D01*
X100637142Y-116322857D02*
X100637142Y-116522857D01*
X100951428Y-116522857D02*
X100351428Y-116522857D01*
X100351428Y-116237142D01*
X100951428Y-115722857D02*
X100951428Y-116008571D01*
X100351428Y-116008571D01*
X90762857Y-119980000D02*
X90791428Y-119894285D01*
X90791428Y-119751428D01*
X90762857Y-119694285D01*
X90734285Y-119665714D01*
X90677142Y-119637142D01*
X90620000Y-119637142D01*
X90562857Y-119665714D01*
X90534285Y-119694285D01*
X90505714Y-119751428D01*
X90477142Y-119865714D01*
X90448571Y-119922857D01*
X90420000Y-119951428D01*
X90362857Y-119980000D01*
X90305714Y-119980000D01*
X90248571Y-119951428D01*
X90220000Y-119922857D01*
X90191428Y-119865714D01*
X90191428Y-119722857D01*
X90220000Y-119637142D01*
X90791428Y-119380000D02*
X90191428Y-119380000D01*
X90620000Y-119180000D01*
X90191428Y-118980000D01*
X90791428Y-118980000D01*
X90620000Y-118722857D02*
X90620000Y-118437142D01*
X90791428Y-118780000D02*
X90191428Y-118580000D01*
X90791428Y-118380000D01*
X90562857Y-118180000D02*
X90562857Y-117722857D01*
X90191428Y-117437142D02*
X90677142Y-117437142D01*
X90734285Y-117408571D01*
X90762857Y-117380000D01*
X90791428Y-117322857D01*
X90791428Y-117208571D01*
X90762857Y-117151428D01*
X90734285Y-117122857D01*
X90677142Y-117094285D01*
X90191428Y-117094285D01*
X90734285Y-116808571D02*
X90762857Y-116780000D01*
X90791428Y-116808571D01*
X90762857Y-116837142D01*
X90734285Y-116808571D01*
X90791428Y-116808571D01*
X90477142Y-116322857D02*
X90477142Y-116522857D01*
X90791428Y-116522857D02*
X90191428Y-116522857D01*
X90191428Y-116237142D01*
X90791428Y-115722857D02*
X90791428Y-116008571D01*
X90191428Y-116008571D01*
X80602857Y-119980000D02*
X80631428Y-119894285D01*
X80631428Y-119751428D01*
X80602857Y-119694285D01*
X80574285Y-119665714D01*
X80517142Y-119637142D01*
X80460000Y-119637142D01*
X80402857Y-119665714D01*
X80374285Y-119694285D01*
X80345714Y-119751428D01*
X80317142Y-119865714D01*
X80288571Y-119922857D01*
X80260000Y-119951428D01*
X80202857Y-119980000D01*
X80145714Y-119980000D01*
X80088571Y-119951428D01*
X80060000Y-119922857D01*
X80031428Y-119865714D01*
X80031428Y-119722857D01*
X80060000Y-119637142D01*
X80631428Y-119380000D02*
X80031428Y-119380000D01*
X80460000Y-119180000D01*
X80031428Y-118980000D01*
X80631428Y-118980000D01*
X80460000Y-118722857D02*
X80460000Y-118437142D01*
X80631428Y-118780000D02*
X80031428Y-118580000D01*
X80631428Y-118380000D01*
X80402857Y-118180000D02*
X80402857Y-117722857D01*
X80031428Y-117437142D02*
X80517142Y-117437142D01*
X80574285Y-117408571D01*
X80602857Y-117380000D01*
X80631428Y-117322857D01*
X80631428Y-117208571D01*
X80602857Y-117151428D01*
X80574285Y-117122857D01*
X80517142Y-117094285D01*
X80031428Y-117094285D01*
X80574285Y-116808571D02*
X80602857Y-116780000D01*
X80631428Y-116808571D01*
X80602857Y-116837142D01*
X80574285Y-116808571D01*
X80631428Y-116808571D01*
X80317142Y-116322857D02*
X80317142Y-116522857D01*
X80631428Y-116522857D02*
X80031428Y-116522857D01*
X80031428Y-116237142D01*
X80631428Y-115722857D02*
X80631428Y-116008571D01*
X80031428Y-116008571D01*
X161882857Y-102200000D02*
X161911428Y-102114285D01*
X161911428Y-101971428D01*
X161882857Y-101914285D01*
X161854285Y-101885714D01*
X161797142Y-101857142D01*
X161740000Y-101857142D01*
X161682857Y-101885714D01*
X161654285Y-101914285D01*
X161625714Y-101971428D01*
X161597142Y-102085714D01*
X161568571Y-102142857D01*
X161540000Y-102171428D01*
X161482857Y-102200000D01*
X161425714Y-102200000D01*
X161368571Y-102171428D01*
X161340000Y-102142857D01*
X161311428Y-102085714D01*
X161311428Y-101942857D01*
X161340000Y-101857142D01*
X161911428Y-101600000D02*
X161311428Y-101600000D01*
X161740000Y-101400000D01*
X161311428Y-101200000D01*
X161911428Y-101200000D01*
X161740000Y-100942857D02*
X161740000Y-100657142D01*
X161911428Y-101000000D02*
X161311428Y-100800000D01*
X161911428Y-100600000D01*
X161682857Y-100400000D02*
X161682857Y-99942857D01*
X161311428Y-99657142D02*
X161797142Y-99657142D01*
X161854285Y-99628571D01*
X161882857Y-99600000D01*
X161911428Y-99542857D01*
X161911428Y-99428571D01*
X161882857Y-99371428D01*
X161854285Y-99342857D01*
X161797142Y-99314285D01*
X161311428Y-99314285D01*
X161854285Y-99028571D02*
X161882857Y-99000000D01*
X161911428Y-99028571D01*
X161882857Y-99057142D01*
X161854285Y-99028571D01*
X161911428Y-99028571D01*
X161597142Y-98542857D02*
X161597142Y-98742857D01*
X161911428Y-98742857D02*
X161311428Y-98742857D01*
X161311428Y-98457142D01*
X161911428Y-97942857D02*
X161911428Y-98228571D01*
X161311428Y-98228571D01*
X151722857Y-102200000D02*
X151751428Y-102114285D01*
X151751428Y-101971428D01*
X151722857Y-101914285D01*
X151694285Y-101885714D01*
X151637142Y-101857142D01*
X151580000Y-101857142D01*
X151522857Y-101885714D01*
X151494285Y-101914285D01*
X151465714Y-101971428D01*
X151437142Y-102085714D01*
X151408571Y-102142857D01*
X151380000Y-102171428D01*
X151322857Y-102200000D01*
X151265714Y-102200000D01*
X151208571Y-102171428D01*
X151180000Y-102142857D01*
X151151428Y-102085714D01*
X151151428Y-101942857D01*
X151180000Y-101857142D01*
X151751428Y-101600000D02*
X151151428Y-101600000D01*
X151580000Y-101400000D01*
X151151428Y-101200000D01*
X151751428Y-101200000D01*
X151580000Y-100942857D02*
X151580000Y-100657142D01*
X151751428Y-101000000D02*
X151151428Y-100800000D01*
X151751428Y-100600000D01*
X151522857Y-100400000D02*
X151522857Y-99942857D01*
X151151428Y-99657142D02*
X151637142Y-99657142D01*
X151694285Y-99628571D01*
X151722857Y-99600000D01*
X151751428Y-99542857D01*
X151751428Y-99428571D01*
X151722857Y-99371428D01*
X151694285Y-99342857D01*
X151637142Y-99314285D01*
X151151428Y-99314285D01*
X151694285Y-99028571D02*
X151722857Y-99000000D01*
X151751428Y-99028571D01*
X151722857Y-99057142D01*
X151694285Y-99028571D01*
X151751428Y-99028571D01*
X151437142Y-98542857D02*
X151437142Y-98742857D01*
X151751428Y-98742857D02*
X151151428Y-98742857D01*
X151151428Y-98457142D01*
X151751428Y-97942857D02*
X151751428Y-98228571D01*
X151151428Y-98228571D01*
X141562857Y-102200000D02*
X141591428Y-102114285D01*
X141591428Y-101971428D01*
X141562857Y-101914285D01*
X141534285Y-101885714D01*
X141477142Y-101857142D01*
X141420000Y-101857142D01*
X141362857Y-101885714D01*
X141334285Y-101914285D01*
X141305714Y-101971428D01*
X141277142Y-102085714D01*
X141248571Y-102142857D01*
X141220000Y-102171428D01*
X141162857Y-102200000D01*
X141105714Y-102200000D01*
X141048571Y-102171428D01*
X141020000Y-102142857D01*
X140991428Y-102085714D01*
X140991428Y-101942857D01*
X141020000Y-101857142D01*
X141591428Y-101600000D02*
X140991428Y-101600000D01*
X141420000Y-101400000D01*
X140991428Y-101200000D01*
X141591428Y-101200000D01*
X141420000Y-100942857D02*
X141420000Y-100657142D01*
X141591428Y-101000000D02*
X140991428Y-100800000D01*
X141591428Y-100600000D01*
X141362857Y-100400000D02*
X141362857Y-99942857D01*
X140991428Y-99657142D02*
X141477142Y-99657142D01*
X141534285Y-99628571D01*
X141562857Y-99600000D01*
X141591428Y-99542857D01*
X141591428Y-99428571D01*
X141562857Y-99371428D01*
X141534285Y-99342857D01*
X141477142Y-99314285D01*
X140991428Y-99314285D01*
X141534285Y-99028571D02*
X141562857Y-99000000D01*
X141591428Y-99028571D01*
X141562857Y-99057142D01*
X141534285Y-99028571D01*
X141591428Y-99028571D01*
X141277142Y-98542857D02*
X141277142Y-98742857D01*
X141591428Y-98742857D02*
X140991428Y-98742857D01*
X140991428Y-98457142D01*
X141591428Y-97942857D02*
X141591428Y-98228571D01*
X140991428Y-98228571D01*
X131402857Y-102200000D02*
X131431428Y-102114285D01*
X131431428Y-101971428D01*
X131402857Y-101914285D01*
X131374285Y-101885714D01*
X131317142Y-101857142D01*
X131260000Y-101857142D01*
X131202857Y-101885714D01*
X131174285Y-101914285D01*
X131145714Y-101971428D01*
X131117142Y-102085714D01*
X131088571Y-102142857D01*
X131060000Y-102171428D01*
X131002857Y-102200000D01*
X130945714Y-102200000D01*
X130888571Y-102171428D01*
X130860000Y-102142857D01*
X130831428Y-102085714D01*
X130831428Y-101942857D01*
X130860000Y-101857142D01*
X131431428Y-101600000D02*
X130831428Y-101600000D01*
X131260000Y-101400000D01*
X130831428Y-101200000D01*
X131431428Y-101200000D01*
X131260000Y-100942857D02*
X131260000Y-100657142D01*
X131431428Y-101000000D02*
X130831428Y-100800000D01*
X131431428Y-100600000D01*
X131202857Y-100400000D02*
X131202857Y-99942857D01*
X130831428Y-99657142D02*
X131317142Y-99657142D01*
X131374285Y-99628571D01*
X131402857Y-99600000D01*
X131431428Y-99542857D01*
X131431428Y-99428571D01*
X131402857Y-99371428D01*
X131374285Y-99342857D01*
X131317142Y-99314285D01*
X130831428Y-99314285D01*
X131374285Y-99028571D02*
X131402857Y-99000000D01*
X131431428Y-99028571D01*
X131402857Y-99057142D01*
X131374285Y-99028571D01*
X131431428Y-99028571D01*
X131117142Y-98542857D02*
X131117142Y-98742857D01*
X131431428Y-98742857D02*
X130831428Y-98742857D01*
X130831428Y-98457142D01*
X131431428Y-97942857D02*
X131431428Y-98228571D01*
X130831428Y-98228571D01*
X121242857Y-102200000D02*
X121271428Y-102114285D01*
X121271428Y-101971428D01*
X121242857Y-101914285D01*
X121214285Y-101885714D01*
X121157142Y-101857142D01*
X121100000Y-101857142D01*
X121042857Y-101885714D01*
X121014285Y-101914285D01*
X120985714Y-101971428D01*
X120957142Y-102085714D01*
X120928571Y-102142857D01*
X120900000Y-102171428D01*
X120842857Y-102200000D01*
X120785714Y-102200000D01*
X120728571Y-102171428D01*
X120700000Y-102142857D01*
X120671428Y-102085714D01*
X120671428Y-101942857D01*
X120700000Y-101857142D01*
X121271428Y-101600000D02*
X120671428Y-101600000D01*
X121100000Y-101400000D01*
X120671428Y-101200000D01*
X121271428Y-101200000D01*
X121100000Y-100942857D02*
X121100000Y-100657142D01*
X121271428Y-101000000D02*
X120671428Y-100800000D01*
X121271428Y-100600000D01*
X121042857Y-100400000D02*
X121042857Y-99942857D01*
X120671428Y-99657142D02*
X121157142Y-99657142D01*
X121214285Y-99628571D01*
X121242857Y-99600000D01*
X121271428Y-99542857D01*
X121271428Y-99428571D01*
X121242857Y-99371428D01*
X121214285Y-99342857D01*
X121157142Y-99314285D01*
X120671428Y-99314285D01*
X121214285Y-99028571D02*
X121242857Y-99000000D01*
X121271428Y-99028571D01*
X121242857Y-99057142D01*
X121214285Y-99028571D01*
X121271428Y-99028571D01*
X120957142Y-98542857D02*
X120957142Y-98742857D01*
X121271428Y-98742857D02*
X120671428Y-98742857D01*
X120671428Y-98457142D01*
X121271428Y-97942857D02*
X121271428Y-98228571D01*
X120671428Y-98228571D01*
X111082857Y-102200000D02*
X111111428Y-102114285D01*
X111111428Y-101971428D01*
X111082857Y-101914285D01*
X111054285Y-101885714D01*
X110997142Y-101857142D01*
X110940000Y-101857142D01*
X110882857Y-101885714D01*
X110854285Y-101914285D01*
X110825714Y-101971428D01*
X110797142Y-102085714D01*
X110768571Y-102142857D01*
X110740000Y-102171428D01*
X110682857Y-102200000D01*
X110625714Y-102200000D01*
X110568571Y-102171428D01*
X110540000Y-102142857D01*
X110511428Y-102085714D01*
X110511428Y-101942857D01*
X110540000Y-101857142D01*
X111111428Y-101600000D02*
X110511428Y-101600000D01*
X110940000Y-101400000D01*
X110511428Y-101200000D01*
X111111428Y-101200000D01*
X110940000Y-100942857D02*
X110940000Y-100657142D01*
X111111428Y-101000000D02*
X110511428Y-100800000D01*
X111111428Y-100600000D01*
X110882857Y-100400000D02*
X110882857Y-99942857D01*
X110511428Y-99657142D02*
X110997142Y-99657142D01*
X111054285Y-99628571D01*
X111082857Y-99600000D01*
X111111428Y-99542857D01*
X111111428Y-99428571D01*
X111082857Y-99371428D01*
X111054285Y-99342857D01*
X110997142Y-99314285D01*
X110511428Y-99314285D01*
X111054285Y-99028571D02*
X111082857Y-99000000D01*
X111111428Y-99028571D01*
X111082857Y-99057142D01*
X111054285Y-99028571D01*
X111111428Y-99028571D01*
X110797142Y-98542857D02*
X110797142Y-98742857D01*
X111111428Y-98742857D02*
X110511428Y-98742857D01*
X110511428Y-98457142D01*
X111111428Y-97942857D02*
X111111428Y-98228571D01*
X110511428Y-98228571D01*
X100922857Y-102200000D02*
X100951428Y-102114285D01*
X100951428Y-101971428D01*
X100922857Y-101914285D01*
X100894285Y-101885714D01*
X100837142Y-101857142D01*
X100780000Y-101857142D01*
X100722857Y-101885714D01*
X100694285Y-101914285D01*
X100665714Y-101971428D01*
X100637142Y-102085714D01*
X100608571Y-102142857D01*
X100580000Y-102171428D01*
X100522857Y-102200000D01*
X100465714Y-102200000D01*
X100408571Y-102171428D01*
X100380000Y-102142857D01*
X100351428Y-102085714D01*
X100351428Y-101942857D01*
X100380000Y-101857142D01*
X100951428Y-101600000D02*
X100351428Y-101600000D01*
X100780000Y-101400000D01*
X100351428Y-101200000D01*
X100951428Y-101200000D01*
X100780000Y-100942857D02*
X100780000Y-100657142D01*
X100951428Y-101000000D02*
X100351428Y-100800000D01*
X100951428Y-100600000D01*
X100722857Y-100400000D02*
X100722857Y-99942857D01*
X100351428Y-99657142D02*
X100837142Y-99657142D01*
X100894285Y-99628571D01*
X100922857Y-99600000D01*
X100951428Y-99542857D01*
X100951428Y-99428571D01*
X100922857Y-99371428D01*
X100894285Y-99342857D01*
X100837142Y-99314285D01*
X100351428Y-99314285D01*
X100894285Y-99028571D02*
X100922857Y-99000000D01*
X100951428Y-99028571D01*
X100922857Y-99057142D01*
X100894285Y-99028571D01*
X100951428Y-99028571D01*
X100637142Y-98542857D02*
X100637142Y-98742857D01*
X100951428Y-98742857D02*
X100351428Y-98742857D01*
X100351428Y-98457142D01*
X100951428Y-97942857D02*
X100951428Y-98228571D01*
X100351428Y-98228571D01*
X90762857Y-102200000D02*
X90791428Y-102114285D01*
X90791428Y-101971428D01*
X90762857Y-101914285D01*
X90734285Y-101885714D01*
X90677142Y-101857142D01*
X90620000Y-101857142D01*
X90562857Y-101885714D01*
X90534285Y-101914285D01*
X90505714Y-101971428D01*
X90477142Y-102085714D01*
X90448571Y-102142857D01*
X90420000Y-102171428D01*
X90362857Y-102200000D01*
X90305714Y-102200000D01*
X90248571Y-102171428D01*
X90220000Y-102142857D01*
X90191428Y-102085714D01*
X90191428Y-101942857D01*
X90220000Y-101857142D01*
X90791428Y-101600000D02*
X90191428Y-101600000D01*
X90620000Y-101400000D01*
X90191428Y-101200000D01*
X90791428Y-101200000D01*
X90620000Y-100942857D02*
X90620000Y-100657142D01*
X90791428Y-101000000D02*
X90191428Y-100800000D01*
X90791428Y-100600000D01*
X90562857Y-100400000D02*
X90562857Y-99942857D01*
X90191428Y-99657142D02*
X90677142Y-99657142D01*
X90734285Y-99628571D01*
X90762857Y-99600000D01*
X90791428Y-99542857D01*
X90791428Y-99428571D01*
X90762857Y-99371428D01*
X90734285Y-99342857D01*
X90677142Y-99314285D01*
X90191428Y-99314285D01*
X90734285Y-99028571D02*
X90762857Y-99000000D01*
X90791428Y-99028571D01*
X90762857Y-99057142D01*
X90734285Y-99028571D01*
X90791428Y-99028571D01*
X90477142Y-98542857D02*
X90477142Y-98742857D01*
X90791428Y-98742857D02*
X90191428Y-98742857D01*
X90191428Y-98457142D01*
X90791428Y-97942857D02*
X90791428Y-98228571D01*
X90191428Y-98228571D01*
X80602857Y-102200000D02*
X80631428Y-102114285D01*
X80631428Y-101971428D01*
X80602857Y-101914285D01*
X80574285Y-101885714D01*
X80517142Y-101857142D01*
X80460000Y-101857142D01*
X80402857Y-101885714D01*
X80374285Y-101914285D01*
X80345714Y-101971428D01*
X80317142Y-102085714D01*
X80288571Y-102142857D01*
X80260000Y-102171428D01*
X80202857Y-102200000D01*
X80145714Y-102200000D01*
X80088571Y-102171428D01*
X80060000Y-102142857D01*
X80031428Y-102085714D01*
X80031428Y-101942857D01*
X80060000Y-101857142D01*
X80631428Y-101600000D02*
X80031428Y-101600000D01*
X80460000Y-101400000D01*
X80031428Y-101200000D01*
X80631428Y-101200000D01*
X80460000Y-100942857D02*
X80460000Y-100657142D01*
X80631428Y-101000000D02*
X80031428Y-100800000D01*
X80631428Y-100600000D01*
X80402857Y-100400000D02*
X80402857Y-99942857D01*
X80031428Y-99657142D02*
X80517142Y-99657142D01*
X80574285Y-99628571D01*
X80602857Y-99600000D01*
X80631428Y-99542857D01*
X80631428Y-99428571D01*
X80602857Y-99371428D01*
X80574285Y-99342857D01*
X80517142Y-99314285D01*
X80031428Y-99314285D01*
X80574285Y-99028571D02*
X80602857Y-99000000D01*
X80631428Y-99028571D01*
X80602857Y-99057142D01*
X80574285Y-99028571D01*
X80631428Y-99028571D01*
X80317142Y-98542857D02*
X80317142Y-98742857D01*
X80631428Y-98742857D02*
X80031428Y-98742857D01*
X80031428Y-98457142D01*
X80631428Y-97942857D02*
X80631428Y-98228571D01*
X80031428Y-98228571D01*
X161882857Y-84420000D02*
X161911428Y-84334285D01*
X161911428Y-84191428D01*
X161882857Y-84134285D01*
X161854285Y-84105714D01*
X161797142Y-84077142D01*
X161740000Y-84077142D01*
X161682857Y-84105714D01*
X161654285Y-84134285D01*
X161625714Y-84191428D01*
X161597142Y-84305714D01*
X161568571Y-84362857D01*
X161540000Y-84391428D01*
X161482857Y-84420000D01*
X161425714Y-84420000D01*
X161368571Y-84391428D01*
X161340000Y-84362857D01*
X161311428Y-84305714D01*
X161311428Y-84162857D01*
X161340000Y-84077142D01*
X161911428Y-83820000D02*
X161311428Y-83820000D01*
X161740000Y-83620000D01*
X161311428Y-83420000D01*
X161911428Y-83420000D01*
X161740000Y-83162857D02*
X161740000Y-82877142D01*
X161911428Y-83220000D02*
X161311428Y-83020000D01*
X161911428Y-82820000D01*
X161682857Y-82620000D02*
X161682857Y-82162857D01*
X161311428Y-81877142D02*
X161797142Y-81877142D01*
X161854285Y-81848571D01*
X161882857Y-81820000D01*
X161911428Y-81762857D01*
X161911428Y-81648571D01*
X161882857Y-81591428D01*
X161854285Y-81562857D01*
X161797142Y-81534285D01*
X161311428Y-81534285D01*
X161854285Y-81248571D02*
X161882857Y-81220000D01*
X161911428Y-81248571D01*
X161882857Y-81277142D01*
X161854285Y-81248571D01*
X161911428Y-81248571D01*
X161597142Y-80762857D02*
X161597142Y-80962857D01*
X161911428Y-80962857D02*
X161311428Y-80962857D01*
X161311428Y-80677142D01*
X161911428Y-80162857D02*
X161911428Y-80448571D01*
X161311428Y-80448571D01*
X151722857Y-84420000D02*
X151751428Y-84334285D01*
X151751428Y-84191428D01*
X151722857Y-84134285D01*
X151694285Y-84105714D01*
X151637142Y-84077142D01*
X151580000Y-84077142D01*
X151522857Y-84105714D01*
X151494285Y-84134285D01*
X151465714Y-84191428D01*
X151437142Y-84305714D01*
X151408571Y-84362857D01*
X151380000Y-84391428D01*
X151322857Y-84420000D01*
X151265714Y-84420000D01*
X151208571Y-84391428D01*
X151180000Y-84362857D01*
X151151428Y-84305714D01*
X151151428Y-84162857D01*
X151180000Y-84077142D01*
X151751428Y-83820000D02*
X151151428Y-83820000D01*
X151580000Y-83620000D01*
X151151428Y-83420000D01*
X151751428Y-83420000D01*
X151580000Y-83162857D02*
X151580000Y-82877142D01*
X151751428Y-83220000D02*
X151151428Y-83020000D01*
X151751428Y-82820000D01*
X151522857Y-82620000D02*
X151522857Y-82162857D01*
X151151428Y-81877142D02*
X151637142Y-81877142D01*
X151694285Y-81848571D01*
X151722857Y-81820000D01*
X151751428Y-81762857D01*
X151751428Y-81648571D01*
X151722857Y-81591428D01*
X151694285Y-81562857D01*
X151637142Y-81534285D01*
X151151428Y-81534285D01*
X151694285Y-81248571D02*
X151722857Y-81220000D01*
X151751428Y-81248571D01*
X151722857Y-81277142D01*
X151694285Y-81248571D01*
X151751428Y-81248571D01*
X151437142Y-80762857D02*
X151437142Y-80962857D01*
X151751428Y-80962857D02*
X151151428Y-80962857D01*
X151151428Y-80677142D01*
X151751428Y-80162857D02*
X151751428Y-80448571D01*
X151151428Y-80448571D01*
X141562857Y-84420000D02*
X141591428Y-84334285D01*
X141591428Y-84191428D01*
X141562857Y-84134285D01*
X141534285Y-84105714D01*
X141477142Y-84077142D01*
X141420000Y-84077142D01*
X141362857Y-84105714D01*
X141334285Y-84134285D01*
X141305714Y-84191428D01*
X141277142Y-84305714D01*
X141248571Y-84362857D01*
X141220000Y-84391428D01*
X141162857Y-84420000D01*
X141105714Y-84420000D01*
X141048571Y-84391428D01*
X141020000Y-84362857D01*
X140991428Y-84305714D01*
X140991428Y-84162857D01*
X141020000Y-84077142D01*
X141591428Y-83820000D02*
X140991428Y-83820000D01*
X141420000Y-83620000D01*
X140991428Y-83420000D01*
X141591428Y-83420000D01*
X141420000Y-83162857D02*
X141420000Y-82877142D01*
X141591428Y-83220000D02*
X140991428Y-83020000D01*
X141591428Y-82820000D01*
X141362857Y-82620000D02*
X141362857Y-82162857D01*
X140991428Y-81877142D02*
X141477142Y-81877142D01*
X141534285Y-81848571D01*
X141562857Y-81820000D01*
X141591428Y-81762857D01*
X141591428Y-81648571D01*
X141562857Y-81591428D01*
X141534285Y-81562857D01*
X141477142Y-81534285D01*
X140991428Y-81534285D01*
X141534285Y-81248571D02*
X141562857Y-81220000D01*
X141591428Y-81248571D01*
X141562857Y-81277142D01*
X141534285Y-81248571D01*
X141591428Y-81248571D01*
X141277142Y-80762857D02*
X141277142Y-80962857D01*
X141591428Y-80962857D02*
X140991428Y-80962857D01*
X140991428Y-80677142D01*
X141591428Y-80162857D02*
X141591428Y-80448571D01*
X140991428Y-80448571D01*
X131402857Y-84420000D02*
X131431428Y-84334285D01*
X131431428Y-84191428D01*
X131402857Y-84134285D01*
X131374285Y-84105714D01*
X131317142Y-84077142D01*
X131260000Y-84077142D01*
X131202857Y-84105714D01*
X131174285Y-84134285D01*
X131145714Y-84191428D01*
X131117142Y-84305714D01*
X131088571Y-84362857D01*
X131060000Y-84391428D01*
X131002857Y-84420000D01*
X130945714Y-84420000D01*
X130888571Y-84391428D01*
X130860000Y-84362857D01*
X130831428Y-84305714D01*
X130831428Y-84162857D01*
X130860000Y-84077142D01*
X131431428Y-83820000D02*
X130831428Y-83820000D01*
X131260000Y-83620000D01*
X130831428Y-83420000D01*
X131431428Y-83420000D01*
X131260000Y-83162857D02*
X131260000Y-82877142D01*
X131431428Y-83220000D02*
X130831428Y-83020000D01*
X131431428Y-82820000D01*
X131202857Y-82620000D02*
X131202857Y-82162857D01*
X130831428Y-81877142D02*
X131317142Y-81877142D01*
X131374285Y-81848571D01*
X131402857Y-81820000D01*
X131431428Y-81762857D01*
X131431428Y-81648571D01*
X131402857Y-81591428D01*
X131374285Y-81562857D01*
X131317142Y-81534285D01*
X130831428Y-81534285D01*
X131374285Y-81248571D02*
X131402857Y-81220000D01*
X131431428Y-81248571D01*
X131402857Y-81277142D01*
X131374285Y-81248571D01*
X131431428Y-81248571D01*
X131117142Y-80762857D02*
X131117142Y-80962857D01*
X131431428Y-80962857D02*
X130831428Y-80962857D01*
X130831428Y-80677142D01*
X131431428Y-80162857D02*
X131431428Y-80448571D01*
X130831428Y-80448571D01*
X121242857Y-84420000D02*
X121271428Y-84334285D01*
X121271428Y-84191428D01*
X121242857Y-84134285D01*
X121214285Y-84105714D01*
X121157142Y-84077142D01*
X121100000Y-84077142D01*
X121042857Y-84105714D01*
X121014285Y-84134285D01*
X120985714Y-84191428D01*
X120957142Y-84305714D01*
X120928571Y-84362857D01*
X120900000Y-84391428D01*
X120842857Y-84420000D01*
X120785714Y-84420000D01*
X120728571Y-84391428D01*
X120700000Y-84362857D01*
X120671428Y-84305714D01*
X120671428Y-84162857D01*
X120700000Y-84077142D01*
X121271428Y-83820000D02*
X120671428Y-83820000D01*
X121100000Y-83620000D01*
X120671428Y-83420000D01*
X121271428Y-83420000D01*
X121100000Y-83162857D02*
X121100000Y-82877142D01*
X121271428Y-83220000D02*
X120671428Y-83020000D01*
X121271428Y-82820000D01*
X121042857Y-82620000D02*
X121042857Y-82162857D01*
X120671428Y-81877142D02*
X121157142Y-81877142D01*
X121214285Y-81848571D01*
X121242857Y-81820000D01*
X121271428Y-81762857D01*
X121271428Y-81648571D01*
X121242857Y-81591428D01*
X121214285Y-81562857D01*
X121157142Y-81534285D01*
X120671428Y-81534285D01*
X121214285Y-81248571D02*
X121242857Y-81220000D01*
X121271428Y-81248571D01*
X121242857Y-81277142D01*
X121214285Y-81248571D01*
X121271428Y-81248571D01*
X120957142Y-80762857D02*
X120957142Y-80962857D01*
X121271428Y-80962857D02*
X120671428Y-80962857D01*
X120671428Y-80677142D01*
X121271428Y-80162857D02*
X121271428Y-80448571D01*
X120671428Y-80448571D01*
X111082857Y-84420000D02*
X111111428Y-84334285D01*
X111111428Y-84191428D01*
X111082857Y-84134285D01*
X111054285Y-84105714D01*
X110997142Y-84077142D01*
X110940000Y-84077142D01*
X110882857Y-84105714D01*
X110854285Y-84134285D01*
X110825714Y-84191428D01*
X110797142Y-84305714D01*
X110768571Y-84362857D01*
X110740000Y-84391428D01*
X110682857Y-84420000D01*
X110625714Y-84420000D01*
X110568571Y-84391428D01*
X110540000Y-84362857D01*
X110511428Y-84305714D01*
X110511428Y-84162857D01*
X110540000Y-84077142D01*
X111111428Y-83820000D02*
X110511428Y-83820000D01*
X110940000Y-83620000D01*
X110511428Y-83420000D01*
X111111428Y-83420000D01*
X110940000Y-83162857D02*
X110940000Y-82877142D01*
X111111428Y-83220000D02*
X110511428Y-83020000D01*
X111111428Y-82820000D01*
X110882857Y-82620000D02*
X110882857Y-82162857D01*
X110511428Y-81877142D02*
X110997142Y-81877142D01*
X111054285Y-81848571D01*
X111082857Y-81820000D01*
X111111428Y-81762857D01*
X111111428Y-81648571D01*
X111082857Y-81591428D01*
X111054285Y-81562857D01*
X110997142Y-81534285D01*
X110511428Y-81534285D01*
X111054285Y-81248571D02*
X111082857Y-81220000D01*
X111111428Y-81248571D01*
X111082857Y-81277142D01*
X111054285Y-81248571D01*
X111111428Y-81248571D01*
X110797142Y-80762857D02*
X110797142Y-80962857D01*
X111111428Y-80962857D02*
X110511428Y-80962857D01*
X110511428Y-80677142D01*
X111111428Y-80162857D02*
X111111428Y-80448571D01*
X110511428Y-80448571D01*
X100922857Y-84420000D02*
X100951428Y-84334285D01*
X100951428Y-84191428D01*
X100922857Y-84134285D01*
X100894285Y-84105714D01*
X100837142Y-84077142D01*
X100780000Y-84077142D01*
X100722857Y-84105714D01*
X100694285Y-84134285D01*
X100665714Y-84191428D01*
X100637142Y-84305714D01*
X100608571Y-84362857D01*
X100580000Y-84391428D01*
X100522857Y-84420000D01*
X100465714Y-84420000D01*
X100408571Y-84391428D01*
X100380000Y-84362857D01*
X100351428Y-84305714D01*
X100351428Y-84162857D01*
X100380000Y-84077142D01*
X100951428Y-83820000D02*
X100351428Y-83820000D01*
X100780000Y-83620000D01*
X100351428Y-83420000D01*
X100951428Y-83420000D01*
X100780000Y-83162857D02*
X100780000Y-82877142D01*
X100951428Y-83220000D02*
X100351428Y-83020000D01*
X100951428Y-82820000D01*
X100722857Y-82620000D02*
X100722857Y-82162857D01*
X100351428Y-81877142D02*
X100837142Y-81877142D01*
X100894285Y-81848571D01*
X100922857Y-81820000D01*
X100951428Y-81762857D01*
X100951428Y-81648571D01*
X100922857Y-81591428D01*
X100894285Y-81562857D01*
X100837142Y-81534285D01*
X100351428Y-81534285D01*
X100894285Y-81248571D02*
X100922857Y-81220000D01*
X100951428Y-81248571D01*
X100922857Y-81277142D01*
X100894285Y-81248571D01*
X100951428Y-81248571D01*
X100637142Y-80762857D02*
X100637142Y-80962857D01*
X100951428Y-80962857D02*
X100351428Y-80962857D01*
X100351428Y-80677142D01*
X100951428Y-80162857D02*
X100951428Y-80448571D01*
X100351428Y-80448571D01*
X90762857Y-84420000D02*
X90791428Y-84334285D01*
X90791428Y-84191428D01*
X90762857Y-84134285D01*
X90734285Y-84105714D01*
X90677142Y-84077142D01*
X90620000Y-84077142D01*
X90562857Y-84105714D01*
X90534285Y-84134285D01*
X90505714Y-84191428D01*
X90477142Y-84305714D01*
X90448571Y-84362857D01*
X90420000Y-84391428D01*
X90362857Y-84420000D01*
X90305714Y-84420000D01*
X90248571Y-84391428D01*
X90220000Y-84362857D01*
X90191428Y-84305714D01*
X90191428Y-84162857D01*
X90220000Y-84077142D01*
X90791428Y-83820000D02*
X90191428Y-83820000D01*
X90620000Y-83620000D01*
X90191428Y-83420000D01*
X90791428Y-83420000D01*
X90620000Y-83162857D02*
X90620000Y-82877142D01*
X90791428Y-83220000D02*
X90191428Y-83020000D01*
X90791428Y-82820000D01*
X90562857Y-82620000D02*
X90562857Y-82162857D01*
X90191428Y-81877142D02*
X90677142Y-81877142D01*
X90734285Y-81848571D01*
X90762857Y-81820000D01*
X90791428Y-81762857D01*
X90791428Y-81648571D01*
X90762857Y-81591428D01*
X90734285Y-81562857D01*
X90677142Y-81534285D01*
X90191428Y-81534285D01*
X90734285Y-81248571D02*
X90762857Y-81220000D01*
X90791428Y-81248571D01*
X90762857Y-81277142D01*
X90734285Y-81248571D01*
X90791428Y-81248571D01*
X90477142Y-80762857D02*
X90477142Y-80962857D01*
X90791428Y-80962857D02*
X90191428Y-80962857D01*
X90191428Y-80677142D01*
X90791428Y-80162857D02*
X90791428Y-80448571D01*
X90191428Y-80448571D01*
X80602857Y-84420000D02*
X80631428Y-84334285D01*
X80631428Y-84191428D01*
X80602857Y-84134285D01*
X80574285Y-84105714D01*
X80517142Y-84077142D01*
X80460000Y-84077142D01*
X80402857Y-84105714D01*
X80374285Y-84134285D01*
X80345714Y-84191428D01*
X80317142Y-84305714D01*
X80288571Y-84362857D01*
X80260000Y-84391428D01*
X80202857Y-84420000D01*
X80145714Y-84420000D01*
X80088571Y-84391428D01*
X80060000Y-84362857D01*
X80031428Y-84305714D01*
X80031428Y-84162857D01*
X80060000Y-84077142D01*
X80631428Y-83820000D02*
X80031428Y-83820000D01*
X80460000Y-83620000D01*
X80031428Y-83420000D01*
X80631428Y-83420000D01*
X80460000Y-83162857D02*
X80460000Y-82877142D01*
X80631428Y-83220000D02*
X80031428Y-83020000D01*
X80631428Y-82820000D01*
X80402857Y-82620000D02*
X80402857Y-82162857D01*
X80031428Y-81877142D02*
X80517142Y-81877142D01*
X80574285Y-81848571D01*
X80602857Y-81820000D01*
X80631428Y-81762857D01*
X80631428Y-81648571D01*
X80602857Y-81591428D01*
X80574285Y-81562857D01*
X80517142Y-81534285D01*
X80031428Y-81534285D01*
X80574285Y-81248571D02*
X80602857Y-81220000D01*
X80631428Y-81248571D01*
X80602857Y-81277142D01*
X80574285Y-81248571D01*
X80631428Y-81248571D01*
X80317142Y-80762857D02*
X80317142Y-80962857D01*
X80631428Y-80962857D02*
X80031428Y-80962857D01*
X80031428Y-80677142D01*
X80631428Y-80162857D02*
X80631428Y-80448571D01*
X80031428Y-80448571D01*
X161882857Y-66640000D02*
X161911428Y-66554285D01*
X161911428Y-66411428D01*
X161882857Y-66354285D01*
X161854285Y-66325714D01*
X161797142Y-66297142D01*
X161740000Y-66297142D01*
X161682857Y-66325714D01*
X161654285Y-66354285D01*
X161625714Y-66411428D01*
X161597142Y-66525714D01*
X161568571Y-66582857D01*
X161540000Y-66611428D01*
X161482857Y-66640000D01*
X161425714Y-66640000D01*
X161368571Y-66611428D01*
X161340000Y-66582857D01*
X161311428Y-66525714D01*
X161311428Y-66382857D01*
X161340000Y-66297142D01*
X161911428Y-66040000D02*
X161311428Y-66040000D01*
X161740000Y-65840000D01*
X161311428Y-65640000D01*
X161911428Y-65640000D01*
X161740000Y-65382857D02*
X161740000Y-65097142D01*
X161911428Y-65440000D02*
X161311428Y-65240000D01*
X161911428Y-65040000D01*
X161682857Y-64840000D02*
X161682857Y-64382857D01*
X161311428Y-64097142D02*
X161797142Y-64097142D01*
X161854285Y-64068571D01*
X161882857Y-64040000D01*
X161911428Y-63982857D01*
X161911428Y-63868571D01*
X161882857Y-63811428D01*
X161854285Y-63782857D01*
X161797142Y-63754285D01*
X161311428Y-63754285D01*
X161854285Y-63468571D02*
X161882857Y-63440000D01*
X161911428Y-63468571D01*
X161882857Y-63497142D01*
X161854285Y-63468571D01*
X161911428Y-63468571D01*
X161597142Y-62982857D02*
X161597142Y-63182857D01*
X161911428Y-63182857D02*
X161311428Y-63182857D01*
X161311428Y-62897142D01*
X161911428Y-62382857D02*
X161911428Y-62668571D01*
X161311428Y-62668571D01*
X151722857Y-66640000D02*
X151751428Y-66554285D01*
X151751428Y-66411428D01*
X151722857Y-66354285D01*
X151694285Y-66325714D01*
X151637142Y-66297142D01*
X151580000Y-66297142D01*
X151522857Y-66325714D01*
X151494285Y-66354285D01*
X151465714Y-66411428D01*
X151437142Y-66525714D01*
X151408571Y-66582857D01*
X151380000Y-66611428D01*
X151322857Y-66640000D01*
X151265714Y-66640000D01*
X151208571Y-66611428D01*
X151180000Y-66582857D01*
X151151428Y-66525714D01*
X151151428Y-66382857D01*
X151180000Y-66297142D01*
X151751428Y-66040000D02*
X151151428Y-66040000D01*
X151580000Y-65840000D01*
X151151428Y-65640000D01*
X151751428Y-65640000D01*
X151580000Y-65382857D02*
X151580000Y-65097142D01*
X151751428Y-65440000D02*
X151151428Y-65240000D01*
X151751428Y-65040000D01*
X151522857Y-64840000D02*
X151522857Y-64382857D01*
X151151428Y-64097142D02*
X151637142Y-64097142D01*
X151694285Y-64068571D01*
X151722857Y-64040000D01*
X151751428Y-63982857D01*
X151751428Y-63868571D01*
X151722857Y-63811428D01*
X151694285Y-63782857D01*
X151637142Y-63754285D01*
X151151428Y-63754285D01*
X151694285Y-63468571D02*
X151722857Y-63440000D01*
X151751428Y-63468571D01*
X151722857Y-63497142D01*
X151694285Y-63468571D01*
X151751428Y-63468571D01*
X151437142Y-62982857D02*
X151437142Y-63182857D01*
X151751428Y-63182857D02*
X151151428Y-63182857D01*
X151151428Y-62897142D01*
X151751428Y-62382857D02*
X151751428Y-62668571D01*
X151151428Y-62668571D01*
X141562857Y-66640000D02*
X141591428Y-66554285D01*
X141591428Y-66411428D01*
X141562857Y-66354285D01*
X141534285Y-66325714D01*
X141477142Y-66297142D01*
X141420000Y-66297142D01*
X141362857Y-66325714D01*
X141334285Y-66354285D01*
X141305714Y-66411428D01*
X141277142Y-66525714D01*
X141248571Y-66582857D01*
X141220000Y-66611428D01*
X141162857Y-66640000D01*
X141105714Y-66640000D01*
X141048571Y-66611428D01*
X141020000Y-66582857D01*
X140991428Y-66525714D01*
X140991428Y-66382857D01*
X141020000Y-66297142D01*
X141591428Y-66040000D02*
X140991428Y-66040000D01*
X141420000Y-65840000D01*
X140991428Y-65640000D01*
X141591428Y-65640000D01*
X141420000Y-65382857D02*
X141420000Y-65097142D01*
X141591428Y-65440000D02*
X140991428Y-65240000D01*
X141591428Y-65040000D01*
X141362857Y-64840000D02*
X141362857Y-64382857D01*
X140991428Y-64097142D02*
X141477142Y-64097142D01*
X141534285Y-64068571D01*
X141562857Y-64040000D01*
X141591428Y-63982857D01*
X141591428Y-63868571D01*
X141562857Y-63811428D01*
X141534285Y-63782857D01*
X141477142Y-63754285D01*
X140991428Y-63754285D01*
X141534285Y-63468571D02*
X141562857Y-63440000D01*
X141591428Y-63468571D01*
X141562857Y-63497142D01*
X141534285Y-63468571D01*
X141591428Y-63468571D01*
X141277142Y-62982857D02*
X141277142Y-63182857D01*
X141591428Y-63182857D02*
X140991428Y-63182857D01*
X140991428Y-62897142D01*
X141591428Y-62382857D02*
X141591428Y-62668571D01*
X140991428Y-62668571D01*
X131402857Y-66640000D02*
X131431428Y-66554285D01*
X131431428Y-66411428D01*
X131402857Y-66354285D01*
X131374285Y-66325714D01*
X131317142Y-66297142D01*
X131260000Y-66297142D01*
X131202857Y-66325714D01*
X131174285Y-66354285D01*
X131145714Y-66411428D01*
X131117142Y-66525714D01*
X131088571Y-66582857D01*
X131060000Y-66611428D01*
X131002857Y-66640000D01*
X130945714Y-66640000D01*
X130888571Y-66611428D01*
X130860000Y-66582857D01*
X130831428Y-66525714D01*
X130831428Y-66382857D01*
X130860000Y-66297142D01*
X131431428Y-66040000D02*
X130831428Y-66040000D01*
X131260000Y-65840000D01*
X130831428Y-65640000D01*
X131431428Y-65640000D01*
X131260000Y-65382857D02*
X131260000Y-65097142D01*
X131431428Y-65440000D02*
X130831428Y-65240000D01*
X131431428Y-65040000D01*
X131202857Y-64840000D02*
X131202857Y-64382857D01*
X130831428Y-64097142D02*
X131317142Y-64097142D01*
X131374285Y-64068571D01*
X131402857Y-64040000D01*
X131431428Y-63982857D01*
X131431428Y-63868571D01*
X131402857Y-63811428D01*
X131374285Y-63782857D01*
X131317142Y-63754285D01*
X130831428Y-63754285D01*
X131374285Y-63468571D02*
X131402857Y-63440000D01*
X131431428Y-63468571D01*
X131402857Y-63497142D01*
X131374285Y-63468571D01*
X131431428Y-63468571D01*
X131117142Y-62982857D02*
X131117142Y-63182857D01*
X131431428Y-63182857D02*
X130831428Y-63182857D01*
X130831428Y-62897142D01*
X131431428Y-62382857D02*
X131431428Y-62668571D01*
X130831428Y-62668571D01*
X121242857Y-66640000D02*
X121271428Y-66554285D01*
X121271428Y-66411428D01*
X121242857Y-66354285D01*
X121214285Y-66325714D01*
X121157142Y-66297142D01*
X121100000Y-66297142D01*
X121042857Y-66325714D01*
X121014285Y-66354285D01*
X120985714Y-66411428D01*
X120957142Y-66525714D01*
X120928571Y-66582857D01*
X120900000Y-66611428D01*
X120842857Y-66640000D01*
X120785714Y-66640000D01*
X120728571Y-66611428D01*
X120700000Y-66582857D01*
X120671428Y-66525714D01*
X120671428Y-66382857D01*
X120700000Y-66297142D01*
X121271428Y-66040000D02*
X120671428Y-66040000D01*
X121100000Y-65840000D01*
X120671428Y-65640000D01*
X121271428Y-65640000D01*
X121100000Y-65382857D02*
X121100000Y-65097142D01*
X121271428Y-65440000D02*
X120671428Y-65240000D01*
X121271428Y-65040000D01*
X121042857Y-64840000D02*
X121042857Y-64382857D01*
X120671428Y-64097142D02*
X121157142Y-64097142D01*
X121214285Y-64068571D01*
X121242857Y-64040000D01*
X121271428Y-63982857D01*
X121271428Y-63868571D01*
X121242857Y-63811428D01*
X121214285Y-63782857D01*
X121157142Y-63754285D01*
X120671428Y-63754285D01*
X121214285Y-63468571D02*
X121242857Y-63440000D01*
X121271428Y-63468571D01*
X121242857Y-63497142D01*
X121214285Y-63468571D01*
X121271428Y-63468571D01*
X120957142Y-62982857D02*
X120957142Y-63182857D01*
X121271428Y-63182857D02*
X120671428Y-63182857D01*
X120671428Y-62897142D01*
X121271428Y-62382857D02*
X121271428Y-62668571D01*
X120671428Y-62668571D01*
X111082857Y-66640000D02*
X111111428Y-66554285D01*
X111111428Y-66411428D01*
X111082857Y-66354285D01*
X111054285Y-66325714D01*
X110997142Y-66297142D01*
X110940000Y-66297142D01*
X110882857Y-66325714D01*
X110854285Y-66354285D01*
X110825714Y-66411428D01*
X110797142Y-66525714D01*
X110768571Y-66582857D01*
X110740000Y-66611428D01*
X110682857Y-66640000D01*
X110625714Y-66640000D01*
X110568571Y-66611428D01*
X110540000Y-66582857D01*
X110511428Y-66525714D01*
X110511428Y-66382857D01*
X110540000Y-66297142D01*
X111111428Y-66040000D02*
X110511428Y-66040000D01*
X110940000Y-65840000D01*
X110511428Y-65640000D01*
X111111428Y-65640000D01*
X110940000Y-65382857D02*
X110940000Y-65097142D01*
X111111428Y-65440000D02*
X110511428Y-65240000D01*
X111111428Y-65040000D01*
X110882857Y-64840000D02*
X110882857Y-64382857D01*
X110511428Y-64097142D02*
X110997142Y-64097142D01*
X111054285Y-64068571D01*
X111082857Y-64040000D01*
X111111428Y-63982857D01*
X111111428Y-63868571D01*
X111082857Y-63811428D01*
X111054285Y-63782857D01*
X110997142Y-63754285D01*
X110511428Y-63754285D01*
X111054285Y-63468571D02*
X111082857Y-63440000D01*
X111111428Y-63468571D01*
X111082857Y-63497142D01*
X111054285Y-63468571D01*
X111111428Y-63468571D01*
X110797142Y-62982857D02*
X110797142Y-63182857D01*
X111111428Y-63182857D02*
X110511428Y-63182857D01*
X110511428Y-62897142D01*
X111111428Y-62382857D02*
X111111428Y-62668571D01*
X110511428Y-62668571D01*
X100922857Y-66640000D02*
X100951428Y-66554285D01*
X100951428Y-66411428D01*
X100922857Y-66354285D01*
X100894285Y-66325714D01*
X100837142Y-66297142D01*
X100780000Y-66297142D01*
X100722857Y-66325714D01*
X100694285Y-66354285D01*
X100665714Y-66411428D01*
X100637142Y-66525714D01*
X100608571Y-66582857D01*
X100580000Y-66611428D01*
X100522857Y-66640000D01*
X100465714Y-66640000D01*
X100408571Y-66611428D01*
X100380000Y-66582857D01*
X100351428Y-66525714D01*
X100351428Y-66382857D01*
X100380000Y-66297142D01*
X100951428Y-66040000D02*
X100351428Y-66040000D01*
X100780000Y-65840000D01*
X100351428Y-65640000D01*
X100951428Y-65640000D01*
X100780000Y-65382857D02*
X100780000Y-65097142D01*
X100951428Y-65440000D02*
X100351428Y-65240000D01*
X100951428Y-65040000D01*
X100722857Y-64840000D02*
X100722857Y-64382857D01*
X100351428Y-64097142D02*
X100837142Y-64097142D01*
X100894285Y-64068571D01*
X100922857Y-64040000D01*
X100951428Y-63982857D01*
X100951428Y-63868571D01*
X100922857Y-63811428D01*
X100894285Y-63782857D01*
X100837142Y-63754285D01*
X100351428Y-63754285D01*
X100894285Y-63468571D02*
X100922857Y-63440000D01*
X100951428Y-63468571D01*
X100922857Y-63497142D01*
X100894285Y-63468571D01*
X100951428Y-63468571D01*
X100637142Y-62982857D02*
X100637142Y-63182857D01*
X100951428Y-63182857D02*
X100351428Y-63182857D01*
X100351428Y-62897142D01*
X100951428Y-62382857D02*
X100951428Y-62668571D01*
X100351428Y-62668571D01*
X90762857Y-66640000D02*
X90791428Y-66554285D01*
X90791428Y-66411428D01*
X90762857Y-66354285D01*
X90734285Y-66325714D01*
X90677142Y-66297142D01*
X90620000Y-66297142D01*
X90562857Y-66325714D01*
X90534285Y-66354285D01*
X90505714Y-66411428D01*
X90477142Y-66525714D01*
X90448571Y-66582857D01*
X90420000Y-66611428D01*
X90362857Y-66640000D01*
X90305714Y-66640000D01*
X90248571Y-66611428D01*
X90220000Y-66582857D01*
X90191428Y-66525714D01*
X90191428Y-66382857D01*
X90220000Y-66297142D01*
X90791428Y-66040000D02*
X90191428Y-66040000D01*
X90620000Y-65840000D01*
X90191428Y-65640000D01*
X90791428Y-65640000D01*
X90620000Y-65382857D02*
X90620000Y-65097142D01*
X90791428Y-65440000D02*
X90191428Y-65240000D01*
X90791428Y-65040000D01*
X90562857Y-64840000D02*
X90562857Y-64382857D01*
X90191428Y-64097142D02*
X90677142Y-64097142D01*
X90734285Y-64068571D01*
X90762857Y-64040000D01*
X90791428Y-63982857D01*
X90791428Y-63868571D01*
X90762857Y-63811428D01*
X90734285Y-63782857D01*
X90677142Y-63754285D01*
X90191428Y-63754285D01*
X90734285Y-63468571D02*
X90762857Y-63440000D01*
X90791428Y-63468571D01*
X90762857Y-63497142D01*
X90734285Y-63468571D01*
X90791428Y-63468571D01*
X90477142Y-62982857D02*
X90477142Y-63182857D01*
X90791428Y-63182857D02*
X90191428Y-63182857D01*
X90191428Y-62897142D01*
X90791428Y-62382857D02*
X90791428Y-62668571D01*
X90191428Y-62668571D01*
X80602857Y-66640000D02*
X80631428Y-66554285D01*
X80631428Y-66411428D01*
X80602857Y-66354285D01*
X80574285Y-66325714D01*
X80517142Y-66297142D01*
X80460000Y-66297142D01*
X80402857Y-66325714D01*
X80374285Y-66354285D01*
X80345714Y-66411428D01*
X80317142Y-66525714D01*
X80288571Y-66582857D01*
X80260000Y-66611428D01*
X80202857Y-66640000D01*
X80145714Y-66640000D01*
X80088571Y-66611428D01*
X80060000Y-66582857D01*
X80031428Y-66525714D01*
X80031428Y-66382857D01*
X80060000Y-66297142D01*
X80631428Y-66040000D02*
X80031428Y-66040000D01*
X80460000Y-65840000D01*
X80031428Y-65640000D01*
X80631428Y-65640000D01*
X80460000Y-65382857D02*
X80460000Y-65097142D01*
X80631428Y-65440000D02*
X80031428Y-65240000D01*
X80631428Y-65040000D01*
X80402857Y-64840000D02*
X80402857Y-64382857D01*
X80031428Y-64097142D02*
X80517142Y-64097142D01*
X80574285Y-64068571D01*
X80602857Y-64040000D01*
X80631428Y-63982857D01*
X80631428Y-63868571D01*
X80602857Y-63811428D01*
X80574285Y-63782857D01*
X80517142Y-63754285D01*
X80031428Y-63754285D01*
X80574285Y-63468571D02*
X80602857Y-63440000D01*
X80631428Y-63468571D01*
X80602857Y-63497142D01*
X80574285Y-63468571D01*
X80631428Y-63468571D01*
X80317142Y-62982857D02*
X80317142Y-63182857D01*
X80631428Y-63182857D02*
X80031428Y-63182857D01*
X80031428Y-62897142D01*
X80631428Y-62382857D02*
X80631428Y-62668571D01*
X80031428Y-62668571D01*
%TO.C,J90*%
X153030476Y-131462380D02*
X153030476Y-132176666D01*
X152982857Y-132319523D01*
X152887619Y-132414761D01*
X152744761Y-132462380D01*
X152649523Y-132462380D01*
X153554285Y-132462380D02*
X153744761Y-132462380D01*
X153840000Y-132414761D01*
X153887619Y-132367142D01*
X153982857Y-132224285D01*
X154030476Y-132033809D01*
X154030476Y-131652857D01*
X153982857Y-131557619D01*
X153935238Y-131510000D01*
X153840000Y-131462380D01*
X153649523Y-131462380D01*
X153554285Y-131510000D01*
X153506666Y-131557619D01*
X153459047Y-131652857D01*
X153459047Y-131890952D01*
X153506666Y-131986190D01*
X153554285Y-132033809D01*
X153649523Y-132081428D01*
X153840000Y-132081428D01*
X153935238Y-132033809D01*
X153982857Y-131986190D01*
X154030476Y-131890952D01*
X154649523Y-131462380D02*
X154744761Y-131462380D01*
X154840000Y-131510000D01*
X154887619Y-131557619D01*
X154935238Y-131652857D01*
X154982857Y-131843333D01*
X154982857Y-132081428D01*
X154935238Y-132271904D01*
X154887619Y-132367142D01*
X154840000Y-132414761D01*
X154744761Y-132462380D01*
X154649523Y-132462380D01*
X154554285Y-132414761D01*
X154506666Y-132367142D01*
X154459047Y-132271904D01*
X154411428Y-132081428D01*
X154411428Y-131843333D01*
X154459047Y-131652857D01*
X154506666Y-131557619D01*
X154554285Y-131510000D01*
X154649523Y-131462380D01*
%TO.C,J89*%
X153030476Y-136412380D02*
X153030476Y-137126666D01*
X152982857Y-137269523D01*
X152887619Y-137364761D01*
X152744761Y-137412380D01*
X152649523Y-137412380D01*
X153649523Y-136840952D02*
X153554285Y-136793333D01*
X153506666Y-136745714D01*
X153459047Y-136650476D01*
X153459047Y-136602857D01*
X153506666Y-136507619D01*
X153554285Y-136460000D01*
X153649523Y-136412380D01*
X153840000Y-136412380D01*
X153935238Y-136460000D01*
X153982857Y-136507619D01*
X154030476Y-136602857D01*
X154030476Y-136650476D01*
X153982857Y-136745714D01*
X153935238Y-136793333D01*
X153840000Y-136840952D01*
X153649523Y-136840952D01*
X153554285Y-136888571D01*
X153506666Y-136936190D01*
X153459047Y-137031428D01*
X153459047Y-137221904D01*
X153506666Y-137317142D01*
X153554285Y-137364761D01*
X153649523Y-137412380D01*
X153840000Y-137412380D01*
X153935238Y-137364761D01*
X153982857Y-137317142D01*
X154030476Y-137221904D01*
X154030476Y-137031428D01*
X153982857Y-136936190D01*
X153935238Y-136888571D01*
X153840000Y-136840952D01*
X154506666Y-137412380D02*
X154697142Y-137412380D01*
X154792380Y-137364761D01*
X154840000Y-137317142D01*
X154935238Y-137174285D01*
X154982857Y-136983809D01*
X154982857Y-136602857D01*
X154935238Y-136507619D01*
X154887619Y-136460000D01*
X154792380Y-136412380D01*
X154601904Y-136412380D01*
X154506666Y-136460000D01*
X154459047Y-136507619D01*
X154411428Y-136602857D01*
X154411428Y-136840952D01*
X154459047Y-136936190D01*
X154506666Y-136983809D01*
X154601904Y-137031428D01*
X154792380Y-137031428D01*
X154887619Y-136983809D01*
X154935238Y-136936190D01*
X154982857Y-136840952D01*
%TO.C,J88*%
X142870476Y-131462380D02*
X142870476Y-132176666D01*
X142822857Y-132319523D01*
X142727619Y-132414761D01*
X142584761Y-132462380D01*
X142489523Y-132462380D01*
X143489523Y-131890952D02*
X143394285Y-131843333D01*
X143346666Y-131795714D01*
X143299047Y-131700476D01*
X143299047Y-131652857D01*
X143346666Y-131557619D01*
X143394285Y-131510000D01*
X143489523Y-131462380D01*
X143680000Y-131462380D01*
X143775238Y-131510000D01*
X143822857Y-131557619D01*
X143870476Y-131652857D01*
X143870476Y-131700476D01*
X143822857Y-131795714D01*
X143775238Y-131843333D01*
X143680000Y-131890952D01*
X143489523Y-131890952D01*
X143394285Y-131938571D01*
X143346666Y-131986190D01*
X143299047Y-132081428D01*
X143299047Y-132271904D01*
X143346666Y-132367142D01*
X143394285Y-132414761D01*
X143489523Y-132462380D01*
X143680000Y-132462380D01*
X143775238Y-132414761D01*
X143822857Y-132367142D01*
X143870476Y-132271904D01*
X143870476Y-132081428D01*
X143822857Y-131986190D01*
X143775238Y-131938571D01*
X143680000Y-131890952D01*
X144441904Y-131890952D02*
X144346666Y-131843333D01*
X144299047Y-131795714D01*
X144251428Y-131700476D01*
X144251428Y-131652857D01*
X144299047Y-131557619D01*
X144346666Y-131510000D01*
X144441904Y-131462380D01*
X144632380Y-131462380D01*
X144727619Y-131510000D01*
X144775238Y-131557619D01*
X144822857Y-131652857D01*
X144822857Y-131700476D01*
X144775238Y-131795714D01*
X144727619Y-131843333D01*
X144632380Y-131890952D01*
X144441904Y-131890952D01*
X144346666Y-131938571D01*
X144299047Y-131986190D01*
X144251428Y-132081428D01*
X144251428Y-132271904D01*
X144299047Y-132367142D01*
X144346666Y-132414761D01*
X144441904Y-132462380D01*
X144632380Y-132462380D01*
X144727619Y-132414761D01*
X144775238Y-132367142D01*
X144822857Y-132271904D01*
X144822857Y-132081428D01*
X144775238Y-131986190D01*
X144727619Y-131938571D01*
X144632380Y-131890952D01*
%TO.C,J87*%
X142870476Y-136412380D02*
X142870476Y-137126666D01*
X142822857Y-137269523D01*
X142727619Y-137364761D01*
X142584761Y-137412380D01*
X142489523Y-137412380D01*
X143489523Y-136840952D02*
X143394285Y-136793333D01*
X143346666Y-136745714D01*
X143299047Y-136650476D01*
X143299047Y-136602857D01*
X143346666Y-136507619D01*
X143394285Y-136460000D01*
X143489523Y-136412380D01*
X143680000Y-136412380D01*
X143775238Y-136460000D01*
X143822857Y-136507619D01*
X143870476Y-136602857D01*
X143870476Y-136650476D01*
X143822857Y-136745714D01*
X143775238Y-136793333D01*
X143680000Y-136840952D01*
X143489523Y-136840952D01*
X143394285Y-136888571D01*
X143346666Y-136936190D01*
X143299047Y-137031428D01*
X143299047Y-137221904D01*
X143346666Y-137317142D01*
X143394285Y-137364761D01*
X143489523Y-137412380D01*
X143680000Y-137412380D01*
X143775238Y-137364761D01*
X143822857Y-137317142D01*
X143870476Y-137221904D01*
X143870476Y-137031428D01*
X143822857Y-136936190D01*
X143775238Y-136888571D01*
X143680000Y-136840952D01*
X144203809Y-136412380D02*
X144870476Y-136412380D01*
X144441904Y-137412380D01*
%TO.C,J86*%
X132710476Y-131462380D02*
X132710476Y-132176666D01*
X132662857Y-132319523D01*
X132567619Y-132414761D01*
X132424761Y-132462380D01*
X132329523Y-132462380D01*
X133329523Y-131890952D02*
X133234285Y-131843333D01*
X133186666Y-131795714D01*
X133139047Y-131700476D01*
X133139047Y-131652857D01*
X133186666Y-131557619D01*
X133234285Y-131510000D01*
X133329523Y-131462380D01*
X133520000Y-131462380D01*
X133615238Y-131510000D01*
X133662857Y-131557619D01*
X133710476Y-131652857D01*
X133710476Y-131700476D01*
X133662857Y-131795714D01*
X133615238Y-131843333D01*
X133520000Y-131890952D01*
X133329523Y-131890952D01*
X133234285Y-131938571D01*
X133186666Y-131986190D01*
X133139047Y-132081428D01*
X133139047Y-132271904D01*
X133186666Y-132367142D01*
X133234285Y-132414761D01*
X133329523Y-132462380D01*
X133520000Y-132462380D01*
X133615238Y-132414761D01*
X133662857Y-132367142D01*
X133710476Y-132271904D01*
X133710476Y-132081428D01*
X133662857Y-131986190D01*
X133615238Y-131938571D01*
X133520000Y-131890952D01*
X134567619Y-131462380D02*
X134377142Y-131462380D01*
X134281904Y-131510000D01*
X134234285Y-131557619D01*
X134139047Y-131700476D01*
X134091428Y-131890952D01*
X134091428Y-132271904D01*
X134139047Y-132367142D01*
X134186666Y-132414761D01*
X134281904Y-132462380D01*
X134472380Y-132462380D01*
X134567619Y-132414761D01*
X134615238Y-132367142D01*
X134662857Y-132271904D01*
X134662857Y-132033809D01*
X134615238Y-131938571D01*
X134567619Y-131890952D01*
X134472380Y-131843333D01*
X134281904Y-131843333D01*
X134186666Y-131890952D01*
X134139047Y-131938571D01*
X134091428Y-132033809D01*
%TO.C,J85*%
X132710476Y-136412380D02*
X132710476Y-137126666D01*
X132662857Y-137269523D01*
X132567619Y-137364761D01*
X132424761Y-137412380D01*
X132329523Y-137412380D01*
X133329523Y-136840952D02*
X133234285Y-136793333D01*
X133186666Y-136745714D01*
X133139047Y-136650476D01*
X133139047Y-136602857D01*
X133186666Y-136507619D01*
X133234285Y-136460000D01*
X133329523Y-136412380D01*
X133520000Y-136412380D01*
X133615238Y-136460000D01*
X133662857Y-136507619D01*
X133710476Y-136602857D01*
X133710476Y-136650476D01*
X133662857Y-136745714D01*
X133615238Y-136793333D01*
X133520000Y-136840952D01*
X133329523Y-136840952D01*
X133234285Y-136888571D01*
X133186666Y-136936190D01*
X133139047Y-137031428D01*
X133139047Y-137221904D01*
X133186666Y-137317142D01*
X133234285Y-137364761D01*
X133329523Y-137412380D01*
X133520000Y-137412380D01*
X133615238Y-137364761D01*
X133662857Y-137317142D01*
X133710476Y-137221904D01*
X133710476Y-137031428D01*
X133662857Y-136936190D01*
X133615238Y-136888571D01*
X133520000Y-136840952D01*
X134615238Y-136412380D02*
X134139047Y-136412380D01*
X134091428Y-136888571D01*
X134139047Y-136840952D01*
X134234285Y-136793333D01*
X134472380Y-136793333D01*
X134567619Y-136840952D01*
X134615238Y-136888571D01*
X134662857Y-136983809D01*
X134662857Y-137221904D01*
X134615238Y-137317142D01*
X134567619Y-137364761D01*
X134472380Y-137412380D01*
X134234285Y-137412380D01*
X134139047Y-137364761D01*
X134091428Y-137317142D01*
%TO.C,J84*%
X122550476Y-131462380D02*
X122550476Y-132176666D01*
X122502857Y-132319523D01*
X122407619Y-132414761D01*
X122264761Y-132462380D01*
X122169523Y-132462380D01*
X123169523Y-131890952D02*
X123074285Y-131843333D01*
X123026666Y-131795714D01*
X122979047Y-131700476D01*
X122979047Y-131652857D01*
X123026666Y-131557619D01*
X123074285Y-131510000D01*
X123169523Y-131462380D01*
X123360000Y-131462380D01*
X123455238Y-131510000D01*
X123502857Y-131557619D01*
X123550476Y-131652857D01*
X123550476Y-131700476D01*
X123502857Y-131795714D01*
X123455238Y-131843333D01*
X123360000Y-131890952D01*
X123169523Y-131890952D01*
X123074285Y-131938571D01*
X123026666Y-131986190D01*
X122979047Y-132081428D01*
X122979047Y-132271904D01*
X123026666Y-132367142D01*
X123074285Y-132414761D01*
X123169523Y-132462380D01*
X123360000Y-132462380D01*
X123455238Y-132414761D01*
X123502857Y-132367142D01*
X123550476Y-132271904D01*
X123550476Y-132081428D01*
X123502857Y-131986190D01*
X123455238Y-131938571D01*
X123360000Y-131890952D01*
X124407619Y-131795714D02*
X124407619Y-132462380D01*
X124169523Y-131414761D02*
X123931428Y-132129047D01*
X124550476Y-132129047D01*
%TO.C,J83*%
X122550476Y-136412380D02*
X122550476Y-137126666D01*
X122502857Y-137269523D01*
X122407619Y-137364761D01*
X122264761Y-137412380D01*
X122169523Y-137412380D01*
X123169523Y-136840952D02*
X123074285Y-136793333D01*
X123026666Y-136745714D01*
X122979047Y-136650476D01*
X122979047Y-136602857D01*
X123026666Y-136507619D01*
X123074285Y-136460000D01*
X123169523Y-136412380D01*
X123360000Y-136412380D01*
X123455238Y-136460000D01*
X123502857Y-136507619D01*
X123550476Y-136602857D01*
X123550476Y-136650476D01*
X123502857Y-136745714D01*
X123455238Y-136793333D01*
X123360000Y-136840952D01*
X123169523Y-136840952D01*
X123074285Y-136888571D01*
X123026666Y-136936190D01*
X122979047Y-137031428D01*
X122979047Y-137221904D01*
X123026666Y-137317142D01*
X123074285Y-137364761D01*
X123169523Y-137412380D01*
X123360000Y-137412380D01*
X123455238Y-137364761D01*
X123502857Y-137317142D01*
X123550476Y-137221904D01*
X123550476Y-137031428D01*
X123502857Y-136936190D01*
X123455238Y-136888571D01*
X123360000Y-136840952D01*
X123883809Y-136412380D02*
X124502857Y-136412380D01*
X124169523Y-136793333D01*
X124312380Y-136793333D01*
X124407619Y-136840952D01*
X124455238Y-136888571D01*
X124502857Y-136983809D01*
X124502857Y-137221904D01*
X124455238Y-137317142D01*
X124407619Y-137364761D01*
X124312380Y-137412380D01*
X124026666Y-137412380D01*
X123931428Y-137364761D01*
X123883809Y-137317142D01*
%TO.C,J82*%
X112390476Y-131462380D02*
X112390476Y-132176666D01*
X112342857Y-132319523D01*
X112247619Y-132414761D01*
X112104761Y-132462380D01*
X112009523Y-132462380D01*
X113009523Y-131890952D02*
X112914285Y-131843333D01*
X112866666Y-131795714D01*
X112819047Y-131700476D01*
X112819047Y-131652857D01*
X112866666Y-131557619D01*
X112914285Y-131510000D01*
X113009523Y-131462380D01*
X113200000Y-131462380D01*
X113295238Y-131510000D01*
X113342857Y-131557619D01*
X113390476Y-131652857D01*
X113390476Y-131700476D01*
X113342857Y-131795714D01*
X113295238Y-131843333D01*
X113200000Y-131890952D01*
X113009523Y-131890952D01*
X112914285Y-131938571D01*
X112866666Y-131986190D01*
X112819047Y-132081428D01*
X112819047Y-132271904D01*
X112866666Y-132367142D01*
X112914285Y-132414761D01*
X113009523Y-132462380D01*
X113200000Y-132462380D01*
X113295238Y-132414761D01*
X113342857Y-132367142D01*
X113390476Y-132271904D01*
X113390476Y-132081428D01*
X113342857Y-131986190D01*
X113295238Y-131938571D01*
X113200000Y-131890952D01*
X113771428Y-131557619D02*
X113819047Y-131510000D01*
X113914285Y-131462380D01*
X114152380Y-131462380D01*
X114247619Y-131510000D01*
X114295238Y-131557619D01*
X114342857Y-131652857D01*
X114342857Y-131748095D01*
X114295238Y-131890952D01*
X113723809Y-132462380D01*
X114342857Y-132462380D01*
%TO.C,J81*%
X112390476Y-136412380D02*
X112390476Y-137126666D01*
X112342857Y-137269523D01*
X112247619Y-137364761D01*
X112104761Y-137412380D01*
X112009523Y-137412380D01*
X113009523Y-136840952D02*
X112914285Y-136793333D01*
X112866666Y-136745714D01*
X112819047Y-136650476D01*
X112819047Y-136602857D01*
X112866666Y-136507619D01*
X112914285Y-136460000D01*
X113009523Y-136412380D01*
X113200000Y-136412380D01*
X113295238Y-136460000D01*
X113342857Y-136507619D01*
X113390476Y-136602857D01*
X113390476Y-136650476D01*
X113342857Y-136745714D01*
X113295238Y-136793333D01*
X113200000Y-136840952D01*
X113009523Y-136840952D01*
X112914285Y-136888571D01*
X112866666Y-136936190D01*
X112819047Y-137031428D01*
X112819047Y-137221904D01*
X112866666Y-137317142D01*
X112914285Y-137364761D01*
X113009523Y-137412380D01*
X113200000Y-137412380D01*
X113295238Y-137364761D01*
X113342857Y-137317142D01*
X113390476Y-137221904D01*
X113390476Y-137031428D01*
X113342857Y-136936190D01*
X113295238Y-136888571D01*
X113200000Y-136840952D01*
X114342857Y-137412380D02*
X113771428Y-137412380D01*
X114057142Y-137412380D02*
X114057142Y-136412380D01*
X113961904Y-136555238D01*
X113866666Y-136650476D01*
X113771428Y-136698095D01*
%TO.C,J80*%
X102230476Y-131462380D02*
X102230476Y-132176666D01*
X102182857Y-132319523D01*
X102087619Y-132414761D01*
X101944761Y-132462380D01*
X101849523Y-132462380D01*
X102849523Y-131890952D02*
X102754285Y-131843333D01*
X102706666Y-131795714D01*
X102659047Y-131700476D01*
X102659047Y-131652857D01*
X102706666Y-131557619D01*
X102754285Y-131510000D01*
X102849523Y-131462380D01*
X103040000Y-131462380D01*
X103135238Y-131510000D01*
X103182857Y-131557619D01*
X103230476Y-131652857D01*
X103230476Y-131700476D01*
X103182857Y-131795714D01*
X103135238Y-131843333D01*
X103040000Y-131890952D01*
X102849523Y-131890952D01*
X102754285Y-131938571D01*
X102706666Y-131986190D01*
X102659047Y-132081428D01*
X102659047Y-132271904D01*
X102706666Y-132367142D01*
X102754285Y-132414761D01*
X102849523Y-132462380D01*
X103040000Y-132462380D01*
X103135238Y-132414761D01*
X103182857Y-132367142D01*
X103230476Y-132271904D01*
X103230476Y-132081428D01*
X103182857Y-131986190D01*
X103135238Y-131938571D01*
X103040000Y-131890952D01*
X103849523Y-131462380D02*
X103944761Y-131462380D01*
X104040000Y-131510000D01*
X104087619Y-131557619D01*
X104135238Y-131652857D01*
X104182857Y-131843333D01*
X104182857Y-132081428D01*
X104135238Y-132271904D01*
X104087619Y-132367142D01*
X104040000Y-132414761D01*
X103944761Y-132462380D01*
X103849523Y-132462380D01*
X103754285Y-132414761D01*
X103706666Y-132367142D01*
X103659047Y-132271904D01*
X103611428Y-132081428D01*
X103611428Y-131843333D01*
X103659047Y-131652857D01*
X103706666Y-131557619D01*
X103754285Y-131510000D01*
X103849523Y-131462380D01*
%TO.C,J79*%
X102230476Y-136412380D02*
X102230476Y-137126666D01*
X102182857Y-137269523D01*
X102087619Y-137364761D01*
X101944761Y-137412380D01*
X101849523Y-137412380D01*
X102611428Y-136412380D02*
X103278095Y-136412380D01*
X102849523Y-137412380D01*
X103706666Y-137412380D02*
X103897142Y-137412380D01*
X103992380Y-137364761D01*
X104040000Y-137317142D01*
X104135238Y-137174285D01*
X104182857Y-136983809D01*
X104182857Y-136602857D01*
X104135238Y-136507619D01*
X104087619Y-136460000D01*
X103992380Y-136412380D01*
X103801904Y-136412380D01*
X103706666Y-136460000D01*
X103659047Y-136507619D01*
X103611428Y-136602857D01*
X103611428Y-136840952D01*
X103659047Y-136936190D01*
X103706666Y-136983809D01*
X103801904Y-137031428D01*
X103992380Y-137031428D01*
X104087619Y-136983809D01*
X104135238Y-136936190D01*
X104182857Y-136840952D01*
%TO.C,J78*%
X92070476Y-131462380D02*
X92070476Y-132176666D01*
X92022857Y-132319523D01*
X91927619Y-132414761D01*
X91784761Y-132462380D01*
X91689523Y-132462380D01*
X92451428Y-131462380D02*
X93118095Y-131462380D01*
X92689523Y-132462380D01*
X93641904Y-131890952D02*
X93546666Y-131843333D01*
X93499047Y-131795714D01*
X93451428Y-131700476D01*
X93451428Y-131652857D01*
X93499047Y-131557619D01*
X93546666Y-131510000D01*
X93641904Y-131462380D01*
X93832380Y-131462380D01*
X93927619Y-131510000D01*
X93975238Y-131557619D01*
X94022857Y-131652857D01*
X94022857Y-131700476D01*
X93975238Y-131795714D01*
X93927619Y-131843333D01*
X93832380Y-131890952D01*
X93641904Y-131890952D01*
X93546666Y-131938571D01*
X93499047Y-131986190D01*
X93451428Y-132081428D01*
X93451428Y-132271904D01*
X93499047Y-132367142D01*
X93546666Y-132414761D01*
X93641904Y-132462380D01*
X93832380Y-132462380D01*
X93927619Y-132414761D01*
X93975238Y-132367142D01*
X94022857Y-132271904D01*
X94022857Y-132081428D01*
X93975238Y-131986190D01*
X93927619Y-131938571D01*
X93832380Y-131890952D01*
%TO.C,J77*%
X92070476Y-136412380D02*
X92070476Y-137126666D01*
X92022857Y-137269523D01*
X91927619Y-137364761D01*
X91784761Y-137412380D01*
X91689523Y-137412380D01*
X92451428Y-136412380D02*
X93118095Y-136412380D01*
X92689523Y-137412380D01*
X93403809Y-136412380D02*
X94070476Y-136412380D01*
X93641904Y-137412380D01*
%TO.C,J76*%
X81910476Y-131462380D02*
X81910476Y-132176666D01*
X81862857Y-132319523D01*
X81767619Y-132414761D01*
X81624761Y-132462380D01*
X81529523Y-132462380D01*
X82291428Y-131462380D02*
X82958095Y-131462380D01*
X82529523Y-132462380D01*
X83767619Y-131462380D02*
X83577142Y-131462380D01*
X83481904Y-131510000D01*
X83434285Y-131557619D01*
X83339047Y-131700476D01*
X83291428Y-131890952D01*
X83291428Y-132271904D01*
X83339047Y-132367142D01*
X83386666Y-132414761D01*
X83481904Y-132462380D01*
X83672380Y-132462380D01*
X83767619Y-132414761D01*
X83815238Y-132367142D01*
X83862857Y-132271904D01*
X83862857Y-132033809D01*
X83815238Y-131938571D01*
X83767619Y-131890952D01*
X83672380Y-131843333D01*
X83481904Y-131843333D01*
X83386666Y-131890952D01*
X83339047Y-131938571D01*
X83291428Y-132033809D01*
%TO.C,J75*%
X81910476Y-136412380D02*
X81910476Y-137126666D01*
X81862857Y-137269523D01*
X81767619Y-137364761D01*
X81624761Y-137412380D01*
X81529523Y-137412380D01*
X82291428Y-136412380D02*
X82958095Y-136412380D01*
X82529523Y-137412380D01*
X83815238Y-136412380D02*
X83339047Y-136412380D01*
X83291428Y-136888571D01*
X83339047Y-136840952D01*
X83434285Y-136793333D01*
X83672380Y-136793333D01*
X83767619Y-136840952D01*
X83815238Y-136888571D01*
X83862857Y-136983809D01*
X83862857Y-137221904D01*
X83815238Y-137317142D01*
X83767619Y-137364761D01*
X83672380Y-137412380D01*
X83434285Y-137412380D01*
X83339047Y-137364761D01*
X83291428Y-137317142D01*
%TO.C,J74*%
X71750476Y-131462380D02*
X71750476Y-132176666D01*
X71702857Y-132319523D01*
X71607619Y-132414761D01*
X71464761Y-132462380D01*
X71369523Y-132462380D01*
X72131428Y-131462380D02*
X72798095Y-131462380D01*
X72369523Y-132462380D01*
X73607619Y-131795714D02*
X73607619Y-132462380D01*
X73369523Y-131414761D02*
X73131428Y-132129047D01*
X73750476Y-132129047D01*
%TO.C,J73*%
X71750476Y-136412380D02*
X71750476Y-137126666D01*
X71702857Y-137269523D01*
X71607619Y-137364761D01*
X71464761Y-137412380D01*
X71369523Y-137412380D01*
X72131428Y-136412380D02*
X72798095Y-136412380D01*
X72369523Y-137412380D01*
X73083809Y-136412380D02*
X73702857Y-136412380D01*
X73369523Y-136793333D01*
X73512380Y-136793333D01*
X73607619Y-136840952D01*
X73655238Y-136888571D01*
X73702857Y-136983809D01*
X73702857Y-137221904D01*
X73655238Y-137317142D01*
X73607619Y-137364761D01*
X73512380Y-137412380D01*
X73226666Y-137412380D01*
X73131428Y-137364761D01*
X73083809Y-137317142D01*
%TO.C,J72*%
X153030476Y-113682380D02*
X153030476Y-114396666D01*
X152982857Y-114539523D01*
X152887619Y-114634761D01*
X152744761Y-114682380D01*
X152649523Y-114682380D01*
X153411428Y-113682380D02*
X154078095Y-113682380D01*
X153649523Y-114682380D01*
X154411428Y-113777619D02*
X154459047Y-113730000D01*
X154554285Y-113682380D01*
X154792380Y-113682380D01*
X154887619Y-113730000D01*
X154935238Y-113777619D01*
X154982857Y-113872857D01*
X154982857Y-113968095D01*
X154935238Y-114110952D01*
X154363809Y-114682380D01*
X154982857Y-114682380D01*
%TO.C,J71*%
X153030476Y-118632380D02*
X153030476Y-119346666D01*
X152982857Y-119489523D01*
X152887619Y-119584761D01*
X152744761Y-119632380D01*
X152649523Y-119632380D01*
X153411428Y-118632380D02*
X154078095Y-118632380D01*
X153649523Y-119632380D01*
X154982857Y-119632380D02*
X154411428Y-119632380D01*
X154697142Y-119632380D02*
X154697142Y-118632380D01*
X154601904Y-118775238D01*
X154506666Y-118870476D01*
X154411428Y-118918095D01*
%TO.C,J70*%
X142870476Y-113682380D02*
X142870476Y-114396666D01*
X142822857Y-114539523D01*
X142727619Y-114634761D01*
X142584761Y-114682380D01*
X142489523Y-114682380D01*
X143251428Y-113682380D02*
X143918095Y-113682380D01*
X143489523Y-114682380D01*
X144489523Y-113682380D02*
X144584761Y-113682380D01*
X144680000Y-113730000D01*
X144727619Y-113777619D01*
X144775238Y-113872857D01*
X144822857Y-114063333D01*
X144822857Y-114301428D01*
X144775238Y-114491904D01*
X144727619Y-114587142D01*
X144680000Y-114634761D01*
X144584761Y-114682380D01*
X144489523Y-114682380D01*
X144394285Y-114634761D01*
X144346666Y-114587142D01*
X144299047Y-114491904D01*
X144251428Y-114301428D01*
X144251428Y-114063333D01*
X144299047Y-113872857D01*
X144346666Y-113777619D01*
X144394285Y-113730000D01*
X144489523Y-113682380D01*
%TO.C,J69*%
X142870476Y-118632380D02*
X142870476Y-119346666D01*
X142822857Y-119489523D01*
X142727619Y-119584761D01*
X142584761Y-119632380D01*
X142489523Y-119632380D01*
X143775238Y-118632380D02*
X143584761Y-118632380D01*
X143489523Y-118680000D01*
X143441904Y-118727619D01*
X143346666Y-118870476D01*
X143299047Y-119060952D01*
X143299047Y-119441904D01*
X143346666Y-119537142D01*
X143394285Y-119584761D01*
X143489523Y-119632380D01*
X143680000Y-119632380D01*
X143775238Y-119584761D01*
X143822857Y-119537142D01*
X143870476Y-119441904D01*
X143870476Y-119203809D01*
X143822857Y-119108571D01*
X143775238Y-119060952D01*
X143680000Y-119013333D01*
X143489523Y-119013333D01*
X143394285Y-119060952D01*
X143346666Y-119108571D01*
X143299047Y-119203809D01*
X144346666Y-119632380D02*
X144537142Y-119632380D01*
X144632380Y-119584761D01*
X144680000Y-119537142D01*
X144775238Y-119394285D01*
X144822857Y-119203809D01*
X144822857Y-118822857D01*
X144775238Y-118727619D01*
X144727619Y-118680000D01*
X144632380Y-118632380D01*
X144441904Y-118632380D01*
X144346666Y-118680000D01*
X144299047Y-118727619D01*
X144251428Y-118822857D01*
X144251428Y-119060952D01*
X144299047Y-119156190D01*
X144346666Y-119203809D01*
X144441904Y-119251428D01*
X144632380Y-119251428D01*
X144727619Y-119203809D01*
X144775238Y-119156190D01*
X144822857Y-119060952D01*
%TO.C,J68*%
X132710476Y-113682380D02*
X132710476Y-114396666D01*
X132662857Y-114539523D01*
X132567619Y-114634761D01*
X132424761Y-114682380D01*
X132329523Y-114682380D01*
X133615238Y-113682380D02*
X133424761Y-113682380D01*
X133329523Y-113730000D01*
X133281904Y-113777619D01*
X133186666Y-113920476D01*
X133139047Y-114110952D01*
X133139047Y-114491904D01*
X133186666Y-114587142D01*
X133234285Y-114634761D01*
X133329523Y-114682380D01*
X133520000Y-114682380D01*
X133615238Y-114634761D01*
X133662857Y-114587142D01*
X133710476Y-114491904D01*
X133710476Y-114253809D01*
X133662857Y-114158571D01*
X133615238Y-114110952D01*
X133520000Y-114063333D01*
X133329523Y-114063333D01*
X133234285Y-114110952D01*
X133186666Y-114158571D01*
X133139047Y-114253809D01*
X134281904Y-114110952D02*
X134186666Y-114063333D01*
X134139047Y-114015714D01*
X134091428Y-113920476D01*
X134091428Y-113872857D01*
X134139047Y-113777619D01*
X134186666Y-113730000D01*
X134281904Y-113682380D01*
X134472380Y-113682380D01*
X134567619Y-113730000D01*
X134615238Y-113777619D01*
X134662857Y-113872857D01*
X134662857Y-113920476D01*
X134615238Y-114015714D01*
X134567619Y-114063333D01*
X134472380Y-114110952D01*
X134281904Y-114110952D01*
X134186666Y-114158571D01*
X134139047Y-114206190D01*
X134091428Y-114301428D01*
X134091428Y-114491904D01*
X134139047Y-114587142D01*
X134186666Y-114634761D01*
X134281904Y-114682380D01*
X134472380Y-114682380D01*
X134567619Y-114634761D01*
X134615238Y-114587142D01*
X134662857Y-114491904D01*
X134662857Y-114301428D01*
X134615238Y-114206190D01*
X134567619Y-114158571D01*
X134472380Y-114110952D01*
%TO.C,J67*%
X132710476Y-118632380D02*
X132710476Y-119346666D01*
X132662857Y-119489523D01*
X132567619Y-119584761D01*
X132424761Y-119632380D01*
X132329523Y-119632380D01*
X133615238Y-118632380D02*
X133424761Y-118632380D01*
X133329523Y-118680000D01*
X133281904Y-118727619D01*
X133186666Y-118870476D01*
X133139047Y-119060952D01*
X133139047Y-119441904D01*
X133186666Y-119537142D01*
X133234285Y-119584761D01*
X133329523Y-119632380D01*
X133520000Y-119632380D01*
X133615238Y-119584761D01*
X133662857Y-119537142D01*
X133710476Y-119441904D01*
X133710476Y-119203809D01*
X133662857Y-119108571D01*
X133615238Y-119060952D01*
X133520000Y-119013333D01*
X133329523Y-119013333D01*
X133234285Y-119060952D01*
X133186666Y-119108571D01*
X133139047Y-119203809D01*
X134043809Y-118632380D02*
X134710476Y-118632380D01*
X134281904Y-119632380D01*
%TO.C,J66*%
X122550476Y-113682380D02*
X122550476Y-114396666D01*
X122502857Y-114539523D01*
X122407619Y-114634761D01*
X122264761Y-114682380D01*
X122169523Y-114682380D01*
X123455238Y-113682380D02*
X123264761Y-113682380D01*
X123169523Y-113730000D01*
X123121904Y-113777619D01*
X123026666Y-113920476D01*
X122979047Y-114110952D01*
X122979047Y-114491904D01*
X123026666Y-114587142D01*
X123074285Y-114634761D01*
X123169523Y-114682380D01*
X123360000Y-114682380D01*
X123455238Y-114634761D01*
X123502857Y-114587142D01*
X123550476Y-114491904D01*
X123550476Y-114253809D01*
X123502857Y-114158571D01*
X123455238Y-114110952D01*
X123360000Y-114063333D01*
X123169523Y-114063333D01*
X123074285Y-114110952D01*
X123026666Y-114158571D01*
X122979047Y-114253809D01*
X124407619Y-113682380D02*
X124217142Y-113682380D01*
X124121904Y-113730000D01*
X124074285Y-113777619D01*
X123979047Y-113920476D01*
X123931428Y-114110952D01*
X123931428Y-114491904D01*
X123979047Y-114587142D01*
X124026666Y-114634761D01*
X124121904Y-114682380D01*
X124312380Y-114682380D01*
X124407619Y-114634761D01*
X124455238Y-114587142D01*
X124502857Y-114491904D01*
X124502857Y-114253809D01*
X124455238Y-114158571D01*
X124407619Y-114110952D01*
X124312380Y-114063333D01*
X124121904Y-114063333D01*
X124026666Y-114110952D01*
X123979047Y-114158571D01*
X123931428Y-114253809D01*
%TO.C,J65*%
X122550476Y-118632380D02*
X122550476Y-119346666D01*
X122502857Y-119489523D01*
X122407619Y-119584761D01*
X122264761Y-119632380D01*
X122169523Y-119632380D01*
X123455238Y-118632380D02*
X123264761Y-118632380D01*
X123169523Y-118680000D01*
X123121904Y-118727619D01*
X123026666Y-118870476D01*
X122979047Y-119060952D01*
X122979047Y-119441904D01*
X123026666Y-119537142D01*
X123074285Y-119584761D01*
X123169523Y-119632380D01*
X123360000Y-119632380D01*
X123455238Y-119584761D01*
X123502857Y-119537142D01*
X123550476Y-119441904D01*
X123550476Y-119203809D01*
X123502857Y-119108571D01*
X123455238Y-119060952D01*
X123360000Y-119013333D01*
X123169523Y-119013333D01*
X123074285Y-119060952D01*
X123026666Y-119108571D01*
X122979047Y-119203809D01*
X124455238Y-118632380D02*
X123979047Y-118632380D01*
X123931428Y-119108571D01*
X123979047Y-119060952D01*
X124074285Y-119013333D01*
X124312380Y-119013333D01*
X124407619Y-119060952D01*
X124455238Y-119108571D01*
X124502857Y-119203809D01*
X124502857Y-119441904D01*
X124455238Y-119537142D01*
X124407619Y-119584761D01*
X124312380Y-119632380D01*
X124074285Y-119632380D01*
X123979047Y-119584761D01*
X123931428Y-119537142D01*
%TO.C,J64*%
X112390476Y-113682380D02*
X112390476Y-114396666D01*
X112342857Y-114539523D01*
X112247619Y-114634761D01*
X112104761Y-114682380D01*
X112009523Y-114682380D01*
X113295238Y-113682380D02*
X113104761Y-113682380D01*
X113009523Y-113730000D01*
X112961904Y-113777619D01*
X112866666Y-113920476D01*
X112819047Y-114110952D01*
X112819047Y-114491904D01*
X112866666Y-114587142D01*
X112914285Y-114634761D01*
X113009523Y-114682380D01*
X113200000Y-114682380D01*
X113295238Y-114634761D01*
X113342857Y-114587142D01*
X113390476Y-114491904D01*
X113390476Y-114253809D01*
X113342857Y-114158571D01*
X113295238Y-114110952D01*
X113200000Y-114063333D01*
X113009523Y-114063333D01*
X112914285Y-114110952D01*
X112866666Y-114158571D01*
X112819047Y-114253809D01*
X114247619Y-114015714D02*
X114247619Y-114682380D01*
X114009523Y-113634761D02*
X113771428Y-114349047D01*
X114390476Y-114349047D01*
%TO.C,J63*%
X112390476Y-118632380D02*
X112390476Y-119346666D01*
X112342857Y-119489523D01*
X112247619Y-119584761D01*
X112104761Y-119632380D01*
X112009523Y-119632380D01*
X113295238Y-118632380D02*
X113104761Y-118632380D01*
X113009523Y-118680000D01*
X112961904Y-118727619D01*
X112866666Y-118870476D01*
X112819047Y-119060952D01*
X112819047Y-119441904D01*
X112866666Y-119537142D01*
X112914285Y-119584761D01*
X113009523Y-119632380D01*
X113200000Y-119632380D01*
X113295238Y-119584761D01*
X113342857Y-119537142D01*
X113390476Y-119441904D01*
X113390476Y-119203809D01*
X113342857Y-119108571D01*
X113295238Y-119060952D01*
X113200000Y-119013333D01*
X113009523Y-119013333D01*
X112914285Y-119060952D01*
X112866666Y-119108571D01*
X112819047Y-119203809D01*
X113723809Y-118632380D02*
X114342857Y-118632380D01*
X114009523Y-119013333D01*
X114152380Y-119013333D01*
X114247619Y-119060952D01*
X114295238Y-119108571D01*
X114342857Y-119203809D01*
X114342857Y-119441904D01*
X114295238Y-119537142D01*
X114247619Y-119584761D01*
X114152380Y-119632380D01*
X113866666Y-119632380D01*
X113771428Y-119584761D01*
X113723809Y-119537142D01*
%TO.C,J62*%
X102230476Y-113682380D02*
X102230476Y-114396666D01*
X102182857Y-114539523D01*
X102087619Y-114634761D01*
X101944761Y-114682380D01*
X101849523Y-114682380D01*
X103135238Y-113682380D02*
X102944761Y-113682380D01*
X102849523Y-113730000D01*
X102801904Y-113777619D01*
X102706666Y-113920476D01*
X102659047Y-114110952D01*
X102659047Y-114491904D01*
X102706666Y-114587142D01*
X102754285Y-114634761D01*
X102849523Y-114682380D01*
X103040000Y-114682380D01*
X103135238Y-114634761D01*
X103182857Y-114587142D01*
X103230476Y-114491904D01*
X103230476Y-114253809D01*
X103182857Y-114158571D01*
X103135238Y-114110952D01*
X103040000Y-114063333D01*
X102849523Y-114063333D01*
X102754285Y-114110952D01*
X102706666Y-114158571D01*
X102659047Y-114253809D01*
X103611428Y-113777619D02*
X103659047Y-113730000D01*
X103754285Y-113682380D01*
X103992380Y-113682380D01*
X104087619Y-113730000D01*
X104135238Y-113777619D01*
X104182857Y-113872857D01*
X104182857Y-113968095D01*
X104135238Y-114110952D01*
X103563809Y-114682380D01*
X104182857Y-114682380D01*
%TO.C,J61*%
X102230476Y-118632380D02*
X102230476Y-119346666D01*
X102182857Y-119489523D01*
X102087619Y-119584761D01*
X101944761Y-119632380D01*
X101849523Y-119632380D01*
X103135238Y-118632380D02*
X102944761Y-118632380D01*
X102849523Y-118680000D01*
X102801904Y-118727619D01*
X102706666Y-118870476D01*
X102659047Y-119060952D01*
X102659047Y-119441904D01*
X102706666Y-119537142D01*
X102754285Y-119584761D01*
X102849523Y-119632380D01*
X103040000Y-119632380D01*
X103135238Y-119584761D01*
X103182857Y-119537142D01*
X103230476Y-119441904D01*
X103230476Y-119203809D01*
X103182857Y-119108571D01*
X103135238Y-119060952D01*
X103040000Y-119013333D01*
X102849523Y-119013333D01*
X102754285Y-119060952D01*
X102706666Y-119108571D01*
X102659047Y-119203809D01*
X104182857Y-119632380D02*
X103611428Y-119632380D01*
X103897142Y-119632380D02*
X103897142Y-118632380D01*
X103801904Y-118775238D01*
X103706666Y-118870476D01*
X103611428Y-118918095D01*
%TO.C,J60*%
X92070476Y-113682380D02*
X92070476Y-114396666D01*
X92022857Y-114539523D01*
X91927619Y-114634761D01*
X91784761Y-114682380D01*
X91689523Y-114682380D01*
X92975238Y-113682380D02*
X92784761Y-113682380D01*
X92689523Y-113730000D01*
X92641904Y-113777619D01*
X92546666Y-113920476D01*
X92499047Y-114110952D01*
X92499047Y-114491904D01*
X92546666Y-114587142D01*
X92594285Y-114634761D01*
X92689523Y-114682380D01*
X92880000Y-114682380D01*
X92975238Y-114634761D01*
X93022857Y-114587142D01*
X93070476Y-114491904D01*
X93070476Y-114253809D01*
X93022857Y-114158571D01*
X92975238Y-114110952D01*
X92880000Y-114063333D01*
X92689523Y-114063333D01*
X92594285Y-114110952D01*
X92546666Y-114158571D01*
X92499047Y-114253809D01*
X93689523Y-113682380D02*
X93784761Y-113682380D01*
X93880000Y-113730000D01*
X93927619Y-113777619D01*
X93975238Y-113872857D01*
X94022857Y-114063333D01*
X94022857Y-114301428D01*
X93975238Y-114491904D01*
X93927619Y-114587142D01*
X93880000Y-114634761D01*
X93784761Y-114682380D01*
X93689523Y-114682380D01*
X93594285Y-114634761D01*
X93546666Y-114587142D01*
X93499047Y-114491904D01*
X93451428Y-114301428D01*
X93451428Y-114063333D01*
X93499047Y-113872857D01*
X93546666Y-113777619D01*
X93594285Y-113730000D01*
X93689523Y-113682380D01*
%TO.C,J59*%
X92070476Y-118632380D02*
X92070476Y-119346666D01*
X92022857Y-119489523D01*
X91927619Y-119584761D01*
X91784761Y-119632380D01*
X91689523Y-119632380D01*
X93022857Y-118632380D02*
X92546666Y-118632380D01*
X92499047Y-119108571D01*
X92546666Y-119060952D01*
X92641904Y-119013333D01*
X92880000Y-119013333D01*
X92975238Y-119060952D01*
X93022857Y-119108571D01*
X93070476Y-119203809D01*
X93070476Y-119441904D01*
X93022857Y-119537142D01*
X92975238Y-119584761D01*
X92880000Y-119632380D01*
X92641904Y-119632380D01*
X92546666Y-119584761D01*
X92499047Y-119537142D01*
X93546666Y-119632380D02*
X93737142Y-119632380D01*
X93832380Y-119584761D01*
X93880000Y-119537142D01*
X93975238Y-119394285D01*
X94022857Y-119203809D01*
X94022857Y-118822857D01*
X93975238Y-118727619D01*
X93927619Y-118680000D01*
X93832380Y-118632380D01*
X93641904Y-118632380D01*
X93546666Y-118680000D01*
X93499047Y-118727619D01*
X93451428Y-118822857D01*
X93451428Y-119060952D01*
X93499047Y-119156190D01*
X93546666Y-119203809D01*
X93641904Y-119251428D01*
X93832380Y-119251428D01*
X93927619Y-119203809D01*
X93975238Y-119156190D01*
X94022857Y-119060952D01*
%TO.C,J58*%
X81910476Y-113682380D02*
X81910476Y-114396666D01*
X81862857Y-114539523D01*
X81767619Y-114634761D01*
X81624761Y-114682380D01*
X81529523Y-114682380D01*
X82862857Y-113682380D02*
X82386666Y-113682380D01*
X82339047Y-114158571D01*
X82386666Y-114110952D01*
X82481904Y-114063333D01*
X82720000Y-114063333D01*
X82815238Y-114110952D01*
X82862857Y-114158571D01*
X82910476Y-114253809D01*
X82910476Y-114491904D01*
X82862857Y-114587142D01*
X82815238Y-114634761D01*
X82720000Y-114682380D01*
X82481904Y-114682380D01*
X82386666Y-114634761D01*
X82339047Y-114587142D01*
X83481904Y-114110952D02*
X83386666Y-114063333D01*
X83339047Y-114015714D01*
X83291428Y-113920476D01*
X83291428Y-113872857D01*
X83339047Y-113777619D01*
X83386666Y-113730000D01*
X83481904Y-113682380D01*
X83672380Y-113682380D01*
X83767619Y-113730000D01*
X83815238Y-113777619D01*
X83862857Y-113872857D01*
X83862857Y-113920476D01*
X83815238Y-114015714D01*
X83767619Y-114063333D01*
X83672380Y-114110952D01*
X83481904Y-114110952D01*
X83386666Y-114158571D01*
X83339047Y-114206190D01*
X83291428Y-114301428D01*
X83291428Y-114491904D01*
X83339047Y-114587142D01*
X83386666Y-114634761D01*
X83481904Y-114682380D01*
X83672380Y-114682380D01*
X83767619Y-114634761D01*
X83815238Y-114587142D01*
X83862857Y-114491904D01*
X83862857Y-114301428D01*
X83815238Y-114206190D01*
X83767619Y-114158571D01*
X83672380Y-114110952D01*
%TO.C,J57*%
X81910476Y-118632380D02*
X81910476Y-119346666D01*
X81862857Y-119489523D01*
X81767619Y-119584761D01*
X81624761Y-119632380D01*
X81529523Y-119632380D01*
X82862857Y-118632380D02*
X82386666Y-118632380D01*
X82339047Y-119108571D01*
X82386666Y-119060952D01*
X82481904Y-119013333D01*
X82720000Y-119013333D01*
X82815238Y-119060952D01*
X82862857Y-119108571D01*
X82910476Y-119203809D01*
X82910476Y-119441904D01*
X82862857Y-119537142D01*
X82815238Y-119584761D01*
X82720000Y-119632380D01*
X82481904Y-119632380D01*
X82386666Y-119584761D01*
X82339047Y-119537142D01*
X83243809Y-118632380D02*
X83910476Y-118632380D01*
X83481904Y-119632380D01*
%TO.C,J56*%
X71750476Y-113682380D02*
X71750476Y-114396666D01*
X71702857Y-114539523D01*
X71607619Y-114634761D01*
X71464761Y-114682380D01*
X71369523Y-114682380D01*
X72702857Y-113682380D02*
X72226666Y-113682380D01*
X72179047Y-114158571D01*
X72226666Y-114110952D01*
X72321904Y-114063333D01*
X72560000Y-114063333D01*
X72655238Y-114110952D01*
X72702857Y-114158571D01*
X72750476Y-114253809D01*
X72750476Y-114491904D01*
X72702857Y-114587142D01*
X72655238Y-114634761D01*
X72560000Y-114682380D01*
X72321904Y-114682380D01*
X72226666Y-114634761D01*
X72179047Y-114587142D01*
X73607619Y-113682380D02*
X73417142Y-113682380D01*
X73321904Y-113730000D01*
X73274285Y-113777619D01*
X73179047Y-113920476D01*
X73131428Y-114110952D01*
X73131428Y-114491904D01*
X73179047Y-114587142D01*
X73226666Y-114634761D01*
X73321904Y-114682380D01*
X73512380Y-114682380D01*
X73607619Y-114634761D01*
X73655238Y-114587142D01*
X73702857Y-114491904D01*
X73702857Y-114253809D01*
X73655238Y-114158571D01*
X73607619Y-114110952D01*
X73512380Y-114063333D01*
X73321904Y-114063333D01*
X73226666Y-114110952D01*
X73179047Y-114158571D01*
X73131428Y-114253809D01*
%TO.C,J55*%
X71750476Y-118632380D02*
X71750476Y-119346666D01*
X71702857Y-119489523D01*
X71607619Y-119584761D01*
X71464761Y-119632380D01*
X71369523Y-119632380D01*
X72702857Y-118632380D02*
X72226666Y-118632380D01*
X72179047Y-119108571D01*
X72226666Y-119060952D01*
X72321904Y-119013333D01*
X72560000Y-119013333D01*
X72655238Y-119060952D01*
X72702857Y-119108571D01*
X72750476Y-119203809D01*
X72750476Y-119441904D01*
X72702857Y-119537142D01*
X72655238Y-119584761D01*
X72560000Y-119632380D01*
X72321904Y-119632380D01*
X72226666Y-119584761D01*
X72179047Y-119537142D01*
X73655238Y-118632380D02*
X73179047Y-118632380D01*
X73131428Y-119108571D01*
X73179047Y-119060952D01*
X73274285Y-119013333D01*
X73512380Y-119013333D01*
X73607619Y-119060952D01*
X73655238Y-119108571D01*
X73702857Y-119203809D01*
X73702857Y-119441904D01*
X73655238Y-119537142D01*
X73607619Y-119584761D01*
X73512380Y-119632380D01*
X73274285Y-119632380D01*
X73179047Y-119584761D01*
X73131428Y-119537142D01*
%TO.C,J54*%
X153030476Y-95902380D02*
X153030476Y-96616666D01*
X152982857Y-96759523D01*
X152887619Y-96854761D01*
X152744761Y-96902380D01*
X152649523Y-96902380D01*
X153982857Y-95902380D02*
X153506666Y-95902380D01*
X153459047Y-96378571D01*
X153506666Y-96330952D01*
X153601904Y-96283333D01*
X153840000Y-96283333D01*
X153935238Y-96330952D01*
X153982857Y-96378571D01*
X154030476Y-96473809D01*
X154030476Y-96711904D01*
X153982857Y-96807142D01*
X153935238Y-96854761D01*
X153840000Y-96902380D01*
X153601904Y-96902380D01*
X153506666Y-96854761D01*
X153459047Y-96807142D01*
X154887619Y-96235714D02*
X154887619Y-96902380D01*
X154649523Y-95854761D02*
X154411428Y-96569047D01*
X155030476Y-96569047D01*
%TO.C,J53*%
X153030476Y-100852380D02*
X153030476Y-101566666D01*
X152982857Y-101709523D01*
X152887619Y-101804761D01*
X152744761Y-101852380D01*
X152649523Y-101852380D01*
X153982857Y-100852380D02*
X153506666Y-100852380D01*
X153459047Y-101328571D01*
X153506666Y-101280952D01*
X153601904Y-101233333D01*
X153840000Y-101233333D01*
X153935238Y-101280952D01*
X153982857Y-101328571D01*
X154030476Y-101423809D01*
X154030476Y-101661904D01*
X153982857Y-101757142D01*
X153935238Y-101804761D01*
X153840000Y-101852380D01*
X153601904Y-101852380D01*
X153506666Y-101804761D01*
X153459047Y-101757142D01*
X154363809Y-100852380D02*
X154982857Y-100852380D01*
X154649523Y-101233333D01*
X154792380Y-101233333D01*
X154887619Y-101280952D01*
X154935238Y-101328571D01*
X154982857Y-101423809D01*
X154982857Y-101661904D01*
X154935238Y-101757142D01*
X154887619Y-101804761D01*
X154792380Y-101852380D01*
X154506666Y-101852380D01*
X154411428Y-101804761D01*
X154363809Y-101757142D01*
%TO.C,J52*%
X142870476Y-95902380D02*
X142870476Y-96616666D01*
X142822857Y-96759523D01*
X142727619Y-96854761D01*
X142584761Y-96902380D01*
X142489523Y-96902380D01*
X143822857Y-95902380D02*
X143346666Y-95902380D01*
X143299047Y-96378571D01*
X143346666Y-96330952D01*
X143441904Y-96283333D01*
X143680000Y-96283333D01*
X143775238Y-96330952D01*
X143822857Y-96378571D01*
X143870476Y-96473809D01*
X143870476Y-96711904D01*
X143822857Y-96807142D01*
X143775238Y-96854761D01*
X143680000Y-96902380D01*
X143441904Y-96902380D01*
X143346666Y-96854761D01*
X143299047Y-96807142D01*
X144251428Y-95997619D02*
X144299047Y-95950000D01*
X144394285Y-95902380D01*
X144632380Y-95902380D01*
X144727619Y-95950000D01*
X144775238Y-95997619D01*
X144822857Y-96092857D01*
X144822857Y-96188095D01*
X144775238Y-96330952D01*
X144203809Y-96902380D01*
X144822857Y-96902380D01*
%TO.C,J51*%
X142870476Y-100852380D02*
X142870476Y-101566666D01*
X142822857Y-101709523D01*
X142727619Y-101804761D01*
X142584761Y-101852380D01*
X142489523Y-101852380D01*
X143822857Y-100852380D02*
X143346666Y-100852380D01*
X143299047Y-101328571D01*
X143346666Y-101280952D01*
X143441904Y-101233333D01*
X143680000Y-101233333D01*
X143775238Y-101280952D01*
X143822857Y-101328571D01*
X143870476Y-101423809D01*
X143870476Y-101661904D01*
X143822857Y-101757142D01*
X143775238Y-101804761D01*
X143680000Y-101852380D01*
X143441904Y-101852380D01*
X143346666Y-101804761D01*
X143299047Y-101757142D01*
X144822857Y-101852380D02*
X144251428Y-101852380D01*
X144537142Y-101852380D02*
X144537142Y-100852380D01*
X144441904Y-100995238D01*
X144346666Y-101090476D01*
X144251428Y-101138095D01*
%TO.C,J50*%
X132710476Y-95902380D02*
X132710476Y-96616666D01*
X132662857Y-96759523D01*
X132567619Y-96854761D01*
X132424761Y-96902380D01*
X132329523Y-96902380D01*
X133662857Y-95902380D02*
X133186666Y-95902380D01*
X133139047Y-96378571D01*
X133186666Y-96330952D01*
X133281904Y-96283333D01*
X133520000Y-96283333D01*
X133615238Y-96330952D01*
X133662857Y-96378571D01*
X133710476Y-96473809D01*
X133710476Y-96711904D01*
X133662857Y-96807142D01*
X133615238Y-96854761D01*
X133520000Y-96902380D01*
X133281904Y-96902380D01*
X133186666Y-96854761D01*
X133139047Y-96807142D01*
X134329523Y-95902380D02*
X134424761Y-95902380D01*
X134520000Y-95950000D01*
X134567619Y-95997619D01*
X134615238Y-96092857D01*
X134662857Y-96283333D01*
X134662857Y-96521428D01*
X134615238Y-96711904D01*
X134567619Y-96807142D01*
X134520000Y-96854761D01*
X134424761Y-96902380D01*
X134329523Y-96902380D01*
X134234285Y-96854761D01*
X134186666Y-96807142D01*
X134139047Y-96711904D01*
X134091428Y-96521428D01*
X134091428Y-96283333D01*
X134139047Y-96092857D01*
X134186666Y-95997619D01*
X134234285Y-95950000D01*
X134329523Y-95902380D01*
%TO.C,J49*%
X132710476Y-100852380D02*
X132710476Y-101566666D01*
X132662857Y-101709523D01*
X132567619Y-101804761D01*
X132424761Y-101852380D01*
X132329523Y-101852380D01*
X133615238Y-101185714D02*
X133615238Y-101852380D01*
X133377142Y-100804761D02*
X133139047Y-101519047D01*
X133758095Y-101519047D01*
X134186666Y-101852380D02*
X134377142Y-101852380D01*
X134472380Y-101804761D01*
X134520000Y-101757142D01*
X134615238Y-101614285D01*
X134662857Y-101423809D01*
X134662857Y-101042857D01*
X134615238Y-100947619D01*
X134567619Y-100900000D01*
X134472380Y-100852380D01*
X134281904Y-100852380D01*
X134186666Y-100900000D01*
X134139047Y-100947619D01*
X134091428Y-101042857D01*
X134091428Y-101280952D01*
X134139047Y-101376190D01*
X134186666Y-101423809D01*
X134281904Y-101471428D01*
X134472380Y-101471428D01*
X134567619Y-101423809D01*
X134615238Y-101376190D01*
X134662857Y-101280952D01*
%TO.C,J48*%
X122550476Y-95902380D02*
X122550476Y-96616666D01*
X122502857Y-96759523D01*
X122407619Y-96854761D01*
X122264761Y-96902380D01*
X122169523Y-96902380D01*
X123455238Y-96235714D02*
X123455238Y-96902380D01*
X123217142Y-95854761D02*
X122979047Y-96569047D01*
X123598095Y-96569047D01*
X124121904Y-96330952D02*
X124026666Y-96283333D01*
X123979047Y-96235714D01*
X123931428Y-96140476D01*
X123931428Y-96092857D01*
X123979047Y-95997619D01*
X124026666Y-95950000D01*
X124121904Y-95902380D01*
X124312380Y-95902380D01*
X124407619Y-95950000D01*
X124455238Y-95997619D01*
X124502857Y-96092857D01*
X124502857Y-96140476D01*
X124455238Y-96235714D01*
X124407619Y-96283333D01*
X124312380Y-96330952D01*
X124121904Y-96330952D01*
X124026666Y-96378571D01*
X123979047Y-96426190D01*
X123931428Y-96521428D01*
X123931428Y-96711904D01*
X123979047Y-96807142D01*
X124026666Y-96854761D01*
X124121904Y-96902380D01*
X124312380Y-96902380D01*
X124407619Y-96854761D01*
X124455238Y-96807142D01*
X124502857Y-96711904D01*
X124502857Y-96521428D01*
X124455238Y-96426190D01*
X124407619Y-96378571D01*
X124312380Y-96330952D01*
%TO.C,J47*%
X122550476Y-100852380D02*
X122550476Y-101566666D01*
X122502857Y-101709523D01*
X122407619Y-101804761D01*
X122264761Y-101852380D01*
X122169523Y-101852380D01*
X123455238Y-101185714D02*
X123455238Y-101852380D01*
X123217142Y-100804761D02*
X122979047Y-101519047D01*
X123598095Y-101519047D01*
X123883809Y-100852380D02*
X124550476Y-100852380D01*
X124121904Y-101852380D01*
%TO.C,J46*%
X112390476Y-95902380D02*
X112390476Y-96616666D01*
X112342857Y-96759523D01*
X112247619Y-96854761D01*
X112104761Y-96902380D01*
X112009523Y-96902380D01*
X113295238Y-96235714D02*
X113295238Y-96902380D01*
X113057142Y-95854761D02*
X112819047Y-96569047D01*
X113438095Y-96569047D01*
X114247619Y-95902380D02*
X114057142Y-95902380D01*
X113961904Y-95950000D01*
X113914285Y-95997619D01*
X113819047Y-96140476D01*
X113771428Y-96330952D01*
X113771428Y-96711904D01*
X113819047Y-96807142D01*
X113866666Y-96854761D01*
X113961904Y-96902380D01*
X114152380Y-96902380D01*
X114247619Y-96854761D01*
X114295238Y-96807142D01*
X114342857Y-96711904D01*
X114342857Y-96473809D01*
X114295238Y-96378571D01*
X114247619Y-96330952D01*
X114152380Y-96283333D01*
X113961904Y-96283333D01*
X113866666Y-96330952D01*
X113819047Y-96378571D01*
X113771428Y-96473809D01*
%TO.C,J45*%
X112390476Y-100852380D02*
X112390476Y-101566666D01*
X112342857Y-101709523D01*
X112247619Y-101804761D01*
X112104761Y-101852380D01*
X112009523Y-101852380D01*
X113295238Y-101185714D02*
X113295238Y-101852380D01*
X113057142Y-100804761D02*
X112819047Y-101519047D01*
X113438095Y-101519047D01*
X114295238Y-100852380D02*
X113819047Y-100852380D01*
X113771428Y-101328571D01*
X113819047Y-101280952D01*
X113914285Y-101233333D01*
X114152380Y-101233333D01*
X114247619Y-101280952D01*
X114295238Y-101328571D01*
X114342857Y-101423809D01*
X114342857Y-101661904D01*
X114295238Y-101757142D01*
X114247619Y-101804761D01*
X114152380Y-101852380D01*
X113914285Y-101852380D01*
X113819047Y-101804761D01*
X113771428Y-101757142D01*
%TO.C,J44*%
X102230476Y-95902380D02*
X102230476Y-96616666D01*
X102182857Y-96759523D01*
X102087619Y-96854761D01*
X101944761Y-96902380D01*
X101849523Y-96902380D01*
X103135238Y-96235714D02*
X103135238Y-96902380D01*
X102897142Y-95854761D02*
X102659047Y-96569047D01*
X103278095Y-96569047D01*
X104087619Y-96235714D02*
X104087619Y-96902380D01*
X103849523Y-95854761D02*
X103611428Y-96569047D01*
X104230476Y-96569047D01*
%TO.C,J43*%
X102230476Y-100852380D02*
X102230476Y-101566666D01*
X102182857Y-101709523D01*
X102087619Y-101804761D01*
X101944761Y-101852380D01*
X101849523Y-101852380D01*
X103135238Y-101185714D02*
X103135238Y-101852380D01*
X102897142Y-100804761D02*
X102659047Y-101519047D01*
X103278095Y-101519047D01*
X103563809Y-100852380D02*
X104182857Y-100852380D01*
X103849523Y-101233333D01*
X103992380Y-101233333D01*
X104087619Y-101280952D01*
X104135238Y-101328571D01*
X104182857Y-101423809D01*
X104182857Y-101661904D01*
X104135238Y-101757142D01*
X104087619Y-101804761D01*
X103992380Y-101852380D01*
X103706666Y-101852380D01*
X103611428Y-101804761D01*
X103563809Y-101757142D01*
%TO.C,J42*%
X92070476Y-95902380D02*
X92070476Y-96616666D01*
X92022857Y-96759523D01*
X91927619Y-96854761D01*
X91784761Y-96902380D01*
X91689523Y-96902380D01*
X92975238Y-96235714D02*
X92975238Y-96902380D01*
X92737142Y-95854761D02*
X92499047Y-96569047D01*
X93118095Y-96569047D01*
X93451428Y-95997619D02*
X93499047Y-95950000D01*
X93594285Y-95902380D01*
X93832380Y-95902380D01*
X93927619Y-95950000D01*
X93975238Y-95997619D01*
X94022857Y-96092857D01*
X94022857Y-96188095D01*
X93975238Y-96330952D01*
X93403809Y-96902380D01*
X94022857Y-96902380D01*
%TO.C,J41*%
X92070476Y-100852380D02*
X92070476Y-101566666D01*
X92022857Y-101709523D01*
X91927619Y-101804761D01*
X91784761Y-101852380D01*
X91689523Y-101852380D01*
X92975238Y-101185714D02*
X92975238Y-101852380D01*
X92737142Y-100804761D02*
X92499047Y-101519047D01*
X93118095Y-101519047D01*
X94022857Y-101852380D02*
X93451428Y-101852380D01*
X93737142Y-101852380D02*
X93737142Y-100852380D01*
X93641904Y-100995238D01*
X93546666Y-101090476D01*
X93451428Y-101138095D01*
%TO.C,J40*%
X81910476Y-95902380D02*
X81910476Y-96616666D01*
X81862857Y-96759523D01*
X81767619Y-96854761D01*
X81624761Y-96902380D01*
X81529523Y-96902380D01*
X82815238Y-96235714D02*
X82815238Y-96902380D01*
X82577142Y-95854761D02*
X82339047Y-96569047D01*
X82958095Y-96569047D01*
X83529523Y-95902380D02*
X83624761Y-95902380D01*
X83720000Y-95950000D01*
X83767619Y-95997619D01*
X83815238Y-96092857D01*
X83862857Y-96283333D01*
X83862857Y-96521428D01*
X83815238Y-96711904D01*
X83767619Y-96807142D01*
X83720000Y-96854761D01*
X83624761Y-96902380D01*
X83529523Y-96902380D01*
X83434285Y-96854761D01*
X83386666Y-96807142D01*
X83339047Y-96711904D01*
X83291428Y-96521428D01*
X83291428Y-96283333D01*
X83339047Y-96092857D01*
X83386666Y-95997619D01*
X83434285Y-95950000D01*
X83529523Y-95902380D01*
%TO.C,J39*%
X81910476Y-100852380D02*
X81910476Y-101566666D01*
X81862857Y-101709523D01*
X81767619Y-101804761D01*
X81624761Y-101852380D01*
X81529523Y-101852380D01*
X82291428Y-100852380D02*
X82910476Y-100852380D01*
X82577142Y-101233333D01*
X82720000Y-101233333D01*
X82815238Y-101280952D01*
X82862857Y-101328571D01*
X82910476Y-101423809D01*
X82910476Y-101661904D01*
X82862857Y-101757142D01*
X82815238Y-101804761D01*
X82720000Y-101852380D01*
X82434285Y-101852380D01*
X82339047Y-101804761D01*
X82291428Y-101757142D01*
X83386666Y-101852380D02*
X83577142Y-101852380D01*
X83672380Y-101804761D01*
X83720000Y-101757142D01*
X83815238Y-101614285D01*
X83862857Y-101423809D01*
X83862857Y-101042857D01*
X83815238Y-100947619D01*
X83767619Y-100900000D01*
X83672380Y-100852380D01*
X83481904Y-100852380D01*
X83386666Y-100900000D01*
X83339047Y-100947619D01*
X83291428Y-101042857D01*
X83291428Y-101280952D01*
X83339047Y-101376190D01*
X83386666Y-101423809D01*
X83481904Y-101471428D01*
X83672380Y-101471428D01*
X83767619Y-101423809D01*
X83815238Y-101376190D01*
X83862857Y-101280952D01*
%TO.C,J38*%
X71750476Y-95902380D02*
X71750476Y-96616666D01*
X71702857Y-96759523D01*
X71607619Y-96854761D01*
X71464761Y-96902380D01*
X71369523Y-96902380D01*
X72131428Y-95902380D02*
X72750476Y-95902380D01*
X72417142Y-96283333D01*
X72560000Y-96283333D01*
X72655238Y-96330952D01*
X72702857Y-96378571D01*
X72750476Y-96473809D01*
X72750476Y-96711904D01*
X72702857Y-96807142D01*
X72655238Y-96854761D01*
X72560000Y-96902380D01*
X72274285Y-96902380D01*
X72179047Y-96854761D01*
X72131428Y-96807142D01*
X73321904Y-96330952D02*
X73226666Y-96283333D01*
X73179047Y-96235714D01*
X73131428Y-96140476D01*
X73131428Y-96092857D01*
X73179047Y-95997619D01*
X73226666Y-95950000D01*
X73321904Y-95902380D01*
X73512380Y-95902380D01*
X73607619Y-95950000D01*
X73655238Y-95997619D01*
X73702857Y-96092857D01*
X73702857Y-96140476D01*
X73655238Y-96235714D01*
X73607619Y-96283333D01*
X73512380Y-96330952D01*
X73321904Y-96330952D01*
X73226666Y-96378571D01*
X73179047Y-96426190D01*
X73131428Y-96521428D01*
X73131428Y-96711904D01*
X73179047Y-96807142D01*
X73226666Y-96854761D01*
X73321904Y-96902380D01*
X73512380Y-96902380D01*
X73607619Y-96854761D01*
X73655238Y-96807142D01*
X73702857Y-96711904D01*
X73702857Y-96521428D01*
X73655238Y-96426190D01*
X73607619Y-96378571D01*
X73512380Y-96330952D01*
%TO.C,J37*%
X71750476Y-100852380D02*
X71750476Y-101566666D01*
X71702857Y-101709523D01*
X71607619Y-101804761D01*
X71464761Y-101852380D01*
X71369523Y-101852380D01*
X72131428Y-100852380D02*
X72750476Y-100852380D01*
X72417142Y-101233333D01*
X72560000Y-101233333D01*
X72655238Y-101280952D01*
X72702857Y-101328571D01*
X72750476Y-101423809D01*
X72750476Y-101661904D01*
X72702857Y-101757142D01*
X72655238Y-101804761D01*
X72560000Y-101852380D01*
X72274285Y-101852380D01*
X72179047Y-101804761D01*
X72131428Y-101757142D01*
X73083809Y-100852380D02*
X73750476Y-100852380D01*
X73321904Y-101852380D01*
%TO.C,J36*%
X153030476Y-78122380D02*
X153030476Y-78836666D01*
X152982857Y-78979523D01*
X152887619Y-79074761D01*
X152744761Y-79122380D01*
X152649523Y-79122380D01*
X153411428Y-78122380D02*
X154030476Y-78122380D01*
X153697142Y-78503333D01*
X153840000Y-78503333D01*
X153935238Y-78550952D01*
X153982857Y-78598571D01*
X154030476Y-78693809D01*
X154030476Y-78931904D01*
X153982857Y-79027142D01*
X153935238Y-79074761D01*
X153840000Y-79122380D01*
X153554285Y-79122380D01*
X153459047Y-79074761D01*
X153411428Y-79027142D01*
X154887619Y-78122380D02*
X154697142Y-78122380D01*
X154601904Y-78170000D01*
X154554285Y-78217619D01*
X154459047Y-78360476D01*
X154411428Y-78550952D01*
X154411428Y-78931904D01*
X154459047Y-79027142D01*
X154506666Y-79074761D01*
X154601904Y-79122380D01*
X154792380Y-79122380D01*
X154887619Y-79074761D01*
X154935238Y-79027142D01*
X154982857Y-78931904D01*
X154982857Y-78693809D01*
X154935238Y-78598571D01*
X154887619Y-78550952D01*
X154792380Y-78503333D01*
X154601904Y-78503333D01*
X154506666Y-78550952D01*
X154459047Y-78598571D01*
X154411428Y-78693809D01*
%TO.C,J35*%
X153030476Y-83072380D02*
X153030476Y-83786666D01*
X152982857Y-83929523D01*
X152887619Y-84024761D01*
X152744761Y-84072380D01*
X152649523Y-84072380D01*
X153411428Y-83072380D02*
X154030476Y-83072380D01*
X153697142Y-83453333D01*
X153840000Y-83453333D01*
X153935238Y-83500952D01*
X153982857Y-83548571D01*
X154030476Y-83643809D01*
X154030476Y-83881904D01*
X153982857Y-83977142D01*
X153935238Y-84024761D01*
X153840000Y-84072380D01*
X153554285Y-84072380D01*
X153459047Y-84024761D01*
X153411428Y-83977142D01*
X154935238Y-83072380D02*
X154459047Y-83072380D01*
X154411428Y-83548571D01*
X154459047Y-83500952D01*
X154554285Y-83453333D01*
X154792380Y-83453333D01*
X154887619Y-83500952D01*
X154935238Y-83548571D01*
X154982857Y-83643809D01*
X154982857Y-83881904D01*
X154935238Y-83977142D01*
X154887619Y-84024761D01*
X154792380Y-84072380D01*
X154554285Y-84072380D01*
X154459047Y-84024761D01*
X154411428Y-83977142D01*
%TO.C,J34*%
X142870476Y-78122380D02*
X142870476Y-78836666D01*
X142822857Y-78979523D01*
X142727619Y-79074761D01*
X142584761Y-79122380D01*
X142489523Y-79122380D01*
X143251428Y-78122380D02*
X143870476Y-78122380D01*
X143537142Y-78503333D01*
X143680000Y-78503333D01*
X143775238Y-78550952D01*
X143822857Y-78598571D01*
X143870476Y-78693809D01*
X143870476Y-78931904D01*
X143822857Y-79027142D01*
X143775238Y-79074761D01*
X143680000Y-79122380D01*
X143394285Y-79122380D01*
X143299047Y-79074761D01*
X143251428Y-79027142D01*
X144727619Y-78455714D02*
X144727619Y-79122380D01*
X144489523Y-78074761D02*
X144251428Y-78789047D01*
X144870476Y-78789047D01*
%TO.C,J33*%
X142870476Y-83072380D02*
X142870476Y-83786666D01*
X142822857Y-83929523D01*
X142727619Y-84024761D01*
X142584761Y-84072380D01*
X142489523Y-84072380D01*
X143251428Y-83072380D02*
X143870476Y-83072380D01*
X143537142Y-83453333D01*
X143680000Y-83453333D01*
X143775238Y-83500952D01*
X143822857Y-83548571D01*
X143870476Y-83643809D01*
X143870476Y-83881904D01*
X143822857Y-83977142D01*
X143775238Y-84024761D01*
X143680000Y-84072380D01*
X143394285Y-84072380D01*
X143299047Y-84024761D01*
X143251428Y-83977142D01*
X144203809Y-83072380D02*
X144822857Y-83072380D01*
X144489523Y-83453333D01*
X144632380Y-83453333D01*
X144727619Y-83500952D01*
X144775238Y-83548571D01*
X144822857Y-83643809D01*
X144822857Y-83881904D01*
X144775238Y-83977142D01*
X144727619Y-84024761D01*
X144632380Y-84072380D01*
X144346666Y-84072380D01*
X144251428Y-84024761D01*
X144203809Y-83977142D01*
%TO.C,J32*%
X132710476Y-78122380D02*
X132710476Y-78836666D01*
X132662857Y-78979523D01*
X132567619Y-79074761D01*
X132424761Y-79122380D01*
X132329523Y-79122380D01*
X133091428Y-78122380D02*
X133710476Y-78122380D01*
X133377142Y-78503333D01*
X133520000Y-78503333D01*
X133615238Y-78550952D01*
X133662857Y-78598571D01*
X133710476Y-78693809D01*
X133710476Y-78931904D01*
X133662857Y-79027142D01*
X133615238Y-79074761D01*
X133520000Y-79122380D01*
X133234285Y-79122380D01*
X133139047Y-79074761D01*
X133091428Y-79027142D01*
X134091428Y-78217619D02*
X134139047Y-78170000D01*
X134234285Y-78122380D01*
X134472380Y-78122380D01*
X134567619Y-78170000D01*
X134615238Y-78217619D01*
X134662857Y-78312857D01*
X134662857Y-78408095D01*
X134615238Y-78550952D01*
X134043809Y-79122380D01*
X134662857Y-79122380D01*
%TO.C,J31*%
X132710476Y-83072380D02*
X132710476Y-83786666D01*
X132662857Y-83929523D01*
X132567619Y-84024761D01*
X132424761Y-84072380D01*
X132329523Y-84072380D01*
X133091428Y-83072380D02*
X133710476Y-83072380D01*
X133377142Y-83453333D01*
X133520000Y-83453333D01*
X133615238Y-83500952D01*
X133662857Y-83548571D01*
X133710476Y-83643809D01*
X133710476Y-83881904D01*
X133662857Y-83977142D01*
X133615238Y-84024761D01*
X133520000Y-84072380D01*
X133234285Y-84072380D01*
X133139047Y-84024761D01*
X133091428Y-83977142D01*
X134662857Y-84072380D02*
X134091428Y-84072380D01*
X134377142Y-84072380D02*
X134377142Y-83072380D01*
X134281904Y-83215238D01*
X134186666Y-83310476D01*
X134091428Y-83358095D01*
%TO.C,J30*%
X122550476Y-78122380D02*
X122550476Y-78836666D01*
X122502857Y-78979523D01*
X122407619Y-79074761D01*
X122264761Y-79122380D01*
X122169523Y-79122380D01*
X122931428Y-78122380D02*
X123550476Y-78122380D01*
X123217142Y-78503333D01*
X123360000Y-78503333D01*
X123455238Y-78550952D01*
X123502857Y-78598571D01*
X123550476Y-78693809D01*
X123550476Y-78931904D01*
X123502857Y-79027142D01*
X123455238Y-79074761D01*
X123360000Y-79122380D01*
X123074285Y-79122380D01*
X122979047Y-79074761D01*
X122931428Y-79027142D01*
X124169523Y-78122380D02*
X124264761Y-78122380D01*
X124360000Y-78170000D01*
X124407619Y-78217619D01*
X124455238Y-78312857D01*
X124502857Y-78503333D01*
X124502857Y-78741428D01*
X124455238Y-78931904D01*
X124407619Y-79027142D01*
X124360000Y-79074761D01*
X124264761Y-79122380D01*
X124169523Y-79122380D01*
X124074285Y-79074761D01*
X124026666Y-79027142D01*
X123979047Y-78931904D01*
X123931428Y-78741428D01*
X123931428Y-78503333D01*
X123979047Y-78312857D01*
X124026666Y-78217619D01*
X124074285Y-78170000D01*
X124169523Y-78122380D01*
%TO.C,J29*%
X122550476Y-83072380D02*
X122550476Y-83786666D01*
X122502857Y-83929523D01*
X122407619Y-84024761D01*
X122264761Y-84072380D01*
X122169523Y-84072380D01*
X122979047Y-83167619D02*
X123026666Y-83120000D01*
X123121904Y-83072380D01*
X123360000Y-83072380D01*
X123455238Y-83120000D01*
X123502857Y-83167619D01*
X123550476Y-83262857D01*
X123550476Y-83358095D01*
X123502857Y-83500952D01*
X122931428Y-84072380D01*
X123550476Y-84072380D01*
X124026666Y-84072380D02*
X124217142Y-84072380D01*
X124312380Y-84024761D01*
X124360000Y-83977142D01*
X124455238Y-83834285D01*
X124502857Y-83643809D01*
X124502857Y-83262857D01*
X124455238Y-83167619D01*
X124407619Y-83120000D01*
X124312380Y-83072380D01*
X124121904Y-83072380D01*
X124026666Y-83120000D01*
X123979047Y-83167619D01*
X123931428Y-83262857D01*
X123931428Y-83500952D01*
X123979047Y-83596190D01*
X124026666Y-83643809D01*
X124121904Y-83691428D01*
X124312380Y-83691428D01*
X124407619Y-83643809D01*
X124455238Y-83596190D01*
X124502857Y-83500952D01*
%TO.C,J28*%
X112390476Y-78122380D02*
X112390476Y-78836666D01*
X112342857Y-78979523D01*
X112247619Y-79074761D01*
X112104761Y-79122380D01*
X112009523Y-79122380D01*
X112819047Y-78217619D02*
X112866666Y-78170000D01*
X112961904Y-78122380D01*
X113200000Y-78122380D01*
X113295238Y-78170000D01*
X113342857Y-78217619D01*
X113390476Y-78312857D01*
X113390476Y-78408095D01*
X113342857Y-78550952D01*
X112771428Y-79122380D01*
X113390476Y-79122380D01*
X113961904Y-78550952D02*
X113866666Y-78503333D01*
X113819047Y-78455714D01*
X113771428Y-78360476D01*
X113771428Y-78312857D01*
X113819047Y-78217619D01*
X113866666Y-78170000D01*
X113961904Y-78122380D01*
X114152380Y-78122380D01*
X114247619Y-78170000D01*
X114295238Y-78217619D01*
X114342857Y-78312857D01*
X114342857Y-78360476D01*
X114295238Y-78455714D01*
X114247619Y-78503333D01*
X114152380Y-78550952D01*
X113961904Y-78550952D01*
X113866666Y-78598571D01*
X113819047Y-78646190D01*
X113771428Y-78741428D01*
X113771428Y-78931904D01*
X113819047Y-79027142D01*
X113866666Y-79074761D01*
X113961904Y-79122380D01*
X114152380Y-79122380D01*
X114247619Y-79074761D01*
X114295238Y-79027142D01*
X114342857Y-78931904D01*
X114342857Y-78741428D01*
X114295238Y-78646190D01*
X114247619Y-78598571D01*
X114152380Y-78550952D01*
%TO.C,J27*%
X112390476Y-83072380D02*
X112390476Y-83786666D01*
X112342857Y-83929523D01*
X112247619Y-84024761D01*
X112104761Y-84072380D01*
X112009523Y-84072380D01*
X112819047Y-83167619D02*
X112866666Y-83120000D01*
X112961904Y-83072380D01*
X113200000Y-83072380D01*
X113295238Y-83120000D01*
X113342857Y-83167619D01*
X113390476Y-83262857D01*
X113390476Y-83358095D01*
X113342857Y-83500952D01*
X112771428Y-84072380D01*
X113390476Y-84072380D01*
X113723809Y-83072380D02*
X114390476Y-83072380D01*
X113961904Y-84072380D01*
%TO.C,J26*%
X102230476Y-78122380D02*
X102230476Y-78836666D01*
X102182857Y-78979523D01*
X102087619Y-79074761D01*
X101944761Y-79122380D01*
X101849523Y-79122380D01*
X102659047Y-78217619D02*
X102706666Y-78170000D01*
X102801904Y-78122380D01*
X103040000Y-78122380D01*
X103135238Y-78170000D01*
X103182857Y-78217619D01*
X103230476Y-78312857D01*
X103230476Y-78408095D01*
X103182857Y-78550952D01*
X102611428Y-79122380D01*
X103230476Y-79122380D01*
X104087619Y-78122380D02*
X103897142Y-78122380D01*
X103801904Y-78170000D01*
X103754285Y-78217619D01*
X103659047Y-78360476D01*
X103611428Y-78550952D01*
X103611428Y-78931904D01*
X103659047Y-79027142D01*
X103706666Y-79074761D01*
X103801904Y-79122380D01*
X103992380Y-79122380D01*
X104087619Y-79074761D01*
X104135238Y-79027142D01*
X104182857Y-78931904D01*
X104182857Y-78693809D01*
X104135238Y-78598571D01*
X104087619Y-78550952D01*
X103992380Y-78503333D01*
X103801904Y-78503333D01*
X103706666Y-78550952D01*
X103659047Y-78598571D01*
X103611428Y-78693809D01*
%TO.C,J25*%
X102230476Y-83072380D02*
X102230476Y-83786666D01*
X102182857Y-83929523D01*
X102087619Y-84024761D01*
X101944761Y-84072380D01*
X101849523Y-84072380D01*
X102659047Y-83167619D02*
X102706666Y-83120000D01*
X102801904Y-83072380D01*
X103040000Y-83072380D01*
X103135238Y-83120000D01*
X103182857Y-83167619D01*
X103230476Y-83262857D01*
X103230476Y-83358095D01*
X103182857Y-83500952D01*
X102611428Y-84072380D01*
X103230476Y-84072380D01*
X104135238Y-83072380D02*
X103659047Y-83072380D01*
X103611428Y-83548571D01*
X103659047Y-83500952D01*
X103754285Y-83453333D01*
X103992380Y-83453333D01*
X104087619Y-83500952D01*
X104135238Y-83548571D01*
X104182857Y-83643809D01*
X104182857Y-83881904D01*
X104135238Y-83977142D01*
X104087619Y-84024761D01*
X103992380Y-84072380D01*
X103754285Y-84072380D01*
X103659047Y-84024761D01*
X103611428Y-83977142D01*
%TO.C,J24*%
X92070476Y-78122380D02*
X92070476Y-78836666D01*
X92022857Y-78979523D01*
X91927619Y-79074761D01*
X91784761Y-79122380D01*
X91689523Y-79122380D01*
X92499047Y-78217619D02*
X92546666Y-78170000D01*
X92641904Y-78122380D01*
X92880000Y-78122380D01*
X92975238Y-78170000D01*
X93022857Y-78217619D01*
X93070476Y-78312857D01*
X93070476Y-78408095D01*
X93022857Y-78550952D01*
X92451428Y-79122380D01*
X93070476Y-79122380D01*
X93927619Y-78455714D02*
X93927619Y-79122380D01*
X93689523Y-78074761D02*
X93451428Y-78789047D01*
X94070476Y-78789047D01*
%TO.C,J23*%
X92070476Y-83072380D02*
X92070476Y-83786666D01*
X92022857Y-83929523D01*
X91927619Y-84024761D01*
X91784761Y-84072380D01*
X91689523Y-84072380D01*
X92499047Y-83167619D02*
X92546666Y-83120000D01*
X92641904Y-83072380D01*
X92880000Y-83072380D01*
X92975238Y-83120000D01*
X93022857Y-83167619D01*
X93070476Y-83262857D01*
X93070476Y-83358095D01*
X93022857Y-83500952D01*
X92451428Y-84072380D01*
X93070476Y-84072380D01*
X93403809Y-83072380D02*
X94022857Y-83072380D01*
X93689523Y-83453333D01*
X93832380Y-83453333D01*
X93927619Y-83500952D01*
X93975238Y-83548571D01*
X94022857Y-83643809D01*
X94022857Y-83881904D01*
X93975238Y-83977142D01*
X93927619Y-84024761D01*
X93832380Y-84072380D01*
X93546666Y-84072380D01*
X93451428Y-84024761D01*
X93403809Y-83977142D01*
%TO.C,J22*%
X81910476Y-78122380D02*
X81910476Y-78836666D01*
X81862857Y-78979523D01*
X81767619Y-79074761D01*
X81624761Y-79122380D01*
X81529523Y-79122380D01*
X82339047Y-78217619D02*
X82386666Y-78170000D01*
X82481904Y-78122380D01*
X82720000Y-78122380D01*
X82815238Y-78170000D01*
X82862857Y-78217619D01*
X82910476Y-78312857D01*
X82910476Y-78408095D01*
X82862857Y-78550952D01*
X82291428Y-79122380D01*
X82910476Y-79122380D01*
X83291428Y-78217619D02*
X83339047Y-78170000D01*
X83434285Y-78122380D01*
X83672380Y-78122380D01*
X83767619Y-78170000D01*
X83815238Y-78217619D01*
X83862857Y-78312857D01*
X83862857Y-78408095D01*
X83815238Y-78550952D01*
X83243809Y-79122380D01*
X83862857Y-79122380D01*
%TO.C,J21*%
X81910476Y-83072380D02*
X81910476Y-83786666D01*
X81862857Y-83929523D01*
X81767619Y-84024761D01*
X81624761Y-84072380D01*
X81529523Y-84072380D01*
X82339047Y-83167619D02*
X82386666Y-83120000D01*
X82481904Y-83072380D01*
X82720000Y-83072380D01*
X82815238Y-83120000D01*
X82862857Y-83167619D01*
X82910476Y-83262857D01*
X82910476Y-83358095D01*
X82862857Y-83500952D01*
X82291428Y-84072380D01*
X82910476Y-84072380D01*
X83862857Y-84072380D02*
X83291428Y-84072380D01*
X83577142Y-84072380D02*
X83577142Y-83072380D01*
X83481904Y-83215238D01*
X83386666Y-83310476D01*
X83291428Y-83358095D01*
%TO.C,J20*%
X71750476Y-78122380D02*
X71750476Y-78836666D01*
X71702857Y-78979523D01*
X71607619Y-79074761D01*
X71464761Y-79122380D01*
X71369523Y-79122380D01*
X72179047Y-78217619D02*
X72226666Y-78170000D01*
X72321904Y-78122380D01*
X72560000Y-78122380D01*
X72655238Y-78170000D01*
X72702857Y-78217619D01*
X72750476Y-78312857D01*
X72750476Y-78408095D01*
X72702857Y-78550952D01*
X72131428Y-79122380D01*
X72750476Y-79122380D01*
X73369523Y-78122380D02*
X73464761Y-78122380D01*
X73560000Y-78170000D01*
X73607619Y-78217619D01*
X73655238Y-78312857D01*
X73702857Y-78503333D01*
X73702857Y-78741428D01*
X73655238Y-78931904D01*
X73607619Y-79027142D01*
X73560000Y-79074761D01*
X73464761Y-79122380D01*
X73369523Y-79122380D01*
X73274285Y-79074761D01*
X73226666Y-79027142D01*
X73179047Y-78931904D01*
X73131428Y-78741428D01*
X73131428Y-78503333D01*
X73179047Y-78312857D01*
X73226666Y-78217619D01*
X73274285Y-78170000D01*
X73369523Y-78122380D01*
%TO.C,J19*%
X71750476Y-83072380D02*
X71750476Y-83786666D01*
X71702857Y-83929523D01*
X71607619Y-84024761D01*
X71464761Y-84072380D01*
X71369523Y-84072380D01*
X72750476Y-84072380D02*
X72179047Y-84072380D01*
X72464761Y-84072380D02*
X72464761Y-83072380D01*
X72369523Y-83215238D01*
X72274285Y-83310476D01*
X72179047Y-83358095D01*
X73226666Y-84072380D02*
X73417142Y-84072380D01*
X73512380Y-84024761D01*
X73560000Y-83977142D01*
X73655238Y-83834285D01*
X73702857Y-83643809D01*
X73702857Y-83262857D01*
X73655238Y-83167619D01*
X73607619Y-83120000D01*
X73512380Y-83072380D01*
X73321904Y-83072380D01*
X73226666Y-83120000D01*
X73179047Y-83167619D01*
X73131428Y-83262857D01*
X73131428Y-83500952D01*
X73179047Y-83596190D01*
X73226666Y-83643809D01*
X73321904Y-83691428D01*
X73512380Y-83691428D01*
X73607619Y-83643809D01*
X73655238Y-83596190D01*
X73702857Y-83500952D01*
%TO.C,J18*%
X153030476Y-60342380D02*
X153030476Y-61056666D01*
X152982857Y-61199523D01*
X152887619Y-61294761D01*
X152744761Y-61342380D01*
X152649523Y-61342380D01*
X154030476Y-61342380D02*
X153459047Y-61342380D01*
X153744761Y-61342380D02*
X153744761Y-60342380D01*
X153649523Y-60485238D01*
X153554285Y-60580476D01*
X153459047Y-60628095D01*
X154601904Y-60770952D02*
X154506666Y-60723333D01*
X154459047Y-60675714D01*
X154411428Y-60580476D01*
X154411428Y-60532857D01*
X154459047Y-60437619D01*
X154506666Y-60390000D01*
X154601904Y-60342380D01*
X154792380Y-60342380D01*
X154887619Y-60390000D01*
X154935238Y-60437619D01*
X154982857Y-60532857D01*
X154982857Y-60580476D01*
X154935238Y-60675714D01*
X154887619Y-60723333D01*
X154792380Y-60770952D01*
X154601904Y-60770952D01*
X154506666Y-60818571D01*
X154459047Y-60866190D01*
X154411428Y-60961428D01*
X154411428Y-61151904D01*
X154459047Y-61247142D01*
X154506666Y-61294761D01*
X154601904Y-61342380D01*
X154792380Y-61342380D01*
X154887619Y-61294761D01*
X154935238Y-61247142D01*
X154982857Y-61151904D01*
X154982857Y-60961428D01*
X154935238Y-60866190D01*
X154887619Y-60818571D01*
X154792380Y-60770952D01*
%TO.C,J17*%
X153030476Y-65292380D02*
X153030476Y-66006666D01*
X152982857Y-66149523D01*
X152887619Y-66244761D01*
X152744761Y-66292380D01*
X152649523Y-66292380D01*
X154030476Y-66292380D02*
X153459047Y-66292380D01*
X153744761Y-66292380D02*
X153744761Y-65292380D01*
X153649523Y-65435238D01*
X153554285Y-65530476D01*
X153459047Y-65578095D01*
X154363809Y-65292380D02*
X155030476Y-65292380D01*
X154601904Y-66292380D01*
%TO.C,J16*%
X142870476Y-60342380D02*
X142870476Y-61056666D01*
X142822857Y-61199523D01*
X142727619Y-61294761D01*
X142584761Y-61342380D01*
X142489523Y-61342380D01*
X143870476Y-61342380D02*
X143299047Y-61342380D01*
X143584761Y-61342380D02*
X143584761Y-60342380D01*
X143489523Y-60485238D01*
X143394285Y-60580476D01*
X143299047Y-60628095D01*
X144727619Y-60342380D02*
X144537142Y-60342380D01*
X144441904Y-60390000D01*
X144394285Y-60437619D01*
X144299047Y-60580476D01*
X144251428Y-60770952D01*
X144251428Y-61151904D01*
X144299047Y-61247142D01*
X144346666Y-61294761D01*
X144441904Y-61342380D01*
X144632380Y-61342380D01*
X144727619Y-61294761D01*
X144775238Y-61247142D01*
X144822857Y-61151904D01*
X144822857Y-60913809D01*
X144775238Y-60818571D01*
X144727619Y-60770952D01*
X144632380Y-60723333D01*
X144441904Y-60723333D01*
X144346666Y-60770952D01*
X144299047Y-60818571D01*
X144251428Y-60913809D01*
%TO.C,J15*%
X142870476Y-65292380D02*
X142870476Y-66006666D01*
X142822857Y-66149523D01*
X142727619Y-66244761D01*
X142584761Y-66292380D01*
X142489523Y-66292380D01*
X143870476Y-66292380D02*
X143299047Y-66292380D01*
X143584761Y-66292380D02*
X143584761Y-65292380D01*
X143489523Y-65435238D01*
X143394285Y-65530476D01*
X143299047Y-65578095D01*
X144775238Y-65292380D02*
X144299047Y-65292380D01*
X144251428Y-65768571D01*
X144299047Y-65720952D01*
X144394285Y-65673333D01*
X144632380Y-65673333D01*
X144727619Y-65720952D01*
X144775238Y-65768571D01*
X144822857Y-65863809D01*
X144822857Y-66101904D01*
X144775238Y-66197142D01*
X144727619Y-66244761D01*
X144632380Y-66292380D01*
X144394285Y-66292380D01*
X144299047Y-66244761D01*
X144251428Y-66197142D01*
%TO.C,J14*%
X132710476Y-60342380D02*
X132710476Y-61056666D01*
X132662857Y-61199523D01*
X132567619Y-61294761D01*
X132424761Y-61342380D01*
X132329523Y-61342380D01*
X133710476Y-61342380D02*
X133139047Y-61342380D01*
X133424761Y-61342380D02*
X133424761Y-60342380D01*
X133329523Y-60485238D01*
X133234285Y-60580476D01*
X133139047Y-60628095D01*
X134567619Y-60675714D02*
X134567619Y-61342380D01*
X134329523Y-60294761D02*
X134091428Y-61009047D01*
X134710476Y-61009047D01*
%TO.C,J13*%
X132710476Y-65292380D02*
X132710476Y-66006666D01*
X132662857Y-66149523D01*
X132567619Y-66244761D01*
X132424761Y-66292380D01*
X132329523Y-66292380D01*
X133710476Y-66292380D02*
X133139047Y-66292380D01*
X133424761Y-66292380D02*
X133424761Y-65292380D01*
X133329523Y-65435238D01*
X133234285Y-65530476D01*
X133139047Y-65578095D01*
X134043809Y-65292380D02*
X134662857Y-65292380D01*
X134329523Y-65673333D01*
X134472380Y-65673333D01*
X134567619Y-65720952D01*
X134615238Y-65768571D01*
X134662857Y-65863809D01*
X134662857Y-66101904D01*
X134615238Y-66197142D01*
X134567619Y-66244761D01*
X134472380Y-66292380D01*
X134186666Y-66292380D01*
X134091428Y-66244761D01*
X134043809Y-66197142D01*
%TO.C,J12*%
X122550476Y-60342380D02*
X122550476Y-61056666D01*
X122502857Y-61199523D01*
X122407619Y-61294761D01*
X122264761Y-61342380D01*
X122169523Y-61342380D01*
X123550476Y-61342380D02*
X122979047Y-61342380D01*
X123264761Y-61342380D02*
X123264761Y-60342380D01*
X123169523Y-60485238D01*
X123074285Y-60580476D01*
X122979047Y-60628095D01*
X123931428Y-60437619D02*
X123979047Y-60390000D01*
X124074285Y-60342380D01*
X124312380Y-60342380D01*
X124407619Y-60390000D01*
X124455238Y-60437619D01*
X124502857Y-60532857D01*
X124502857Y-60628095D01*
X124455238Y-60770952D01*
X123883809Y-61342380D01*
X124502857Y-61342380D01*
%TO.C,J11*%
X122550476Y-65292380D02*
X122550476Y-66006666D01*
X122502857Y-66149523D01*
X122407619Y-66244761D01*
X122264761Y-66292380D01*
X122169523Y-66292380D01*
X123550476Y-66292380D02*
X122979047Y-66292380D01*
X123264761Y-66292380D02*
X123264761Y-65292380D01*
X123169523Y-65435238D01*
X123074285Y-65530476D01*
X122979047Y-65578095D01*
X124502857Y-66292380D02*
X123931428Y-66292380D01*
X124217142Y-66292380D02*
X124217142Y-65292380D01*
X124121904Y-65435238D01*
X124026666Y-65530476D01*
X123931428Y-65578095D01*
%TO.C,J10*%
X112390476Y-60342380D02*
X112390476Y-61056666D01*
X112342857Y-61199523D01*
X112247619Y-61294761D01*
X112104761Y-61342380D01*
X112009523Y-61342380D01*
X113390476Y-61342380D02*
X112819047Y-61342380D01*
X113104761Y-61342380D02*
X113104761Y-60342380D01*
X113009523Y-60485238D01*
X112914285Y-60580476D01*
X112819047Y-60628095D01*
X114009523Y-60342380D02*
X114104761Y-60342380D01*
X114200000Y-60390000D01*
X114247619Y-60437619D01*
X114295238Y-60532857D01*
X114342857Y-60723333D01*
X114342857Y-60961428D01*
X114295238Y-61151904D01*
X114247619Y-61247142D01*
X114200000Y-61294761D01*
X114104761Y-61342380D01*
X114009523Y-61342380D01*
X113914285Y-61294761D01*
X113866666Y-61247142D01*
X113819047Y-61151904D01*
X113771428Y-60961428D01*
X113771428Y-60723333D01*
X113819047Y-60532857D01*
X113866666Y-60437619D01*
X113914285Y-60390000D01*
X114009523Y-60342380D01*
%TO.C,J9*%
X112866666Y-65292380D02*
X112866666Y-66006666D01*
X112819047Y-66149523D01*
X112723809Y-66244761D01*
X112580952Y-66292380D01*
X112485714Y-66292380D01*
X113390476Y-66292380D02*
X113580952Y-66292380D01*
X113676190Y-66244761D01*
X113723809Y-66197142D01*
X113819047Y-66054285D01*
X113866666Y-65863809D01*
X113866666Y-65482857D01*
X113819047Y-65387619D01*
X113771428Y-65340000D01*
X113676190Y-65292380D01*
X113485714Y-65292380D01*
X113390476Y-65340000D01*
X113342857Y-65387619D01*
X113295238Y-65482857D01*
X113295238Y-65720952D01*
X113342857Y-65816190D01*
X113390476Y-65863809D01*
X113485714Y-65911428D01*
X113676190Y-65911428D01*
X113771428Y-65863809D01*
X113819047Y-65816190D01*
X113866666Y-65720952D01*
%TO.C,J8*%
X102706666Y-60342380D02*
X102706666Y-61056666D01*
X102659047Y-61199523D01*
X102563809Y-61294761D01*
X102420952Y-61342380D01*
X102325714Y-61342380D01*
X103325714Y-60770952D02*
X103230476Y-60723333D01*
X103182857Y-60675714D01*
X103135238Y-60580476D01*
X103135238Y-60532857D01*
X103182857Y-60437619D01*
X103230476Y-60390000D01*
X103325714Y-60342380D01*
X103516190Y-60342380D01*
X103611428Y-60390000D01*
X103659047Y-60437619D01*
X103706666Y-60532857D01*
X103706666Y-60580476D01*
X103659047Y-60675714D01*
X103611428Y-60723333D01*
X103516190Y-60770952D01*
X103325714Y-60770952D01*
X103230476Y-60818571D01*
X103182857Y-60866190D01*
X103135238Y-60961428D01*
X103135238Y-61151904D01*
X103182857Y-61247142D01*
X103230476Y-61294761D01*
X103325714Y-61342380D01*
X103516190Y-61342380D01*
X103611428Y-61294761D01*
X103659047Y-61247142D01*
X103706666Y-61151904D01*
X103706666Y-60961428D01*
X103659047Y-60866190D01*
X103611428Y-60818571D01*
X103516190Y-60770952D01*
%TO.C,J7*%
X102706666Y-65292380D02*
X102706666Y-66006666D01*
X102659047Y-66149523D01*
X102563809Y-66244761D01*
X102420952Y-66292380D01*
X102325714Y-66292380D01*
X103087619Y-65292380D02*
X103754285Y-65292380D01*
X103325714Y-66292380D01*
%TO.C,J6*%
X92546666Y-60342380D02*
X92546666Y-61056666D01*
X92499047Y-61199523D01*
X92403809Y-61294761D01*
X92260952Y-61342380D01*
X92165714Y-61342380D01*
X93451428Y-60342380D02*
X93260952Y-60342380D01*
X93165714Y-60390000D01*
X93118095Y-60437619D01*
X93022857Y-60580476D01*
X92975238Y-60770952D01*
X92975238Y-61151904D01*
X93022857Y-61247142D01*
X93070476Y-61294761D01*
X93165714Y-61342380D01*
X93356190Y-61342380D01*
X93451428Y-61294761D01*
X93499047Y-61247142D01*
X93546666Y-61151904D01*
X93546666Y-60913809D01*
X93499047Y-60818571D01*
X93451428Y-60770952D01*
X93356190Y-60723333D01*
X93165714Y-60723333D01*
X93070476Y-60770952D01*
X93022857Y-60818571D01*
X92975238Y-60913809D01*
%TO.C,J5*%
X92546666Y-65292380D02*
X92546666Y-66006666D01*
X92499047Y-66149523D01*
X92403809Y-66244761D01*
X92260952Y-66292380D01*
X92165714Y-66292380D01*
X93499047Y-65292380D02*
X93022857Y-65292380D01*
X92975238Y-65768571D01*
X93022857Y-65720952D01*
X93118095Y-65673333D01*
X93356190Y-65673333D01*
X93451428Y-65720952D01*
X93499047Y-65768571D01*
X93546666Y-65863809D01*
X93546666Y-66101904D01*
X93499047Y-66197142D01*
X93451428Y-66244761D01*
X93356190Y-66292380D01*
X93118095Y-66292380D01*
X93022857Y-66244761D01*
X92975238Y-66197142D01*
%TO.C,J4*%
X82386666Y-60342380D02*
X82386666Y-61056666D01*
X82339047Y-61199523D01*
X82243809Y-61294761D01*
X82100952Y-61342380D01*
X82005714Y-61342380D01*
X83291428Y-60675714D02*
X83291428Y-61342380D01*
X83053333Y-60294761D02*
X82815238Y-61009047D01*
X83434285Y-61009047D01*
%TO.C,J3*%
X82386666Y-65292380D02*
X82386666Y-66006666D01*
X82339047Y-66149523D01*
X82243809Y-66244761D01*
X82100952Y-66292380D01*
X82005714Y-66292380D01*
X82767619Y-65292380D02*
X83386666Y-65292380D01*
X83053333Y-65673333D01*
X83196190Y-65673333D01*
X83291428Y-65720952D01*
X83339047Y-65768571D01*
X83386666Y-65863809D01*
X83386666Y-66101904D01*
X83339047Y-66197142D01*
X83291428Y-66244761D01*
X83196190Y-66292380D01*
X82910476Y-66292380D01*
X82815238Y-66244761D01*
X82767619Y-66197142D01*
%TO.C,J1*%
X72226666Y-65292380D02*
X72226666Y-66006666D01*
X72179047Y-66149523D01*
X72083809Y-66244761D01*
X71940952Y-66292380D01*
X71845714Y-66292380D01*
X73226666Y-66292380D02*
X72655238Y-66292380D01*
X72940952Y-66292380D02*
X72940952Y-65292380D01*
X72845714Y-65435238D01*
X72750476Y-65530476D01*
X72655238Y-65578095D01*
%TO.C,J2*%
X72226666Y-60342380D02*
X72226666Y-61056666D01*
X72179047Y-61199523D01*
X72083809Y-61294761D01*
X71940952Y-61342380D01*
X71845714Y-61342380D01*
X72655238Y-60437619D02*
X72702857Y-60390000D01*
X72798095Y-60342380D01*
X73036190Y-60342380D01*
X73131428Y-60390000D01*
X73179047Y-60437619D01*
X73226666Y-60532857D01*
X73226666Y-60628095D01*
X73179047Y-60770952D01*
X72607619Y-61342380D01*
X73226666Y-61342380D01*
D11*
%TO.C,J90*%
X158980000Y-131460000D02*
X158980000Y-131660000D01*
X155980000Y-131460000D02*
X156780000Y-131460000D01*
X158180000Y-134460000D02*
X158180000Y-134960000D01*
X158180000Y-131460000D02*
X158980000Y-131460000D01*
X155980000Y-131660000D02*
X155980000Y-131460000D01*
X158980000Y-134460000D02*
X158180000Y-134460000D01*
X156780000Y-134460000D02*
X156180000Y-134460000D01*
X156780000Y-134460000D02*
X156780000Y-134960000D01*
X156180000Y-134460000D02*
X155980000Y-134260000D01*
X158980000Y-134260000D02*
X158980000Y-134460000D01*
%TO.C,J89*%
X154125000Y-140790000D02*
X154125000Y-143690000D01*
X156030000Y-145595000D02*
X158930000Y-145595000D01*
X156030000Y-138885000D02*
X158930000Y-138885000D01*
X160835000Y-140790000D02*
X160835000Y-143690000D01*
%TO.C,J88*%
X148820000Y-131460000D02*
X148820000Y-131660000D01*
X145820000Y-131460000D02*
X146620000Y-131460000D01*
X148020000Y-134460000D02*
X148020000Y-134960000D01*
X148020000Y-131460000D02*
X148820000Y-131460000D01*
X145820000Y-131660000D02*
X145820000Y-131460000D01*
X148820000Y-134460000D02*
X148020000Y-134460000D01*
X146620000Y-134460000D02*
X146020000Y-134460000D01*
X146620000Y-134460000D02*
X146620000Y-134960000D01*
X146020000Y-134460000D02*
X145820000Y-134260000D01*
X148820000Y-134260000D02*
X148820000Y-134460000D01*
%TO.C,J87*%
X143965000Y-140790000D02*
X143965000Y-143690000D01*
X145870000Y-145595000D02*
X148770000Y-145595000D01*
X145870000Y-138885000D02*
X148770000Y-138885000D01*
X150675000Y-140790000D02*
X150675000Y-143690000D01*
%TO.C,J86*%
X138660000Y-131460000D02*
X138660000Y-131660000D01*
X135660000Y-131460000D02*
X136460000Y-131460000D01*
X137860000Y-134460000D02*
X137860000Y-134960000D01*
X137860000Y-131460000D02*
X138660000Y-131460000D01*
X135660000Y-131660000D02*
X135660000Y-131460000D01*
X138660000Y-134460000D02*
X137860000Y-134460000D01*
X136460000Y-134460000D02*
X135860000Y-134460000D01*
X136460000Y-134460000D02*
X136460000Y-134960000D01*
X135860000Y-134460000D02*
X135660000Y-134260000D01*
X138660000Y-134260000D02*
X138660000Y-134460000D01*
%TO.C,J85*%
X133805000Y-140790000D02*
X133805000Y-143690000D01*
X135710000Y-145595000D02*
X138610000Y-145595000D01*
X135710000Y-138885000D02*
X138610000Y-138885000D01*
X140515000Y-140790000D02*
X140515000Y-143690000D01*
%TO.C,J84*%
X128500000Y-131460000D02*
X128500000Y-131660000D01*
X125500000Y-131460000D02*
X126300000Y-131460000D01*
X127700000Y-134460000D02*
X127700000Y-134960000D01*
X127700000Y-131460000D02*
X128500000Y-131460000D01*
X125500000Y-131660000D02*
X125500000Y-131460000D01*
X128500000Y-134460000D02*
X127700000Y-134460000D01*
X126300000Y-134460000D02*
X125700000Y-134460000D01*
X126300000Y-134460000D02*
X126300000Y-134960000D01*
X125700000Y-134460000D02*
X125500000Y-134260000D01*
X128500000Y-134260000D02*
X128500000Y-134460000D01*
%TO.C,J83*%
X123645000Y-140790000D02*
X123645000Y-143690000D01*
X125550000Y-145595000D02*
X128450000Y-145595000D01*
X125550000Y-138885000D02*
X128450000Y-138885000D01*
X130355000Y-140790000D02*
X130355000Y-143690000D01*
%TO.C,J82*%
X118340000Y-131460000D02*
X118340000Y-131660000D01*
X115340000Y-131460000D02*
X116140000Y-131460000D01*
X117540000Y-134460000D02*
X117540000Y-134960000D01*
X117540000Y-131460000D02*
X118340000Y-131460000D01*
X115340000Y-131660000D02*
X115340000Y-131460000D01*
X118340000Y-134460000D02*
X117540000Y-134460000D01*
X116140000Y-134460000D02*
X115540000Y-134460000D01*
X116140000Y-134460000D02*
X116140000Y-134960000D01*
X115540000Y-134460000D02*
X115340000Y-134260000D01*
X118340000Y-134260000D02*
X118340000Y-134460000D01*
%TO.C,J81*%
X113485000Y-140790000D02*
X113485000Y-143690000D01*
X115390000Y-145595000D02*
X118290000Y-145595000D01*
X115390000Y-138885000D02*
X118290000Y-138885000D01*
X120195000Y-140790000D02*
X120195000Y-143690000D01*
%TO.C,J80*%
X108180000Y-131460000D02*
X108180000Y-131660000D01*
X105180000Y-131460000D02*
X105980000Y-131460000D01*
X107380000Y-134460000D02*
X107380000Y-134960000D01*
X107380000Y-131460000D02*
X108180000Y-131460000D01*
X105180000Y-131660000D02*
X105180000Y-131460000D01*
X108180000Y-134460000D02*
X107380000Y-134460000D01*
X105980000Y-134460000D02*
X105380000Y-134460000D01*
X105980000Y-134460000D02*
X105980000Y-134960000D01*
X105380000Y-134460000D02*
X105180000Y-134260000D01*
X108180000Y-134260000D02*
X108180000Y-134460000D01*
%TO.C,J79*%
X103325000Y-140790000D02*
X103325000Y-143690000D01*
X105230000Y-145595000D02*
X108130000Y-145595000D01*
X105230000Y-138885000D02*
X108130000Y-138885000D01*
X110035000Y-140790000D02*
X110035000Y-143690000D01*
%TO.C,J78*%
X98020000Y-131460000D02*
X98020000Y-131660000D01*
X95020000Y-131460000D02*
X95820000Y-131460000D01*
X97220000Y-134460000D02*
X97220000Y-134960000D01*
X97220000Y-131460000D02*
X98020000Y-131460000D01*
X95020000Y-131660000D02*
X95020000Y-131460000D01*
X98020000Y-134460000D02*
X97220000Y-134460000D01*
X95820000Y-134460000D02*
X95220000Y-134460000D01*
X95820000Y-134460000D02*
X95820000Y-134960000D01*
X95220000Y-134460000D02*
X95020000Y-134260000D01*
X98020000Y-134260000D02*
X98020000Y-134460000D01*
%TO.C,J77*%
X93165000Y-140790000D02*
X93165000Y-143690000D01*
X95070000Y-145595000D02*
X97970000Y-145595000D01*
X95070000Y-138885000D02*
X97970000Y-138885000D01*
X99875000Y-140790000D02*
X99875000Y-143690000D01*
%TO.C,J76*%
X87860000Y-131460000D02*
X87860000Y-131660000D01*
X84860000Y-131460000D02*
X85660000Y-131460000D01*
X87060000Y-134460000D02*
X87060000Y-134960000D01*
X87060000Y-131460000D02*
X87860000Y-131460000D01*
X84860000Y-131660000D02*
X84860000Y-131460000D01*
X87860000Y-134460000D02*
X87060000Y-134460000D01*
X85660000Y-134460000D02*
X85060000Y-134460000D01*
X85660000Y-134460000D02*
X85660000Y-134960000D01*
X85060000Y-134460000D02*
X84860000Y-134260000D01*
X87860000Y-134260000D02*
X87860000Y-134460000D01*
%TO.C,J75*%
X83005000Y-140790000D02*
X83005000Y-143690000D01*
X84910000Y-145595000D02*
X87810000Y-145595000D01*
X84910000Y-138885000D02*
X87810000Y-138885000D01*
X89715000Y-140790000D02*
X89715000Y-143690000D01*
%TO.C,J74*%
X77700000Y-131460000D02*
X77700000Y-131660000D01*
X74700000Y-131460000D02*
X75500000Y-131460000D01*
X76900000Y-134460000D02*
X76900000Y-134960000D01*
X76900000Y-131460000D02*
X77700000Y-131460000D01*
X74700000Y-131660000D02*
X74700000Y-131460000D01*
X77700000Y-134460000D02*
X76900000Y-134460000D01*
X75500000Y-134460000D02*
X74900000Y-134460000D01*
X75500000Y-134460000D02*
X75500000Y-134960000D01*
X74900000Y-134460000D02*
X74700000Y-134260000D01*
X77700000Y-134260000D02*
X77700000Y-134460000D01*
%TO.C,J73*%
X72845000Y-140790000D02*
X72845000Y-143690000D01*
X74750000Y-145595000D02*
X77650000Y-145595000D01*
X74750000Y-138885000D02*
X77650000Y-138885000D01*
X79555000Y-140790000D02*
X79555000Y-143690000D01*
%TO.C,J72*%
X158980000Y-113680000D02*
X158980000Y-113880000D01*
X155980000Y-113680000D02*
X156780000Y-113680000D01*
X158180000Y-116680000D02*
X158180000Y-117180000D01*
X158180000Y-113680000D02*
X158980000Y-113680000D01*
X155980000Y-113880000D02*
X155980000Y-113680000D01*
X158980000Y-116680000D02*
X158180000Y-116680000D01*
X156780000Y-116680000D02*
X156180000Y-116680000D01*
X156780000Y-116680000D02*
X156780000Y-117180000D01*
X156180000Y-116680000D02*
X155980000Y-116480000D01*
X158980000Y-116480000D02*
X158980000Y-116680000D01*
%TO.C,J71*%
X154125000Y-123010000D02*
X154125000Y-125910000D01*
X156030000Y-127815000D02*
X158930000Y-127815000D01*
X156030000Y-121105000D02*
X158930000Y-121105000D01*
X160835000Y-123010000D02*
X160835000Y-125910000D01*
%TO.C,J70*%
X148820000Y-113680000D02*
X148820000Y-113880000D01*
X145820000Y-113680000D02*
X146620000Y-113680000D01*
X148020000Y-116680000D02*
X148020000Y-117180000D01*
X148020000Y-113680000D02*
X148820000Y-113680000D01*
X145820000Y-113880000D02*
X145820000Y-113680000D01*
X148820000Y-116680000D02*
X148020000Y-116680000D01*
X146620000Y-116680000D02*
X146020000Y-116680000D01*
X146620000Y-116680000D02*
X146620000Y-117180000D01*
X146020000Y-116680000D02*
X145820000Y-116480000D01*
X148820000Y-116480000D02*
X148820000Y-116680000D01*
%TO.C,J69*%
X143965000Y-123010000D02*
X143965000Y-125910000D01*
X145870000Y-127815000D02*
X148770000Y-127815000D01*
X145870000Y-121105000D02*
X148770000Y-121105000D01*
X150675000Y-123010000D02*
X150675000Y-125910000D01*
%TO.C,J68*%
X138660000Y-113680000D02*
X138660000Y-113880000D01*
X135660000Y-113680000D02*
X136460000Y-113680000D01*
X137860000Y-116680000D02*
X137860000Y-117180000D01*
X137860000Y-113680000D02*
X138660000Y-113680000D01*
X135660000Y-113880000D02*
X135660000Y-113680000D01*
X138660000Y-116680000D02*
X137860000Y-116680000D01*
X136460000Y-116680000D02*
X135860000Y-116680000D01*
X136460000Y-116680000D02*
X136460000Y-117180000D01*
X135860000Y-116680000D02*
X135660000Y-116480000D01*
X138660000Y-116480000D02*
X138660000Y-116680000D01*
%TO.C,J67*%
X133805000Y-123010000D02*
X133805000Y-125910000D01*
X135710000Y-127815000D02*
X138610000Y-127815000D01*
X135710000Y-121105000D02*
X138610000Y-121105000D01*
X140515000Y-123010000D02*
X140515000Y-125910000D01*
%TO.C,J66*%
X128500000Y-113680000D02*
X128500000Y-113880000D01*
X125500000Y-113680000D02*
X126300000Y-113680000D01*
X127700000Y-116680000D02*
X127700000Y-117180000D01*
X127700000Y-113680000D02*
X128500000Y-113680000D01*
X125500000Y-113880000D02*
X125500000Y-113680000D01*
X128500000Y-116680000D02*
X127700000Y-116680000D01*
X126300000Y-116680000D02*
X125700000Y-116680000D01*
X126300000Y-116680000D02*
X126300000Y-117180000D01*
X125700000Y-116680000D02*
X125500000Y-116480000D01*
X128500000Y-116480000D02*
X128500000Y-116680000D01*
%TO.C,J65*%
X123645000Y-123010000D02*
X123645000Y-125910000D01*
X125550000Y-127815000D02*
X128450000Y-127815000D01*
X125550000Y-121105000D02*
X128450000Y-121105000D01*
X130355000Y-123010000D02*
X130355000Y-125910000D01*
%TO.C,J64*%
X118340000Y-113680000D02*
X118340000Y-113880000D01*
X115340000Y-113680000D02*
X116140000Y-113680000D01*
X117540000Y-116680000D02*
X117540000Y-117180000D01*
X117540000Y-113680000D02*
X118340000Y-113680000D01*
X115340000Y-113880000D02*
X115340000Y-113680000D01*
X118340000Y-116680000D02*
X117540000Y-116680000D01*
X116140000Y-116680000D02*
X115540000Y-116680000D01*
X116140000Y-116680000D02*
X116140000Y-117180000D01*
X115540000Y-116680000D02*
X115340000Y-116480000D01*
X118340000Y-116480000D02*
X118340000Y-116680000D01*
%TO.C,J63*%
X113485000Y-123010000D02*
X113485000Y-125910000D01*
X115390000Y-127815000D02*
X118290000Y-127815000D01*
X115390000Y-121105000D02*
X118290000Y-121105000D01*
X120195000Y-123010000D02*
X120195000Y-125910000D01*
%TO.C,J62*%
X108180000Y-113680000D02*
X108180000Y-113880000D01*
X105180000Y-113680000D02*
X105980000Y-113680000D01*
X107380000Y-116680000D02*
X107380000Y-117180000D01*
X107380000Y-113680000D02*
X108180000Y-113680000D01*
X105180000Y-113880000D02*
X105180000Y-113680000D01*
X108180000Y-116680000D02*
X107380000Y-116680000D01*
X105980000Y-116680000D02*
X105380000Y-116680000D01*
X105980000Y-116680000D02*
X105980000Y-117180000D01*
X105380000Y-116680000D02*
X105180000Y-116480000D01*
X108180000Y-116480000D02*
X108180000Y-116680000D01*
%TO.C,J61*%
X103325000Y-123010000D02*
X103325000Y-125910000D01*
X105230000Y-127815000D02*
X108130000Y-127815000D01*
X105230000Y-121105000D02*
X108130000Y-121105000D01*
X110035000Y-123010000D02*
X110035000Y-125910000D01*
%TO.C,J60*%
X98020000Y-113680000D02*
X98020000Y-113880000D01*
X95020000Y-113680000D02*
X95820000Y-113680000D01*
X97220000Y-116680000D02*
X97220000Y-117180000D01*
X97220000Y-113680000D02*
X98020000Y-113680000D01*
X95020000Y-113880000D02*
X95020000Y-113680000D01*
X98020000Y-116680000D02*
X97220000Y-116680000D01*
X95820000Y-116680000D02*
X95220000Y-116680000D01*
X95820000Y-116680000D02*
X95820000Y-117180000D01*
X95220000Y-116680000D02*
X95020000Y-116480000D01*
X98020000Y-116480000D02*
X98020000Y-116680000D01*
%TO.C,J59*%
X93165000Y-123010000D02*
X93165000Y-125910000D01*
X95070000Y-127815000D02*
X97970000Y-127815000D01*
X95070000Y-121105000D02*
X97970000Y-121105000D01*
X99875000Y-123010000D02*
X99875000Y-125910000D01*
%TO.C,J58*%
X87860000Y-113680000D02*
X87860000Y-113880000D01*
X84860000Y-113680000D02*
X85660000Y-113680000D01*
X87060000Y-116680000D02*
X87060000Y-117180000D01*
X87060000Y-113680000D02*
X87860000Y-113680000D01*
X84860000Y-113880000D02*
X84860000Y-113680000D01*
X87860000Y-116680000D02*
X87060000Y-116680000D01*
X85660000Y-116680000D02*
X85060000Y-116680000D01*
X85660000Y-116680000D02*
X85660000Y-117180000D01*
X85060000Y-116680000D02*
X84860000Y-116480000D01*
X87860000Y-116480000D02*
X87860000Y-116680000D01*
%TO.C,J57*%
X83005000Y-123010000D02*
X83005000Y-125910000D01*
X84910000Y-127815000D02*
X87810000Y-127815000D01*
X84910000Y-121105000D02*
X87810000Y-121105000D01*
X89715000Y-123010000D02*
X89715000Y-125910000D01*
%TO.C,J56*%
X77700000Y-113680000D02*
X77700000Y-113880000D01*
X74700000Y-113680000D02*
X75500000Y-113680000D01*
X76900000Y-116680000D02*
X76900000Y-117180000D01*
X76900000Y-113680000D02*
X77700000Y-113680000D01*
X74700000Y-113880000D02*
X74700000Y-113680000D01*
X77700000Y-116680000D02*
X76900000Y-116680000D01*
X75500000Y-116680000D02*
X74900000Y-116680000D01*
X75500000Y-116680000D02*
X75500000Y-117180000D01*
X74900000Y-116680000D02*
X74700000Y-116480000D01*
X77700000Y-116480000D02*
X77700000Y-116680000D01*
%TO.C,J55*%
X72845000Y-123010000D02*
X72845000Y-125910000D01*
X74750000Y-127815000D02*
X77650000Y-127815000D01*
X74750000Y-121105000D02*
X77650000Y-121105000D01*
X79555000Y-123010000D02*
X79555000Y-125910000D01*
%TO.C,J54*%
X158980000Y-95900000D02*
X158980000Y-96100000D01*
X155980000Y-95900000D02*
X156780000Y-95900000D01*
X158180000Y-98900000D02*
X158180000Y-99400000D01*
X158180000Y-95900000D02*
X158980000Y-95900000D01*
X155980000Y-96100000D02*
X155980000Y-95900000D01*
X158980000Y-98900000D02*
X158180000Y-98900000D01*
X156780000Y-98900000D02*
X156180000Y-98900000D01*
X156780000Y-98900000D02*
X156780000Y-99400000D01*
X156180000Y-98900000D02*
X155980000Y-98700000D01*
X158980000Y-98700000D02*
X158980000Y-98900000D01*
%TO.C,J53*%
X154125000Y-105230000D02*
X154125000Y-108130000D01*
X156030000Y-110035000D02*
X158930000Y-110035000D01*
X156030000Y-103325000D02*
X158930000Y-103325000D01*
X160835000Y-105230000D02*
X160835000Y-108130000D01*
%TO.C,J52*%
X148820000Y-95900000D02*
X148820000Y-96100000D01*
X145820000Y-95900000D02*
X146620000Y-95900000D01*
X148020000Y-98900000D02*
X148020000Y-99400000D01*
X148020000Y-95900000D02*
X148820000Y-95900000D01*
X145820000Y-96100000D02*
X145820000Y-95900000D01*
X148820000Y-98900000D02*
X148020000Y-98900000D01*
X146620000Y-98900000D02*
X146020000Y-98900000D01*
X146620000Y-98900000D02*
X146620000Y-99400000D01*
X146020000Y-98900000D02*
X145820000Y-98700000D01*
X148820000Y-98700000D02*
X148820000Y-98900000D01*
%TO.C,J51*%
X143965000Y-105230000D02*
X143965000Y-108130000D01*
X145870000Y-110035000D02*
X148770000Y-110035000D01*
X145870000Y-103325000D02*
X148770000Y-103325000D01*
X150675000Y-105230000D02*
X150675000Y-108130000D01*
%TO.C,J50*%
X138660000Y-95900000D02*
X138660000Y-96100000D01*
X135660000Y-95900000D02*
X136460000Y-95900000D01*
X137860000Y-98900000D02*
X137860000Y-99400000D01*
X137860000Y-95900000D02*
X138660000Y-95900000D01*
X135660000Y-96100000D02*
X135660000Y-95900000D01*
X138660000Y-98900000D02*
X137860000Y-98900000D01*
X136460000Y-98900000D02*
X135860000Y-98900000D01*
X136460000Y-98900000D02*
X136460000Y-99400000D01*
X135860000Y-98900000D02*
X135660000Y-98700000D01*
X138660000Y-98700000D02*
X138660000Y-98900000D01*
%TO.C,J49*%
X133805000Y-105230000D02*
X133805000Y-108130000D01*
X135710000Y-110035000D02*
X138610000Y-110035000D01*
X135710000Y-103325000D02*
X138610000Y-103325000D01*
X140515000Y-105230000D02*
X140515000Y-108130000D01*
%TO.C,J48*%
X128500000Y-95900000D02*
X128500000Y-96100000D01*
X125500000Y-95900000D02*
X126300000Y-95900000D01*
X127700000Y-98900000D02*
X127700000Y-99400000D01*
X127700000Y-95900000D02*
X128500000Y-95900000D01*
X125500000Y-96100000D02*
X125500000Y-95900000D01*
X128500000Y-98900000D02*
X127700000Y-98900000D01*
X126300000Y-98900000D02*
X125700000Y-98900000D01*
X126300000Y-98900000D02*
X126300000Y-99400000D01*
X125700000Y-98900000D02*
X125500000Y-98700000D01*
X128500000Y-98700000D02*
X128500000Y-98900000D01*
%TO.C,J47*%
X123645000Y-105230000D02*
X123645000Y-108130000D01*
X125550000Y-110035000D02*
X128450000Y-110035000D01*
X125550000Y-103325000D02*
X128450000Y-103325000D01*
X130355000Y-105230000D02*
X130355000Y-108130000D01*
%TO.C,J46*%
X118340000Y-95900000D02*
X118340000Y-96100000D01*
X115340000Y-95900000D02*
X116140000Y-95900000D01*
X117540000Y-98900000D02*
X117540000Y-99400000D01*
X117540000Y-95900000D02*
X118340000Y-95900000D01*
X115340000Y-96100000D02*
X115340000Y-95900000D01*
X118340000Y-98900000D02*
X117540000Y-98900000D01*
X116140000Y-98900000D02*
X115540000Y-98900000D01*
X116140000Y-98900000D02*
X116140000Y-99400000D01*
X115540000Y-98900000D02*
X115340000Y-98700000D01*
X118340000Y-98700000D02*
X118340000Y-98900000D01*
%TO.C,J45*%
X113485000Y-105230000D02*
X113485000Y-108130000D01*
X115390000Y-110035000D02*
X118290000Y-110035000D01*
X115390000Y-103325000D02*
X118290000Y-103325000D01*
X120195000Y-105230000D02*
X120195000Y-108130000D01*
%TO.C,J44*%
X108180000Y-95900000D02*
X108180000Y-96100000D01*
X105180000Y-95900000D02*
X105980000Y-95900000D01*
X107380000Y-98900000D02*
X107380000Y-99400000D01*
X107380000Y-95900000D02*
X108180000Y-95900000D01*
X105180000Y-96100000D02*
X105180000Y-95900000D01*
X108180000Y-98900000D02*
X107380000Y-98900000D01*
X105980000Y-98900000D02*
X105380000Y-98900000D01*
X105980000Y-98900000D02*
X105980000Y-99400000D01*
X105380000Y-98900000D02*
X105180000Y-98700000D01*
X108180000Y-98700000D02*
X108180000Y-98900000D01*
%TO.C,J43*%
X103325000Y-105230000D02*
X103325000Y-108130000D01*
X105230000Y-110035000D02*
X108130000Y-110035000D01*
X105230000Y-103325000D02*
X108130000Y-103325000D01*
X110035000Y-105230000D02*
X110035000Y-108130000D01*
%TO.C,J42*%
X98020000Y-95900000D02*
X98020000Y-96100000D01*
X95020000Y-95900000D02*
X95820000Y-95900000D01*
X97220000Y-98900000D02*
X97220000Y-99400000D01*
X97220000Y-95900000D02*
X98020000Y-95900000D01*
X95020000Y-96100000D02*
X95020000Y-95900000D01*
X98020000Y-98900000D02*
X97220000Y-98900000D01*
X95820000Y-98900000D02*
X95220000Y-98900000D01*
X95820000Y-98900000D02*
X95820000Y-99400000D01*
X95220000Y-98900000D02*
X95020000Y-98700000D01*
X98020000Y-98700000D02*
X98020000Y-98900000D01*
%TO.C,J41*%
X93165000Y-105230000D02*
X93165000Y-108130000D01*
X95070000Y-110035000D02*
X97970000Y-110035000D01*
X95070000Y-103325000D02*
X97970000Y-103325000D01*
X99875000Y-105230000D02*
X99875000Y-108130000D01*
%TO.C,J40*%
X87860000Y-95900000D02*
X87860000Y-96100000D01*
X84860000Y-95900000D02*
X85660000Y-95900000D01*
X87060000Y-98900000D02*
X87060000Y-99400000D01*
X87060000Y-95900000D02*
X87860000Y-95900000D01*
X84860000Y-96100000D02*
X84860000Y-95900000D01*
X87860000Y-98900000D02*
X87060000Y-98900000D01*
X85660000Y-98900000D02*
X85060000Y-98900000D01*
X85660000Y-98900000D02*
X85660000Y-99400000D01*
X85060000Y-98900000D02*
X84860000Y-98700000D01*
X87860000Y-98700000D02*
X87860000Y-98900000D01*
%TO.C,J39*%
X83005000Y-105230000D02*
X83005000Y-108130000D01*
X84910000Y-110035000D02*
X87810000Y-110035000D01*
X84910000Y-103325000D02*
X87810000Y-103325000D01*
X89715000Y-105230000D02*
X89715000Y-108130000D01*
%TO.C,J38*%
X77700000Y-95900000D02*
X77700000Y-96100000D01*
X74700000Y-95900000D02*
X75500000Y-95900000D01*
X76900000Y-98900000D02*
X76900000Y-99400000D01*
X76900000Y-95900000D02*
X77700000Y-95900000D01*
X74700000Y-96100000D02*
X74700000Y-95900000D01*
X77700000Y-98900000D02*
X76900000Y-98900000D01*
X75500000Y-98900000D02*
X74900000Y-98900000D01*
X75500000Y-98900000D02*
X75500000Y-99400000D01*
X74900000Y-98900000D02*
X74700000Y-98700000D01*
X77700000Y-98700000D02*
X77700000Y-98900000D01*
%TO.C,J37*%
X72845000Y-105230000D02*
X72845000Y-108130000D01*
X74750000Y-110035000D02*
X77650000Y-110035000D01*
X74750000Y-103325000D02*
X77650000Y-103325000D01*
X79555000Y-105230000D02*
X79555000Y-108130000D01*
%TO.C,J36*%
X158980000Y-78120000D02*
X158980000Y-78320000D01*
X155980000Y-78120000D02*
X156780000Y-78120000D01*
X158180000Y-81120000D02*
X158180000Y-81620000D01*
X158180000Y-78120000D02*
X158980000Y-78120000D01*
X155980000Y-78320000D02*
X155980000Y-78120000D01*
X158980000Y-81120000D02*
X158180000Y-81120000D01*
X156780000Y-81120000D02*
X156180000Y-81120000D01*
X156780000Y-81120000D02*
X156780000Y-81620000D01*
X156180000Y-81120000D02*
X155980000Y-80920000D01*
X158980000Y-80920000D02*
X158980000Y-81120000D01*
%TO.C,J35*%
X154125000Y-87450000D02*
X154125000Y-90350000D01*
X156030000Y-92255000D02*
X158930000Y-92255000D01*
X156030000Y-85545000D02*
X158930000Y-85545000D01*
X160835000Y-87450000D02*
X160835000Y-90350000D01*
%TO.C,J34*%
X148820000Y-78120000D02*
X148820000Y-78320000D01*
X145820000Y-78120000D02*
X146620000Y-78120000D01*
X148020000Y-81120000D02*
X148020000Y-81620000D01*
X148020000Y-78120000D02*
X148820000Y-78120000D01*
X145820000Y-78320000D02*
X145820000Y-78120000D01*
X148820000Y-81120000D02*
X148020000Y-81120000D01*
X146620000Y-81120000D02*
X146020000Y-81120000D01*
X146620000Y-81120000D02*
X146620000Y-81620000D01*
X146020000Y-81120000D02*
X145820000Y-80920000D01*
X148820000Y-80920000D02*
X148820000Y-81120000D01*
%TO.C,J33*%
X143965000Y-87450000D02*
X143965000Y-90350000D01*
X145870000Y-92255000D02*
X148770000Y-92255000D01*
X145870000Y-85545000D02*
X148770000Y-85545000D01*
X150675000Y-87450000D02*
X150675000Y-90350000D01*
%TO.C,J32*%
X138660000Y-78120000D02*
X138660000Y-78320000D01*
X135660000Y-78120000D02*
X136460000Y-78120000D01*
X137860000Y-81120000D02*
X137860000Y-81620000D01*
X137860000Y-78120000D02*
X138660000Y-78120000D01*
X135660000Y-78320000D02*
X135660000Y-78120000D01*
X138660000Y-81120000D02*
X137860000Y-81120000D01*
X136460000Y-81120000D02*
X135860000Y-81120000D01*
X136460000Y-81120000D02*
X136460000Y-81620000D01*
X135860000Y-81120000D02*
X135660000Y-80920000D01*
X138660000Y-80920000D02*
X138660000Y-81120000D01*
%TO.C,J31*%
X133805000Y-87450000D02*
X133805000Y-90350000D01*
X135710000Y-92255000D02*
X138610000Y-92255000D01*
X135710000Y-85545000D02*
X138610000Y-85545000D01*
X140515000Y-87450000D02*
X140515000Y-90350000D01*
%TO.C,J30*%
X128500000Y-78120000D02*
X128500000Y-78320000D01*
X125500000Y-78120000D02*
X126300000Y-78120000D01*
X127700000Y-81120000D02*
X127700000Y-81620000D01*
X127700000Y-78120000D02*
X128500000Y-78120000D01*
X125500000Y-78320000D02*
X125500000Y-78120000D01*
X128500000Y-81120000D02*
X127700000Y-81120000D01*
X126300000Y-81120000D02*
X125700000Y-81120000D01*
X126300000Y-81120000D02*
X126300000Y-81620000D01*
X125700000Y-81120000D02*
X125500000Y-80920000D01*
X128500000Y-80920000D02*
X128500000Y-81120000D01*
%TO.C,J29*%
X123645000Y-87450000D02*
X123645000Y-90350000D01*
X125550000Y-92255000D02*
X128450000Y-92255000D01*
X125550000Y-85545000D02*
X128450000Y-85545000D01*
X130355000Y-87450000D02*
X130355000Y-90350000D01*
%TO.C,J28*%
X118340000Y-78120000D02*
X118340000Y-78320000D01*
X115340000Y-78120000D02*
X116140000Y-78120000D01*
X117540000Y-81120000D02*
X117540000Y-81620000D01*
X117540000Y-78120000D02*
X118340000Y-78120000D01*
X115340000Y-78320000D02*
X115340000Y-78120000D01*
X118340000Y-81120000D02*
X117540000Y-81120000D01*
X116140000Y-81120000D02*
X115540000Y-81120000D01*
X116140000Y-81120000D02*
X116140000Y-81620000D01*
X115540000Y-81120000D02*
X115340000Y-80920000D01*
X118340000Y-80920000D02*
X118340000Y-81120000D01*
%TO.C,J27*%
X113485000Y-87450000D02*
X113485000Y-90350000D01*
X115390000Y-92255000D02*
X118290000Y-92255000D01*
X115390000Y-85545000D02*
X118290000Y-85545000D01*
X120195000Y-87450000D02*
X120195000Y-90350000D01*
%TO.C,J26*%
X108180000Y-78120000D02*
X108180000Y-78320000D01*
X105180000Y-78120000D02*
X105980000Y-78120000D01*
X107380000Y-81120000D02*
X107380000Y-81620000D01*
X107380000Y-78120000D02*
X108180000Y-78120000D01*
X105180000Y-78320000D02*
X105180000Y-78120000D01*
X108180000Y-81120000D02*
X107380000Y-81120000D01*
X105980000Y-81120000D02*
X105380000Y-81120000D01*
X105980000Y-81120000D02*
X105980000Y-81620000D01*
X105380000Y-81120000D02*
X105180000Y-80920000D01*
X108180000Y-80920000D02*
X108180000Y-81120000D01*
%TO.C,J25*%
X103325000Y-87450000D02*
X103325000Y-90350000D01*
X105230000Y-92255000D02*
X108130000Y-92255000D01*
X105230000Y-85545000D02*
X108130000Y-85545000D01*
X110035000Y-87450000D02*
X110035000Y-90350000D01*
%TO.C,J24*%
X98020000Y-78120000D02*
X98020000Y-78320000D01*
X95020000Y-78120000D02*
X95820000Y-78120000D01*
X97220000Y-81120000D02*
X97220000Y-81620000D01*
X97220000Y-78120000D02*
X98020000Y-78120000D01*
X95020000Y-78320000D02*
X95020000Y-78120000D01*
X98020000Y-81120000D02*
X97220000Y-81120000D01*
X95820000Y-81120000D02*
X95220000Y-81120000D01*
X95820000Y-81120000D02*
X95820000Y-81620000D01*
X95220000Y-81120000D02*
X95020000Y-80920000D01*
X98020000Y-80920000D02*
X98020000Y-81120000D01*
%TO.C,J23*%
X93165000Y-87450000D02*
X93165000Y-90350000D01*
X95070000Y-92255000D02*
X97970000Y-92255000D01*
X95070000Y-85545000D02*
X97970000Y-85545000D01*
X99875000Y-87450000D02*
X99875000Y-90350000D01*
%TO.C,J22*%
X87860000Y-78120000D02*
X87860000Y-78320000D01*
X84860000Y-78120000D02*
X85660000Y-78120000D01*
X87060000Y-81120000D02*
X87060000Y-81620000D01*
X87060000Y-78120000D02*
X87860000Y-78120000D01*
X84860000Y-78320000D02*
X84860000Y-78120000D01*
X87860000Y-81120000D02*
X87060000Y-81120000D01*
X85660000Y-81120000D02*
X85060000Y-81120000D01*
X85660000Y-81120000D02*
X85660000Y-81620000D01*
X85060000Y-81120000D02*
X84860000Y-80920000D01*
X87860000Y-80920000D02*
X87860000Y-81120000D01*
%TO.C,J21*%
X83005000Y-87450000D02*
X83005000Y-90350000D01*
X84910000Y-92255000D02*
X87810000Y-92255000D01*
X84910000Y-85545000D02*
X87810000Y-85545000D01*
X89715000Y-87450000D02*
X89715000Y-90350000D01*
%TO.C,J20*%
X77700000Y-78120000D02*
X77700000Y-78320000D01*
X74700000Y-78120000D02*
X75500000Y-78120000D01*
X76900000Y-81120000D02*
X76900000Y-81620000D01*
X76900000Y-78120000D02*
X77700000Y-78120000D01*
X74700000Y-78320000D02*
X74700000Y-78120000D01*
X77700000Y-81120000D02*
X76900000Y-81120000D01*
X75500000Y-81120000D02*
X74900000Y-81120000D01*
X75500000Y-81120000D02*
X75500000Y-81620000D01*
X74900000Y-81120000D02*
X74700000Y-80920000D01*
X77700000Y-80920000D02*
X77700000Y-81120000D01*
%TO.C,J19*%
X72845000Y-87450000D02*
X72845000Y-90350000D01*
X74750000Y-92255000D02*
X77650000Y-92255000D01*
X74750000Y-85545000D02*
X77650000Y-85545000D01*
X79555000Y-87450000D02*
X79555000Y-90350000D01*
%TO.C,J18*%
X158980000Y-60340000D02*
X158980000Y-60540000D01*
X155980000Y-60340000D02*
X156780000Y-60340000D01*
X158180000Y-63340000D02*
X158180000Y-63840000D01*
X158180000Y-60340000D02*
X158980000Y-60340000D01*
X155980000Y-60540000D02*
X155980000Y-60340000D01*
X158980000Y-63340000D02*
X158180000Y-63340000D01*
X156780000Y-63340000D02*
X156180000Y-63340000D01*
X156780000Y-63340000D02*
X156780000Y-63840000D01*
X156180000Y-63340000D02*
X155980000Y-63140000D01*
X158980000Y-63140000D02*
X158980000Y-63340000D01*
%TO.C,J17*%
X154125000Y-69670000D02*
X154125000Y-72570000D01*
X156030000Y-74475000D02*
X158930000Y-74475000D01*
X156030000Y-67765000D02*
X158930000Y-67765000D01*
X160835000Y-69670000D02*
X160835000Y-72570000D01*
%TO.C,J16*%
X148820000Y-60340000D02*
X148820000Y-60540000D01*
X145820000Y-60340000D02*
X146620000Y-60340000D01*
X148020000Y-63340000D02*
X148020000Y-63840000D01*
X148020000Y-60340000D02*
X148820000Y-60340000D01*
X145820000Y-60540000D02*
X145820000Y-60340000D01*
X148820000Y-63340000D02*
X148020000Y-63340000D01*
X146620000Y-63340000D02*
X146020000Y-63340000D01*
X146620000Y-63340000D02*
X146620000Y-63840000D01*
X146020000Y-63340000D02*
X145820000Y-63140000D01*
X148820000Y-63140000D02*
X148820000Y-63340000D01*
%TO.C,J15*%
X143965000Y-69670000D02*
X143965000Y-72570000D01*
X145870000Y-74475000D02*
X148770000Y-74475000D01*
X145870000Y-67765000D02*
X148770000Y-67765000D01*
X150675000Y-69670000D02*
X150675000Y-72570000D01*
%TO.C,J14*%
X138660000Y-60340000D02*
X138660000Y-60540000D01*
X135660000Y-60340000D02*
X136460000Y-60340000D01*
X137860000Y-63340000D02*
X137860000Y-63840000D01*
X137860000Y-60340000D02*
X138660000Y-60340000D01*
X135660000Y-60540000D02*
X135660000Y-60340000D01*
X138660000Y-63340000D02*
X137860000Y-63340000D01*
X136460000Y-63340000D02*
X135860000Y-63340000D01*
X136460000Y-63340000D02*
X136460000Y-63840000D01*
X135860000Y-63340000D02*
X135660000Y-63140000D01*
X138660000Y-63140000D02*
X138660000Y-63340000D01*
%TO.C,J13*%
X133805000Y-69670000D02*
X133805000Y-72570000D01*
X135710000Y-74475000D02*
X138610000Y-74475000D01*
X135710000Y-67765000D02*
X138610000Y-67765000D01*
X140515000Y-69670000D02*
X140515000Y-72570000D01*
%TO.C,J12*%
X128500000Y-60340000D02*
X128500000Y-60540000D01*
X125500000Y-60340000D02*
X126300000Y-60340000D01*
X127700000Y-63340000D02*
X127700000Y-63840000D01*
X127700000Y-60340000D02*
X128500000Y-60340000D01*
X125500000Y-60540000D02*
X125500000Y-60340000D01*
X128500000Y-63340000D02*
X127700000Y-63340000D01*
X126300000Y-63340000D02*
X125700000Y-63340000D01*
X126300000Y-63340000D02*
X126300000Y-63840000D01*
X125700000Y-63340000D02*
X125500000Y-63140000D01*
X128500000Y-63140000D02*
X128500000Y-63340000D01*
%TO.C,J11*%
X123645000Y-69670000D02*
X123645000Y-72570000D01*
X125550000Y-74475000D02*
X128450000Y-74475000D01*
X125550000Y-67765000D02*
X128450000Y-67765000D01*
X130355000Y-69670000D02*
X130355000Y-72570000D01*
%TO.C,J10*%
X118340000Y-60340000D02*
X118340000Y-60540000D01*
X115340000Y-60340000D02*
X116140000Y-60340000D01*
X117540000Y-63340000D02*
X117540000Y-63840000D01*
X117540000Y-60340000D02*
X118340000Y-60340000D01*
X115340000Y-60540000D02*
X115340000Y-60340000D01*
X118340000Y-63340000D02*
X117540000Y-63340000D01*
X116140000Y-63340000D02*
X115540000Y-63340000D01*
X116140000Y-63340000D02*
X116140000Y-63840000D01*
X115540000Y-63340000D02*
X115340000Y-63140000D01*
X118340000Y-63140000D02*
X118340000Y-63340000D01*
%TO.C,J9*%
X113485000Y-69670000D02*
X113485000Y-72570000D01*
X115390000Y-74475000D02*
X118290000Y-74475000D01*
X115390000Y-67765000D02*
X118290000Y-67765000D01*
X120195000Y-69670000D02*
X120195000Y-72570000D01*
%TO.C,J8*%
X108180000Y-60340000D02*
X108180000Y-60540000D01*
X105180000Y-60340000D02*
X105980000Y-60340000D01*
X107380000Y-63340000D02*
X107380000Y-63840000D01*
X107380000Y-60340000D02*
X108180000Y-60340000D01*
X105180000Y-60540000D02*
X105180000Y-60340000D01*
X108180000Y-63340000D02*
X107380000Y-63340000D01*
X105980000Y-63340000D02*
X105380000Y-63340000D01*
X105980000Y-63340000D02*
X105980000Y-63840000D01*
X105380000Y-63340000D02*
X105180000Y-63140000D01*
X108180000Y-63140000D02*
X108180000Y-63340000D01*
%TO.C,J7*%
X103325000Y-69670000D02*
X103325000Y-72570000D01*
X105230000Y-74475000D02*
X108130000Y-74475000D01*
X105230000Y-67765000D02*
X108130000Y-67765000D01*
X110035000Y-69670000D02*
X110035000Y-72570000D01*
%TO.C,J6*%
X98020000Y-60340000D02*
X98020000Y-60540000D01*
X95020000Y-60340000D02*
X95820000Y-60340000D01*
X97220000Y-63340000D02*
X97220000Y-63840000D01*
X97220000Y-60340000D02*
X98020000Y-60340000D01*
X95020000Y-60540000D02*
X95020000Y-60340000D01*
X98020000Y-63340000D02*
X97220000Y-63340000D01*
X95820000Y-63340000D02*
X95220000Y-63340000D01*
X95820000Y-63340000D02*
X95820000Y-63840000D01*
X95220000Y-63340000D02*
X95020000Y-63140000D01*
X98020000Y-63140000D02*
X98020000Y-63340000D01*
%TO.C,J5*%
X93165000Y-69670000D02*
X93165000Y-72570000D01*
X95070000Y-74475000D02*
X97970000Y-74475000D01*
X95070000Y-67765000D02*
X97970000Y-67765000D01*
X99875000Y-69670000D02*
X99875000Y-72570000D01*
%TO.C,J4*%
X87860000Y-60340000D02*
X87860000Y-60540000D01*
X84860000Y-60340000D02*
X85660000Y-60340000D01*
X87060000Y-63340000D02*
X87060000Y-63840000D01*
X87060000Y-60340000D02*
X87860000Y-60340000D01*
X84860000Y-60540000D02*
X84860000Y-60340000D01*
X87860000Y-63340000D02*
X87060000Y-63340000D01*
X85660000Y-63340000D02*
X85060000Y-63340000D01*
X85660000Y-63340000D02*
X85660000Y-63840000D01*
X85060000Y-63340000D02*
X84860000Y-63140000D01*
X87860000Y-63140000D02*
X87860000Y-63340000D01*
%TO.C,J3*%
X83005000Y-69670000D02*
X83005000Y-72570000D01*
X84910000Y-74475000D02*
X87810000Y-74475000D01*
X84910000Y-67765000D02*
X87810000Y-67765000D01*
X89715000Y-69670000D02*
X89715000Y-72570000D01*
%TO.C,J1*%
X72845000Y-69670000D02*
X72845000Y-72570000D01*
X74750000Y-74475000D02*
X77650000Y-74475000D01*
X74750000Y-67765000D02*
X77650000Y-67765000D01*
X79555000Y-69670000D02*
X79555000Y-72570000D01*
%TO.C,J2*%
X77700000Y-60340000D02*
X77700000Y-60540000D01*
X74700000Y-60340000D02*
X75500000Y-60340000D01*
X76900000Y-63340000D02*
X76900000Y-63840000D01*
X76900000Y-60340000D02*
X77700000Y-60340000D01*
X74700000Y-60540000D02*
X74700000Y-60340000D01*
X77700000Y-63340000D02*
X76900000Y-63340000D01*
X75500000Y-63340000D02*
X74900000Y-63340000D01*
X75500000Y-63340000D02*
X75500000Y-63840000D01*
X74900000Y-63340000D02*
X74700000Y-63140000D01*
X77700000Y-63140000D02*
X77700000Y-63340000D01*
%TD*%
M02*
